<?xml version="1.0" encoding="UTF-8" standalone="no"?><svg xmlns="http://www.w3.org/2000/svg" xmlns:xlink="http://www.w3.org/1999/xlink" contentScriptType="application/ecmascript" contentStyleType="text/css" height="1028px" preserveAspectRatio="none" style="width:782px;height:1028px;" version="1.1" viewBox="0 0 782 1028" width="782px" zoomAndPan="magnify"><defs/><g><!--cluster Dependencies--><path d="M592,110 L678,110 A3,3 0 0 1 680,112 L687,130.4844 L768,130.4844 A2,2 0 0 1 770,132.4844 L770,715 A2,2 0 0 1 768,717 L592,717 A2,2 0 0 1 590,715 L590,112 A2,2 0 0 1 592,110 " fill="#FFFFFF" style="stroke: #000000; stroke-width: 1.5;"/><line style="stroke: #000000; stroke-width: 1.5;" x1="590" x2="687" y1="130.4844" y2="130.4844"/><text fill="#000000" font-family="Tahoma, sans-serif" font-size="12" font-weight="bold" lengthAdjust="spacingAndGlyphs" textLength="84" x="594" y="124.0059">Dependencies</text><!--entity brace--><rect fill="#F8F8F8" height="34.4844" rx="2" ry="2" style="stroke: #383838; stroke-width: 1.0;" width="50" x="655" y="243"/><rect fill="#F8F8F8" height="5" style="stroke: #383838; stroke-width: 1.0;" width="10" x="650" y="248"/><rect fill="#F8F8F8" height="5" style="stroke: #383838; stroke-width: 1.0;" width="10" x="650" y="267.4844"/><text fill="#000000" font-family="Tahoma, sans-serif" font-size="12" lengthAdjust="spacingAndGlyphs" textLength="30" x="665" y="265.0059">brace</text><!--entity plantuml-encoder-decoder--><rect fill="#F8F8F8" height="34.4844" rx="2" ry="2" style="stroke: #383838; stroke-width: 1.0;" width="164" x="598" y="405"/><rect fill="#F8F8F8" height="5" style="stroke: #383838; stroke-width: 1.0;" width="10" x="593" y="410"/><rect fill="#F8F8F8" height="5" style="stroke: #383838; stroke-width: 1.0;" width="10" x="593" y="429.4844"/><text fill="#000000" font-family="Tahoma, sans-serif" font-size="12" lengthAdjust="spacingAndGlyphs" textLength="144" x="608" y="427.0059">plantuml-encoder-decoder</text><!--entity react--><rect fill="#F8F8F8" height="34.4844" rx="2" ry="2" style="stroke: #383838; stroke-width: 1.0;" width="48" x="656" y="567"/><rect fill="#F8F8F8" height="5" style="stroke: #383838; stroke-width: 1.0;" width="10" x="651" y="572"/><rect fill="#F8F8F8" height="5" style="stroke: #383838; stroke-width: 1.0;" width="10" x="651" y="591.4844"/><text fill="#000000" font-family="Tahoma, sans-serif" font-size="12" lengthAdjust="spacingAndGlyphs" textLength="28" x="666" y="589.0059">react</text><!--entity react-ace--><rect fill="#F8F8F8" height="34.4844" rx="2" ry="2" style="stroke: #383838; stroke-width: 1.0;" width="71" x="644.5" y="297"/><rect fill="#F8F8F8" height="5" style="stroke: #383838; stroke-width: 1.0;" width="10" x="639.5" y="302"/><rect fill="#F8F8F8" height="5" style="stroke: #383838; stroke-width: 1.0;" width="10" x="639.5" y="321.4844"/><text fill="#000000" font-family="Tahoma, sans-serif" font-size="12" lengthAdjust="spacingAndGlyphs" textLength="51" x="654.5" y="319.0059">react-ace</text><!--entity react-dom--><rect fill="#F8F8F8" height="34.4844" rx="2" ry="2" style="stroke: #383838; stroke-width: 1.0;" width="76" x="642" y="135"/><rect fill="#F8F8F8" height="5" style="stroke: #383838; stroke-width: 1.0;" width="10" x="637" y="140"/><rect fill="#F8F8F8" height="5" style="stroke: #383838; stroke-width: 1.0;" width="10" x="637" y="159.4844"/><text fill="#000000" font-family="Tahoma, sans-serif" font-size="12" lengthAdjust="spacingAndGlyphs" textLength="56" x="652" y="157.0059">react-dom</text><!--entity react-loader-spinner--><rect fill="#F8F8F8" height="34.4844" rx="2" ry="2" style="stroke: #383838; stroke-width: 1.0;" width="128" x="616" y="621"/><rect fill="#F8F8F8" height="5" style="stroke: #383838; stroke-width: 1.0;" width="10" x="611" y="626"/><rect fill="#F8F8F8" height="5" style="stroke: #383838; stroke-width: 1.0;" width="10" x="611" y="645.4844"/><text fill="#000000" font-family="Tahoma, sans-serif" font-size="12" lengthAdjust="spacingAndGlyphs" textLength="108" x="626" y="643.0059">react-loader-spinner</text><!--entity react-redux--><rect fill="#F8F8F8" height="34.4844" rx="2" ry="2" style="stroke: #383838; stroke-width: 1.0;" width="83" x="638.5" y="351"/><rect fill="#F8F8F8" height="5" style="stroke: #383838; stroke-width: 1.0;" width="10" x="633.5" y="356"/><rect fill="#F8F8F8" height="5" style="stroke: #383838; stroke-width: 1.0;" width="10" x="633.5" y="375.4844"/><text fill="#000000" font-family="Tahoma, sans-serif" font-size="12" lengthAdjust="spacingAndGlyphs" textLength="63" x="648.5" y="373.0059">react-redux</text><!--entity redux--><rect fill="#F8F8F8" height="34.4844" rx="2" ry="2" style="stroke: #383838; stroke-width: 1.0;" width="51" x="654.5" y="459"/><rect fill="#F8F8F8" height="5" style="stroke: #383838; stroke-width: 1.0;" width="10" x="649.5" y="464"/><rect fill="#F8F8F8" height="5" style="stroke: #383838; stroke-width: 1.0;" width="10" x="649.5" y="483.4844"/><text fill="#000000" font-family="Tahoma, sans-serif" font-size="12" lengthAdjust="spacingAndGlyphs" textLength="31" x="664.5" y="481.0059">redux</text><!--entity redux-persist--><rect fill="#F8F8F8" height="34.4844" rx="2" ry="2" style="stroke: #383838; stroke-width: 1.0;" width="90" x="635" y="513"/><rect fill="#F8F8F8" height="5" style="stroke: #383838; stroke-width: 1.0;" width="10" x="630" y="518"/><rect fill="#F8F8F8" height="5" style="stroke: #383838; stroke-width: 1.0;" width="10" x="630" y="537.4844"/><text fill="#000000" font-family="Tahoma, sans-serif" font-size="12" lengthAdjust="spacingAndGlyphs" textLength="70" x="645" y="535.0059">redux-persist</text><!--entity styled-components--><rect fill="#F8F8F8" height="34.4844" rx="2" ry="2" style="stroke: #383838; stroke-width: 1.0;" width="124" x="618" y="675"/><rect fill="#F8F8F8" height="5" style="stroke: #383838; stroke-width: 1.0;" width="10" x="613" y="680"/><rect fill="#F8F8F8" height="5" style="stroke: #383838; stroke-width: 1.0;" width="10" x="613" y="699.4844"/><text fill="#000000" font-family="Tahoma, sans-serif" font-size="12" lengthAdjust="spacingAndGlyphs" textLength="104" x="628" y="697.0059">styled-components</text><!--entity styled-reset--><rect fill="#F8F8F8" height="34.4844" rx="2" ry="2" style="stroke: #383838; stroke-width: 1.0;" width="84" x="638" y="189"/><rect fill="#F8F8F8" height="5" style="stroke: #383838; stroke-width: 1.0;" width="10" x="633" y="194"/><rect fill="#F8F8F8" height="5" style="stroke: #383838; stroke-width: 1.0;" width="10" x="633" y="213.4844"/><text fill="#000000" font-family="Tahoma, sans-serif" font-size="12" lengthAdjust="spacingAndGlyphs" textLength="64" x="648" y="211.0059">styled-reset</text><!--entity _actions--><rect fill="#F8F8F8" height="34.4844" rx="2" ry="2" style="stroke: #000000; stroke-width: 0.6;" width="58" x="499" y="291"/><text fill="#000000" font-family="Tahoma, sans-serif" font-size="12" lengthAdjust="spacingAndGlyphs" textLength="38" x="509" y="313.0059">actions</text><ellipse cx="77.3757" cy="614.1751" fill="#F8F8F8" rx="71.3757" ry="16.6751" style="stroke: #383838; stroke-width: 0.6;"/><text fill="#000000" font-family="Tahoma, sans-serif" font-size="12" font-weight="bold" lengthAdjust="spacingAndGlyphs" textLength="116" x="19.3757" y="617.9173">components/index</text><!--entity _container--><rect fill="#F8F8F8" height="34.4844" rx="2" ry="2" style="stroke: #000000; stroke-width: 0.6;" width="71" x="387" y="843"/><text fill="#000000" font-family="Tahoma, sans-serif" font-size="12" lengthAdjust="spacingAndGlyphs" textLength="51" x="397" y="865.0059">container</text><!--entity _editor--><rect fill="#F8F8F8" height="34.4844" rx="2" ry="2" style="stroke: #000000; stroke-width: 0.6;" width="52" x="174.5" y="177"/><text fill="#000000" font-family="Tahoma, sans-serif" font-size="12" lengthAdjust="spacingAndGlyphs" textLength="32" x="184.5" y="199.0059">editor</text><!--entity _header--><rect fill="#F8F8F8" height="34.4844" rx="2" ry="2" style="stroke: #000000; stroke-width: 0.6;" width="58" x="393.5" y="951"/><text fill="#000000" font-family="Tahoma, sans-serif" font-size="12" lengthAdjust="spacingAndGlyphs" textLength="38" x="403.5" y="973.0059">header</text><!--entity _logo--><rect fill="#F8F8F8" height="34.4844" rx="2" ry="2" style="stroke: #000000; stroke-width: 0.6;" width="43" x="401" y="789"/><text fill="#000000" font-family="Tahoma, sans-serif" font-size="12" lengthAdjust="spacingAndGlyphs" textLength="23" x="411" y="811.0059">logo</text><!--entity _preview--><rect fill="#F8F8F8" height="34.4844" rx="2" ry="2" style="stroke: #000000; stroke-width: 0.6;" width="63" x="169" y="597"/><text fill="#000000" font-family="Tahoma, sans-serif" font-size="12" lengthAdjust="spacingAndGlyphs" textLength="43" x="179" y="619.0059">preview</text><!--entity _reducer--><rect fill="#F8F8F8" height="34.4844" rx="2" ry="2" style="stroke: #000000; stroke-width: 0.6;" width="62" x="391.5" y="417"/><text fill="#000000" font-family="Tahoma, sans-serif" font-size="12" lengthAdjust="spacingAndGlyphs" textLength="42" x="401.5" y="439.0059">reducer</text><!--entity _responsive_image--><rect fill="#F8F8F8" height="34.4844" rx="2" ry="2" style="stroke: #000000; stroke-width: 0.6;" width="113" x="366" y="735"/><text fill="#000000" font-family="Tahoma, sans-serif" font-size="12" lengthAdjust="spacingAndGlyphs" textLength="93" x="376" y="757.0059">responsive-image</text><!--entity _section--><rect fill="#F8F8F8" height="34.4844" rx="2" ry="2" style="stroke: #000000; stroke-width: 0.6;" width="59" x="393" y="897"/><text fill="#000000" font-family="Tahoma, sans-serif" font-size="12" lengthAdjust="spacingAndGlyphs" textLength="39" x="403" y="919.0059">section</text><!--entity _spinner--><rect fill="#F8F8F8" height="34.4844" rx="2" ry="2" style="stroke: #000000; stroke-width: 0.6;" width="59" x="393" y="681"/><text fill="#000000" font-family="Tahoma, sans-serif" font-size="12" lengthAdjust="spacingAndGlyphs" textLength="39" x="403" y="703.0059">spinner</text><ellipse cx="298.8406" cy="502.242" fill="#F8F8F8" rx="46.8406" ry="13.242" style="stroke: #383838; stroke-width: 0.6;"/><text fill="#000000" font-family="Tahoma, sans-serif" font-size="12" lengthAdjust="spacingAndGlyphs" textLength="62" x="267.8406" y="505.9842">store/index</text><!--link _actions to plantuml-encoder-decoder--><path d="M557.1208,321.3132 C564.9473,326.1725 572.7004,332.3875 578,340 C592.2949,360.5337 572.9993,376.6437 590,395 C592.3278,397.5134 594.8793,399.7961 597.6021,401.8691 " fill="none" id="_actions-plantuml-encoder-decoder" style="stroke: #383838; stroke-width: 0.6;"/><polygon fill="#383838" points="602.0144,404.957,596.9343,396.5194,597.9179,402.0901,592.3473,403.0738,602.0144,404.957" style="stroke: #383838; stroke-width: 0.6;"/><!--link <b>components/index</b> to _container--><path d="M85.5467,630.5283 C99.399,657.5874 130.0536,711.7496 169,746 C232.5387,801.8775 327.9639,834.6917 381.7868,849.8221 " fill="none" id="&lt;b&gt;components/index&lt;/b&gt;-_container" style="stroke: #383838; stroke-width: 1.0;"/><polygon fill="#383838" points="386.8631,851.2313,379.261,844.9697,382.0453,849.8939,377.1211,852.6782,386.8631,851.2313" style="stroke: #383838; stroke-width: 1.0;"/><!--link <b>components/index</b> to _editor--><path d="M79.7064,597.167 C87.1176,543.7103 113.8138,373.6914 169,244 C173.1351,234.2822 179.0378,224.2953 184.618,215.8268 " fill="none" id="&lt;b&gt;components/index&lt;/b&gt;-_editor" style="stroke: #383838; stroke-width: 1.0;"/><polygon fill="#383838" points="187.6717,211.2897,179.328,216.5226,184.8799,215.4377,185.9648,220.9895,187.6717,211.2897" style="stroke: #383838; stroke-width: 1.0;"/><!--link <b>components/index</b> to _header--><path d="M80.3978,630.6894 C88.2028,671.5062 112.9769,777.9946 169,846 C226.4621,915.7521 333.29,948.4074 388.104,961.1524 " fill="none" id="&lt;b&gt;components/index&lt;/b&gt;-_header" style="stroke: #383838; stroke-width: 1.0;"/><polygon fill="#383838" points="393.2428,962.3242,385.3575,956.4232,388.368,961.2125,383.5787,964.223,393.2428,962.3242" style="stroke: #383838; stroke-width: 1.0;"/><!--link <b>components/index</b> to _logo--><path d="M89.7516,630.3866 C105.8982,650.9882 136.1278,686.2803 169,708 C243.8274,757.4409 347.2871,787.489 395.6112,799.6863 " fill="none" id="&lt;b&gt;components/index&lt;/b&gt;-_logo" style="stroke: #383838; stroke-width: 1.0;"/><polygon fill="#383838" points="400.6699,800.9486,392.9061,794.8886,395.8187,799.738,390.9692,802.6506,400.6699,800.9486" style="stroke: #383838; stroke-width: 1.0;"/><!--link <b>components/index</b> to _preview--><path d="M149.0496,614 C154.0951,614 159.0479,614 163.767,614 " fill="none" id="&lt;b&gt;components/index&lt;/b&gt;-_preview" style="stroke: #383838; stroke-width: 1.0;"/><polygon fill="#383838" points="168.7895,614,159.7895,610,163.7895,614,159.7895,618,168.7895,614" style="stroke: #383838; stroke-width: 1.0;"/><!--link <b>components/index</b> to react--><path d="M116.134,628.0739 C132.2449,633.2374 151.2962,638.4425 169,641 C265.5858,654.953 336.1218,671.9487 557,624 C572.4049,620.6559 575.1042,616.1582 590,611 C610.149,604.0227 633.1854,597.1315 650.9078,592.0575 " fill="none" id="&lt;b&gt;components/index&lt;/b&gt;-react" style="stroke: #383838; stroke-width: 1.0;"/><polygon fill="#383838" points="655.7587,590.676,646.0073,589.2942,650.9499,592.0455,648.1985,596.9882,655.7587,590.676" style="stroke: #383838; stroke-width: 1.0;"/><!--link <b>components/index</b> to react-dom--><path d="M78.8813,597.4495 C85.6067,519.6896 116.7403,190.7934 169,104 C206.049,42.4688 227.1758,8 299,8 C299,8 299,8 528,8 C598.2108,8 649.0013,89.9719 669.7088,130.2224 " fill="none" id="&lt;b&gt;components/index&lt;/b&gt;-react-dom" style="stroke: #383838; stroke-width: 1.0;"/><polygon fill="#383838" points="672.0843,134.9158,671.5891,125.0794,669.8264,130.4546,664.4512,128.692,672.0843,134.9158" style="stroke: #383838; stroke-width: 1.0;"/><!--link <b>components/index</b> to react-redux--><path d="M84.5617,597.4727 C104.6532,552.1073 166.2678,423.9215 252,347 C294.3124,309.036 312.2543,307.5203 366,289 C446.9977,261.089 483.9055,218.314 557,263 C574.4678,273.6788 570.1502,285.0912 578,304 C584.6283,319.9665 577.641,328.912 590,341 C601.5255,352.2728 617.5651,358.8658 632.9159,362.7123 " fill="none" id="&lt;b&gt;components/index&lt;/b&gt;-react-redux" style="stroke: #383838; stroke-width: 1.0;"/><polygon fill="#383838" points="638.0879,363.9142,630.227,357.9807,633.2177,362.7823,628.416,365.773,638.0879,363.9142" style="stroke: #383838; stroke-width: 1.0;"/><!--link <b>components/index</b> to redux-persist--><path d="M116.9562,600.1164 C160.828,585.9402 234.0767,566 299,566 C299,566 299,566 528,566 C547.6599,566 593.8078,554.4522 630.1334,544.4372 " fill="none" id="&lt;b&gt;components/index&lt;/b&gt;-redux-persist" style="stroke: #383838; stroke-width: 1.0;"/><polygon fill="#383838" points="634.9636,543.0987,625.2222,541.6475,630.1452,544.434,627.3587,549.3569,634.9636,543.0987" style="stroke: #383838; stroke-width: 1.0;"/><!--link <b>components/index</b> to _section--><path d="M82.3897,630.5123 C93.1729,664.6043 121.8497,743.7811 169,794 C230.1848,859.1669 333.9768,892.5794 387.8052,906.2687 " fill="none" id="&lt;b&gt;components/index&lt;/b&gt;-_section" style="stroke: #383838; stroke-width: 1.0;"/><polygon fill="#383838" points="392.8553,907.5323,385.0955,901.4672,388.0048,906.3186,383.1535,909.228,392.8553,907.5323" style="stroke: #383838; stroke-width: 1.0;"/><!--link <b>components/index</b> to store/index--><path d="M97.2542,597.9333 C115.1693,583.9246 142.7196,563.7498 169,550 C198.9018,534.3555 235.0648,521.4443 261.6503,512.968 " fill="none" id="&lt;b&gt;components/index&lt;/b&gt;-store/index" style="stroke: #383838; stroke-width: 1.0;"/><polygon fill="#383838" points="266.4993,511.4372,256.7126,510.3322,261.7313,512.9425,259.121,517.9611,266.4993,511.4372" style="stroke: #383838; stroke-width: 1.0;"/><!--link <b>components/index</b> to styled-components--><path d="M78.59,630.5083 C84.5531,706.1543 119.9086,1016 299,1016 C299,1016 299,1016 528,1016 C594.7438,1016 656.5159,787.8027 674.6526,714.4297 " fill="none" id="&lt;b&gt;components/index&lt;/b&gt;-styled-components" style="stroke: #383838; stroke-width: 1.0;"/><polygon fill="#383838" points="675.8825,709.4196,669.852,717.2063,674.6904,714.2754,677.6213,719.1137,675.8825,709.4196" style="stroke: #383838; stroke-width: 1.0;"/><!--link <b>components/index</b> to styled-reset--><path d="M79.5353,597.483 C88.5329,526.1029 126.1917,244.2553 169,167 C206.6751,99.0084 221.2679,50 299,50 C299,50 299,50 528,50 C560.0617,50 565.0142,72.6858 578,102 C592.0282,133.6672 567.241,152.8919 590,179 C600.69,191.2631 616.7092,198.0692 632.2833,201.809 " fill="none" id="&lt;b&gt;components/index&lt;/b&gt;-styled-reset" style="stroke: #383838; stroke-width: 1.0;"/><polygon fill="#383838" points="637.5395,202.9632,629.6069,197.1259,632.6559,201.8908,627.891,204.9397,637.5395,202.9632" style="stroke: #383838; stroke-width: 1.0;"/><!--link _container to styled-components--><path d="M458.231,844.0319 C465.2274,840.5973 472.4292,836.839 479,833 C544.6054,794.6699 616.3009,741.3563 653.7973,712.5092 " fill="none" id="_container-styled-components" style="stroke: #383838; stroke-width: 0.6;"/><polygon fill="#383838" points="658.1978,709.1152,648.6284,711.4446,654.2387,712.1689,653.5143,717.7792,658.1978,709.1152" style="stroke: #383838; stroke-width: 0.6;"/><!--link _editor to _actions--><path d="M226.7471,203.1364 C285.6241,223.631 428.1993,273.2602 493.8586,296.1157 " fill="none" id="_editor-_actions" style="stroke: #383838; stroke-width: 0.6;"/><polygon fill="#383838" points="498.8309,297.8465,491.6463,291.11,494.1088,296.2027,489.0161,298.6653,498.8309,297.8465" style="stroke: #383838; stroke-width: 0.6;"/><!--link _editor to brace--><path d="M207.2549,176.6898 C215.1617,158.8903 230.034,131.8723 252,118 C316.8112,77.0695 345.8462,92 422.5,92 C422.5,92 422.5,92 528,92 C553.0471,92 563.9065,97.2942 578,118 C606.9154,160.4817 557.2237,193.4209 590,233 C604.4836,250.4896 629.8269,256.9422 649.9372,259.1894 " fill="none" id="_editor-brace" style="stroke: #383838; stroke-width: 0.6;"/><polygon fill="#383838" points="654.9275,259.6743,646.3567,254.8224,649.951,259.1906,645.5827,262.7849,654.9275,259.6743" style="stroke: #383838; stroke-width: 0.6;"/><!--link _editor to react-ace--><path d="M221.9071,176.8619 C230.7502,170.6097 241.4014,164.0793 252,160 C323.5378,132.4655 345.8462,134 422.5,134 C422.5,134 422.5,134 528,134 C553.0471,134 564.0077,139.2256 578,160 C593.8362,183.5121 572.0261,265.0787 590,287 C602.007,301.644 621.631,308.5589 639.495,311.7433 " fill="none" id="_editor-react-ace" style="stroke: #383838; stroke-width: 0.6;"/><polygon fill="#383838" points="644.4791,312.5458,636.2296,307.1657,639.5427,311.7508,634.9576,315.0639,644.4791,312.5458" style="stroke: #383838; stroke-width: 0.6;"/><!--link _editor to react-redux--><path d="M226.758,190.4867 C268.2469,185.2484 351.5439,176 422.5,176 C422.5,176 422.5,176 528,176 C553.0471,176 564.0919,181.1692 578,202 C595.2157,227.7848 570.4393,316.9456 590,341 C600.633,354.0757 617.3416,360.995 633.4902,364.5973 " fill="none" id="_editor-react-redux" style="stroke: #383838; stroke-width: 0.6;"/><polygon fill="#383838" points="638.4765,365.6119,630.4548,359.8976,633.5769,364.6149,628.8596,367.737,638.4765,365.6119" style="stroke: #383838; stroke-width: 0.6;"/><!--link _editor to _reducer--><path d="M216.4657,211.2602 C256.3064,254.3312 359.9972,366.4294 403.183,413.1168 " fill="none" id="_editor-_reducer" style="stroke: #383838; stroke-width: 0.6;"/><polygon fill="#383838" points="406.679,416.8962,403.504,407.5731,403.2838,413.2257,397.6312,413.0055,406.679,416.8962" style="stroke: #383838; stroke-width: 0.6;"/><!--link _header to styled-components--><path d="M451.6467,955.6598 C460.6529,951.4307 470.4478,946.3928 479,941 C516.6937,917.231 527.0239,910.9729 557,878 C605.5999,824.5414 648.7074,750.1793 668.5032,713.7997 " fill="none" id="_header-styled-components" style="stroke: #383838; stroke-width: 0.6;"/><polygon fill="#383838" points="671.027,709.1346,663.2264,715.1471,668.6479,713.5323,670.2627,718.9538,671.027,709.1346" style="stroke: #383838; stroke-width: 0.6;"/><!--link _logo to styled-components--><path d="M444.0114,796.4765 C486.3362,777.7385 581.1453,735.7648 636.8547,711.1012 " fill="none" id="_logo-styled-components" style="stroke: #383838; stroke-width: 0.6;"/><polygon fill="#383838" points="641.4583,709.0631,631.6095,709.049,636.8863,711.0872,634.8481,716.3641,641.4583,709.0631" style="stroke: #383838; stroke-width: 0.6;"/><!--link _preview to _actions--><path d="M201.2885,596.9435 C203.6774,563.725 213.2961,489.6205 252,444 C316.9107,367.4894 435.1507,330.0388 493.5191,315.519 " fill="none" id="_preview-_actions" style="stroke: #383838; stroke-width: 0.6;"/><polygon fill="#383838" points="498.6373,314.2665,488.9445,312.5203,493.7806,315.4549,490.846,320.291,498.6373,314.2665" style="stroke: #383838; stroke-width: 0.6;"/><!--link _preview to react--><path d="M232.109,612.6084 C275.159,610.8359 354.6419,608 422.5,608 C422.5,608 422.5,608 528,608 C571.1857,608 620.4379,598.4308 650.8765,591.3772 " fill="none" id="_preview-react" style="stroke: #383838; stroke-width: 0.6;"/><polygon fill="#383838" points="655.9655,590.1806,646.2889,588.3467,651.0982,591.325,648.12,596.1344,655.9655,590.1806" style="stroke: #383838; stroke-width: 0.6;"/><!--link _preview to react-redux--><path d="M202.7277,596.6766 C208.9554,550.3847 227.6936,425.0788 252,392 C286.7992,344.6413 312.469,349.2541 366,325 C405.6738,307.0244 519.5073,258.8317 557,281 C570.0986,288.7448 578.1649,331.4352 590,341 C602.3109,350.9493 618.2191,357.2354 633.2289,361.2058 " fill="none" id="_preview-react-redux" style="stroke: #383838; stroke-width: 0.6;"/><polygon fill="#383838" points="638.2783,362.4655,630.5142,356.4059,633.427,361.2552,628.5777,364.168,638.2783,362.4655" style="stroke: #383838; stroke-width: 0.6;"/><!--link _preview to _reducer--><path d="M202.104,596.6991 C205.7144,567.9384 217.1136,510.359 252,479 C289.1083,445.6438 348.0753,436.5206 386.0268,434.2945 " fill="none" id="_preview-_reducer" style="stroke: #383838; stroke-width: 0.6;"/><polygon fill="#383838" points="391.4686,434.014,382.2746,430.4827,386.4752,434.2714,382.6865,438.4721,391.4686,434.014" style="stroke: #383838; stroke-width: 0.6;"/><!--link _preview to _responsive_image--><path d="M212.4532,631.2518 C222.0002,644.0528 236.3373,661.2523 252,673 C286.8251,699.1204 331.6691,719.4745 366.6258,732.9767 " fill="none" id="_preview-_responsive_image" style="stroke: #383838; stroke-width: 0.6;"/><polygon fill="#383838" points="371.7092,734.919,364.7298,727.9701,367.0386,733.1343,361.8743,735.4431,371.7092,734.919" style="stroke: #383838; stroke-width: 0.6;"/><!--link _preview to _spinner--><path d="M232.3072,626.0352 C273.6359,641.6731 345.527,668.8751 388.0929,684.9811 " fill="none" id="_preview-_spinner" style="stroke: #383838; stroke-width: 0.6;"/><polygon fill="#383838" points="392.8802,686.7925,385.8781,679.8664,388.2037,685.0231,383.0471,687.3488,392.8802,686.7925" style="stroke: #383838; stroke-width: 0.6;"/><!--link _reducer to _actions--><path d="M453.6993,421.6436 C462.9102,416.711 472.306,410.2146 479,402 C497.2904,379.5549 484.5093,365.0667 499,340 C501.1576,336.2677 503.809,332.5976 506.6235,329.1501 " fill="none" id="_reducer-_actions" style="stroke: #383838; stroke-width: 0.6;"/><polygon fill="#383838" points="509.9826,325.2149,501.097,329.463,506.7363,329.0178,507.1816,334.6571,509.9826,325.2149" style="stroke: #383838; stroke-width: 0.6;"/><!--link _reducer to plantuml-encoder-decoder--><path d="M453.654,418.3391 C462.1689,413.5361 471.1945,407.9382 479,402 C489.0046,394.3887 487.3861,386.8106 499,382 C531.4384,368.5636 545.8366,367.9179 578,382 C585.2029,385.1537 583.3314,390.8338 590,395 C594.6607,397.9117 599.6532,400.5247 604.8095,402.8671 " fill="none" id="_reducer-plantuml-encoder-decoder" style="stroke: #383838; stroke-width: 0.6;"/><polygon fill="#383838" points="609.5862,404.943,602.9262,397.6873,605.0005,402.9502,599.7377,405.0244,609.5862,404.943" style="stroke: #383838; stroke-width: 0.6;"/><!--link _reducer to redux--><path d="M453.7651,421.8991 C487.1933,411.1214 540.4495,400.372 578,424 C588.4315,430.5639 580.6322,440.9909 590,449 C606.547,463.147 630.3,469.8817 649.2493,473.0876 " fill="none" id="_reducer-redux" style="stroke: #383838; stroke-width: 0.6;"/><polygon fill="#383838" points="654.4566,473.9015,646.1823,468.5597,649.5166,473.1294,644.9469,476.4637,654.4566,473.9015" style="stroke: #383838; stroke-width: 0.6;"/><!--link _reducer to redux-persist--><path d="M453.6283,447.9124 C486.9929,462.5665 541.6892,485.8505 590,503 C602.7573,507.5286 616.7009,511.9584 629.7211,515.8775 " fill="none" id="_reducer-redux-persist" style="stroke: #383838; stroke-width: 0.6;"/><polygon fill="#383838" points="634.8524,517.4103,627.3738,511.0016,630.0616,515.9792,625.084,518.6669,634.8524,517.4103" style="stroke: #383838; stroke-width: 0.6;"/><!--link _responsive_image to styled-components--><path d="M479.0095,738.8327 C518.4162,729.6506 571.1724,717.3579 612.7471,707.6706 " fill="none" id="_responsive_image-styled-components" style="stroke: #383838; stroke-width: 0.6;"/><polygon fill="#383838" points="617.7601,706.5025,608.0872,704.6493,612.8906,707.6372,609.9027,712.4406,617.7601,706.5025" style="stroke: #383838; stroke-width: 0.6;"/><!--link _section to styled-components--><path d="M452.2032,901.3451 C461.0471,897.1717 470.6112,892.2442 479,887 C558.1563,837.5163 631.6428,752.5677 663.4372,713.1883 " fill="none" id="_section-styled-components" style="stroke: #383838; stroke-width: 0.6;"/><polygon fill="#383838" points="666.7449,709.0691,657.991,713.5823,663.6144,712.9678,664.2289,718.5912,666.7449,709.0691" style="stroke: #383838; stroke-width: 0.6;"/><!--link _spinner to react-loader-spinner--><path d="M452.1477,692.4931 C483.5306,686.5253 534.4469,676.4476 578,666 C590.2173,663.0693 603.1898,659.7052 615.6411,656.3486 " fill="none" id="_spinner-react-loader-spinner" style="stroke: #383838; stroke-width: 0.6;"/><polygon fill="#383838" points="620.5691,655.0133,610.8362,653.5064,615.7431,656.321,612.9285,661.2279,620.5691,655.0133" style="stroke: #383838; stroke-width: 0.6;"/><!--link _spinner to styled-components--><path d="M452.2022,702.7957 C466.3348,704.8431 483.4955,706.9909 499,708 C534.037,710.2803 542.9951,710.7288 578,708 C589.3367,707.1163 601.3183,705.688 612.929,704.0394 " fill="none" id="_spinner-styled-components" style="stroke: #383838; stroke-width: 0.6;"/><polygon fill="#383838" points="617.8794,703.3203,608.3978,700.6558,612.9313,704.0392,609.548,708.5727,617.8794,703.3203" style="stroke: #383838; stroke-width: 0.6;"/><!--link store/index to _reducer--><path d="M320.2304,490.3104 C338.516,480.2422 365.2889,465.5008 386.8551,453.6263 " fill="none" id="store/index-_reducer" style="stroke: #383838; stroke-width: 0.6;"/><polygon fill="#383838" points="391.3731,451.1387,381.5599,451.9755,386.9931,453.5503,385.4184,458.9835,391.3731,451.1387" style="stroke: #383838; stroke-width: 0.6;"/><!--link store/index to redux--><path d="M344.9575,498.8638 C423.658,493.4932 582.2027,482.6738 649.101,478.1086 " fill="none" id="store/index-redux" style="stroke: #383838; stroke-width: 0.6;"/><polygon fill="#383838" points="654.1399,477.7647,644.8884,474.3867,649.1515,478.1051,645.4331,482.3682,654.1399,477.7647" style="stroke: #383838; stroke-width: 0.6;"/><!--link store/index to redux-persist--><path d="M344.5791,505.3496 C416.334,510.623 555.1275,520.823 629.7032,526.3036 " fill="none" id="store/index-redux-persist" style="stroke: #383838; stroke-width: 0.6;"/><polygon fill="#383838" points="634.9598,526.69,626.2773,522.0409,629.9733,526.3234,625.6908,530.0194,634.9598,526.69" style="stroke: #383838; stroke-width: 0.6;"/><script type="text/plantuml"><![CDATA[
@startuml

scale max 1920 width
left to right direction

skinparam monochrome true
skinparam shadowing false
skinparam nodesep 20
skinparam ranksep 20
skinparam defaultFontName Tahoma
skinparam defaultFontSize 12
skinparam roundCorner 4
skinparam dpi 150
skinparam arrowThickness 0.6
skinparam packageTitleAlignment left

skinparam usecase {
  borderThickness 0.6
}

skinparam rectangle {
  borderThickness 0.6
}

skinparam component {
  borderThickness 1
}


rectangle "actions" as _actions
(<b>components/index</b>)
rectangle "container" as _container
rectangle "editor" as _editor
rectangle "header" as _header
rectangle "logo" as _logo
rectangle "preview" as _preview
rectangle "reducer" as _reducer
rectangle "responsive-image" as _responsive_image
rectangle "section" as _section
rectangle "spinner" as _spinner
(store/index)

package "Dependencies" {
  [brace]
  [plantuml-encoder-decoder]
  [react]
  [react-ace]
  [react-dom]
  [react-loader-spinner]
  [react-redux]
  [redux]
  [redux-persist]
  [styled-components]
  [styled-reset]
}

_actions ----> [plantuml-encoder-decoder]
(<b>components/index</b>) -[thickness=1]> _container
(<b>components/index</b>) -[thickness=1]> _editor
(<b>components/index</b>) -[thickness=1]> _header
(<b>components/index</b>) -[thickness=1]> _logo
(<b>components/index</b>) -[thickness=1]> _preview
(<b>components/index</b>) ----[thickness=1]> [react]
(<b>components/index</b>) ----[thickness=1]> [react-dom]
(<b>components/index</b>) ----[thickness=1]> [react-redux]
(<b>components/index</b>) ----[thickness=1]> [redux-persist]
(<b>components/index</b>) -[thickness=1]> _section
(<b>components/index</b>) ---[thickness=1]> (store/index)
(<b>components/index</b>) ----[thickness=1]> [styled-components]
(<b>components/index</b>) ----[thickness=1]> [styled-reset]
_container ----> [styled-components]
_editor ---> _actions
_editor ----> [brace]
_editor ----> [react-ace]
_editor ----> [react-redux]
_editor ---> _reducer
_header ----> [styled-components]
_logo ----> [styled-components]
_preview ---> _actions
_preview ----> [react]
_preview ----> [react-redux]
_preview ---> _reducer
_preview --> _responsive_image
_preview --> _spinner
_reducer --> _actions
_reducer ----> [plantuml-encoder-decoder]
_reducer ----> [redux]
_reducer ----> [redux-persist]
_responsive_image ----> [styled-components]
_section ----> [styled-components]
_spinner ----> [react-loader-spinner]
_spinner ----> [styled-components]
(store/index) --> _reducer
(store/index) ----> [redux]
(store/index) ----> [redux-persist]

@enduml


' View and edit on https://arkit.herokuapp.com
]]></script></g></svg>