<?xml version="1.0" encoding="UTF-8" standalone="no"?><svg xmlns="http://www.w3.org/2000/svg" xmlns:xlink="http://www.w3.org/1999/xlink" contentScriptType="application/ecmascript" contentStyleType="text/css" height="1342px" preserveAspectRatio="none" style="width:908px;height:1342px;" version="1.1" viewBox="0 0 908 1342" width="908px" zoomAndPan="magnify"><defs/><g><!--cluster Dependencies--><path d="M693,196 L789,196 A3,3 0 0 1 791,198 L798,216.4844 L894,216.4844 A2,2 0 0 1 896,218.4844 L896,925 A2,2 0 0 1 894,927 L693,927 A2,2 0 0 1 691,925 L691,198 A2,2 0 0 1 693,196 " fill="#FFFFFF" style="stroke: #000000; stroke-width: 1.5;"/><line style="stroke: #000000; stroke-width: 1.5;" x1="691" x2="798" y1="216.4844" y2="216.4844"/><text fill="#000000" font-family="Tahoma, sans-serif" font-size="12" font-weight="bold" lengthAdjust="spacingAndGlyphs" textLength="94" x="695" y="210.0059">Dependencies</text><!--entity arkit--><rect fill="#F8F8F8" height="34.4844" rx="2" ry="2" style="stroke: #383838; stroke-width: 1.0;" width="44" x="771.5" y="715"/><rect fill="#F8F8F8" height="5" style="stroke: #383838; stroke-width: 1.0;" width="10" x="766.5" y="720"/><rect fill="#F8F8F8" height="5" style="stroke: #383838; stroke-width: 1.0;" width="10" x="766.5" y="739.4844"/><text fill="#000000" font-family="Tahoma, sans-serif" font-size="12" lengthAdjust="spacingAndGlyphs" textLength="24" x="781.5" y="737.0059">arkit</text><!--entity monaco-editor--><rect fill="#F8F8F8" height="34.4844" rx="2" ry="2" style="stroke: #383838; stroke-width: 1.0;" width="106" x="740.5" y="391"/><rect fill="#F8F8F8" height="5" style="stroke: #383838; stroke-width: 1.0;" width="10" x="735.5" y="396"/><rect fill="#F8F8F8" height="5" style="stroke: #383838; stroke-width: 1.0;" width="10" x="735.5" y="415.4844"/><text fill="#000000" font-family="Tahoma, sans-serif" font-size="12" lengthAdjust="spacingAndGlyphs" textLength="86" x="750.5" y="413.0059">monaco-editor</text><!--entity plantuml-encoder-decoder--><rect fill="#F8F8F8" height="34.4844" rx="2" ry="2" style="stroke: #383838; stroke-width: 1.0;" width="173" x="707" y="553"/><rect fill="#F8F8F8" height="5" style="stroke: #383838; stroke-width: 1.0;" width="10" x="702" y="558"/><rect fill="#F8F8F8" height="5" style="stroke: #383838; stroke-width: 1.0;" width="10" x="702" y="577.4844"/><text fill="#000000" font-family="Tahoma, sans-serif" font-size="12" lengthAdjust="spacingAndGlyphs" textLength="153" x="717" y="575.0059">plantuml-encoder-decoder</text><!--entity react--><rect fill="#F8F8F8" height="34.4844" rx="2" ry="2" style="stroke: #383838; stroke-width: 1.0;" width="49" x="769" y="769"/><rect fill="#F8F8F8" height="5" style="stroke: #383838; stroke-width: 1.0;" width="10" x="764" y="774"/><rect fill="#F8F8F8" height="5" style="stroke: #383838; stroke-width: 1.0;" width="10" x="764" y="793.4844"/><text fill="#000000" font-family="Tahoma, sans-serif" font-size="12" lengthAdjust="spacingAndGlyphs" textLength="29" x="779" y="791.0059">react</text><!--entity react-dom--><rect fill="#F8F8F8" height="34.4844" rx="2" ry="2" style="stroke: #383838; stroke-width: 1.0;" width="80" x="753.5" y="229"/><rect fill="#F8F8F8" height="5" style="stroke: #383838; stroke-width: 1.0;" width="10" x="748.5" y="234"/><rect fill="#F8F8F8" height="5" style="stroke: #383838; stroke-width: 1.0;" width="10" x="748.5" y="253.4844"/><text fill="#000000" font-family="Tahoma, sans-serif" font-size="12" lengthAdjust="spacingAndGlyphs" textLength="60" x="763.5" y="251.0059">react-dom</text><!--entity react-loader-spinner--><rect fill="#F8F8F8" height="34.4844" rx="2" ry="2" style="stroke: #383838; stroke-width: 1.0;" width="137" x="725" y="823"/><rect fill="#F8F8F8" height="5" style="stroke: #383838; stroke-width: 1.0;" width="10" x="720" y="828"/><rect fill="#F8F8F8" height="5" style="stroke: #383838; stroke-width: 1.0;" width="10" x="720" y="847.4844"/><text fill="#000000" font-family="Tahoma, sans-serif" font-size="12" lengthAdjust="spacingAndGlyphs" textLength="117" x="735" y="845.0059">react-loader-spinner</text><!--entity react-markdown--><rect fill="#F8F8F8" height="34.4844" rx="2" ry="2" style="stroke: #383838; stroke-width: 1.0;" width="113" x="737" y="661"/><rect fill="#F8F8F8" height="5" style="stroke: #383838; stroke-width: 1.0;" width="10" x="732" y="666"/><rect fill="#F8F8F8" height="5" style="stroke: #383838; stroke-width: 1.0;" width="10" x="732" y="685.4844"/><text fill="#000000" font-family="Tahoma, sans-serif" font-size="12" lengthAdjust="spacingAndGlyphs" textLength="93" x="747" y="683.0059">react-markdown</text><!--entity react-monaco-editor--><rect fill="#F8F8F8" height="34.4844" rx="2" ry="2" style="stroke: #383838; stroke-width: 1.0;" width="140" x="723.5" y="445"/><rect fill="#F8F8F8" height="5" style="stroke: #383838; stroke-width: 1.0;" width="10" x="718.5" y="450"/><rect fill="#F8F8F8" height="5" style="stroke: #383838; stroke-width: 1.0;" width="10" x="718.5" y="469.4844"/><text fill="#000000" font-family="Tahoma, sans-serif" font-size="12" lengthAdjust="spacingAndGlyphs" textLength="120" x="733.5" y="467.0059">react-monaco-editor</text><!--entity react-redux--><rect fill="#F8F8F8" height="34.4844" rx="2" ry="2" style="stroke: #383838; stroke-width: 1.0;" width="85" x="751" y="499"/><rect fill="#F8F8F8" height="5" style="stroke: #383838; stroke-width: 1.0;" width="10" x="746" y="504"/><rect fill="#F8F8F8" height="5" style="stroke: #383838; stroke-width: 1.0;" width="10" x="746" y="523.4844"/><text fill="#000000" font-family="Tahoma, sans-serif" font-size="12" lengthAdjust="spacingAndGlyphs" textLength="65" x="761" y="521.0059">react-redux</text><!--entity redux--><rect fill="#F8F8F8" height="34.4844" rx="2" ry="2" style="stroke: #383838; stroke-width: 1.0;" width="51" x="768" y="337"/><rect fill="#F8F8F8" height="5" style="stroke: #383838; stroke-width: 1.0;" width="10" x="763" y="342"/><rect fill="#F8F8F8" height="5" style="stroke: #383838; stroke-width: 1.0;" width="10" x="763" y="361.4844"/><text fill="#000000" font-family="Tahoma, sans-serif" font-size="12" lengthAdjust="spacingAndGlyphs" textLength="31" x="778" y="359.0059">redux</text><!--entity redux-persist--><rect fill="#F8F8F8" height="34.4844" rx="2" ry="2" style="stroke: #383838; stroke-width: 1.0;" width="95" x="746" y="283"/><rect fill="#F8F8F8" height="5" style="stroke: #383838; stroke-width: 1.0;" width="10" x="741" y="288"/><rect fill="#F8F8F8" height="5" style="stroke: #383838; stroke-width: 1.0;" width="10" x="741" y="307.4844"/><text fill="#000000" font-family="Tahoma, sans-serif" font-size="12" lengthAdjust="spacingAndGlyphs" textLength="75" x="756" y="305.0059">redux-persist</text><!--entity styled-components--><rect fill="#F8F8F8" height="34.4844" rx="2" ry="2" style="stroke: #383838; stroke-width: 1.0;" width="132" x="727.5" y="877"/><rect fill="#F8F8F8" height="5" style="stroke: #383838; stroke-width: 1.0;" width="10" x="722.5" y="882"/><rect fill="#F8F8F8" height="5" style="stroke: #383838; stroke-width: 1.0;" width="10" x="722.5" y="901.4844"/><text fill="#000000" font-family="Tahoma, sans-serif" font-size="12" lengthAdjust="spacingAndGlyphs" textLength="112" x="737.5" y="899.0059">styled-components</text><!--entity styled-reset--><rect fill="#F8F8F8" height="34.4844" rx="2" ry="2" style="stroke: #383838; stroke-width: 1.0;" width="88" x="749.5" y="607"/><rect fill="#F8F8F8" height="5" style="stroke: #383838; stroke-width: 1.0;" width="10" x="744.5" y="612"/><rect fill="#F8F8F8" height="5" style="stroke: #383838; stroke-width: 1.0;" width="10" x="744.5" y="631.4844"/><text fill="#000000" font-family="Tahoma, sans-serif" font-size="12" lengthAdjust="spacingAndGlyphs" textLength="68" x="759.5" y="629.0059">styled-reset</text><!--entity _actions--><rect fill="#F8F8F8" height="34.4844" rx="2" ry="2" style="stroke: #000000; stroke-width: 0.5;" width="63" x="529.5" y="469"/><text fill="#000000" font-family="Tahoma, sans-serif" font-size="12" lengthAdjust="spacingAndGlyphs" textLength="43" x="539.5" y="491.0059">actions</text><!--entity _app--><rect fill="#F8F8F8" height="34.4844" rx="2" ry="2" style="stroke: #000000; stroke-width: 0.5;" width="41" x="60.5" y="847"/><text fill="#000000" font-family="Tahoma, sans-serif" font-size="12" lengthAdjust="spacingAndGlyphs" textLength="21" x="70.5" y="869.0059">app</text><ellipse cx="80.7999" cy="389.86" fill="#F8F8F8" rx="74.7999" ry="17.36" style="stroke: #383838; stroke-width: 0.5;"/><text fill="#000000" font-family="Tahoma, sans-serif" font-size="12" font-weight="bold" lengthAdjust="spacingAndGlyphs" textLength="124" x="18.7999" y="393.6022">components/index</text><!--entity _container--><rect fill="#F8F8F8" height="34.4844" rx="2" ry="2" style="stroke: #000000; stroke-width: 0.5;" width="74" x="356.5" y="1243"/><text fill="#000000" font-family="Tahoma, sans-serif" font-size="12" lengthAdjust="spacingAndGlyphs" textLength="54" x="366.5" y="1265.0059">container</text><!--entity _editor--><rect fill="#F8F8F8" height="34.4844" rx="2" ry="2" style="stroke: #000000; stroke-width: 0.5;" width="53" x="217.5" y="370"/><text fill="#000000" font-family="Tahoma, sans-serif" font-size="12" lengthAdjust="spacingAndGlyphs" textLength="33" x="227.5" y="392.0059">editor</text><!--entity _header--><rect fill="#F8F8F8" height="34.4844" rx="2" ry="2" style="stroke: #000000; stroke-width: 0.5;" width="59" x="364" y="1297"/><text fill="#000000" font-family="Tahoma, sans-serif" font-size="12" lengthAdjust="spacingAndGlyphs" textLength="39" x="374" y="1319.0059">header</text><!--entity _logo--><rect fill="#F8F8F8" height="34.4844" rx="2" ry="2" style="stroke: #000000; stroke-width: 0.5;" width="46" x="370.5" y="1135"/><text fill="#000000" font-family="Tahoma, sans-serif" font-size="12" lengthAdjust="spacingAndGlyphs" textLength="26" x="380.5" y="1157.0059">logo</text><ellipse cx="561.189" cy="180.8378" fill="#F8F8F8" rx="67.189" ry="15.8378" style="stroke: #383838; stroke-width: 0.5;"/><text fill="#000000" font-family="Tahoma, sans-serif" font-size="12" lengthAdjust="spacingAndGlyphs" textLength="106" x="508.189" y="184.58">plantuml-language</text><!--entity _preview--><rect fill="#F8F8F8" height="34.4844" rx="2" ry="2" style="stroke: #000000; stroke-width: 0.5;" width="63" x="212.5" y="847"/><text fill="#000000" font-family="Tahoma, sans-serif" font-size="12" lengthAdjust="spacingAndGlyphs" textLength="43" x="222.5" y="869.0059">preview</text><!--entity _readme--><rect fill="#F8F8F8" height="34.4844" rx="2" ry="2" style="stroke: #000000; stroke-width: 0.5;" width="63" x="362" y="799"/><text fill="#000000" font-family="Tahoma, sans-serif" font-size="12" lengthAdjust="spacingAndGlyphs" textLength="43" x="372" y="821.0059">readme</text><!--entity _reducer--><rect fill="#F8F8F8" height="34.4844" rx="2" ry="2" style="stroke: #000000; stroke-width: 0.5;" width="63" x="362" y="403"/><text fill="#000000" font-family="Tahoma, sans-serif" font-size="12" lengthAdjust="spacingAndGlyphs" textLength="43" x="372" y="425.0059">reducer</text><!--entity _responsive_image--><rect fill="#F8F8F8" height="34.4844" rx="2" ry="2" style="stroke: #000000; stroke-width: 0.5;" width="123" x="332" y="1039"/><text fill="#000000" font-family="Tahoma, sans-serif" font-size="12" lengthAdjust="spacingAndGlyphs" textLength="103" x="342" y="1061.0059">responsive-image</text><!--entity _section--><rect fill="#F8F8F8" height="34.4844" rx="2" ry="2" style="stroke: #000000; stroke-width: 0.5;" width="63" x="362" y="1189"/><text fill="#000000" font-family="Tahoma, sans-serif" font-size="12" lengthAdjust="spacingAndGlyphs" textLength="43" x="372" y="1211.0059">section</text><!--entity _spinner--><rect fill="#F8F8F8" height="34.4844" rx="2" ry="2" style="stroke: #000000; stroke-width: 0.5;" width="62" x="362.5" y="985"/><text fill="#000000" font-family="Tahoma, sans-serif" font-size="12" lengthAdjust="spacingAndGlyphs" textLength="42" x="372.5" y="1007.0059">spinner</text><ellipse cx="243.9619" cy="180.242" fill="#F8F8F8" rx="48.9619" ry="13.242" style="stroke: #383838; stroke-width: 0.5;"/><text fill="#000000" font-family="Tahoma, sans-serif" font-size="12" lengthAdjust="spacingAndGlyphs" textLength="65" x="211.4619" y="183.9842">store/index</text><!--entity _theme--><rect fill="#F8F8F8" height="34.4844" rx="2" ry="2" style="stroke: #000000; stroke-width: 0.5;" width="56" x="365.5" y="565"/><text fill="#000000" font-family="Tahoma, sans-serif" font-size="12" lengthAdjust="spacingAndGlyphs" textLength="36" x="375.5" y="587.0059">theme</text><!--link _actions to plantuml-encoder-decoder--><path d="M592.621,502.505 C616.664,514.949 651.268,531.74 683,543 C691.721,546.095 700.954,548.967 710.213,551.593 " fill="none" id="_actions-plantuml-encoder-decoder" style="stroke: #000000; stroke-width: 0.55;"/><polygon fill="#000000" points="715.054,552.944,707.4609,546.6715,710.2381,551.5997,705.3099,554.3769,715.054,552.944" style="stroke: #000000; stroke-width: 0.55;"/><!--link _app to _container--><path d="M84.0659,881.159 C90.8809,930.89 116.864,1077.081 195,1164 C237.089,1210.82 307.058,1237.1824 351.426,1249.9981 " fill="none" id="_app-_container" style="stroke: #000000; stroke-width: 0.55;"/><polygon fill="#000000" points="356.438,1251.4199,348.8709,1245.116,351.6277,1250.0556,346.6881,1252.8124,356.438,1251.4199" style="stroke: #000000; stroke-width: 0.55;"/><!--link _app to _editor--><path d="M87.8252,846.742 C112.428,773.849 207.831,491.196 235.462,409.333 " fill="none" id="_app-_editor" style="stroke: #000000; stroke-width: 0.55;"/><polygon fill="#000000" points="237.183,404.235,230.516,411.4842,235.5847,408.9727,238.0963,414.0414,237.183,404.235" style="stroke: #000000; stroke-width: 0.55;"/><!--link _app to _header--><path d="M82.2647,881.235 C84.0679,938.904 97.5048,1127.476 195,1234 C238.682,1281.7275 314.856,1301.5807 358.741,1309.3699 " fill="none" id="_app-_header" style="stroke: #000000; stroke-width: 0.55;"/><polygon fill="#000000" points="363.928,1310.2611,355.7343,1304.7964,359,1309.4153,354.3811,1312.6811,363.928,1310.2611" style="stroke: #000000; stroke-width: 0.55;"/><!--link _app to _logo--><path d="M95.4102,881.033 C130.563,924.884 229.748,1043.569 332,1120 C342.326,1127.719 354.767,1134.643 365.675,1140.059 " fill="none" id="_app-_logo" style="stroke: #000000; stroke-width: 0.55;"/><polygon fill="#000000" points="370.245,1142.286,363.9066,1134.7478,365.7502,1140.0958,360.4022,1141.9394,370.245,1142.286" style="stroke: #000000; stroke-width: 0.55;"/><!--link _app to _preview--><path d="M101.7418,864 C127.964,864 174.751,864 207.26,864 " fill="none" id="_app-_preview" style="stroke: #000000; stroke-width: 0.55;"/><polygon fill="#000000" points="212.35,864,203.35,860,207.35,864,203.35,868,212.35,864" style="stroke: #000000; stroke-width: 0.55;"/><!--link _app to react--><path d="M101.7493,870.212 C124.106,876.893 161.747,887.082 195,891 C238.256,896.096 249.559,894.16 293,891 C443.077,880.082 484.942,888.652 628,842 C654.273,833.432 657.171,822.825 683,813 C709.712,802.839 741.56,795.488 764.004,791.045 " fill="none" id="_app-react" style="stroke: #000000; stroke-width: 0.55;"/><polygon fill="#000000" points="768.929,790.087,759.3311,787.8781,764.0209,791.0412,760.8578,795.731,768.929,790.087" style="stroke: #000000; stroke-width: 0.55;"/><!--link _app to react-redux--><path d="M99.1611,846.873 C136.87,808.738 228.707,713.072 293,623 C313.241,594.643 302.617,573.721 332,555 C399.625,511.914 642.369,512.334 745.555,514.589 " fill="none" id="_app-react-redux" style="stroke: #000000; stroke-width: 0.55;"/><polygon fill="#000000" points="750.66,514.704,741.7526,510.5019,745.6613,514.5911,741.572,518.4998,750.66,514.704" style="stroke: #000000; stroke-width: 0.55;"/><!--link _app to _readme--><path d="M101.8435,858.438 C124.285,852.341 162.001,842.672 195,837 C251.102,827.356 316.979,821.417 356.694,818.415 " fill="none" id="_app-_readme" style="stroke: #000000; stroke-width: 0.55;"/><polygon fill="#000000" points="361.882,818.029,352.6098,814.7085,356.8958,818.4004,353.2039,822.6864,361.882,818.029" style="stroke: #000000; stroke-width: 0.55;"/><!--link _app to _reducer--><path d="M87.7406,846.825 C101.9579,805.689 141.557,699.203 195,622 C246.714,547.294 327.004,474.931 367.433,440.64 " fill="none" id="_app-_reducer" style="stroke: #000000; stroke-width: 0.55;"/><polygon fill="#000000" points="371.69,437.045,362.233,439.7954,367.8698,440.2709,367.3944,445.9077,371.69,437.045" style="stroke: #000000; stroke-width: 0.55;"/><!--link _app to _section--><path d="M87.2626,881.209 C100.187,921.273 136.743,1022.355 195,1088 C240.441,1139.203 313.563,1174.737 356.933,1192.631 " fill="none" id="_app-_section" style="stroke: #000000; stroke-width: 0.55;"/><polygon fill="#000000" points="361.811,1194.622,354.9891,1187.5183,357.1815,1192.7331,351.9668,1194.9255,361.811,1194.622" style="stroke: #000000; stroke-width: 0.55;"/><!--link <b>components/index</b> to _app--><path d="M81,407.847 C81,552.474 81,697.101 81,841.728 " fill="none" id="&lt;b&gt;components/index&lt;/b&gt;-_app" style="stroke: #000000; stroke-width: 1.0;"/><polygon fill="#000000" points="81,846.873,85,837.873,81,841.873,77,837.873,81,846.873" style="stroke: #000000; stroke-width: 1.0;"/><!--link <b>components/index</b> to react--><path d="M94.0473,407.59 C113.228,434.757 152.868,487.583 195,524 C378.135,682.291 671.902,758.885 763.963,779.872 " fill="none" id="&lt;b&gt;components/index&lt;/b&gt;-react" style="stroke: #000000; stroke-width: 1.0;"/><polygon fill="#000000" points="768.966,781.003,761.0682,775.1187,764.0888,779.9016,759.3059,782.9222,768.966,781.003" style="stroke: #000000; stroke-width: 1.0;"/><!--link <b>components/index</b> to react-dom--><path d="M84.1088,372.368 C90.9272,322.68 116.685,179.77 195,97 C261.171,27.06 296.221,8 392.5,8 C392.5,8 392.5,8 562,8 C681.729,8 759.143,165.34 783.9,224.16 " fill="none" id="&lt;b&gt;components/index&lt;/b&gt;-react-dom" style="stroke: #000000; stroke-width: 1.0;"/><polygon fill="#000000" points="785.863,228.88,786.084,219.0336,783.9354,224.2665,778.7025,222.1178,785.863,228.88" style="stroke: #000000; stroke-width: 1.0;"/><!--link <b>components/index</b> to react-redux--><path d="M121.949,375.29 C218.977,342.338 470.634,273.83 628,385 C658.535,406.571 650.749,425.832 668,459 C674.879,472.225 671.357,479.691 683,489 C700.697,503.149 724.77,510.024 745.838,513.309 " fill="none" id="&lt;b&gt;components/index&lt;/b&gt;-react-redux" style="stroke: #000000; stroke-width: 1.0;"/><polygon fill="#000000" points="750.842,514.032,742.5058,508.7873,745.8933,513.3177,741.3629,516.7052,750.842,514.032" style="stroke: #000000; stroke-width: 1.0;"/><!--link <b>components/index</b> to redux-persist--><path d="M86.5,372.347 C98.0002,330.29 132.088,222.8 195,157 C263.988,84.84 292.668,50 392.5,50 C392.5,50 392.5,50 562,50 C594.04,50 606.957,54.84 628,79 C642.715,95.9 666.886,257.43 683,273 C698.318,287.8 720.39,294.9 740.71,298.16 " fill="none" id="&lt;b&gt;components/index&lt;/b&gt;-redux-persist" style="stroke: #000000; stroke-width: 1.0;"/><polygon fill="#000000" points="745.833,298.92,737.508,293.6574,740.8858,298.1951,736.3482,301.5729,745.833,298.92" style="stroke: #000000; stroke-width: 1.0;"/><!--link <b>components/index</b> to store/index--><path d="M95.1753,372.815 C125.536,333.214 200.113,235.94 230.153,196.76 " fill="none" id="&lt;b&gt;components/index&lt;/b&gt;-store/index" style="stroke: #000000; stroke-width: 1.0;"/><polygon fill="#000000" points="233.255,192.71,224.6037,197.4168,230.212,196.6774,230.9514,202.2857,233.255,192.71" style="stroke: #000000; stroke-width: 1.0;"/><!--link <b>components/index</b> to styled-components--><path d="M83.333,407.703 C88.8747,474.151 113.742,713.931 195,891 C225.475,957.409 251.292,963.006 293,1023 C311.155,1049.114 304.046,1067.83 332,1083 C447.975,1145.938 509.826,1118.705 628,1060 C696.438,1026.003 753.214,952.178 778.445,915.531 " fill="none" id="&lt;b&gt;components/index&lt;/b&gt;-styled-components" style="stroke: #000000; stroke-width: 1.0;"/><polygon fill="#000000" points="781.364,911.251,772.9888,916.4333,778.5471,915.382,779.5985,920.9403,781.364,911.251" style="stroke: #000000; stroke-width: 1.0;"/><!--link <b>components/index</b> to _theme--><path d="M108.473,406.37 C165.474,441.617 299.61,524.561 360.922,562.474 " fill="none" id="&lt;b&gt;components/index&lt;/b&gt;-_theme" style="stroke: #000000; stroke-width: 1.0;"/><polygon fill="#000000" points="365.209,565.124,359.6583,556.9883,360.9565,562.4942,355.4506,563.7924,365.209,565.124" style="stroke: #000000; stroke-width: 1.0;"/><!--link _container to styled-components--><path d="M430.632,1259.8957 C479.183,1258.15 566.477,1249.2274 628,1210 C736.08,1141.087 776.976,976.653 788.633,916.52 " fill="none" id="_container-styled-components" style="stroke: #000000; stroke-width: 0.55;"/><polygon fill="#000000" points="789.61,911.366,784.0036,919.4634,788.6786,916.2785,791.8635,920.9536,789.61,911.366" style="stroke: #000000; stroke-width: 0.55;"/><!--link _editor to _actions--><path d="M264.285,404.005 C281.021,417.808 306.509,436.624 332,447 C396.466,473.242 478.15,481.827 524.188,484.635 " fill="none" id="_editor-_actions" style="stroke: #000000; stroke-width: 0.55;"/><polygon fill="#000000" points="529.349,484.935,520.5962,480.4197,524.3574,484.645,520.1321,488.4062,529.349,484.935" style="stroke: #000000; stroke-width: 0.55;"/><!--link _editor to plantuml-language--><path d="M258.357,369.94 C274.33,350.329 302.615,318.02 332,296 C391.852,251.15 471.837,215.47 519.426,196.35 " fill="none" id="_editor-plantuml-language" style="stroke: #000000; stroke-width: 0.55;"/><polygon fill="#000000" points="524.212,194.44,514.3703,194.0634,519.5686,196.2945,517.3375,201.4928,524.212,194.44" style="stroke: #000000; stroke-width: 0.55;"/><!--link _editor to react-monaco-editor--><path d="M267.583,369.973 C284.366,358.435 308.357,344.2 332,338 C476.449,300.12 554.624,240.81 668,338 C701.12,366.392 653.545,402.822 683,435 C692.419,445.29 705.078,451.944 718.442,456.189 " fill="none" id="_editor-react-monaco-editor" style="stroke: #000000; stroke-width: 0.55;"/><polygon fill="#000000" points="723.393,457.646,715.888,451.2683,718.5963,456.2347,713.6299,458.943,723.393,457.646" style="stroke: #000000; stroke-width: 0.55;"/><!--link _editor to react-redux--><path d="M270.906,382.49 C336.016,372.538 509.74,354.678 628,423 C661.062,442.101 650.627,468.753 683,489 C701.747,500.725 725.262,507.359 745.691,511.113 " fill="none" id="_editor-react-redux" style="stroke: #000000; stroke-width: 0.55;"/><polygon fill="#000000" points="750.814,512.007,742.6345,506.521,745.8883,511.1484,741.2608,514.4022,750.814,512.007" style="stroke: #000000; stroke-width: 0.55;"/><!--link _editor to _reducer--><path d="M270.693,392.748 C294.448,398.063 329.987,406.014 356.554,411.958 " fill="none" id="_editor-_reducer" style="stroke: #000000; stroke-width: 0.55;"/><polygon fill="#000000" points="361.742,413.119,353.8337,407.2489,356.8629,412.0263,352.0854,415.0555,361.742,413.119" style="stroke: #000000; stroke-width: 0.55;"/><!--link _header to styled-components--><path d="M423.205,1314.5538 C470.726,1314.0087 566.583,1306.5503 628,1259 C743.467,1169.603 780.204,981.106 789.667,916.378 " fill="none" id="_header-styled-components" style="stroke: #000000; stroke-width: 0.55;"/><polygon fill="#000000" points="790.401,911.217,785.1708,919.5623,789.6953,916.1669,793.0907,920.6915,790.401,911.217" style="stroke: #000000; stroke-width: 0.55;"/><!--link _logo to styled-components--><path d="M416.582,1157.708 C466.158,1169.172 588.205,1189.718 668,1138 C747.897,1086.216 778.972,966.196 788.722,916.339 " fill="none" id="_logo-styled-components" style="stroke: #000000; stroke-width: 0.55;"/><polygon fill="#000000" points="789.704,911.176,784.093,919.2702,788.7699,916.088,791.9522,920.7648,789.704,911.176" style="stroke: #000000; stroke-width: 0.55;"/><!--link plantuml-language to monaco-editor--><path d="M595.32,194.75 C619.704,206.66 651.327,226.35 668,254 C697.35,302.67 645.382,338.394 683,381 C696.089,395.825 715.895,403.154 735.081,406.596 " fill="none" id="plantuml-language-monaco-editor" style="stroke: #000000; stroke-width: 0.55;"/><polygon fill="#000000" points="740.469,407.466,732.2219,402.0822,735.533,406.6688,730.9464,409.9799,740.469,407.466" style="stroke: #000000; stroke-width: 0.55;"/><!--link _preview to _actions--><path d="M250.927,846.918 C262.617,814.99 291.109,745.23 332,698 C376.166,646.986 405.412,654.761 455,609 C490.109,576.601 524.934,532.931 544.342,507.287 " fill="none" id="_preview-_actions" style="stroke: #000000; stroke-width: 0.55;"/><polygon fill="#000000" points="547.552,503.023,538.9432,507.8073,544.5447,507.0175,545.3344,512.619,547.552,503.023" style="stroke: #000000; stroke-width: 0.55;"/><!--link _preview to react--><path d="M275.672,861.521 C316.634,858.076 391.421,851.316 455,843 C532.232,832.898 551.2,827.984 628,815 C675.634,806.947 730.932,797.095 763.749,791.195 " fill="none" id="_preview-react" style="stroke: #000000; stroke-width: 0.55;"/><polygon fill="#000000" points="768.818,790.283,759.2517,787.9409,763.8971,791.1689,760.6691,795.8143,768.818,790.283" style="stroke: #000000; stroke-width: 0.55;"/><!--link _preview to react-redux--><path d="M263.886,846.752 C281.204,831.172 307.765,807.863 332,789 C350.791,774.374 661.321,552.851 683,543 C702.802,534.002 726.037,527.729 745.997,523.51 " fill="none" id="_preview-react-redux" style="stroke: #000000; stroke-width: 0.55;"/><polygon fill="#000000" points="750.997,522.481,741.3751,520.3787,746.0998,523.4896,742.9889,528.2142,750.997,522.481" style="stroke: #000000; stroke-width: 0.55;"/><!--link _preview to _reducer--><path d="M248.861,846.978 C259.747,799.855 292.482,663.978 332,555 C346.837,514.086 368.54,468.186 381.518,441.828 " fill="none" id="_preview-_reducer" style="stroke: #000000; stroke-width: 0.55;"/><polygon fill="#000000" points="383.837,437.139,376.2608,443.432,381.6198,441.6205,383.4313,446.9795,383.837,437.139" style="stroke: #000000; stroke-width: 0.55;"/><!--link _preview to _responsive_image--><path d="M275.635,879.77 C282.109,884.277 288.372,889.706 293,896 C329.491,945.628 291.468,982.613 332,1029 C334.185,1031.501 336.647,1033.781 339.296,1035.859 " fill="none" id="_preview-_responsive_image" style="stroke: #000000; stroke-width: 0.55;"/><polygon fill="#000000" points="343.598,1038.959,338.6338,1030.4527,339.5411,1036.0363,333.9575,1036.9437,343.598,1038.959" style="stroke: #000000; stroke-width: 0.55;"/><!--link _preview to _spinner--><path d="M272.945,881.068 C279.729,885.63 286.808,890.758 293,896 C324.374,922.561 356.099,958.228 375.031,980.665 " fill="none" id="_preview-_spinner" style="stroke: #000000; stroke-width: 0.55;"/><polygon fill="#000000" points="378.414,984.695,375.6902,975.2303,375.1989,980.8657,369.5634,980.3744,378.414,984.695" style="stroke: #000000; stroke-width: 0.55;"/><!--link _readme to arkit--><path d="M425.07,809.548 C500.643,793.598 695.261,752.523 766.161,737.559 " fill="none" id="_readme-arkit" style="stroke: #000000; stroke-width: 0.55;"/><polygon fill="#000000" points="771.446,736.444,761.8143,734.387,766.5536,737.4756,763.465,742.2149,771.446,736.444" style="stroke: #000000; stroke-width: 0.55;"/><!--link _readme to react--><path d="M425.123,814.527 C469.768,812.296 555.327,807.711 628,802 C675.653,798.255 730.946,792.609 763.756,789.122 " fill="none" id="_readme-react" style="stroke: #000000; stroke-width: 0.55;"/><polygon fill="#000000" points="768.824,788.581,759.4507,785.5576,763.8522,789.111,760.2987,793.5125,768.824,788.581" style="stroke: #000000; stroke-width: 0.55;"/><!--link _readme to react-markdown--><path d="M423.876,798.869 C443.343,787.965 469.684,774.054 494,764 C573.742,731.028 670.41,705.677 731.696,691.3 " fill="none" id="_readme-react-markdown" style="stroke: #000000; stroke-width: 0.55;"/><polygon fill="#000000" points="736.78,690.114,727.1067,688.2625,731.9107,691.2496,728.9236,696.0535,736.78,690.114" style="stroke: #000000; stroke-width: 0.55;"/><!--link _readme to styled-components--><path d="M425.161,825.895 C475.189,841.579 577.756,871.822 667,886 C684.837,888.834 704.25,890.671 722.359,891.861 " fill="none" id="_readme-styled-components" style="stroke: #000000; stroke-width: 0.55;"/><polygon fill="#000000" points="727.43,892.179,718.6992,887.6212,722.4399,891.8647,718.1964,895.6054,727.43,892.179" style="stroke: #000000; stroke-width: 0.55;"/><!--link _reducer to _actions--><path d="M425.241,432.259 C453.342,443.466 494.899,460.038 524.425,471.813 " fill="none" id="_reducer-_actions" style="stroke: #000000; stroke-width: 0.55;"/><polygon fill="#000000" points="529.423,473.806,522.544,466.7576,524.7785,471.9545,519.5816,474.1889,529.423,473.806" style="stroke: #000000; stroke-width: 0.55;"/><!--link _reducer to plantuml-encoder-decoder--><path d="M425.268,417.677 C472.761,415.625 565.017,417.889 628,459 C632.671,462.049 678.449,539.775 683,543 C688.906,547.185 695.39,550.724 702.162,553.716 " fill="none" id="_reducer-plantuml-encoder-decoder" style="stroke: #000000; stroke-width: 0.55;"/><polygon fill="#000000" points="706.892,555.702,700.1424,548.5296,702.2819,553.7663,697.0452,555.9057,706.892,555.702" style="stroke: #000000; stroke-width: 0.55;"/><!--link _reducer to redux--><path d="M425.07,414.931 C499.373,402.609 688.751,371.205 762.481,358.978 " fill="none" id="_reducer-redux" style="stroke: #000000; stroke-width: 0.55;"/><polygon fill="#000000" points="767.587,358.131,758.0536,355.6583,762.6545,358.9495,759.3632,363.5504,767.587,358.131" style="stroke: #000000; stroke-width: 0.55;"/><!--link _reducer to redux-persist--><path d="M425.346,404.801 C444.736,395.639 470.454,384.197 494,376 C578.736,346.5 680.621,323.02 740.778,310.35 " fill="none" id="_reducer-redux-persist" style="stroke: #000000; stroke-width: 0.55;"/><polygon fill="#000000" points="745.751,309.3,736.1206,307.2372,740.858,310.3287,737.7665,315.0661,745.751,309.3" style="stroke: #000000; stroke-width: 0.55;"/><!--link _responsive_image to styled-components--><path d="M455.052,1056.999 C503.42,1055.873 572.116,1049.889 628,1028 C690.366,1003.572 747.129,946.24 774.784,915.072 " fill="none" id="_responsive_image-styled-components" style="stroke: #000000; stroke-width: 0.55;"/><polygon fill="#000000" points="778.33,911.038,769.3829,915.1551,775.0282,914.7927,775.3905,920.438,778.33,911.038" style="stroke: #000000; stroke-width: 0.55;"/><!--link _section to styled-components--><path d="M425.021,1207.348 C471.011,1208.242 559.931,1205.487 628,1176 C735.534,1129.417 776.672,974.129 788.519,916.115 " fill="none" id="_section-styled-components" style="stroke: #000000; stroke-width: 0.55;"/><polygon fill="#000000" points="789.512,911.134,783.8278,919.177,788.5333,916.0373,791.673,920.7428,789.512,911.134" style="stroke: #000000; stroke-width: 0.55;"/><!--link _spinner to react-loader-spinner--><path d="M424.752,1004.014 C471.161,1005.796 561.525,1004.018 628,970 C650.948,958.257 655.617,950.609 668,928 C681.411,903.513 663.265,886.748 683,867 C693.046,856.947 706.199,850.425 719.888,846.238 " fill="none" id="_spinner-react-loader-spinner" style="stroke: #000000; stroke-width: 0.55;"/><polygon fill="#000000" points="724.951,844.799,715.2003,843.412,720.1415,846.166,717.3875,851.1072,724.951,844.799" style="stroke: #000000; stroke-width: 0.55;"/><!--link _spinner to styled-components--><path d="M424.503,1009.776 C469.824,1020.095 557.892,1034.545 628,1012 C687.56,992.847 743.827,943.277 772.583,914.85 " fill="none" id="_spinner-styled-components" style="stroke: #000000; stroke-width: 0.55;"/><polygon fill="#000000" points="776.288,911.154,767.092,914.6802,772.7489,914.686,772.7432,920.3428,776.288,911.154" style="stroke: #000000; stroke-width: 0.55;"/><!--link store/index to _reducer--><path d="M252.93,192.9 C276.987,232.05 349.318,349.738 379.279,398.489 " fill="none" id="store/index-_reducer" style="stroke: #000000; stroke-width: 0.55;"/><polygon fill="#000000" points="382.044,402.986,380.7372,393.2242,379.425,398.7268,373.9225,397.4146,382.044,402.986" style="stroke: #000000; stroke-width: 0.55;"/><!--link store/index to redux--><path d="M270.295,168.96 C335.453,142.37 512.044,82.16 628,155 C662.676,176.78 655.585,198.98 668,238 C680.162,276.23 655.716,297.6 683,327 C703.142,348.708 737.704,354.19 762.617,355.042 " fill="none" id="store/index-redux" style="stroke: #000000; stroke-width: 0.55;"/><polygon fill="#000000" points="767.778,355.157,758.8694,350.9574,762.7792,355.0456,758.6911,358.9554,767.778,355.157" style="stroke: #000000; stroke-width: 0.55;"/><!--link store/index to redux-persist--><path d="M257.414,167.23 C273.122,152.08 301.792,127.66 332,118 C457.302,77.92 520.542,42.11 628,118 C687.708,160.17 628.813,223.94 683,273 C698.655,287.17 720.557,294.2 740.662,297.58 " fill="none" id="store/index-redux-persist" style="stroke: #000000; stroke-width: 0.55;"/><polygon fill="#000000" points="745.729,298.36,737.4459,293.0317,740.7877,297.596,736.2235,300.9377,745.729,298.36" style="stroke: #000000; stroke-width: 0.55;"/><!--link _theme to styled-components--><path d="M406.602,599.301 C442.506,649.257 554.002,794.755 683,867 C695.096,873.774 708.877,878.867 722.486,882.689 " fill="none" id="_theme-styled-components" style="stroke: #000000; stroke-width: 0.55;"/><polygon fill="#000000" points="727.489,884.041,719.8439,877.8319,722.6621,882.7368,717.7572,885.5549,727.489,884.041" style="stroke: #000000; stroke-width: 0.55;"/><!--link _theme to styled-reset--><path d="M421.543,584.854 C487.95,591.862 659.758,609.992 744.203,618.903 " fill="none" id="_theme-styled-reset" style="stroke: #000000; stroke-width: 0.55;"/><polygon fill="#000000" points="749.391,619.451,740.8601,614.5292,744.4186,618.9266,740.0211,622.485,749.391,619.451" style="stroke: #000000; stroke-width: 0.55;"/><script type="text/plantuml"><![CDATA[
@startuml

scale max 1920 width
left to right direction

skinparam nodesep 20
skinparam ranksep 39
skinparam monochrome true
skinparam shadowing false
skinparam defaultFontName Tahoma
skinparam defaultFontSize 12
skinparam roundCorner 4
skinparam dpi 150
skinparam arrowColor black
skinparam arrowThickness 0.55
skinparam packageTitleAlignment left

skinparam usecase {
  borderThickness 0.5
}

skinparam rectangle {
  borderThickness 0.5
}

skinparam component {
  borderThickness 1
}


rectangle "actions" as _actions
rectangle "app" as _app
(<b>components/index</b>)
rectangle "container" as _container
rectangle "editor" as _editor
rectangle "header" as _header
rectangle "logo" as _logo
(plantuml-language)
rectangle "preview" as _preview
rectangle "readme" as _readme
rectangle "reducer" as _reducer
rectangle "responsive-image" as _responsive_image
rectangle "section" as _section
rectangle "spinner" as _spinner
(store/index)
rectangle "theme" as _theme

package "Dependencies" {
  [arkit]
  [monaco-editor]
  [plantuml-encoder-decoder]
  [react]
  [react-dom]
  [react-loader-spinner]
  [react-markdown]
  [react-monaco-editor]
  [react-redux]
  [redux]
  [redux-persist]
  [styled-components]
  [styled-reset]
}

_actions ----> [plantuml-encoder-decoder]
_app --> _container
_app --> _editor
_app --> _header
_app --> _logo
_app --> _preview
_app ----> [react]
_app ----> [react-redux]
_app --> _readme
_app --> _reducer
_app --> _section
(<b>components/index</b>) -[thickness=1]> _app
(<b>components/index</b>) ----[thickness=1]> [react]
(<b>components/index</b>) ----[thickness=1]> [react-dom]
(<b>components/index</b>) ----[thickness=1]> [react-redux]
(<b>components/index</b>) ----[thickness=1]> [redux-persist]
(<b>components/index</b>) --[thickness=1]> (store/index)
(<b>components/index</b>) ----[thickness=1]> [styled-components]
(<b>components/index</b>) -[thickness=1]> _theme
_container ----> [styled-components]
_editor --> _actions
_editor --> (plantuml-language)
_editor ----> [react-monaco-editor]
_editor ----> [react-redux]
_editor --> _reducer
_header ----> [styled-components]
_logo ----> [styled-components]
(plantuml-language) ---> [monaco-editor]
_preview --> _actions
_preview ----> [react]
_preview ----> [react-redux]
_preview --> _reducer
_preview --> _responsive_image
_preview --> _spinner
_readme ----> [arkit]
_readme ----> [react]
_readme ----> [react-markdown]
_readme ----> [styled-components]
_reducer --> _actions
_reducer ----> [plantuml-encoder-decoder]
_reducer ----> [redux]
_reducer ----> [redux-persist]
_responsive_image ----> [styled-components]
_section ----> [styled-components]
_spinner ----> [react-loader-spinner]
_spinner ----> [styled-components]
(store/index) --> _reducer
(store/index) ----> [redux]
(store/index) ----> [redux-persist]
_theme ----> [styled-components]
_theme ----> [styled-reset]

@enduml


' View and edit on https://arkit.herokuapp.com
]]></script></g></svg>