<?xml version="1.0" encoding="UTF-8" standalone="no"?><svg xmlns="http://www.w3.org/2000/svg" xmlns:xlink="http://www.w3.org/1999/xlink" contentScriptType="application/ecmascript" contentStyleType="text/css" height="1451px" preserveAspectRatio="none" style="width:1013px;height:1451px;" version="1.1" viewBox="0 0 1013 1451" width="1013px" zoomAndPan="magnify"><defs/><g><!--cluster Dependencies--><path d="M798,222.16 L894,222.16 A3,3 0 0 1 896,224.16 L903,242.6444 L999,242.6444 A2,2 0 0 1 1001,244.6444 L1001,951.162 A2,2 0 0 1 999,953.162 L798,953.162 A2,2 0 0 1 796,951.162 L796,224.16 A2,2 0 0 1 798,222.16 " fill="#FFFFFF" style="stroke: #000000; stroke-width: 1.5;"/><line style="stroke: #000000; stroke-width: 1.5;" x1="796" x2="903" y1="242.6444" y2="242.6444"/><text fill="#000000" font-family="Tahoma, sans-serif" font-size="12" font-weight="bold" lengthAdjust="spacingAndGlyphs" textLength="94" x="800" y="236.1659">Dependencies</text><!--entity arkit--><rect fill="#F8F8F8" height="34.4844" rx="2" ry="2" style="stroke: #383838; stroke-width: 1.0;" width="44" x="876.5" y="903.162"/><rect fill="#F8F8F8" height="5" style="stroke: #383838; stroke-width: 1.0;" width="10" x="871.5" y="908.162"/><rect fill="#F8F8F8" height="5" style="stroke: #383838; stroke-width: 1.0;" width="10" x="871.5" y="927.6464"/><text fill="#000000" font-family="Tahoma, sans-serif" font-size="12" lengthAdjust="spacingAndGlyphs" textLength="24" x="886.5" y="925.1679">arkit</text><!--entity plantuml-encoder-decoder--><rect fill="#F8F8F8" height="34.4844" rx="2" ry="2" style="stroke: #383838; stroke-width: 1.0;" width="173" x="812" y="633.162"/><rect fill="#F8F8F8" height="5" style="stroke: #383838; stroke-width: 1.0;" width="10" x="807" y="638.162"/><rect fill="#F8F8F8" height="5" style="stroke: #383838; stroke-width: 1.0;" width="10" x="807" y="657.6464"/><text fill="#000000" font-family="Tahoma, sans-serif" font-size="12" lengthAdjust="spacingAndGlyphs" textLength="153" x="822" y="655.1679">plantuml-encoder-decoder</text><!--entity react--><rect fill="#F8F8F8" height="34.4844" rx="2" ry="2" style="stroke: #383838; stroke-width: 1.0;" width="49" x="874" y="579.162"/><rect fill="#F8F8F8" height="5" style="stroke: #383838; stroke-width: 1.0;" width="10" x="869" y="584.162"/><rect fill="#F8F8F8" height="5" style="stroke: #383838; stroke-width: 1.0;" width="10" x="869" y="603.6464"/><text fill="#000000" font-family="Tahoma, sans-serif" font-size="12" lengthAdjust="spacingAndGlyphs" textLength="29" x="884" y="601.1679">react</text><!--entity react-dom--><rect fill="#F8F8F8" height="34.4844" rx="2" ry="2" style="stroke: #383838; stroke-width: 1.0;" width="80" x="858.5" y="255.16"/><rect fill="#F8F8F8" height="5" style="stroke: #383838; stroke-width: 1.0;" width="10" x="853.5" y="260.16"/><rect fill="#F8F8F8" height="5" style="stroke: #383838; stroke-width: 1.0;" width="10" x="853.5" y="279.6444"/><text fill="#000000" font-family="Tahoma, sans-serif" font-size="12" lengthAdjust="spacingAndGlyphs" textLength="60" x="868.5" y="277.1659">react-dom</text><!--entity react-github-btn--><rect fill="#F8F8F8" height="34.4844" rx="2" ry="2" style="stroke: #383838; stroke-width: 1.0;" width="112" x="842.5" y="525.162"/><rect fill="#F8F8F8" height="5" style="stroke: #383838; stroke-width: 1.0;" width="10" x="837.5" y="530.162"/><rect fill="#F8F8F8" height="5" style="stroke: #383838; stroke-width: 1.0;" width="10" x="837.5" y="549.6464"/><text fill="#000000" font-family="Tahoma, sans-serif" font-size="12" lengthAdjust="spacingAndGlyphs" textLength="92" x="852.5" y="547.1679">react-github-btn</text><!--entity react-loader-spinner--><rect fill="#F8F8F8" height="34.4844" rx="2" ry="2" style="stroke: #383838; stroke-width: 1.0;" width="137" x="830" y="795.162"/><rect fill="#F8F8F8" height="5" style="stroke: #383838; stroke-width: 1.0;" width="10" x="825" y="800.162"/><rect fill="#F8F8F8" height="5" style="stroke: #383838; stroke-width: 1.0;" width="10" x="825" y="819.6464"/><text fill="#000000" font-family="Tahoma, sans-serif" font-size="12" lengthAdjust="spacingAndGlyphs" textLength="117" x="840" y="817.1679">react-loader-spinner</text><!--entity react-markdown--><rect fill="#F8F8F8" height="34.4844" rx="2" ry="2" style="stroke: #383838; stroke-width: 1.0;" width="113" x="842" y="849.162"/><rect fill="#F8F8F8" height="5" style="stroke: #383838; stroke-width: 1.0;" width="10" x="837" y="854.162"/><rect fill="#F8F8F8" height="5" style="stroke: #383838; stroke-width: 1.0;" width="10" x="837" y="873.6464"/><text fill="#000000" font-family="Tahoma, sans-serif" font-size="12" lengthAdjust="spacingAndGlyphs" textLength="93" x="852" y="871.1679">react-markdown</text><!--entity react-monaco-editor--><rect fill="#F8F8F8" height="34.4844" rx="2" ry="2" style="stroke: #383838; stroke-width: 1.0;" width="140" x="828.5" y="471.162"/><rect fill="#F8F8F8" height="5" style="stroke: #383838; stroke-width: 1.0;" width="10" x="823.5" y="476.162"/><rect fill="#F8F8F8" height="5" style="stroke: #383838; stroke-width: 1.0;" width="10" x="823.5" y="495.6464"/><text fill="#000000" font-family="Tahoma, sans-serif" font-size="12" lengthAdjust="spacingAndGlyphs" textLength="120" x="838.5" y="493.1679">react-monaco-editor</text><!--entity react-redux--><rect fill="#F8F8F8" height="34.4844" rx="2" ry="2" style="stroke: #383838; stroke-width: 1.0;" width="85" x="856" y="687.162"/><rect fill="#F8F8F8" height="5" style="stroke: #383838; stroke-width: 1.0;" width="10" x="851" y="692.162"/><rect fill="#F8F8F8" height="5" style="stroke: #383838; stroke-width: 1.0;" width="10" x="851" y="711.6464"/><text fill="#000000" font-family="Tahoma, sans-serif" font-size="12" lengthAdjust="spacingAndGlyphs" textLength="65" x="866" y="709.1679">react-redux</text><!--entity redux--><rect fill="#F8F8F8" height="34.4844" rx="2" ry="2" style="stroke: #383838; stroke-width: 1.0;" width="51" x="873" y="363.16"/><rect fill="#F8F8F8" height="5" style="stroke: #383838; stroke-width: 1.0;" width="10" x="868" y="368.16"/><rect fill="#F8F8F8" height="5" style="stroke: #383838; stroke-width: 1.0;" width="10" x="868" y="387.6444"/><text fill="#000000" font-family="Tahoma, sans-serif" font-size="12" lengthAdjust="spacingAndGlyphs" textLength="31" x="883" y="385.1659">redux</text><!--entity redux-persist--><rect fill="#F8F8F8" height="34.4844" rx="2" ry="2" style="stroke: #383838; stroke-width: 1.0;" width="95" x="851" y="417.16"/><rect fill="#F8F8F8" height="5" style="stroke: #383838; stroke-width: 1.0;" width="10" x="846" y="422.16"/><rect fill="#F8F8F8" height="5" style="stroke: #383838; stroke-width: 1.0;" width="10" x="846" y="441.6444"/><text fill="#000000" font-family="Tahoma, sans-serif" font-size="12" lengthAdjust="spacingAndGlyphs" textLength="75" x="861" y="439.1659">redux-persist</text><!--entity styled-components--><rect fill="#F8F8F8" height="34.4844" rx="2" ry="2" style="stroke: #383838; stroke-width: 1.0;" width="132" x="832.5" y="741.162"/><rect fill="#F8F8F8" height="5" style="stroke: #383838; stroke-width: 1.0;" width="10" x="827.5" y="746.162"/><rect fill="#F8F8F8" height="5" style="stroke: #383838; stroke-width: 1.0;" width="10" x="827.5" y="765.6464"/><text fill="#000000" font-family="Tahoma, sans-serif" font-size="12" lengthAdjust="spacingAndGlyphs" textLength="112" x="842.5" y="763.1679">styled-components</text><!--entity styled-reset--><rect fill="#F8F8F8" height="34.4844" rx="2" ry="2" style="stroke: #383838; stroke-width: 1.0;" width="88" x="854.5" y="309.16"/><rect fill="#F8F8F8" height="5" style="stroke: #383838; stroke-width: 1.0;" width="10" x="849.5" y="314.16"/><rect fill="#F8F8F8" height="5" style="stroke: #383838; stroke-width: 1.0;" width="10" x="849.5" y="333.6444"/><text fill="#000000" font-family="Tahoma, sans-serif" font-size="12" lengthAdjust="spacingAndGlyphs" textLength="68" x="864.5" y="331.1659">styled-reset</text><!--entity _actions--><rect fill="#F8F8F8" height="34.4844" rx="2" ry="2" style="stroke: #000000; stroke-width: 0.5;" width="63" x="453" y="615.162"/><text fill="#000000" font-family="Tahoma, sans-serif" font-size="12" lengthAdjust="spacingAndGlyphs" textLength="43" x="463" y="637.1679">actions</text><!--entity _app--><rect fill="#F8F8F8" height="34.4844" rx="2" ry="2" style="stroke: #000000; stroke-width: 0.5;" width="41" x="32.5" y="893.162"/><text fill="#000000" font-family="Tahoma, sans-serif" font-size="12" lengthAdjust="spacingAndGlyphs" textLength="21" x="42.5" y="915.1679">app</text><!--entity _container--><rect fill="#F8F8F8" height="34.4844" rx="2" ry="2" style="stroke: #000000; stroke-width: 0.5;" width="74" x="591.5" y="711.162"/><text fill="#000000" font-family="Tahoma, sans-serif" font-size="12" lengthAdjust="spacingAndGlyphs" textLength="54" x="601.5" y="733.1679">container</text><!--entity _editor_index--><rect fill="#F8F8F8" height="34.4844" rx="2" ry="2" style="stroke: #000000; stroke-width: 0.5;" width="88" x="140" y="578.162"/><text fill="#000000" font-family="Tahoma, sans-serif" font-size="12" lengthAdjust="spacingAndGlyphs" textLength="68" x="150" y="600.1679">editor/index</text><!--entity _logo--><rect fill="#F8F8F8" height="34.4844" rx="2" ry="2" style="stroke: #000000; stroke-width: 0.5;" width="46" x="605.5" y="1236.162"/><text fill="#000000" font-family="Tahoma, sans-serif" font-size="12" lengthAdjust="spacingAndGlyphs" textLength="26" x="615.5" y="1258.1679">logo</text><ellipse cx="335.189" cy="662.9998" fill="#F8F8F8" rx="67.189" ry="15.8378" style="stroke: #383838; stroke-width: 0.5;"/><text fill="#000000" font-family="Tahoma, sans-serif" font-size="12" lengthAdjust="spacingAndGlyphs" textLength="106" x="282.189" y="666.742">plantuml-language</text><!--entity _preview--><rect fill="#F8F8F8" height="34.4844" rx="2" ry="2" style="stroke: #000000; stroke-width: 0.5;" width="63" x="152.5" y="963.162"/><text fill="#000000" font-family="Tahoma, sans-serif" font-size="12" lengthAdjust="spacingAndGlyphs" textLength="43" x="162.5" y="985.1679">preview</text><!--entity _readme--><rect fill="#F8F8F8" height="34.4844" rx="2" ry="2" style="stroke: #000000; stroke-width: 0.5;" width="63" x="597" y="1344.1616"/><text fill="#000000" font-family="Tahoma, sans-serif" font-size="12" lengthAdjust="spacingAndGlyphs" textLength="43" x="607" y="1366.1675">readme</text><!--entity _reducer--><rect fill="#F8F8F8" height="34.4844" rx="2" ry="2" style="stroke: #000000; stroke-width: 0.5;" width="63" x="597" y="561.162"/><text fill="#000000" font-family="Tahoma, sans-serif" font-size="12" lengthAdjust="spacingAndGlyphs" textLength="43" x="607" y="583.1679">reducer</text><!--entity _responsive_image--><rect fill="#F8F8F8" height="34.4844" rx="2" ry="2" style="stroke: #000000; stroke-width: 0.5;" width="123" x="567" y="1125.162"/><text fill="#000000" font-family="Tahoma, sans-serif" font-size="12" lengthAdjust="spacingAndGlyphs" textLength="103" x="577" y="1147.1679">responsive-image</text><!--entity _section--><rect fill="#F8F8F8" height="34.4844" rx="2" ry="2" style="stroke: #000000; stroke-width: 0.5;" width="63" x="597" y="1290.162"/><text fill="#000000" font-family="Tahoma, sans-serif" font-size="12" lengthAdjust="spacingAndGlyphs" textLength="43" x="607" y="1312.1679">section</text><!--entity _spinner--><rect fill="#F8F8F8" height="34.4844" rx="2" ry="2" style="stroke: #000000; stroke-width: 0.5;" width="62" x="597.5" y="1179.162"/><text fill="#000000" font-family="Tahoma, sans-serif" font-size="12" lengthAdjust="spacingAndGlyphs" textLength="42" x="607.5" y="1201.1679">spinner</text><ellipse cx="52.8406" cy="254.402" fill="#F8F8F8" rx="46.8406" ry="13.242" style="stroke: #383838; stroke-width: 0.5;"/><text fill="#000000" font-family="Tahoma, sans-serif" font-size="12" font-weight="bold" lengthAdjust="spacingAndGlyphs" textLength="62" x="21.8406" y="258.1442">src/index</text><!--entity _stars--><rect fill="#F8F8F8" height="34.4844" rx="2" ry="2" style="stroke: #000000; stroke-width: 0.5;" width="49" x="604" y="495.162"/><text fill="#000000" font-family="Tahoma, sans-serif" font-size="12" lengthAdjust="spacingAndGlyphs" textLength="29" x="614" y="517.1679">stars</text><!--entity _store_index--><rect fill="#F8F8F8" height="34.4844" rx="2" ry="2" style="stroke: #000000; stroke-width: 0.5;" width="85" x="442" y="174.16"/><text fill="#000000" font-family="Tahoma, sans-serif" font-size="12" lengthAdjust="spacingAndGlyphs" textLength="65" x="452" y="196.1659">store/index</text><!--entity _switcher--><rect fill="#F8F8F8" height="34.4844" rx="2" ry="2" style="stroke: #000000; stroke-width: 0.5;" width="68" x="301" y="867.162"/><text fill="#000000" font-family="Tahoma, sans-serif" font-size="12" lengthAdjust="spacingAndGlyphs" textLength="48" x="311" y="889.1679">switcher</text><!--entity _theme--><rect fill="#F8F8F8" height="34.4844" rx="2" ry="2" style="stroke: #000000; stroke-width: 0.5;" width="56" x="600.5" y="237.16"/><text fill="#000000" font-family="Tahoma, sans-serif" font-size="12" lengthAdjust="spacingAndGlyphs" textLength="36" x="610.5" y="259.1659">theme</text><!--link _actions to plantuml-encoder-decoder--><path d="M516.13,633.5 C576.804,636.151 714.363,642.16 806.594,646.19 " fill="none" id="_actions-plantuml-encoder-decoder" style="stroke: #000000; stroke-width: 0.55;"/><polygon fill="#000000" points="811.775,646.416,802.9585,642.0263,806.7798,646.1974,802.6087,650.0187,811.775,646.416" style="stroke: #000000; stroke-width: 0.55;"/><!--link _actions to _reducer--><path d="M516.312,626.754 C539.253,619.56 570.541,607.717 594.084,597.344 " fill="none" id="_actions-_reducer" style="stroke: #000000; stroke-width: 0.55;"/><polygon fill="#000000" points="598.684,595.291,588.8352,595.3041,594.1177,597.3278,592.094,602.6103,598.684,595.291" style="stroke: #000000; stroke-width: 0.55;"/><!--link _reducer to _actions--><path d="M596.841,583.521 C573.864,590.717 542.45,602.606 518.847,613.01 " fill="none" id="_reducer-_actions" style="stroke: #000000; stroke-width: 0.55;"/><polygon fill="#000000" points="514.236,615.069,524.0848,615.0521,518.8016,613.0305,520.8232,607.7472,514.236,615.069" style="stroke: #000000; stroke-width: 0.55;"/><!--link _app to _container--><path d="M73.7722,903.362 C91.1778,897.408 117.226,888.574 140,881.162 C304.992,827.459 502.46,766.499 586.451,740.724 " fill="none" id="_app-_container" style="stroke: #000000; stroke-width: 0.55;"/><polygon fill="#000000" points="591.334,739.226,581.5568,738.0402,586.5537,740.6918,583.9021,745.6887,591.334,739.226" style="stroke: #000000; stroke-width: 0.55;"/><!--link _app to _editor_index--><path d="M60.6222,893.008 C74.8165,856.359 109.373,767.76 140,694.162 C151.13,667.414 164.5,636.865 173.345,616.863 " fill="none" id="_app-_editor_index" style="stroke: #000000; stroke-width: 0.55;"/><polygon fill="#000000" points="175.382,612.262,168.0813,618.8726,173.3581,616.8341,175.3966,622.1108,175.382,612.262" style="stroke: #000000; stroke-width: 0.55;"/><!--link _app to _logo--><path d="M56.0289,927.284 C63.5439,987.543 91.8744,1188.278 140,1227.162 C211.092,1284.602 508.405,1263.712 600.311,1255.705 " fill="none" id="_app-_logo" style="stroke: #000000; stroke-width: 0.55;"/><polygon fill="#000000" points="605.301,1255.266,595.9848,1252.071,600.3203,1255.7046,596.6866,1260.0401,605.301,1255.266" style="stroke: #000000; stroke-width: 0.55;"/><!--link _app to _preview--><path d="M73.5923,920.793 C93.1514,931.406 123.648,947.955 147.48,960.887 " fill="none" id="_app-_preview" style="stroke: #000000; stroke-width: 0.55;"/><polygon fill="#000000" points="152.153,963.423,146.152,955.6135,147.7588,961.0374,142.335,962.6442,152.153,963.423" style="stroke: #000000; stroke-width: 0.55;"/><!--link _app to react--><path d="M73.8427,912.71 C127.362,919.05 278.944,933.476 402,911.162 C536.51,886.77 586.82,892.839 690,803.162 C724.375,773.285 751.937,650.977 788,623.162 C811.206,605.263 844.709,599.064 868.535,597.003 " fill="none" id="_app-react" style="stroke: #000000; stroke-width: 0.55;"/><polygon fill="#000000" points="873.766,596.603,864.4871,593.3012,868.7806,596.9844,865.0973,601.2779,873.766,596.603" style="stroke: #000000; stroke-width: 0.55;"/><!--link _app to react-redux--><path d="M63.5567,927.49 C77.1872,950.286 104.5369,989.516 140,1007.162 C375.375,1124.277 518.631,1187.135 731,1032.162 C779.254,996.949 760.068,962.694 772,904.162 C779.712,866.331 762.815,760.425 788,731.162 C803.377,713.294 828.509,706.261 850.82,703.823 " fill="none" id="_app-react-redux" style="stroke: #000000; stroke-width: 0.55;"/><polygon fill="#000000" points="855.828,703.346,846.4892,700.2176,850.8505,703.8202,847.2479,708.1815,855.828,703.346" style="stroke: #000000; stroke-width: 0.55;"/><!--link _app to _readme--><path d="M55.2761,927.465 C60.6862,995.829 84.0709,1245.879 140,1297.162 C268.619,1415.095 502.689,1385.4891 591.777,1368.7745 " fill="none" id="_app-_readme" style="stroke: #000000; stroke-width: 0.55;"/><polygon fill="#000000" points="596.927,1367.7923,587.3368,1365.55,592.0156,1368.7294,588.8362,1373.4083,596.927,1367.7923" style="stroke: #000000; stroke-width: 0.55;"/><!--link _app to _reducer--><path d="M73.6316,896.301 C90.9471,884.17 116.942,866.187 140,851.162 C254.701,776.416 316.497,796.085 402,689.162 C436.059,646.57 397.595,604.82 442,573.162 C485.808,541.928 551.402,553.573 591.714,565.444 " fill="none" id="_app-_reducer" style="stroke: #000000; stroke-width: 0.55;"/><polygon fill="#000000" points="596.986,567.041,589.5308,560.6052,592.2004,565.5925,587.2131,568.2621,596.986,567.041" style="stroke: #000000; stroke-width: 0.55;"/><!--link _app to _section--><path d="M55.6223,927.173 C62.0819,991.068 88.1739,1215.346 140,1260.162 C207.372,1318.42 490.963,1312.802 591.761,1308.839 " fill="none" id="_app-_section" style="stroke: #000000; stroke-width: 0.55;"/><polygon fill="#000000" points="596.994,1308.628,587.8402,1304.9938,591.9981,1308.8294,588.1625,1312.9873,596.994,1308.628" style="stroke: #000000; stroke-width: 0.55;"/><!--link _app to _stars--><path d="M56.1492,893.051 C64.2844,830.802 95.0249,617.463 140,568.162 C261.172,435.334 513.877,483.452 598.891,504.448 " fill="none" id="_app-_stars" style="stroke: #000000; stroke-width: 0.55;"/><polygon fill="#000000" points="603.77,505.669,596.0105,499.6035,598.9196,504.455,594.0681,507.3641,603.77,505.669" style="stroke: #000000; stroke-width: 0.55;"/><!--link _app to _switcher--><path d="M73.6891,908.333 C119.727,904.058 235.078,893.347 295.586,887.729 " fill="none" id="_app-_switcher" style="stroke: #000000; stroke-width: 0.55;"/><polygon fill="#000000" points="300.911,887.234,291.5794,884.0843,295.9325,887.6969,292.3199,892.05,300.911,887.234" style="stroke: #000000; stroke-width: 0.55;"/><!--link _container to styled-components--><path d="M654.188,745.213 C673.756,757.638 702.323,773.425 730,780.162 C765.572,788.819 806.276,783.804 838.652,776.391 " fill="none" id="_container-styled-components" style="stroke: #000000; stroke-width: 0.55;"/><polygon fill="#000000" points="843.774,775.182,834.0958,773.3567,838.9077,776.3307,835.9337,781.1427,843.774,775.182" style="stroke: #000000; stroke-width: 0.55;"/><!--link _editor_index to _actions--><path d="M228.31,591.748 C272.465,589.294 342.707,588.229 402,600.162 C417.665,603.314 434.206,609.273 448.264,615.202 " fill="none" id="_editor_index-_actions" style="stroke: #000000; stroke-width: 0.55;"/><polygon fill="#000000" points="452.931,617.207,446.2422,609.9779,448.3374,615.2324,443.0829,617.3276,452.931,617.207" style="stroke: #000000; stroke-width: 0.55;"/><!--link _editor_index to plantuml-language--><path d="M222.599,612.321 C245.779,622.9 275.335,636.388 298.178,646.813 " fill="none" id="_editor_index-plantuml-language" style="stroke: #000000; stroke-width: 0.55;"/><polygon fill="#000000" points="302.946,648.989,296.4189,641.6136,298.3973,646.9132,293.0976,648.8916,302.946,648.989" style="stroke: #000000; stroke-width: 0.55;"/><!--link _editor_index to react-monaco-editor--><path d="M221.377,578.004 C223.69,576.474 225.921,574.858 228,573.162 C250.048,555.168 243.18,537.085 268,523.162 C448.21,422.067 523.56,480.011 730,471.162 C760.642,469.848 794.305,472.467 823.365,476.016 " fill="none" id="_editor_index-react-monaco-editor" style="stroke: #000000; stroke-width: 0.55;"/><polygon fill="#000000" points="828.361,476.641,819.9279,471.5535,823.3998,476.0196,818.9337,479.4915,828.361,476.641" style="stroke: #000000; stroke-width: 0.55;"/><!--link _editor_index to react-redux--><path d="M228.054,599.49 C272.612,604.886 343.722,616.085 402,637.162 C421.08,644.062 422.621,653.153 442,659.162 C517.405,682.541 750.157,696.737 850.581,701.921 " fill="none" id="_editor_index-react-redux" style="stroke: #000000; stroke-width: 0.55;"/><polygon fill="#000000" points="855.843,702.191,847.0594,697.7359,850.8495,701.9353,846.6502,705.7254,855.843,702.191" style="stroke: #000000; stroke-width: 0.55;"/><!--link _editor_index to _reducer--><path d="M219.666,578.118 C281.66,549.868 415.473,499.018 527,526.162 C552.731,532.424 579.231,546.51 598.554,558.444 " fill="none" id="_editor_index-_reducer" style="stroke: #000000; stroke-width: 0.55;"/><polygon fill="#000000" points="602.812,561.11,597.3064,552.9437,598.5741,558.4567,593.0611,559.7243,602.812,561.11" style="stroke: #000000; stroke-width: 0.55;"/><!--link _logo to styled-components--><path d="M651.752,1244.735 C663.77,1239.565 678.465,1232.201 690,1223.162 C734.434,1188.342 751.358,1178.704 772,1126.162 C785.87,1090.858 763.915,814.464 788,785.162 C797.885,773.134 812.193,765.974 827.223,761.817 " fill="none" id="_logo-styled-components" style="stroke: #000000; stroke-width: 0.55;"/><polygon fill="#000000" points="832.342,760.52,822.6356,758.8512,827.4949,761.7471,824.599,766.6065,832.342,760.52" style="stroke: #000000; stroke-width: 0.55;"/><!--link _preview to _actions--><path d="M192.294,962.887 C204.302,936.441 230.678,885.964 268,857.162 C317.964,818.603 355.367,852.689 402,810.162 C402.393,809.803 451.978,701.225 473.604,653.846 " fill="none" id="_preview-_actions" style="stroke: #000000; stroke-width: 0.55;"/><polygon fill="#000000" points="475.73,649.188,468.3529,655.7132,473.653,653.7362,475.63,659.0364,475.73,649.188" style="stroke: #000000; stroke-width: 0.55;"/><!--link _preview to react--><path d="M215.922,981.147 C276.806,982.248 415.949,980.595 527,948.162 C644.535,913.835 704.079,924.042 772,822.162 C796.609,785.248 759.262,656.961 788,623.162 C807.537,600.183 843.21,595.082 868.526,594.664 " fill="none" id="_preview-react" style="stroke: #000000; stroke-width: 0.55;"/><polygon fill="#000000" points="873.761,594.641,864.7428,590.6822,868.7611,594.6639,864.7794,598.6821,873.761,594.641" style="stroke: #000000; stroke-width: 0.55;"/><!--link _preview to react-redux--><path d="M215.792,986.35 C269.772,996.643 385.106,1016.162 483.5,1016.162 C483.5,1016.162 483.5,1016.162 731,1016.162 C816.954,1016.162 755.819,911.578 772,827.162 C776.072,805.921 773.304,747.029 788,731.162 C803.828,714.073 828.591,707.035 850.568,704.398 " fill="none" id="_preview-react-redux" style="stroke: #000000; stroke-width: 0.55;"/><polygon fill="#000000" points="855.793,703.846,846.4224,700.8143,850.8207,704.3717,847.2634,708.77,855.793,703.846" style="stroke: #000000; stroke-width: 0.55;"/><!--link _preview to _reducer--><path d="M190.492,963.021 C201.289,931.358 227.782,862.776 268,817.162 C315.61,763.163 358.619,783.613 402,726.162 C436.131,680.96 398.608,641.565 442,605.162 C483.962,569.959 550.925,569.373 591.88,573.103 " fill="none" id="_preview-_reducer" style="stroke: #000000; stroke-width: 0.55;"/><polygon fill="#000000" points="596.988,573.603,588.4206,568.7451,592.0118,573.1158,587.6411,576.707,596.988,573.603" style="stroke: #000000; stroke-width: 0.55;"/><!--link _preview to _responsive_image--><path d="M208.747,997.396 C224.853,1008.481 246.963,1022.557 268,1032.162 C366.425,1077.1 488.124,1109.964 561.684,1127.547 " fill="none" id="_preview-_responsive_image" style="stroke: #000000; stroke-width: 0.55;"/><polygon fill="#000000" points="566.897,1128.787,559.067,1122.8127,562.0327,1127.6299,557.2156,1130.5956,566.897,1128.787" style="stroke: #000000; stroke-width: 0.55;"/><!--link _preview to _spinner--><path d="M194.091,997.524 C207.274,1021.036 233.896,1062.744 268,1086.162 C372.093,1157.638 524.165,1183.904 592.254,1192.472 " fill="none" id="_preview-_spinner" style="stroke: #000000; stroke-width: 0.55;"/><polygon fill="#000000" points="597.402,1193.106,588.9588,1188.0352,592.4395,1192.4944,587.9803,1195.9752,597.402,1193.106" style="stroke: #000000; stroke-width: 0.55;"/><!--link _readme to arkit--><path d="M648.908,1378.3955 C678.231,1402.2731 734.387,1439.3555 772,1410.1616 C848.443,1350.8301 886.279,1030.506 895.327,942.528 " fill="none" id="_readme-arkit" style="stroke: #000000; stroke-width: 0.55;"/><polygon fill="#000000" points="895.858,937.312,890.9682,945.8613,895.3523,942.2864,898.9272,946.6704,895.858,937.312" style="stroke: #000000; stroke-width: 0.55;"/><!--link _readme to react--><path d="M660.068,1354.0056 C671.066,1349.9424 682.577,1343.6884 690,1334.1616 C755.162,1250.528 759.359,969.427 772,864.162 C775.2,837.516 770.759,643.728 788,623.162 C807.377,600.048 843.082,594.974 868.449,594.599 " fill="none" id="_readme-react" style="stroke: #000000; stroke-width: 0.55;"/><polygon fill="#000000" points="873.696,594.586,864.6857,590.6092,868.696,594.5989,864.7063,598.6091,873.696,594.586" style="stroke: #000000; stroke-width: 0.55;"/><!--link _readme to react-markdown--><path d="M660.169,1374.1641 C692.528,1385.5836 742.797,1396.3979 772,1368.1616 C809.964,1331.4548 754.739,934.178 788,893.162 C799.892,878.496 818.363,871.048 836.769,867.461 " fill="none" id="_readme-react-markdown" style="stroke: #000000; stroke-width: 0.55;"/><polygon fill="#000000" points="841.953,866.549,832.3957,864.1705,837.0288,867.4161,833.7831,872.0492,841.953,866.549" style="stroke: #000000; stroke-width: 0.55;"/><!--link _readme to styled-components--><path d="M660.166,1352.5079 C670.658,1348.3339 681.804,1342.3946 690,1334.1616 C755.752,1268.111 751.934,1232.175 772,1141.162 C780.525,1102.495 762.888,815.775 788,785.162 C797.873,773.125 812.177,765.96 827.206,761.803 " fill="none" id="_readme-styled-components" style="stroke: #000000; stroke-width: 0.55;"/><polygon fill="#000000" points="832.325,760.506,822.6184,758.8378,827.478,761.7335,824.5824,766.593,832.325,760.506" style="stroke: #000000; stroke-width: 0.55;"/><!--link _reducer to plantuml-encoder-decoder--><path d="M660.094,587.19 C691.953,596.511 743.346,611.321 788,623.162 C798.93,626.06 810.5,629.024 821.867,631.878 " fill="none" id="_reducer-plantuml-encoder-decoder" style="stroke: #000000; stroke-width: 0.55;"/><polygon fill="#000000" points="826.723,633.093,818.964,627.0269,821.8727,631.8786,817.021,634.7874,826.723,633.093" style="stroke: #000000; stroke-width: 0.55;"/><!--link _reducer to redux--><path d="M660.283,561.303 C670.321,555.051 681.15,547.445 690,539.162 C743.344,489.229 727.162,447.629 788,407.16 C811.947,391.23 844.464,384.69 867.833,382.01 " fill="none" id="_reducer-redux" style="stroke: #000000; stroke-width: 0.55;"/><polygon fill="#000000" points="872.97,381.47,863.5984,378.4413,867.9979,381.9972,864.4419,386.3967,872.97,381.47" style="stroke: #000000; stroke-width: 0.55;"/><!--link _reducer to redux-persist--><path d="M657.293,561.063 C667.706,554.445 679.542,546.666 690,539.162 C735.228,506.707 738.045,485.725 788,461.162 C805.908,452.356 826.912,446.282 845.709,442.161 " fill="none" id="_reducer-redux-persist" style="stroke: #000000; stroke-width: 0.55;"/><polygon fill="#000000" points="850.948,441.05,841.314,439.0038,846.0567,442.0871,842.9734,446.8298,850.948,441.05" style="stroke: #000000; stroke-width: 0.55;"/><!--link _responsive_image to styled-components--><path d="M690.224,1147.179 C719.292,1146.054 752.034,1138.958 772,1116.162 C796.26,1088.463 764.6,813.59 788,785.162 C797.894,773.141 812.205,765.983 827.235,761.827 " fill="none" id="_responsive_image-styled-components" style="stroke: #000000; stroke-width: 0.55;"/><polygon fill="#000000" points="832.354,760.53,822.6476,758.8612,827.5069,761.7571,824.611,766.6165,832.354,760.53" style="stroke: #000000; stroke-width: 0.55;"/><!--link _section to styled-components--><path d="M660.063,1297.951 C670.425,1293.743 681.513,1287.925 690,1280.162 C745.202,1229.67 751.514,1205.113 772,1133.162 C782.6,1095.934 763.436,815.076 788,785.162 C797.88,773.13 812.185,765.967 827.215,761.81 " fill="none" id="_section-styled-components" style="stroke: #000000; stroke-width: 0.55;"/><polygon fill="#000000" points="832.334,760.513,822.6271,758.8469,827.4873,761.7415,824.5926,766.6016,832.334,760.513" style="stroke: #000000; stroke-width: 0.55;"/><!--link _spinner to react-loader-spinner--><path d="M659.531,1208.019 C691.824,1218.569 742.492,1228.391 772,1200.162 C801.012,1172.407 762.546,870.212 788,839.162 C797.368,827.734 810.729,820.697 824.914,816.456 " fill="none" id="_spinner-react-loader-spinner" style="stroke: #000000; stroke-width: 0.55;"/><polygon fill="#000000" points="829.752,815.123,820.0127,813.6584,824.9318,816.4516,822.1385,821.3707,829.752,815.123" style="stroke: #000000; stroke-width: 0.55;"/><!--link _spinner to styled-components--><path d="M659.512,1189.989 C693.587,1181.201 747.603,1161.459 772,1121.162 C791.357,1089.189 764.258,814.027 788,785.162 C797.889,773.138 812.199,765.979 827.229,761.822 " fill="none" id="_spinner-styled-components" style="stroke: #000000; stroke-width: 0.55;"/><polygon fill="#000000" points="832.348,760.524,822.6416,758.8552,827.5009,761.7511,824.605,766.6105,832.348,760.524" style="stroke: #000000; stroke-width: 0.55;"/><!--link <b>src/index</b> to _app--><path d="M53,267.26 C53,474.064 53,680.868 53,887.672 " fill="none" id="&lt;b&gt;src/index&lt;/b&gt;-_app" style="stroke: #000000; stroke-width: 1.0;"/><polygon fill="#000000" points="53,892.865,57,883.865,53,887.865,49,883.865,53,892.865" style="stroke: #000000; stroke-width: 1.0;"/><!--link <b>src/index</b> to react--><path d="M86.4516,263.42 C138.305,277.36 243.251,302.16 334,302.16 C334,302.16 334,302.16 629.5,302.16 C767.501,302.16 677.179,486.924 788,569.162 C811.535,586.626 844.982,592.898 868.705,595.096 " fill="none" id="&lt;b&gt;src/index&lt;/b&gt;-react" style="stroke: #000000; stroke-width: 1.0;"/><polygon fill="#000000" points="873.912,595.527,865.273,590.7975,868.9291,595.1141,864.6124,598.7702,873.912,595.527" style="stroke: #000000; stroke-width: 1.0;"/><!--link <b>src/index</b> to react-dom--><path d="M60.4286,241.28 C86.7006,190.67 191.32,8.16 334,8.16 C334,8.16 334,8.16 731,8.16 C844.844,8.16 883.969,185.97 894.341,249.74 " fill="none" id="&lt;b&gt;src/index&lt;/b&gt;-react-dom" style="stroke: #000000; stroke-width: 1.0;"/><polygon fill="#000000" points="895.148,254.84,897.7111,245.3305,894.3763,249.8999,889.8069,246.5652,895.148,254.84" style="stroke: #000000; stroke-width: 1.0;"/><!--link <b>src/index</b> to _store_index--><path d="M92.0339,246.68 C106.961,243.85 124.257,240.7 140,238.16 C245.838,221.09 370.677,205.02 436.847,196.82 " fill="none" id="&lt;b&gt;src/index&lt;/b&gt;-_store_index" style="stroke: #000000; stroke-width: 1.0;"/><polygon fill="#000000" points="441.897,196.2,432.4734,193.3372,436.935,196.8149,433.4572,201.2764,441.897,196.2" style="stroke: #000000; stroke-width: 1.0;"/><!--link <b>src/index</b> to _theme--><path d="M100.4461,254.16 C213.114,254.16 498.747,254.16 595.152,254.16 " fill="none" id="&lt;b&gt;src/index&lt;/b&gt;-_theme" style="stroke: #000000; stroke-width: 1.0;"/><polygon fill="#000000" points="600.414,254.16,591.414,250.16,595.414,254.16,591.414,258.16,600.414,254.16" style="stroke: #000000; stroke-width: 1.0;"/><!--link _stars to react--><path d="M653.142,521.532 C683.894,533.52 739.433,554.484 788,569.162 C815.068,577.342 846.445,584.886 868.655,589.907 " fill="none" id="_stars-react" style="stroke: #000000; stroke-width: 0.55;"/><polygon fill="#000000" points="873.813,591.066,865.9083,585.191,868.9345,589.9703,864.1552,592.9965,873.813,591.066" style="stroke: #000000; stroke-width: 0.55;"/><!--link _stars to react-github-btn--><path d="M653.175,502.196 C682.492,491.453 733.289,478.152 772,496.162 C782.01,500.818 778.625,509.332 788,515.162 C802.767,524.344 820.467,530.405 837.288,534.405 " fill="none" id="_stars-react-github-btn" style="stroke: #000000; stroke-width: 0.55;"/><polygon fill="#000000" points="842.475,535.582,834.5822,529.6911,837.5987,534.4765,832.8133,537.4931,842.475,535.582" style="stroke: #000000; stroke-width: 0.55;"/><!--link _stars to styled-components--><path d="M653.052,523.683 C665.166,530.455 679.541,539.898 690,551.162 C751.982,617.91 715.873,675.531 788,731.162 C799.392,739.948 813.265,745.915 827.256,749.957 " fill="none" id="_stars-styled-components" style="stroke: #000000; stroke-width: 0.55;"/><polygon fill="#000000" points="832.412,751.361,824.7782,745.1381,827.5875,750.0481,822.6775,752.8574,832.412,751.361" style="stroke: #000000; stroke-width: 0.55;"/><!--link _store_index to react--><path d="M527.145,191.01 C570.302,192.5 638.519,199.59 690,227.16 C762.539,266.01 755.152,312.62 772,393.16 C780.041,431.602 762.405,539.375 788,569.162 C807.657,592.038 843.305,597.159 868.582,597.611 " fill="none" id="_store_index-react" style="stroke: #000000; stroke-width: 0.55;"/><polygon fill="#000000" points="873.809,597.641,864.8332,593.5871,868.8091,597.611,864.7852,601.5869,873.809,597.641" style="stroke: #000000; stroke-width: 0.55;"/><!--link _store_index to react-redux--><path d="M498.567,208.18 C532.313,252.47 624.325,375.56 690,485.162 C739.245,567.343 712.923,617.644 788,677.162 C805.756,691.237 829.834,698.105 850.891,701.404 " fill="none" id="_store_index-react-redux" style="stroke: #000000; stroke-width: 0.55;"/><polygon fill="#000000" points="855.892,702.131,847.5617,696.8769,850.9441,701.4111,846.4099,704.7935,855.892,702.131" style="stroke: #000000; stroke-width: 0.55;"/><!--link _store_index to _reducer--><path d="M485.179,208.18 C484.994,261.96 490.838,431.143 567,539.162 C573.495,548.373 582.922,555.934 592.409,561.865 " fill="none" id="_store_index-_reducer" style="stroke: #000000; stroke-width: 0.55;"/><polygon fill="#000000" points="596.763,564.475,591.1012,556.4162,592.4748,561.9038,586.9872,563.2774,596.763,564.475" style="stroke: #000000; stroke-width: 0.55;"/><!--link _store_index to redux--><path d="M491.722,173.9 C502.398,147.2 527.003,96.84 567,76.16 C631.748,42.69 663.829,47.86 731,76.16 C755.04,86.29 761.347,94.35 772,118.16 C793.375,165.94 754.339,313.08 788,353.16 C807.161,375.98 842.234,381.21 867.532,381.7 " fill="none" id="_store_index-redux" style="stroke: #000000; stroke-width: 0.55;"/><polygon fill="#000000" points="872.772,381.74,863.8008,377.6758,867.7721,381.7043,863.7437,385.6756,872.772,381.74" style="stroke: #000000; stroke-width: 0.55;"/><!--link _store_index to redux-persist--><path d="M522.008,174.03 C535.79,168.44 551.813,162.95 567,160.16 C638.689,146.99 663.829,131.86 731,160.16 C755.04,170.29 761.229,178.4 772,202.16 C790.866,243.78 758.442,372.32 788,407.16 C802.129,423.819 824.738,431.086 845.752,433.983 " fill="none" id="_store_index-redux-persist" style="stroke: #000000; stroke-width: 0.55;"/><polygon fill="#000000" points="850.771,434.599,842.3248,429.5333,845.8082,433.9904,841.3511,437.4738,850.771,434.599" style="stroke: #000000; stroke-width: 0.55;"/><!--link _switcher to _actions--><path d="M369.22,874.487 C381.056,869.538 393.536,862.347 402,852.162 C445.001,800.417 416.467,768.409 442,706.162 C449.599,687.636 460.829,667.92 469.692,653.5 " fill="none" id="_switcher-_actions" style="stroke: #000000; stroke-width: 0.55;"/><polygon fill="#000000" points="472.36,649.202,464.2142,654.7379,469.7225,653.4498,471.0107,658.958,472.36,649.202" style="stroke: #000000; stroke-width: 0.55;"/><!--link _switcher to react--><path d="M369.313,873.302 C379.798,869.818 391.406,865.894 402,862.162 C410.049,859.326 683.175,760.285 690,755.162 C748.435,711.295 727.162,663.629 788,623.162 C812.25,607.031 845.289,600.53 868.715,597.914 " fill="none" id="_switcher-react" style="stroke: #000000; stroke-width: 0.55;"/><polygon fill="#000000" points="873.858,597.385,864.4961,594.3265,868.8842,597.8964,865.3143,602.2845,873.858,597.385" style="stroke: #000000; stroke-width: 0.55;"/><!--link _switcher to react-redux--><path d="M369.337,881.661 C466.277,874.084 743.053,850.175 772,822.162 C801.509,793.604 759.962,761.165 788,731.162 C803.904,714.143 828.672,707.111 850.633,704.459 " fill="none" id="_switcher-react-redux" style="stroke: #000000; stroke-width: 0.55;"/><polygon fill="#000000" points="855.854,703.903,846.4808,700.8793,850.8822,704.4329,847.3286,708.8343,855.854,703.903" style="stroke: #000000; stroke-width: 0.55;"/><!--link _switcher to _reducer--><path d="M369.034,872.399 C380.309,867.332 392.465,860.603 402,852.162 C426.553,830.424 422.262,816.348 442,790.162 C497.527,716.494 571.936,636.29 607.256,599.176 " fill="none" id="_switcher-_reducer" style="stroke: #000000; stroke-width: 0.55;"/><polygon fill="#000000" points="610.958,595.293,601.8517,599.0448,607.507,598.9111,607.6407,604.5664,610.958,595.293" style="stroke: #000000; stroke-width: 0.55;"/><!--link _switcher to styled-components--><path d="M369.038,890.917 C433.555,902.524 579.635,920.947 690,876.162 C745.076,853.812 735.699,813.4 788,785.162 C800.122,778.617 813.852,773.63 827.391,769.839 " fill="none" id="_switcher-styled-components" style="stroke: #000000; stroke-width: 0.55;"/><polygon fill="#000000" points="832.367,768.496,822.6356,766.9794,827.5397,769.7989,824.7202,774.703,832.367,768.496" style="stroke: #000000; stroke-width: 0.55;"/><!--link _theme to react--><path d="M656.716,255.98 C679.429,258.92 711.182,266.52 731,286.16 C772.832,327.61 759.835,354.54 772,412.16 C779.245,446.475 765,542.688 788,569.162 C807.781,591.93 843.404,597.074 868.642,597.559 " fill="none" id="_theme-react" style="stroke: #000000; stroke-width: 0.55;"/><polygon fill="#000000" points="873.86,597.597,864.89,593.5303,868.8601,597.5599,864.8305,601.53,873.86,597.597" style="stroke: #000000; stroke-width: 0.55;"/><!--link _theme to styled-components--><path d="M634.69,271.31 C659.985,354.69 769.873,714.414 788,731.162 C798.918,741.249 812.99,747.728 827.386,751.851 " fill="none" id="_theme-styled-components" style="stroke: #000000; stroke-width: 0.55;"/><polygon fill="#000000" points="832.276,753.161,824.6163,746.9699,827.446,751.8682,822.5478,754.6978,832.276,753.161" style="stroke: #000000; stroke-width: 0.55;"/><!--link _theme to styled-reset--><path d="M640.622,236.97 C665.668,200.28 727.755,120.72 772,160.16 C795.209,180.85 767.455,275.82 788,299.16 C803.151,316.37 827.356,323.49 849.16,326.14 " fill="none" id="_theme-styled-reset" style="stroke: #000000; stroke-width: 0.55;"/><polygon fill="#000000" points="854.351,326.7,845.8271,321.766,849.3793,326.1685,844.9768,329.7207,854.351,326.7" style="stroke: #000000; stroke-width: 0.55;"/><script type="text/plantuml"><![CDATA[
@startuml

scale max 1920 width
left to right direction

skinparam nodesep 20
skinparam ranksep 40
skinparam monochrome true
skinparam shadowing false
skinparam defaultFontName Tahoma
skinparam defaultFontSize 12
skinparam roundCorner 4
skinparam dpi 150
skinparam arrowColor black
skinparam arrowThickness 0.55
skinparam packageTitleAlignment left

skinparam usecase {
  borderThickness 0.5
}

skinparam rectangle {
  borderThickness 0.5
}

skinparam component {
  borderThickness 1
}


rectangle "actions" as _actions
rectangle "app" as _app
rectangle "container" as _container
rectangle "editor/index" as _editor_index
rectangle "logo" as _logo
(plantuml-language)
rectangle "preview" as _preview
rectangle "readme" as _readme
rectangle "reducer" as _reducer
rectangle "responsive-image" as _responsive_image
rectangle "section" as _section
rectangle "spinner" as _spinner
(<b>src/index</b>)
rectangle "stars" as _stars
rectangle "store/index" as _store_index
rectangle "switcher" as _switcher
rectangle "theme" as _theme

package "Dependencies" {
  [arkit]
  [plantuml-encoder-decoder]
  [react]
  [react-dom]
  [react-github-btn]
  [react-loader-spinner]
  [react-markdown]
  [react-monaco-editor]
  [react-redux]
  [redux]
  [redux-persist]
  [styled-components]
  [styled-reset]
}

_actions ----> [plantuml-encoder-decoder]
_actions --> _reducer
_app --> _container
_app --> _editor_index
_app --> _logo
_app --> _preview
_app ----> [react]
_app ----> [react-redux]
_app --> _readme
_app --> _reducer
_app --> _section
_app --> _stars
_app --> _switcher
_container ----> [styled-components]
_editor_index ---> _actions
_editor_index --> (plantuml-language)
_editor_index ----> [react-monaco-editor]
_editor_index ----> [react-redux]
_editor_index ---> _reducer
_logo ----> [styled-components]
_preview ---> _actions
_preview ----> [react]
_preview ----> [react-redux]
_preview ---> _reducer
_preview --> _responsive_image
_preview --> _spinner
_readme ----> [arkit]
_readme ----> [react]
_readme ----> [react-markdown]
_readme ----> [styled-components]
_reducer --> _actions
_reducer ----> [plantuml-encoder-decoder]
_reducer ----> [redux]
_reducer ----> [redux-persist]
_responsive_image ----> [styled-components]
_section ----> [styled-components]
_spinner ----> [react-loader-spinner]
_spinner ----> [styled-components]
(<b>src/index</b>) -[thickness=1]> _app
(<b>src/index</b>) ---[thickness=1]> [react]
(<b>src/index</b>) ---[thickness=1]> [react-dom]
(<b>src/index</b>) -[thickness=1]> _store_index
(<b>src/index</b>) -[thickness=1]> _theme
_stars ----> [react]
_stars ----> [react-github-btn]
_stars ----> [styled-components]
_store_index ----> [react]
_store_index ----> [react-redux]
_store_index --> _reducer
_store_index ----> [redux]
_store_index ----> [redux-persist]
_switcher --> _actions
_switcher ----> [react]
_switcher ----> [react-redux]
_switcher --> _reducer
_switcher ----> [styled-components]
_theme ----> [react]
_theme ----> [styled-components]
_theme ----> [styled-reset]

@enduml


' View and edit on https://arkit.herokuapp.com
]]></script></g></svg>