<?xml version="1.0" encoding="UTF-8" standalone="no"?><svg xmlns="http://www.w3.org/2000/svg" xmlns:xlink="http://www.w3.org/1999/xlink" contentScriptType="application/ecmascript" contentStyleType="text/css" height="1009px" preserveAspectRatio="none" style="width:899px;height:1009px;" version="1.1" viewBox="0 0 899 1009" width="899px" zoomAndPan="magnify"><defs/><g><!--cluster Dependencies--><path d="M709,70 L795,70 A3,3 0 0 1 797,72 L804,90.4844 L885,90.4844 A2,2 0 0 1 887,92.4844 L887,675 A2,2 0 0 1 885,677 L709,677 A2,2 0 0 1 707,675 L707,72 A2,2 0 0 1 709,70 " fill="#FFFFFF" style="stroke: #000000; stroke-width: 1.5;"/><line style="stroke: #000000; stroke-width: 1.5;" x1="707" x2="804" y1="90.4844" y2="90.4844"/><text fill="#000000" font-family="Tahoma, sans-serif" font-size="12" font-weight="bold" lengthAdjust="spacingAndGlyphs" textLength="84" x="711" y="84.0059">Dependencies</text><!--entity brace--><rect fill="#F8F8F8" height="34.4844" rx="2" ry="2" style="stroke: #383838; stroke-width: 1.0;" width="50" x="772" y="257"/><rect fill="#F8F8F8" height="5" style="stroke: #383838; stroke-width: 1.0;" width="10" x="767" y="262"/><rect fill="#F8F8F8" height="5" style="stroke: #383838; stroke-width: 1.0;" width="10" x="767" y="281.4844"/><text fill="#000000" font-family="Tahoma, sans-serif" font-size="12" lengthAdjust="spacingAndGlyphs" textLength="30" x="782" y="279.0059">brace</text><!--entity plantuml-encoder-decoder--><rect fill="#F8F8F8" height="34.4844" rx="2" ry="2" style="stroke: #383838; stroke-width: 1.0;" width="164" x="715" y="473"/><rect fill="#F8F8F8" height="5" style="stroke: #383838; stroke-width: 1.0;" width="10" x="710" y="478"/><rect fill="#F8F8F8" height="5" style="stroke: #383838; stroke-width: 1.0;" width="10" x="710" y="497.4844"/><text fill="#000000" font-family="Tahoma, sans-serif" font-size="12" lengthAdjust="spacingAndGlyphs" textLength="144" x="725" y="495.0059">plantuml-encoder-decoder</text><!--entity react--><rect fill="#F8F8F8" height="34.4844" rx="2" ry="2" style="stroke: #383838; stroke-width: 1.0;" width="48" x="773" y="365"/><rect fill="#F8F8F8" height="5" style="stroke: #383838; stroke-width: 1.0;" width="10" x="768" y="370"/><rect fill="#F8F8F8" height="5" style="stroke: #383838; stroke-width: 1.0;" width="10" x="768" y="389.4844"/><text fill="#000000" font-family="Tahoma, sans-serif" font-size="12" lengthAdjust="spacingAndGlyphs" textLength="28" x="783" y="387.0059">react</text><!--entity react-ace--><rect fill="#F8F8F8" height="34.4844" rx="2" ry="2" style="stroke: #383838; stroke-width: 1.0;" width="71" x="761.5" y="311"/><rect fill="#F8F8F8" height="5" style="stroke: #383838; stroke-width: 1.0;" width="10" x="756.5" y="316"/><rect fill="#F8F8F8" height="5" style="stroke: #383838; stroke-width: 1.0;" width="10" x="756.5" y="335.4844"/><text fill="#000000" font-family="Tahoma, sans-serif" font-size="12" lengthAdjust="spacingAndGlyphs" textLength="51" x="771.5" y="333.0059">react-ace</text><!--entity react-dom--><rect fill="#F8F8F8" height="34.4844" rx="2" ry="2" style="stroke: #383838; stroke-width: 1.0;" width="76" x="759" y="95"/><rect fill="#F8F8F8" height="5" style="stroke: #383838; stroke-width: 1.0;" width="10" x="754" y="100"/><rect fill="#F8F8F8" height="5" style="stroke: #383838; stroke-width: 1.0;" width="10" x="754" y="119.4844"/><text fill="#000000" font-family="Tahoma, sans-serif" font-size="12" lengthAdjust="spacingAndGlyphs" textLength="56" x="769" y="117.0059">react-dom</text><!--entity react-loader-spinner--><rect fill="#F8F8F8" height="34.4844" rx="2" ry="2" style="stroke: #383838; stroke-width: 1.0;" width="128" x="733" y="419"/><rect fill="#F8F8F8" height="5" style="stroke: #383838; stroke-width: 1.0;" width="10" x="728" y="424"/><rect fill="#F8F8F8" height="5" style="stroke: #383838; stroke-width: 1.0;" width="10" x="728" y="443.4844"/><text fill="#000000" font-family="Tahoma, sans-serif" font-size="12" lengthAdjust="spacingAndGlyphs" textLength="108" x="743" y="441.0059">react-loader-spinner</text><!--entity react-redux--><rect fill="#F8F8F8" height="34.4844" rx="2" ry="2" style="stroke: #383838; stroke-width: 1.0;" width="83" x="755.5" y="203"/><rect fill="#F8F8F8" height="5" style="stroke: #383838; stroke-width: 1.0;" width="10" x="750.5" y="208"/><rect fill="#F8F8F8" height="5" style="stroke: #383838; stroke-width: 1.0;" width="10" x="750.5" y="227.4844"/><text fill="#000000" font-family="Tahoma, sans-serif" font-size="12" lengthAdjust="spacingAndGlyphs" textLength="63" x="765.5" y="225.0059">react-redux</text><!--entity redux--><rect fill="#F8F8F8" height="34.4844" rx="2" ry="2" style="stroke: #383838; stroke-width: 1.0;" width="51" x="771.5" y="581"/><rect fill="#F8F8F8" height="5" style="stroke: #383838; stroke-width: 1.0;" width="10" x="766.5" y="586"/><rect fill="#F8F8F8" height="5" style="stroke: #383838; stroke-width: 1.0;" width="10" x="766.5" y="605.4844"/><text fill="#000000" font-family="Tahoma, sans-serif" font-size="12" lengthAdjust="spacingAndGlyphs" textLength="31" x="781.5" y="603.0059">redux</text><!--entity redux-persist--><rect fill="#F8F8F8" height="34.4844" rx="2" ry="2" style="stroke: #383838; stroke-width: 1.0;" width="90" x="752" y="635"/><rect fill="#F8F8F8" height="5" style="stroke: #383838; stroke-width: 1.0;" width="10" x="747" y="640"/><rect fill="#F8F8F8" height="5" style="stroke: #383838; stroke-width: 1.0;" width="10" x="747" y="659.4844"/><text fill="#000000" font-family="Tahoma, sans-serif" font-size="12" lengthAdjust="spacingAndGlyphs" textLength="70" x="762" y="657.0059">redux-persist</text><!--entity styled-components--><rect fill="#F8F8F8" height="34.4844" rx="2" ry="2" style="stroke: #383838; stroke-width: 1.0;" width="124" x="735" y="527"/><rect fill="#F8F8F8" height="5" style="stroke: #383838; stroke-width: 1.0;" width="10" x="730" y="532"/><rect fill="#F8F8F8" height="5" style="stroke: #383838; stroke-width: 1.0;" width="10" x="730" y="551.4844"/><text fill="#000000" font-family="Tahoma, sans-serif" font-size="12" lengthAdjust="spacingAndGlyphs" textLength="104" x="745" y="549.0059">styled-components</text><!--entity styled-reset--><rect fill="#F8F8F8" height="34.4844" rx="2" ry="2" style="stroke: #383838; stroke-width: 1.0;" width="84" x="755" y="149"/><rect fill="#F8F8F8" height="5" style="stroke: #383838; stroke-width: 1.0;" width="10" x="750" y="154"/><rect fill="#F8F8F8" height="5" style="stroke: #383838; stroke-width: 1.0;" width="10" x="750" y="173.4844"/><text fill="#000000" font-family="Tahoma, sans-serif" font-size="12" lengthAdjust="spacingAndGlyphs" textLength="64" x="765" y="171.0059">styled-reset</text><!--entity _actions--><rect fill="#F8F8F8" height="34.4844" rx="2" ry="2" style="stroke: #000000; stroke-width: 0.5;" width="58" x="536" y="464"/><text fill="#000000" font-family="Tahoma, sans-serif" font-size="12" lengthAdjust="spacingAndGlyphs" textLength="38" x="546" y="486.0059">actions</text><ellipse cx="77.3757" cy="649.1751" fill="#F8F8F8" rx="71.3757" ry="16.6751" style="stroke: #383838; stroke-width: 0.5;"/><text fill="#000000" font-family="Tahoma, sans-serif" font-size="12" font-weight="bold" lengthAdjust="spacingAndGlyphs" textLength="116" x="19.3757" y="652.9173">components/index</text><!--entity _container--><rect fill="#F8F8F8" height="34.4844" rx="2" ry="2" style="stroke: #000000; stroke-width: 0.5;" width="71" x="384" y="842"/><text fill="#000000" font-family="Tahoma, sans-serif" font-size="12" lengthAdjust="spacingAndGlyphs" textLength="51" x="394" y="864.0059">container</text><!--entity _editor--><rect fill="#F8F8F8" height="34.4844" rx="2" ry="2" style="stroke: #000000; stroke-width: 0.5;" width="52" x="230" y="219"/><text fill="#000000" font-family="Tahoma, sans-serif" font-size="12" lengthAdjust="spacingAndGlyphs" textLength="32" x="240" y="241.0059">editor</text><!--entity _header--><rect fill="#F8F8F8" height="34.4844" rx="2" ry="2" style="stroke: #000000; stroke-width: 0.5;" width="58" x="390.5" y="788"/><text fill="#000000" font-family="Tahoma, sans-serif" font-size="12" lengthAdjust="spacingAndGlyphs" textLength="38" x="400.5" y="810.0059">header</text><!--entity _logo--><rect fill="#F8F8F8" height="34.4844" rx="2" ry="2" style="stroke: #000000; stroke-width: 0.5;" width="43" x="398" y="680"/><text fill="#000000" font-family="Tahoma, sans-serif" font-size="12" lengthAdjust="spacingAndGlyphs" textLength="23" x="408" y="702.0059">logo</text><!--entity _preview--><rect fill="#F8F8F8" height="34.4844" rx="2" ry="2" style="stroke: #000000; stroke-width: 0.5;" width="63" x="224.5" y="465"/><text fill="#000000" font-family="Tahoma, sans-serif" font-size="12" lengthAdjust="spacingAndGlyphs" textLength="43" x="234.5" y="487.0059">preview</text><!--entity _reducer--><rect fill="#F8F8F8" height="34.4844" rx="2" ry="2" style="stroke: #000000; stroke-width: 0.5;" width="62" x="388.5" y="567"/><text fill="#000000" font-family="Tahoma, sans-serif" font-size="12" lengthAdjust="spacingAndGlyphs" textLength="42" x="398.5" y="589.0059">reducer</text><!--entity _responsive_image--><rect fill="#F8F8F8" height="34.4844" rx="2" ry="2" style="stroke: #000000; stroke-width: 0.5;" width="113" x="363" y="513"/><text fill="#000000" font-family="Tahoma, sans-serif" font-size="12" lengthAdjust="spacingAndGlyphs" textLength="93" x="373" y="535.0059">responsive-image</text><!--entity _section--><rect fill="#F8F8F8" height="34.4844" rx="2" ry="2" style="stroke: #000000; stroke-width: 0.5;" width="59" x="390" y="734"/><text fill="#000000" font-family="Tahoma, sans-serif" font-size="12" lengthAdjust="spacingAndGlyphs" textLength="39" x="400" y="756.0059">section</text><!--entity _spinner--><rect fill="#F8F8F8" height="34.4844" rx="2" ry="2" style="stroke: #000000; stroke-width: 0.5;" width="59" x="390" y="417"/><text fill="#000000" font-family="Tahoma, sans-serif" font-size="12" lengthAdjust="spacingAndGlyphs" textLength="39" x="400" y="439.0059">spinner</text><ellipse cx="255.8406" cy="896.242" fill="#F8F8F8" rx="46.8406" ry="13.242" style="stroke: #383838; stroke-width: 0.5;"/><text fill="#000000" font-family="Tahoma, sans-serif" font-size="12" lengthAdjust="spacingAndGlyphs" textLength="62" x="224.8406" y="899.9842">store/index</text><!--link _actions to plantuml-encoder-decoder--><path d="M594.383,482.1399 C623.2638,483.2602 668.7875,485.0262 709.3739,486.6007 " fill="none" id="_actions-plantuml-encoder-decoder" style="stroke: #000000; stroke-width: 0.55;"/><polygon fill="#000000" points="714.8088,486.8115,705.9707,482.4656,709.8126,486.6176,705.6605,490.4595,714.8088,486.8115" style="stroke: #000000; stroke-width: 0.55;"/><!--link <b>components/index</b> to _container--><path d="M92.8562,665.1856 C116.2062,689.1213 162.8213,734.3194 209,764 C264.3731,799.5901 335.2961,828.6026 379.0516,844.8369 " fill="none" id="&lt;b&gt;components/index&lt;/b&gt;-_container" style="stroke: #000000; stroke-width: 1.0;"/><polygon fill="#000000" points="383.9871,846.6566,376.9266,839.7901,379.2958,844.9269,374.159,847.2961,383.9871,846.6566" style="stroke: #000000; stroke-width: 1.0;"/><!--link <b>components/index</b> to _editor--><path d="M80.9745,632.389 C92.6608,578.9603 134.0763,407.9252 209,286 C215.5493,275.3422 224.6328,265.0157 233.07,256.5417 " fill="none" id="&lt;b&gt;components/index&lt;/b&gt;-_editor" style="stroke: #000000; stroke-width: 1.0;"/><polygon fill="#000000" points="236.637,253.0279,227.4183,256.4942,233.075,256.5368,233.0325,262.1935,236.637,253.0279" style="stroke: #000000; stroke-width: 1.0;"/><!--link <b>components/index</b> to _header--><path d="M104.2481,664.5811 C130.5054,679.6027 171.9014,702.5607 209,720 C270.1327,748.7372 343.7627,777.0954 385.7536,792.7009 " fill="none" id="&lt;b&gt;components/index&lt;/b&gt;-_header" style="stroke: #000000; stroke-width: 1.0;"/><polygon fill="#000000" points="390.465,794.4476,383.4168,787.5684,385.7768,792.7095,380.6358,795.0695,390.465,794.4476" style="stroke: #000000; stroke-width: 1.0;"/><!--link <b>components/index</b> to _logo--><path d="M138.6427,657.5814 C213.8382,668.1352 338.183,685.5871 392.5995,693.2245 " fill="none" id="&lt;b&gt;components/index&lt;/b&gt;-_logo" style="stroke: #000000; stroke-width: 1.0;"/><polygon fill="#000000" points="397.6433,693.9324,389.2868,688.72,392.6919,693.2373,388.1746,696.6423,397.6433,693.9324" style="stroke: #000000; stroke-width: 1.0;"/><!--link <b>components/index</b> to _preview--><path d="M94.9403,632.6833 C127.6118,602.1167 197.9715,536.29 233.9036,502.6729 " fill="none" id="&lt;b&gt;components/index&lt;/b&gt;-_preview" style="stroke: #000000; stroke-width: 1.0;"/><polygon fill="#000000" points="237.6907,499.1297,228.3858,502.3574,234.0395,502.5456,233.8513,508.1994,237.6907,499.1297" style="stroke: #000000; stroke-width: 1.0;"/><!--link <b>components/index</b> to react--><path d="M85.0753,632.3412 C102.3546,595.915 147.9536,508.194 209,455 C266.5442,404.8577 289.9156,401.0056 363,379 C487.686,341.4573 525.3588,342.7844 655,355 C694.3958,358.7121 739.1348,368.0952 767.6876,374.7546 " fill="none" id="&lt;b&gt;components/index&lt;/b&gt;-react" style="stroke: #000000; stroke-width: 1.0;"/><polygon fill="#000000" points="772.8258,375.9644,764.9822,370.0081,767.9589,374.8184,763.1486,377.7951,772.8258,375.9644" style="stroke: #000000; stroke-width: 1.0;"/><!--link <b>components/index</b> to react-dom--><path d="M79.3562,632.4996 C88.9865,549.5157 135.6471,178.4047 209,93 C274.7385,16.4608 318.605,8 419.5,8 C419.5,8 419.5,8 565,8 C646.0806,8 730.2532,61.5465 771.3345,91.7955 " fill="none" id="&lt;b&gt;components/index&lt;/b&gt;-react-dom" style="stroke: #000000; stroke-width: 1.0;"/><polygon fill="#000000" points="775.4128,94.8265,770.5754,86.2475,771.3998,91.8439,765.8033,92.6683,775.4128,94.8265" style="stroke: #000000; stroke-width: 1.0;"/><!--link <b>components/index</b> to react-redux--><path d="M78.1136,632.1831 C81.2333,569.3172 99.8744,344.7895 209,209 C276.0496,125.5674 312.4643,92 419.5,92 C419.5,92 419.5,92 565,92 C611.1966,92 617.9407,116.4186 655,144 C680.4743,162.9593 679.4989,177.1229 707,193 C720.3274,200.6943 736.0538,206.3842 750.6014,210.5023 " fill="none" id="&lt;b&gt;components/index&lt;/b&gt;-react-redux" style="stroke: #000000; stroke-width: 1.0;"/><polygon fill="#000000" points="755.4846,211.8392,747.8604,205.6045,750.6621,210.5188,745.7478,213.3205,755.4846,211.8392" style="stroke: #000000; stroke-width: 1.0;"/><!--link <b>components/index</b> to redux-persist--><path d="M80.9115,665.6654 C91.3655,712.5489 127.3325,846.8545 209,919 C283.103,984.4629 320.6231,991 419.5,991 C419.5,991 419.5,991 565,991 C718.9165,991 778.2044,750.0625 793.0235,674.4313 " fill="none" id="&lt;b&gt;components/index&lt;/b&gt;-redux-persist" style="stroke: #000000; stroke-width: 1.0;"/><polygon fill="#000000" points="794.0143,669.2771,788.3871,677.3601,793.0703,674.1872,796.2432,678.8704,794.0143,669.2771" style="stroke: #000000; stroke-width: 1.0;"/><!--link <b>components/index</b> to _section--><path d="M121.5104,662.1259 C190.2965,682.641 321.888,721.8876 384.5976,740.5905 " fill="none" id="&lt;b&gt;components/index&lt;/b&gt;-_section" style="stroke: #000000; stroke-width: 1.0;"/><polygon fill="#000000" points="389.7201,742.1183,382.2387,735.7129,384.9287,740.6893,379.9523,743.3792,389.7201,742.1183" style="stroke: #000000; stroke-width: 1.0;"/><!--link <b>components/index</b> to store/index--><path d="M86.0359,665.4398 C105.2308,701.611 154.4122,789.9663 209,854 C217.0532,863.4467 227.1979,872.7682 235.9993,880.2206 " fill="none" id="&lt;b&gt;components/index&lt;/b&gt;-store/index" style="stroke: #000000; stroke-width: 1.0;"/><polygon fill="#000000" points="240.197,883.7212,235.847,874.885,236.3571,880.5188,230.7233,881.0289,240.197,883.7212" style="stroke: #000000; stroke-width: 1.0;"/><!--link <b>components/index</b> to styled-components--><path d="M146.8964,644.7212 C226.6296,639.264 361.2491,628.3921 476,611 C564.4588,597.5928 665.2819,575.397 729.9521,560.2558 " fill="none" id="&lt;b&gt;components/index&lt;/b&gt;-styled-components" style="stroke: #000000; stroke-width: 1.0;"/><polygon fill="#000000" points="734.932,559.087,725.2561,557.2492,730.0643,560.2294,727.084,565.0376,734.932,559.087" style="stroke: #000000; stroke-width: 1.0;"/><!--link <b>components/index</b> to styled-reset--><path d="M79.9258,632.4155 C91.5961,554.5445 144.0741,225.7301 209,148 C275.1561,68.7971 316.3025,50 419.5,50 C419.5,50 419.5,50 565,50 C639.4826,50 639.1638,108.2445 707,139 C720.4969,145.1192 735.7481,150.2955 749.8088,154.4275 " fill="none" id="&lt;b&gt;components/index&lt;/b&gt;-styled-reset" style="stroke: #000000; stroke-width: 1.0;"/><polygon fill="#000000" points="754.9298,155.9024,747.3885,149.5677,750.1251,154.5186,745.1743,157.2552,754.9298,155.9024" style="stroke: #000000; stroke-width: 1.0;"/><!--link _container to styled-components--><path d="M455.1945,852.1548 C493.5086,843.2089 554.2162,824.2212 594,788 C634.2023,751.3978 665.1057,605.6528 707,571 C713.6622,565.4894 721.4234,561.1033 729.543,557.6122 " fill="none" id="_container-styled-components" style="stroke: #000000; stroke-width: 0.55;"/><polygon fill="#000000" points="734.6382,555.5521,724.795,555.2175,730.0028,557.4264,727.7939,562.6341,734.6382,555.5521" style="stroke: #000000; stroke-width: 0.55;"/><!--link _editor to _actions--><path d="M278.6779,253.2354 C318.7896,283.8075 404.7453,349.7107 476,407 C498.1305,424.7931 522.9476,445.4908 540.7421,460.4647 " fill="none" id="_editor-_actions" style="stroke: #000000; stroke-width: 0.55;"/><polygon fill="#000000" points="544.6548,463.7602,540.3479,454.903,540.8305,460.5392,535.1943,461.0218,544.6548,463.7602" style="stroke: #000000; stroke-width: 0.55;"/><!--link _editor to brace--><path d="M282.2761,225.1452 C303.6077,216.9494 334.6856,206.3904 363,202 C464.4581,186.2681 493.1825,184.5816 594,204 C646.7657,214.1632 656.1211,229.7128 707,247 C726.7657,253.7158 749.2596,260.4642 766.8151,265.5344 " fill="none" id="_editor-brace" style="stroke: #000000; stroke-width: 0.55;"/><polygon fill="#000000" points="771.6293,266.9185,764.085,260.5874,766.824,265.5369,761.8744,268.2759,771.6293,266.9185" style="stroke: #000000; stroke-width: 0.55;"/><!--link _editor to react-ace--><path d="M282.3378,233.5674 C339.8576,228.9983 480.6332,221.8736 594,249 C647.7669,261.8653 655.286,281.4537 707,301 C722.766,306.9591 740.4659,312.506 755.9705,317.0029 " fill="none" id="_editor-react-ace" style="stroke: #000000; stroke-width: 0.55;"/><polygon fill="#000000" points="761.1384,318.4867,753.592,312.1581,756.3326,317.1067,751.384,319.8474,761.1384,318.4867" style="stroke: #000000; stroke-width: 0.55;"/><!--link _editor to react-redux--><path d="M273.0144,218.687 C292.6727,200.0383 326.9653,171.4951 363,160 C486.6393,120.559 530.3752,123.7933 655,160 C681.2853,167.6365 682.1022,181.6274 707,193 C720.6118,199.2175 736.0249,204.446 750.2005,208.596 " fill="none" id="_editor-react-redux" style="stroke: #000000; stroke-width: 0.55;"/><polygon fill="#000000" points="755.3615,210.076,747.8128,203.7501,750.5552,208.6977,745.6076,211.4401,755.3615,210.076" style="stroke: #000000; stroke-width: 0.55;"/><!--link _editor to _reducer--><path d="M259.8498,253.1639 C273.4829,312.7071 320.9085,509.3345 363,557 C368.6017,563.3435 376.0208,568.3257 383.6342,572.1879 " fill="none" id="_editor-_reducer" style="stroke: #000000; stroke-width: 0.55;"/><polygon fill="#000000" points="388.3852,574.4501,381.979,566.9694,383.8708,572.3006,378.5397,574.1924,388.3852,574.4501" style="stroke: #000000; stroke-width: 0.55;"/><!--link _header to styled-components--><path d="M448.6152,802.8628 C485.7711,798.8132 550.4382,787.1833 594,754 C632.0203,725.0379 669.083,600.0971 707,571 C713.7519,565.8187 721.4897,561.6279 729.5312,558.239 " fill="none" id="_header-styled-components" style="stroke: #000000; stroke-width: 0.55;"/><polygon fill="#000000" points="734.5713,556.2309,724.73,555.8463,729.9264,558.0816,727.6911,563.2781,734.5713,556.2309" style="stroke: #000000; stroke-width: 0.55;"/><!--link _logo to styled-components--><path d="M441.1803,705.8547 C475.4913,718.4108 543.5792,737.3137 594,713 C666.6498,677.9672 640.2075,616.2112 707,571 C713.9361,566.305 721.7102,562.4072 729.7072,559.1757 " fill="none" id="_logo-styled-components" style="stroke: #000000; stroke-width: 0.55;"/><polygon fill="#000000" points="734.7097,557.2486,724.8734,556.7513,730.0439,559.046,727.7492,564.2165,734.7097,557.2486" style="stroke: #000000; stroke-width: 0.55;"/><!--link _preview to _actions--><path d="M287.6163,481.8977 C345.9963,481.7087 470.2512,481.3066 530.6338,481.1112 " fill="none" id="_preview-_actions" style="stroke: #000000; stroke-width: 0.55;"/><polygon fill="#000000" points="535.923,481.0941,526.91,477.1234,530.923,481.1104,526.9361,485.1234,535.923,481.0941" style="stroke: #000000; stroke-width: 0.55;"/><!--link _preview to react--><path d="M273.546,464.9644 C293.4135,446.8915 327.6432,419.2865 363,407 C507.519,356.7796 695.3007,370.4188 767.2064,378.2717 " fill="none" id="_preview-react" style="stroke: #000000; stroke-width: 0.55;"/><polygon fill="#000000" points="772.5876,378.8725,764.0871,373.8985,767.6185,378.3176,763.1993,381.8491,772.5876,378.8725" style="stroke: #000000; stroke-width: 0.55;"/><!--link _preview to react-redux--><path d="M269.9214,464.8622 C288.9031,442.4536 324.9228,403.2119 363,379 C491.2127,297.4742 667.1825,249.5656 750.1279,230.144 " fill="none" id="_preview-react-redux" style="stroke: #000000; stroke-width: 0.55;"/><polygon fill="#000000" points="755.4554,228.9059,745.7835,227.0473,750.5852,230.0379,747.5947,234.8396,755.4554,228.9059" style="stroke: #000000; stroke-width: 0.55;"/><!--link _preview to _reducer--><path d="M278.2363,499.222 C299.3922,515.2069 332.4405,539.1532 363,557 C369.4835,560.7864 376.5808,564.4948 383.4889,567.8918 " fill="none" id="_preview-_reducer" style="stroke: #000000; stroke-width: 0.55;"/><polygon fill="#000000" points="388.2313,570.191,381.8779,562.6654,383.7322,568.0097,378.3879,569.864,388.2313,570.191" style="stroke: #000000; stroke-width: 0.55;"/><!--link _preview to _responsive_image--><path d="M287.5244,491.2549 C307.4501,497.1046 333.8752,504.8625 357.8436,511.8991 " fill="none" id="_preview-_responsive_image" style="stroke: #000000; stroke-width: 0.55;"/><polygon fill="#000000" points="362.9177,513.3887,355.409,507.0153,358.1202,511.9802,353.1554,514.6913,362.9177,513.3887" style="stroke: #000000; stroke-width: 0.55;"/><!--link _preview to _spinner--><path d="M287.5244,472.7451 C315.5073,464.53 356.3089,452.5515 385.1224,444.0925 " fill="none" id="_preview-_spinner" style="stroke: #000000; stroke-width: 0.55;"/><polygon fill="#000000" points="389.9979,442.6612,380.2356,441.3584,385.2004,444.0697,382.4891,449.0344,389.9979,442.6612" style="stroke: #000000; stroke-width: 0.55;"/><!--link _reducer to _actions--><path d="M450.7841,570.8338 C459.2119,566.8134 468.1605,562.0946 476,557 C501.0256,540.7367 526.6343,518.1149 543.9176,501.786 " fill="none" id="_reducer-_actions" style="stroke: #000000; stroke-width: 0.55;"/><polygon fill="#000000" points="547.6923,498.1945,538.4148,501.5003,544.0699,501.641,543.9292,507.2961,547.6923,498.1945" style="stroke: #000000; stroke-width: 0.55;"/><!--link _reducer to plantuml-encoder-decoder--><path d="M450.7136,576.2276 C510.1207,561.4348 640.8864,528.8733 723.6384,508.2675 " fill="none" id="_reducer-plantuml-encoder-decoder" style="stroke: #000000; stroke-width: 0.55;"/><polygon fill="#000000" points="728.5256,507.0506,718.8257,505.344,723.6738,508.2589,720.759,513.1069,728.5256,507.0506" style="stroke: #000000; stroke-width: 0.55;"/><!--link _reducer to redux--><path d="M450.7136,585.1576 C521.8172,587.7945 695.1444,594.2226 766.0218,596.8511 " fill="none" id="_reducer-redux" style="stroke: #000000; stroke-width: 0.55;"/><polygon fill="#000000" points="771.3491,597.0487,762.5036,592.7177,766.3525,596.8633,762.2069,600.7122,771.3491,597.0487" style="stroke: #000000; stroke-width: 0.55;"/><!--link _reducer to redux-persist--><path d="M450.7136,589.6226 C516.0523,601.3922 667.7106,628.7108 746.8709,642.9701 " fill="none" id="_reducer-redux-persist" style="stroke: #000000; stroke-width: 0.55;"/><polygon fill="#000000" points="751.9785,643.8902,743.8302,638.358,747.0577,643.0038,742.4119,646.2313,751.9785,643.8902" style="stroke: #000000; stroke-width: 0.55;"/><!--link _responsive_image to styled-components--><path d="M476.0156,532.0959 C543.8067,534.61 657.3317,538.8202 729.6182,541.5011 " fill="none" id="_responsive_image-styled-components" style="stroke: #000000; stroke-width: 0.55;"/><polygon fill="#000000" points="734.7503,541.6914,725.9048,537.3604,729.7537,541.506,725.6081,545.3549,734.7503,541.6914" style="stroke: #000000; stroke-width: 0.55;"/><!--link _section to styled-components--><path d="M449.2274,754.0624 C485.8785,756.3862 548.849,755.5281 594,729 C633.4713,705.809 628.3997,683.2589 655,646 C678.5682,612.9882 674.1777,594.8312 707,571 C713.8869,565.9996 721.7048,561.916 729.788,558.5831 " fill="none" id="_section-styled-components" style="stroke: #000000; stroke-width: 0.55;"/><polygon fill="#000000" points="734.8494,556.6034,725.0107,556.1567,730.1929,558.4248,727.9249,563.6071,734.8494,556.6034" style="stroke: #000000; stroke-width: 0.55;"/><!--link _spinner to react-loader-spinner--><path d="M449.0578,428.4777 C472.5292,424.3858 506.236,419.1602 536,417 C588.7501,413.1716 602.228,413.4851 655,417 C678.7647,418.5828 704.619,421.64 727.6745,424.847 " fill="none" id="_spinner-react-loader-spinner" style="stroke: #000000; stroke-width: 0.55;"/><polygon fill="#000000" points="732.8554,425.5766,724.5013,420.3603,727.9043,424.8792,723.3854,428.2821,732.8554,425.5766" style="stroke: #000000; stroke-width: 0.55;"/><!--link _spinner to styled-components--><path d="M449.2658,433.8896 C484.609,434.5533 544.9439,438.2125 594,454 C648.7355,471.6153 654.0395,494.6069 707,517 C714.3412,520.104 722.1585,523.0067 730.0028,525.6719 " fill="none" id="_spinner-styled-components" style="stroke: #000000; stroke-width: 0.55;"/><polygon fill="#000000" points="734.8864,527.3003,727.6138,520.6589,730.1431,525.7187,725.0833,528.2481,734.8864,527.3003" style="stroke: #000000; stroke-width: 0.55;"/><!--link store/index to _reducer--><path d="M261.4232,882.9416 C276.1957,847.7578 318.9964,748.3506 363,670 C375.8225,647.1689 392.4842,622.2887 404.385,605.1907 " fill="none" id="store/index-_reducer" style="stroke: #000000; stroke-width: 0.55;"/><polygon fill="#000000" points="407.3028,601.0174,398.8674,606.1011,404.4377,605.1151,405.4237,610.6853,407.3028,601.0174" style="stroke: #000000; stroke-width: 0.55;"/><!--link store/index to redux--><path d="M301.8838,899.3066 C346.9536,901.3044 417.3003,901.0594 476,886 C532.6042,871.4782 551.6367,868.2525 594,828 C668.8559,756.874 626.5249,689.6999 707,625 C723.8505,611.4526 747.377,604.6958 766.1501,601.3295 " fill="none" id="store/index-redux" style="stroke: #000000; stroke-width: 0.55;"/><polygon fill="#000000" points="771.3095,600.4671,761.7731,598.0058,766.3779,601.2915,763.0922,605.8963,771.3095,600.4671" style="stroke: #000000; stroke-width: 0.55;"/><!--link store/index to redux-persist--><path d="M281.7119,907.16 C348.8369,934.436 532.6273,997.0329 655,923 C747.6756,866.9332 782.8084,728.2328 793.2672,674.1213 " fill="none" id="store/index-redux-persist" style="stroke: #000000; stroke-width: 0.55;"/><polygon fill="#000000" points="794.2034,669.1544,788.6053,677.2576,793.2771,674.0678,796.4668,678.7396,794.2034,669.1544" style="stroke: #000000; stroke-width: 0.55;"/><script type="text/plantuml"><![CDATA[
@startuml

scale max 1920 width
left to right direction

skinparam monochrome true
skinparam shadowing false
skinparam nodesep 20
skinparam ranksep 60
skinparam defaultFontName Tahoma
skinparam defaultFontSize 12
skinparam roundCorner 4
skinparam dpi 150
skinparam arrowColor black
skinparam arrowThickness 0.55
skinparam packageTitleAlignment left

skinparam usecase {
  borderThickness 0.5
}

skinparam rectangle {
  borderThickness 0.5
}

skinparam component {
  borderThickness 1
}


rectangle "actions" as _actions
(<b>components/index</b>)
rectangle "container" as _container
rectangle "editor" as _editor
rectangle "header" as _header
rectangle "logo" as _logo
rectangle "preview" as _preview
rectangle "reducer" as _reducer
rectangle "responsive-image" as _responsive_image
rectangle "section" as _section
rectangle "spinner" as _spinner
(store/index)

package "Dependencies" {
  [brace]
  [plantuml-encoder-decoder]
  [react]
  [react-ace]
  [react-dom]
  [react-loader-spinner]
  [react-redux]
  [redux]
  [redux-persist]
  [styled-components]
  [styled-reset]
}

_actions ----> [plantuml-encoder-decoder]
(<b>components/index</b>) -[thickness=1]> _container
(<b>components/index</b>) -[thickness=1]> _editor
(<b>components/index</b>) -[thickness=1]> _header
(<b>components/index</b>) -[thickness=1]> _logo
(<b>components/index</b>) -[thickness=1]> _preview
(<b>components/index</b>) ----[thickness=1]> [react]
(<b>components/index</b>) ----[thickness=1]> [react-dom]
(<b>components/index</b>) ----[thickness=1]> [react-redux]
(<b>components/index</b>) ----[thickness=1]> [redux-persist]
(<b>components/index</b>) -[thickness=1]> _section
(<b>components/index</b>) --[thickness=1]> (store/index)
(<b>components/index</b>) ----[thickness=1]> [styled-components]
(<b>components/index</b>) ----[thickness=1]> [styled-reset]
_container ----> [styled-components]
_editor --> _actions
_editor ----> [brace]
_editor ----> [react-ace]
_editor ----> [react-redux]
_editor --> _reducer
_header ----> [styled-components]
_logo ----> [styled-components]
_preview --> _actions
_preview ----> [react]
_preview ----> [react-redux]
_preview --> _reducer
_preview --> _responsive_image
_preview --> _spinner
_reducer --> _actions
_reducer ----> [plantuml-encoder-decoder]
_reducer ----> [redux]
_reducer ----> [redux-persist]
_responsive_image ----> [styled-components]
_section ----> [styled-components]
_spinner ----> [react-loader-spinner]
_spinner ----> [styled-components]
(store/index) --> _reducer
(store/index) ----> [redux]
(store/index) ----> [redux-persist]

@enduml


' View and edit on https://arkit.herokuapp.com
]]></script></g></svg>