<?xml version="1.0" encoding="UTF-8" standalone="no"?><svg xmlns="http://www.w3.org/2000/svg" xmlns:xlink="http://www.w3.org/1999/xlink" contentScriptType="application/ecmascript" contentStyleType="text/css" height="1208px" preserveAspectRatio="none" style="width:763px;height:1208px;" version="1.1" viewBox="0 0 763 1208" width="763px" zoomAndPan="magnify"><defs/><g><!--cluster Dependencies--><path d="M573,434 L659,434 A3,3 0 0 1 661,436 L668,454.4844 L749,454.4844 A2,2 0 0 1 751,456.4844 L751,1039 A2,2 0 0 1 749,1041 L573,1041 A2,2 0 0 1 571,1039 L571,436 A2,2 0 0 1 573,434 " fill="#FFFFFF" style="stroke: #000000; stroke-width: 1.5;"/><line style="stroke: #000000; stroke-width: 1.5;" x1="571" x2="668" y1="454.4844" y2="454.4844"/><text fill="#000000" font-family="Tahoma, sans-serif" font-size="12" font-weight="bold" lengthAdjust="spacingAndGlyphs" textLength="84" x="575" y="448.0059">Dependencies</text><!--entity brace--><rect fill="#F8F8F8" height="34.4844" rx="2" ry="2" style="stroke: #383838; stroke-width: 1.2;" width="50" x="636" y="729"/><rect fill="#F8F8F8" height="5" style="stroke: #383838; stroke-width: 1.2;" width="10" x="631" y="734"/><rect fill="#F8F8F8" height="5" style="stroke: #383838; stroke-width: 1.2;" width="10" x="631" y="753.4844"/><text fill="#000000" font-family="Tahoma, sans-serif" font-size="12" lengthAdjust="spacingAndGlyphs" textLength="30" x="646" y="751.0059">brace</text><!--entity plantuml-encoder-decoder--><rect fill="#F8F8F8" height="34.4844" rx="2" ry="2" style="stroke: #383838; stroke-width: 1.2;" width="164" x="579" y="783"/><rect fill="#F8F8F8" height="5" style="stroke: #383838; stroke-width: 1.2;" width="10" x="574" y="788"/><rect fill="#F8F8F8" height="5" style="stroke: #383838; stroke-width: 1.2;" width="10" x="574" y="807.4844"/><text fill="#000000" font-family="Tahoma, sans-serif" font-size="12" lengthAdjust="spacingAndGlyphs" textLength="144" x="589" y="805.0059">plantuml-encoder-decoder</text><!--entity react--><rect fill="#F8F8F8" height="34.4844" rx="2" ry="2" style="stroke: #383838; stroke-width: 1.2;" width="48" x="637" y="513"/><rect fill="#F8F8F8" height="5" style="stroke: #383838; stroke-width: 1.2;" width="10" x="632" y="518"/><rect fill="#F8F8F8" height="5" style="stroke: #383838; stroke-width: 1.2;" width="10" x="632" y="537.4844"/><text fill="#000000" font-family="Tahoma, sans-serif" font-size="12" lengthAdjust="spacingAndGlyphs" textLength="28" x="647" y="535.0059">react</text><!--entity react-ace--><rect fill="#F8F8F8" height="34.4844" rx="2" ry="2" style="stroke: #383838; stroke-width: 1.2;" width="71" x="625.5" y="621"/><rect fill="#F8F8F8" height="5" style="stroke: #383838; stroke-width: 1.2;" width="10" x="620.5" y="626"/><rect fill="#F8F8F8" height="5" style="stroke: #383838; stroke-width: 1.2;" width="10" x="620.5" y="645.4844"/><text fill="#000000" font-family="Tahoma, sans-serif" font-size="12" lengthAdjust="spacingAndGlyphs" textLength="51" x="635.5" y="643.0059">react-ace</text><!--entity react-dom--><rect fill="#F8F8F8" height="34.4844" rx="2" ry="2" style="stroke: #383838; stroke-width: 1.2;" width="76" x="623" y="945"/><rect fill="#F8F8F8" height="5" style="stroke: #383838; stroke-width: 1.2;" width="10" x="618" y="950"/><rect fill="#F8F8F8" height="5" style="stroke: #383838; stroke-width: 1.2;" width="10" x="618" y="969.4844"/><text fill="#000000" font-family="Tahoma, sans-serif" font-size="12" lengthAdjust="spacingAndGlyphs" textLength="56" x="633" y="967.0059">react-dom</text><!--entity react-loader-spinner--><rect fill="#F8F8F8" height="34.4844" rx="2" ry="2" style="stroke: #383838; stroke-width: 1.2;" width="128" x="597" y="567"/><rect fill="#F8F8F8" height="5" style="stroke: #383838; stroke-width: 1.2;" width="10" x="592" y="572"/><rect fill="#F8F8F8" height="5" style="stroke: #383838; stroke-width: 1.2;" width="10" x="592" y="591.4844"/><text fill="#000000" font-family="Tahoma, sans-serif" font-size="12" lengthAdjust="spacingAndGlyphs" textLength="108" x="607" y="589.0059">react-loader-spinner</text><!--entity react-redux--><rect fill="#F8F8F8" height="34.4844" rx="2" ry="2" style="stroke: #383838; stroke-width: 1.2;" width="83" x="619.5" y="675"/><rect fill="#F8F8F8" height="5" style="stroke: #383838; stroke-width: 1.2;" width="10" x="614.5" y="680"/><rect fill="#F8F8F8" height="5" style="stroke: #383838; stroke-width: 1.2;" width="10" x="614.5" y="699.4844"/><text fill="#000000" font-family="Tahoma, sans-serif" font-size="12" lengthAdjust="spacingAndGlyphs" textLength="63" x="629.5" y="697.0059">react-redux</text><!--entity redux--><rect fill="#F8F8F8" height="34.4844" rx="2" ry="2" style="stroke: #383838; stroke-width: 1.2;" width="51" x="635.5" y="837"/><rect fill="#F8F8F8" height="5" style="stroke: #383838; stroke-width: 1.2;" width="10" x="630.5" y="842"/><rect fill="#F8F8F8" height="5" style="stroke: #383838; stroke-width: 1.2;" width="10" x="630.5" y="861.4844"/><text fill="#000000" font-family="Tahoma, sans-serif" font-size="12" lengthAdjust="spacingAndGlyphs" textLength="31" x="645.5" y="859.0059">redux</text><!--entity redux-persist--><rect fill="#F8F8F8" height="34.4844" rx="2" ry="2" style="stroke: #383838; stroke-width: 1.2;" width="90" x="616" y="891"/><rect fill="#F8F8F8" height="5" style="stroke: #383838; stroke-width: 1.2;" width="10" x="611" y="896"/><rect fill="#F8F8F8" height="5" style="stroke: #383838; stroke-width: 1.2;" width="10" x="611" y="915.4844"/><text fill="#000000" font-family="Tahoma, sans-serif" font-size="12" lengthAdjust="spacingAndGlyphs" textLength="70" x="626" y="913.0059">redux-persist</text><!--entity styled-components--><rect fill="#F8F8F8" height="34.4844" rx="2" ry="2" style="stroke: #383838; stroke-width: 1.2;" width="124" x="599" y="459"/><rect fill="#F8F8F8" height="5" style="stroke: #383838; stroke-width: 1.2;" width="10" x="594" y="464"/><rect fill="#F8F8F8" height="5" style="stroke: #383838; stroke-width: 1.2;" width="10" x="594" y="483.4844"/><text fill="#000000" font-family="Tahoma, sans-serif" font-size="12" lengthAdjust="spacingAndGlyphs" textLength="104" x="609" y="481.0059">styled-components</text><!--entity styled-reset--><rect fill="#F8F8F8" height="34.4844" rx="2" ry="2" style="stroke: #383838; stroke-width: 1.2;" width="84" x="619" y="999"/><rect fill="#F8F8F8" height="5" style="stroke: #383838; stroke-width: 1.2;" width="10" x="614" y="1004"/><rect fill="#F8F8F8" height="5" style="stroke: #383838; stroke-width: 1.2;" width="10" x="614" y="1023.4844"/><text fill="#000000" font-family="Tahoma, sans-serif" font-size="12" lengthAdjust="spacingAndGlyphs" textLength="64" x="629" y="1021.0059">styled-reset</text><!--entity _actions--><rect fill="#F8F8F8" height="34.4844" rx="2" ry="2" style="stroke: #000000; stroke-width: 0.8;" width="58" x="480" y="837"/><text fill="#000000" font-family="Tahoma, sans-serif" font-size="12" lengthAdjust="spacingAndGlyphs" textLength="38" x="490" y="859.0059">actions</text><!--entity _components_index--><rect fill="#F8F8F8" height="34.4844" rx="2" ry="2" style="stroke: #000000; stroke-width: 0.8;" width="136" x="6" y="663"/><text fill="#000000" font-family="Tahoma, sans-serif" font-size="12" font-weight="bold" lengthAdjust="spacingAndGlyphs" textLength="116" x="16" y="685.0059">components/index</text><!--entity _container--><rect fill="#F8F8F8" height="34.4844" rx="2" ry="2" style="stroke: #000000; stroke-width: 0.8;" width="71" x="368" y="309"/><text fill="#000000" font-family="Tahoma, sans-serif" font-size="12" lengthAdjust="spacingAndGlyphs" textLength="51" x="378" y="331.0059">container</text><!--entity _editor--><rect fill="#F8F8F8" height="34.4844" rx="2" ry="2" style="stroke: #000000; stroke-width: 0.8;" width="52" x="167.5" y="747"/><text fill="#000000" font-family="Tahoma, sans-serif" font-size="12" lengthAdjust="spacingAndGlyphs" textLength="32" x="177.5" y="769.0059">editor</text><!--entity _header--><rect fill="#F8F8F8" height="34.4844" rx="2" ry="2" style="stroke: #000000; stroke-width: 0.8;" width="58" x="374.5" y="159"/><text fill="#000000" font-family="Tahoma, sans-serif" font-size="12" lengthAdjust="spacingAndGlyphs" textLength="38" x="384.5" y="181.0059">header</text><!--entity _preview--><rect fill="#F8F8F8" height="34.4844" rx="2" ry="2" style="stroke: #000000; stroke-width: 0.8;" width="63" x="162" y="579"/><text fill="#000000" font-family="Tahoma, sans-serif" font-size="12" lengthAdjust="spacingAndGlyphs" textLength="43" x="172" y="601.0059">preview</text><!--entity _reducer--><rect fill="#F8F8F8" height="34.4844" rx="2" ry="2" style="stroke: #000000; stroke-width: 0.8;" width="62" x="372.5" y="927"/><text fill="#000000" font-family="Tahoma, sans-serif" font-size="12" lengthAdjust="spacingAndGlyphs" textLength="42" x="382.5" y="949.0059">reducer</text><!--entity _responsive_image--><rect fill="#F8F8F8" height="34.4844" rx="2" ry="2" style="stroke: #000000; stroke-width: 0.8;" width="113" x="347" y="363"/><text fill="#000000" font-family="Tahoma, sans-serif" font-size="12" lengthAdjust="spacingAndGlyphs" textLength="93" x="357" y="385.0059">responsive-image</text><!--entity _section--><rect fill="#F8F8F8" height="34.4844" rx="2" ry="2" style="stroke: #000000; stroke-width: 0.8;" width="59" x="374" y="75"/><text fill="#000000" font-family="Tahoma, sans-serif" font-size="12" lengthAdjust="spacingAndGlyphs" textLength="39" x="384" y="97.0059">section</text><!--entity _spinner--><rect fill="#F8F8F8" height="34.4844" rx="2" ry="2" style="stroke: #000000; stroke-width: 0.8;" width="59" x="374" y="474"/><text fill="#000000" font-family="Tahoma, sans-serif" font-size="12" lengthAdjust="spacingAndGlyphs" textLength="39" x="384" y="496.0059">spinner</text><!--entity _store_index--><rect fill="#F8F8F8" height="34.4844" rx="2" ry="2" style="stroke: #000000; stroke-width: 0.8;" width="82" x="245" y="1008"/><text fill="#000000" font-family="Tahoma, sans-serif" font-size="12" lengthAdjust="spacingAndGlyphs" textLength="62" x="255" y="1030.0059">store/index</text><!--link _actions to plantuml-encoder-decoder--><path d="M538.0403,840.501 C548.3413,835.9409 560.0861,830.9973 571,827 C578.8648,824.1194 587.195,821.3083 595.4877,818.6545 " fill="none" id="_actions-plantuml-encoder-decoder" style="stroke: #383838; stroke-width: 0.7;"/><polygon fill="#383838" points="600.6418,817.0233,590.8543,815.9257,595.8749,818.5321,593.2684,823.5527,600.6418,817.0233" style="stroke: #383838; stroke-width: 0.7;"/><!--link _components_index to _container--><path d="M74.6194,662.9579 C77.2337,616.2653 90.8731,484.9159 162,412 C216.4922,356.1371 309.6339,336.4534 362.9157,329.5954 " fill="none" id="_components_index-_container" style="stroke: #383838; stroke-width: 2.0;"/><polygon fill="#383838" points="367.945,328.971,358.5207,326.1106,362.9831,329.5871,359.5065,334.0496,367.945,328.971" style="stroke: #383838; stroke-width: 2.0;"/><!--link _components_index to _editor--><path d="M98.471,697.2014 C117.7233,710.7343 144.5889,729.619 164.8448,743.8574 " fill="none" id="_components_index-_editor" style="stroke: #383838; stroke-width: 2.0;"/><polygon fill="#383838" points="169.0618,746.8217,163.9992,738.3736,164.9713,743.9463,159.3986,744.9184,169.0618,746.8217" style="stroke: #383838; stroke-width: 2.0;"/><!--link _components_index to _header--><path d="M75.4144,662.6679 C80.1246,613.6367 98.7578,471.2678 162,375 C216.7253,291.6967 317.0446,225.5879 369.5015,194.8125 " fill="none" id="_components_index-_header" style="stroke: #383838; stroke-width: 2.0;"/><polygon fill="#383838" points="374.1177,192.123,364.3276,193.1975,369.7975,194.6401,368.3549,200.1099,374.1177,192.123" style="stroke: #383838; stroke-width: 2.0;"/><!--link _components_index to _preview--><path d="M98.471,662.7986 C117.7233,649.2657 144.5889,630.381 164.8448,616.1426 " fill="none" id="_components_index-_preview" style="stroke: #383838; stroke-width: 2.0;"/><polygon fill="#383838" points="169.0618,613.1783,159.3986,615.0816,164.9713,616.0537,163.9992,621.6264,169.0618,613.1783" style="stroke: #383838; stroke-width: 2.0;"/><!--link _components_index to react--><path d="M79.1128,662.679 C97.0953,605.7451 163.0788,428 286,428 C286,428 286,428 509,428 C541.0617,428 540.284,453.9681 559,480 C565.7306,489.3615 562.1126,495.6547 571,503 C588.1255,517.154 612.5024,523.8898 631.5679,527.0944 " fill="none" id="_components_index-react" style="stroke: #383838; stroke-width: 0.7;"/><polygon fill="#383838" points="636.7941,527.9079,628.5164,522.5713,631.8536,527.1389,627.286,530.4761,636.7941,527.9079" style="stroke: #383838; stroke-width: 0.7;"/><!--link _components_index to react-dom--><path d="M75.7105,697.4139 C82.8892,767.4803 112.5246,1028.0921 162,1092 C199.7189,1140.7219 224.3839,1154 286,1154 C286,1154 286,1154 509,1154 C526.3105,1154 529.1522,1142.8785 538,1128 C570.4538,1073.4257 527.4314,1035.1886 571,989 C583.0715,976.2025 600.9442,969.3958 617.5881,965.8035 " fill="none" id="_components_index-react-dom" style="stroke: #383838; stroke-width: 0.7;"/><polygon fill="#383838" points="622.7062,964.7888,613.1001,962.6158,617.8017,965.7614,614.6561,970.463,622.7062,964.7888" style="stroke: #383838; stroke-width: 0.7;"/><!--link _components_index to react-redux--><path d="M81.5017,697.1525 C93.9234,723.1095 121.4811,771.4155 162,791 C202.1235,810.3934 247.5101,843.7629 460,783 C514.7516,767.3434 518.711,741.5549 571,719 C584.6074,713.1304 599.8906,708.0267 613.9467,703.8843 " fill="none" id="_components_index-react-redux" style="stroke: #383838; stroke-width: 0.7;"/><polygon fill="#383838" points="619.0644,702.402,609.3069,701.064,614.2618,703.7931,611.5327,708.7481,619.0644,702.402" style="stroke: #383838; stroke-width: 0.7;"/><!--link _components_index to redux-persist--><path d="M77.3014,697.1939 C86.2988,741.6614 113.8528,863.3158 162,954 C203.86,1032.8425 196.7341,1112 286,1112 C286,1112 286,1112 509,1112 C530.9584,1112 528.8094,1091.9426 538,1072 C541.2767,1064.8899 565.6187,940.6861 571,935 C581.4771,923.9292 596.2958,917.343 610.891,913.4426 " fill="none" id="_components_index-redux-persist" style="stroke: #383838; stroke-width: 0.7;"/><polygon fill="#383838" points="615.8255,912.2202,606.1277,910.502,610.9722,913.4226,608.0516,918.2672,615.8255,912.2202" style="stroke: #383838; stroke-width: 0.7;"/><!--link _components_index to _section--><path d="M75.2197,662.6317 C79.5974,609.1365 97.8457,443.3437 162,325 C214.2569,228.6032 320.2084,148.0086 372.6578,112.084 " fill="none" id="_components_index-_section" style="stroke: #383838; stroke-width: 2.0;"/><polygon fill="#383838" points="376.952,109.1608,367.2613,110.9188,372.8188,111.9745,371.7632,117.5319,376.952,109.1608" style="stroke: #383838; stroke-width: 2.0;"/><!--link _components_index to _store_index--><path d="M80.758,697.1092 C94.2022,730.3754 126.1164,805.6297 162,864 C194.7134,917.2134 241.4886,973.8306 267.2279,1003.6905 " fill="none" id="_components_index-_store_index" style="stroke: #383838; stroke-width: 2.0;"/><polygon fill="#383838" points="270.5644,1007.5479,267.7018,998.1242,267.2934,1003.7663,261.6513,1003.3578,270.5644,1007.5479" style="stroke: #383838; stroke-width: 2.0;"/><!--link _components_index to styled-components--><path d="M75.5627,662.7134 C85.5328,557.5299 144.3977,8 286,8 C286,8 286,8 509,8 C603.952,8 648.6136,360.8861 658.7274,453.8017 " fill="none" id="_components_index-styled-components" style="stroke: #383838; stroke-width: 0.7;"/><polygon fill="#383838" points="659.2641,458.7886,662.2779,449.4122,658.729,453.8173,654.3238,450.2684,659.2641,458.7886" style="stroke: #383838; stroke-width: 0.7;"/><!--link _components_index to styled-reset--><path d="M74.9882,697.1165 C79.6949,773.0669 102.1461,1078.9863 162,1150 C199.8825,1194.9458 227.219,1196 286,1196 C286,1196 286,1196 509,1196 C590.6896,1196 637.4325,1086.4412 654.036,1038.2718 " fill="none" id="_components_index-styled-reset" style="stroke: #383838; stroke-width: 0.7;"/><polygon fill="#383838" points="655.7312,1033.2592,649.0587,1040.5033,654.1293,1037.9957,656.637,1043.0663,655.7312,1033.2592" style="stroke: #383838; stroke-width: 0.7;"/><!--link _container to react--><path d="M439.03,332.323 C467.6256,338.6616 507.8718,350.4985 538,371 C549.9968,379.1635 553.2801,382.6639 559,396 C568.4314,417.9896 555.6682,484.6307 571,503 C585.7436,520.6646 611.5614,527.0602 631.7748,529.2422 " fill="none" id="_container-react" style="stroke: #383838; stroke-width: 0.7;"/><polygon fill="#383838" points="636.7829,529.7104,628.1945,524.8898,631.8046,529.2448,627.4495,532.855,636.7829,529.7104" style="stroke: #383838; stroke-width: 0.7;"/><!--link _container to styled-components--><path d="M439.0459,342.2966 C446.0576,345.7041 453.3123,349.3684 460,353 C521.8408,386.5811 591.3221,430.5648 630.2581,455.8115 " fill="none" id="_container-styled-components" style="stroke: #383838; stroke-width: 0.7;"/><polygon fill="#383838" points="634.8524,458.7955,629.4834,450.5387,630.6592,456.072,625.1259,457.2478,634.8524,458.7955" style="stroke: #383838; stroke-width: 0.7;"/><!--link _editor to _actions--><path d="M203.6556,781.0466 C212.6973,794.5672 227.2276,812.6874 245,822 C319.527,861.0516 421.7335,860.7198 474.4423,857.2869 " fill="none" id="_editor-_actions" style="stroke: #383838; stroke-width: 0.7;"/><polygon fill="#383838" points="479.6946,856.9237,470.4401,853.5542,474.7065,857.2687,470.992,861.5352,479.6946,856.9237" style="stroke: #383838; stroke-width: 0.7;"/><!--link _editor to brace--><path d="M219.6062,773.779 C227.6342,776.3304 236.5765,778.7216 245,780 C281.0319,785.4683 290.6024,781.8478 327,780 C439.4458,774.2915 572.3667,757.8391 630.839,750.1072 " fill="none" id="_editor-brace" style="stroke: #383838; stroke-width: 0.7;"/><polygon fill="#383838" points="635.9272,749.4315,626.4789,746.6512,630.9707,750.0898,627.5322,754.5816,635.9272,749.4315" style="stroke: #383838; stroke-width: 0.7;"/><!--link _editor to react--><path d="M205.9628,746.8279 C215.562,734.5242 229.7382,718.213 245,707 C373.5296,612.5681 421.8092,613.3856 571,557 C590.9458,549.4616 613.9866,542.5823 631.7618,537.6543 " fill="none" id="_editor-react" style="stroke: #383838; stroke-width: 0.7;"/><polygon fill="#383838" points="636.6288,536.3172,626.8907,534.8446,631.8075,537.6419,629.0102,542.5587,636.6288,536.3172" style="stroke: #383838; stroke-width: 0.7;"/><!--link _editor to react-ace--><path d="M219.6467,748.6835 C227.5999,744.4687 236.4911,740.1858 245,737 C377.9069,687.238 544.2856,656.5907 620.0384,644.2586 " fill="none" id="_editor-react-ace" style="stroke: #383838; stroke-width: 0.7;"/><polygon fill="#383838" points="625.3343,643.4023,615.8112,640.8903,620.3984,644.2004,617.0882,648.7877,625.3343,643.4023" style="stroke: #383838; stroke-width: 0.7;"/><!--link _editor to react-redux--><path d="M219.6366,759.9747 C295.5786,748.2788 516.9701,714.1821 614.2402,699.2015 " fill="none" id="_editor-react-redux" style="stroke: #383838; stroke-width: 0.7;"/><polygon fill="#383838" points="619.3407,698.416,609.8367,695.8327,614.399,699.1771,611.0545,703.7394,619.3407,698.416" style="stroke: #383838; stroke-width: 0.7;"/><!--link _editor to _reducer--><path d="M195.6746,781.1601 C201.3455,822.8511 218.0425,927.5516 245,948 C279.803,974.3994 332.3654,966.5315 367.2949,956.7364 " fill="none" id="_editor-_reducer" style="stroke: #383838; stroke-width: 0.7;"/><polygon fill="#383838" points="372.3163,955.2811,362.5585,953.9449,367.514,956.6731,364.7857,961.6286,372.3163,955.2811" style="stroke: #383838; stroke-width: 0.7;"/><!--link _header to react--><path d="M423.8208,193.2313 C459.841,225.3277 533.4946,298.3658 559,379 C567.3491,405.3953 553.4227,481.6118 571,503 C585.6089,520.7762 611.4404,527.1604 631.6933,529.3097 " fill="none" id="_header-react" style="stroke: #383838; stroke-width: 0.7;"/><polygon fill="#383838" points="636.7119,529.7692,628.1142,524.9651,631.7327,529.3132,627.3846,532.9317,636.7119,529.7692" style="stroke: #383838; stroke-width: 0.7;"/><!--link _header to styled-components--><path d="M432.6235,162.2372 C466.3602,148.5329 522.0302,133.0853 559,160 C608.1845,195.8073 645.6019,387.3754 657.2217,453.5211 " fill="none" id="_header-styled-components" style="stroke: #383838; stroke-width: 0.7;"/><polygon fill="#383838" points="658.1402,458.796,660.537,449.2432,657.2825,453.8701,652.6556,450.6156,658.1402,458.796" style="stroke: #383838; stroke-width: 0.7;"/><!--link _preview to _actions--><path d="M214.6907,613.3287 C270.8191,659.2277 423.1661,783.8093 483.704,833.3142 " fill="none" id="_preview-_actions" style="stroke: #383838; stroke-width: 0.7;"/><polygon fill="#383838" points="487.9015,836.7467,483.4667,827.9528,484.031,833.5814,478.4023,834.1457,487.9015,836.7467" style="stroke: #383838; stroke-width: 0.7;"/><!--link _preview to react--><path d="M225.1437,585.2548 C231.657,583.3021 238.5089,581.4332 245,580 C382.0569,549.7387 418.4217,552.7735 558,538 C582.8285,535.3721 611.1102,533.2366 631.7484,531.8351 " fill="none" id="_preview-react" style="stroke: #383838; stroke-width: 0.7;"/><polygon fill="#383838" points="636.8239,531.4948,627.5763,528.1062,631.8351,531.8295,628.1119,536.0883,636.8239,531.4948" style="stroke: #383838; stroke-width: 0.7;"/><!--link _preview to react-redux--><path d="M225.2656,602.523 C306.0251,619.1068 519.4995,662.9432 614.3929,682.4293 " fill="none" id="_preview-react-redux" style="stroke: #383838; stroke-width: 0.7;"/><polygon fill="#383838" points="619.3713,683.4516,611.36,677.7228,614.4735,682.4457,609.7506,685.5593,619.3713,683.4516" style="stroke: #383838; stroke-width: 0.7;"/><!--link _preview to _reducer--><path d="M203.9139,613.2574 C238.8288,671.1162 351.7115,858.1791 390.3702,922.242 " fill="none" id="_preview-_reducer" style="stroke: #383838; stroke-width: 0.7;"/><polygon fill="#383838" points="393.0232,926.6385,391.7979,916.8662,390.4398,922.3576,384.9484,920.9996,393.0232,926.6385" style="stroke: #383838; stroke-width: 0.7;"/><!--link _preview to _responsive_image--><path d="M200.9021,578.8574 C209.6583,559.7848 225.5334,528.6736 245,506 C282.5842,462.2241 337.1275,422.7878 371.4346,400.1209 " fill="none" id="_preview-_responsive_image" style="stroke: #383838; stroke-width: 0.7;"/><polygon fill="#383838" points="375.9298,397.1704,366.2109,398.7651,371.7498,399.9141,370.6008,405.453,375.9298,397.1704" style="stroke: #383838; stroke-width: 0.7;"/><!--link _preview to _spinner--><path d="M204.6654,578.921 C213.9928,565.9322 228.4106,548.5511 245,538 C283.2759,513.656 334.7017,501.4568 368.4526,495.6852 " fill="none" id="_preview-_spinner" style="stroke: #383838; stroke-width: 0.7;"/><polygon fill="#383838" points="373.713,494.8132,364.18,492.3389,368.7803,495.6309,365.4883,500.2312,373.713,494.8132" style="stroke: #383838; stroke-width: 0.7;"/><!--link _reducer to _actions--><path d="M431.6934,926.8176 C441.0271,920.6706 451.2564,913.4183 460,906 C466.2461,900.7006 479.0889,887.0292 490.0596,875.0345 " fill="none" id="_reducer-_actions" style="stroke: #383838; stroke-width: 0.7;"/><polygon fill="#383838" points="493.6961,871.0455,484.6767,875.0016,490.3275,874.7405,490.5887,880.3913,493.6961,871.0455" style="stroke: #383838; stroke-width: 0.7;"/><!--link _reducer to plantuml-encoder-decoder--><path d="M434.7539,935.1362 C464.0836,925.579 507.8371,908.0014 538,881 C558.9565,862.24 548.7259,844.1749 571,827 C574.6051,824.2202 578.4937,821.7256 582.5611,819.4871 " fill="none" id="_reducer-plantuml-encoder-decoder" style="stroke: #383838; stroke-width: 0.7;"/><polygon fill="#383838" points="587.0399,817.1572,577.2096,817.7623,582.6042,819.4648,580.9017,824.8593,587.0399,817.1572" style="stroke: #383838; stroke-width: 0.7;"/><!--link _reducer to redux--><path d="M434.5719,947.599 C469.0862,949.8037 524.4813,947.7553 559,918 C572.0943,906.7127 558.641,893.088 571,881 C586.6701,865.6734 610.6847,858.9976 629.9673,856.1138 " fill="none" id="_reducer-redux" style="stroke: #383838; stroke-width: 0.7;"/><polygon fill="#383838" points="635.2697,855.3969,625.815,852.6387,630.3148,856.0667,626.8867,860.5666,635.2697,855.3969" style="stroke: #383838; stroke-width: 0.7;"/><!--link _reducer to redux-persist--><path d="M434.7184,957.8981 C468.1068,970.4707 521.3291,983.7038 559,960 C569.4315,953.4361 561.6322,943.0091 571,935 C582.1534,925.4643 596.5807,919.2963 610.6041,915.3066 " fill="none" id="_reducer-redux-persist" style="stroke: #383838; stroke-width: 0.7;"/><polygon fill="#383838" points="615.7455,913.9331,606.018,912.3916,610.9149,915.2236,608.0829,920.1205,615.7455,913.9331" style="stroke: #383838; stroke-width: 0.7;"/><!--link _responsive_image to react--><path d="M460.1612,376.5041 C493.6463,377.6911 534.2145,385.3666 559,412 C586.7915,441.8635 544.5567,471.9363 571,503 C585.9145,520.5205 611.7149,526.9308 631.8781,529.1551 " fill="none" id="_responsive_image-react" style="stroke: #383838; stroke-width: 0.7;"/><polygon fill="#383838" points="636.8729,529.6346,628.2964,524.7927,631.8958,529.1567,627.5318,532.7561,636.8729,529.6346" style="stroke: #383838; stroke-width: 0.7;"/><!--link _responsive_image to styled-components--><path d="M451.9584,397.0572 C482.7034,407.9766 523.2795,422.567 559,436 C576.9014,442.732 596.4755,450.3463 613.6469,457.1113 " fill="none" id="_responsive_image-styled-components" style="stroke: #383838; stroke-width: 0.7;"/><polygon fill="#383838" points="618.423,458.9955,611.5188,451.9718,613.7718,457.1606,608.583,459.4137,618.423,458.9955" style="stroke: #383838; stroke-width: 0.7;"/><!--link _section to react--><path d="M422.3929,109.0129 C433.9218,119.8734 448.5868,134.5773 460,149 C500.6359,200.3509 512.8133,213.5531 538,274 C553.6317,311.5154 552.5808,322.8684 559,363 C563.9319,393.8332 551.3071,478.7678 571,503 C585.5112,520.856 611.3526,527.2322 631.6341,529.358 " fill="none" id="_section-react" style="stroke: #383838; stroke-width: 0.7;"/><polygon fill="#383838" points="636.6604,529.8113,628.0561,525.019,631.6806,529.3622,627.3375,532.9867,636.6604,529.8113" style="stroke: #383838; stroke-width: 0.7;"/><!--link _section to styled-components--><path d="M433.008,77.6267 C462.4725,65.5714 507.6291,53.593 538,76 C601.2314,122.6506 645.4232,376.0457 657.6066,453.4994 " fill="none" id="_section-styled-components" style="stroke: #383838; stroke-width: 0.7;"/><polygon fill="#383838" points="658.4283,458.7667,660.9932,449.2577,657.6576,453.8265,653.0888,450.4908,658.4283,458.7667" style="stroke: #383838; stroke-width: 0.7;"/><!--link _spinner to react--><path d="M433.1111,487.7046 C464.9011,485.1375 516.5591,483.7909 559,496 C564.9338,497.707 565.3367,500.5401 571,503 C590.6944,511.5543 613.9291,518.4498 631.8571,523.1308 " fill="none" id="_spinner-react" style="stroke: #383838; stroke-width: 0.7;"/><polygon fill="#383838" points="636.7657,524.3919,629.0443,518.278,631.923,523.1476,627.0534,526.0264,636.7657,524.3919" style="stroke: #383838; stroke-width: 0.7;"/><!--link _spinner to react-loader-spinner--><path d="M433.1727,503.566 C466.435,517.4467 522.1199,540.0713 571,557 C579.3239,559.8828 588.1407,562.7508 596.8721,565.482 " fill="none" id="_spinner-react-loader-spinner" style="stroke: #383838; stroke-width: 0.7;"/><polygon fill="#383838" points="601.7104,566.9844,594.3016,560.4952,596.9354,565.5015,591.929,568.1353,601.7104,566.9844" style="stroke: #383838; stroke-width: 0.7;"/><!--link _spinner to styled-components--><path d="M431.0747,473.921 C445.1539,466.1917 462.8873,457.9211 480,454 C518.8198,445.1051 563.1998,450.2667 598.2987,457.8169 " fill="none" id="_spinner-styled-components" style="stroke: #383838; stroke-width: 0.7;"/><polygon fill="#383838" points="603.4082,458.9468,595.4843,453.0977,598.5262,457.8671,593.7568,460.9089,603.4082,458.9468" style="stroke: #383838; stroke-width: 0.7;"/><!--link _store_index to _reducer--><path d="M310.9187,1007.822 C329.4568,995.0425 354.8123,977.5635 374.3014,964.1284 " fill="none" id="_store_index-_reducer" style="stroke: #383838; stroke-width: 0.7;"/><polygon fill="#383838" points="378.6172,961.1533,368.937,962.968,374.5005,963.9911,373.4775,969.5547,378.6172,961.1533" style="stroke: #383838; stroke-width: 0.7;"/><!--link _store_index to redux--><path d="M327.3933,1020.9462 C380.3536,1014.0521 472.9965,996.0904 538,951 C550.7816,942.1339 552.0816,936.9324 559,923 C567.6343,905.6121 557.3631,894.8175 571,881 C586.397,865.3991 610.4252,858.7369 629.7824,855.928 " fill="none" id="_store_index-redux" style="stroke: #383838; stroke-width: 0.7;"/><polygon fill="#383838" points="635.1072,855.2336,625.6655,852.431,630.1492,855.8802,626.7,860.3638,635.1072,855.2336" style="stroke: #383838; stroke-width: 0.7;"/><!--link _store_index to redux-persist--><path d="M324.011,1042.0012 C377.4044,1063.0195 475.1092,1090.6696 538,1044 C558.3235,1028.9185 553.082,952.8729 571,935 C581.6879,924.3391 596.409,917.8575 610.8508,913.9269 " fill="none" id="_store_index-redux-persist" style="stroke: #383838; stroke-width: 0.7;"/><polygon fill="#383838" points="615.7316,912.6894,606.0245,911.0243,610.885,913.9184,607.9909,918.7788,615.7316,912.6894" style="stroke: #383838; stroke-width: 0.7;"/><script type="text/plantuml"><![CDATA[
@startuml

scale max 1920 width
left to right direction

skinparam monochrome true
skinparam shadowing false
skinparam nodesep 20
skinparam ranksep 20
skinparam defaultFontName Tahoma
skinparam defaultFontSize 12
skinparam roundCorner 4
skinparam dpi 150
skinparam arrowThickness 0.7
skinparam packageTitleAlignment left

skinparam usecase {
  borderThickness 0.4
  fontSize 12
}

skinparam rectangle {
  borderThickness 0.8
}

skinparam component {
  borderThickness 1.2
}


rectangle "actions" as _actions
rectangle "<b>components/index</b>" as _components_index
rectangle "container" as _container
rectangle "editor" as _editor
rectangle "header" as _header
rectangle "preview" as _preview
rectangle "reducer" as _reducer
rectangle "responsive-image" as _responsive_image
rectangle "section" as _section
rectangle "spinner" as _spinner
rectangle "store/index" as _store_index

package "Dependencies" {
  [brace]
  [plantuml-encoder-decoder]
  [react]
  [react-ace]
  [react-dom]
  [react-loader-spinner]
  [react-redux]
  [redux]
  [redux-persist]
  [styled-components]
  [styled-reset]
}

_actions ----> [plantuml-encoder-decoder]
_components_index => _container
_components_index => _editor
_components_index => _header
_components_index => _preview
_components_index ----> [react]
_components_index ----> [react-dom]
_components_index ----> [react-redux]
_components_index ----> [redux-persist]
_components_index => _section
_components_index ===> _store_index
_components_index ----> [styled-components]
_components_index ----> [styled-reset]
_container ----> [react]
_container ----> [styled-components]
_editor ---> _actions
_editor ----> [brace]
_editor ----> [react]
_editor ----> [react-ace]
_editor ----> [react-redux]
_editor ---> _reducer
_header ----> [react]
_header ----> [styled-components]
_preview ---> _actions
_preview ----> [react]
_preview ----> [react-redux]
_preview ---> _reducer
_preview --> _responsive_image
_preview --> _spinner
_reducer --> _actions
_reducer ----> [plantuml-encoder-decoder]
_reducer ----> [redux]
_reducer ----> [redux-persist]
_responsive_image ----> [react]
_responsive_image ----> [styled-components]
_section ----> [react]
_section ----> [styled-components]
_spinner ----> [react]
_spinner ----> [react-loader-spinner]
_spinner ----> [styled-components]
_store_index --> _reducer
_store_index ----> [redux]
_store_index ----> [redux-persist]

@enduml


' View and edit on https://arkit.herokuapp.com
]]></script></g></svg>