<?xml version="1.0" encoding="UTF-8" standalone="no"?><svg xmlns="http://www.w3.org/2000/svg" xmlns:xlink="http://www.w3.org/1999/xlink" contentScriptType="application/ecmascript" contentStyleType="text/css" height="1040px" preserveAspectRatio="none" style="width:915px;height:1040px;" version="1.1" viewBox="0 0 915 1040" width="915px" zoomAndPan="magnify"><defs/><g><!--cluster Dependencies--><path d="M725,266 L811,266 A3,3 0 0 1 813,268 L820,286.4844 L901,286.4844 A2,2 0 0 1 903,288.4844 L903,871 A2,2 0 0 1 901,873 L725,873 A2,2 0 0 1 723,871 L723,268 A2,2 0 0 1 725,266 " fill="#FFFFFF" style="stroke: #000000; stroke-width: 1.5;"/><line style="stroke: #000000; stroke-width: 1.5;" x1="723" x2="820" y1="286.4844" y2="286.4844"/><text fill="#000000" font-family="Tahoma, sans-serif" font-size="12" font-weight="bold" lengthAdjust="spacingAndGlyphs" textLength="84" x="727" y="280.0059">Dependencies</text><!--entity monaco-editor--><rect fill="#F8F8F8" height="34.4844" rx="2" ry="2" style="stroke: #383838; stroke-width: 1.0;" width="99" x="763.5" y="615"/><rect fill="#F8F8F8" height="5" style="stroke: #383838; stroke-width: 1.0;" width="10" x="758.5" y="620"/><rect fill="#F8F8F8" height="5" style="stroke: #383838; stroke-width: 1.0;" width="10" x="758.5" y="639.4844"/><text fill="#000000" font-family="Tahoma, sans-serif" font-size="12" lengthAdjust="spacingAndGlyphs" textLength="79" x="773.5" y="637.0059">monaco-editor</text><!--entity plantuml-encoder-decoder--><rect fill="#F8F8F8" height="34.4844" rx="2" ry="2" style="stroke: #383838; stroke-width: 1.0;" width="164" x="731" y="669"/><rect fill="#F8F8F8" height="5" style="stroke: #383838; stroke-width: 1.0;" width="10" x="726" y="674"/><rect fill="#F8F8F8" height="5" style="stroke: #383838; stroke-width: 1.0;" width="10" x="726" y="693.4844"/><text fill="#000000" font-family="Tahoma, sans-serif" font-size="12" lengthAdjust="spacingAndGlyphs" textLength="144" x="741" y="691.0059">plantuml-encoder-decoder</text><!--entity react--><rect fill="#F8F8F8" height="34.4844" rx="2" ry="2" style="stroke: #383838; stroke-width: 1.0;" width="48" x="789" y="453"/><rect fill="#F8F8F8" height="5" style="stroke: #383838; stroke-width: 1.0;" width="10" x="784" y="458"/><rect fill="#F8F8F8" height="5" style="stroke: #383838; stroke-width: 1.0;" width="10" x="784" y="477.4844"/><text fill="#000000" font-family="Tahoma, sans-serif" font-size="12" lengthAdjust="spacingAndGlyphs" textLength="28" x="799" y="475.0059">react</text><!--entity react-dom--><rect fill="#F8F8F8" height="34.4844" rx="2" ry="2" style="stroke: #383838; stroke-width: 1.0;" width="76" x="775" y="291"/><rect fill="#F8F8F8" height="5" style="stroke: #383838; stroke-width: 1.0;" width="10" x="770" y="296"/><rect fill="#F8F8F8" height="5" style="stroke: #383838; stroke-width: 1.0;" width="10" x="770" y="315.4844"/><text fill="#000000" font-family="Tahoma, sans-serif" font-size="12" lengthAdjust="spacingAndGlyphs" textLength="56" x="785" y="313.0059">react-dom</text><!--entity react-loader-spinner--><rect fill="#F8F8F8" height="34.4844" rx="2" ry="2" style="stroke: #383838; stroke-width: 1.0;" width="128" x="749" y="507"/><rect fill="#F8F8F8" height="5" style="stroke: #383838; stroke-width: 1.0;" width="10" x="744" y="512"/><rect fill="#F8F8F8" height="5" style="stroke: #383838; stroke-width: 1.0;" width="10" x="744" y="531.4844"/><text fill="#000000" font-family="Tahoma, sans-serif" font-size="12" lengthAdjust="spacingAndGlyphs" textLength="108" x="759" y="529.0059">react-loader-spinner</text><!--entity react-monaco-editor--><rect fill="#F8F8F8" height="34.4844" rx="2" ry="2" style="stroke: #383838; stroke-width: 1.0;" width="131" x="747.5" y="777"/><rect fill="#F8F8F8" height="5" style="stroke: #383838; stroke-width: 1.0;" width="10" x="742.5" y="782"/><rect fill="#F8F8F8" height="5" style="stroke: #383838; stroke-width: 1.0;" width="10" x="742.5" y="801.4844"/><text fill="#000000" font-family="Tahoma, sans-serif" font-size="12" lengthAdjust="spacingAndGlyphs" textLength="111" x="757.5" y="799.0059">react-monaco-editor</text><!--entity react-redux--><rect fill="#F8F8F8" height="34.4844" rx="2" ry="2" style="stroke: #383838; stroke-width: 1.0;" width="83" x="771.5" y="561"/><rect fill="#F8F8F8" height="5" style="stroke: #383838; stroke-width: 1.0;" width="10" x="766.5" y="566"/><rect fill="#F8F8F8" height="5" style="stroke: #383838; stroke-width: 1.0;" width="10" x="766.5" y="585.4844"/><text fill="#000000" font-family="Tahoma, sans-serif" font-size="12" lengthAdjust="spacingAndGlyphs" textLength="63" x="781.5" y="583.0059">react-redux</text><!--entity redux--><rect fill="#F8F8F8" height="34.4844" rx="2" ry="2" style="stroke: #383838; stroke-width: 1.0;" width="51" x="787.5" y="723"/><rect fill="#F8F8F8" height="5" style="stroke: #383838; stroke-width: 1.0;" width="10" x="782.5" y="728"/><rect fill="#F8F8F8" height="5" style="stroke: #383838; stroke-width: 1.0;" width="10" x="782.5" y="747.4844"/><text fill="#000000" font-family="Tahoma, sans-serif" font-size="12" lengthAdjust="spacingAndGlyphs" textLength="31" x="797.5" y="745.0059">redux</text><!--entity redux-persist--><rect fill="#F8F8F8" height="34.4844" rx="2" ry="2" style="stroke: #383838; stroke-width: 1.0;" width="90" x="768" y="831"/><rect fill="#F8F8F8" height="5" style="stroke: #383838; stroke-width: 1.0;" width="10" x="763" y="836"/><rect fill="#F8F8F8" height="5" style="stroke: #383838; stroke-width: 1.0;" width="10" x="763" y="855.4844"/><text fill="#000000" font-family="Tahoma, sans-serif" font-size="12" lengthAdjust="spacingAndGlyphs" textLength="70" x="778" y="853.0059">redux-persist</text><!--entity styled-components--><rect fill="#F8F8F8" height="34.4844" rx="2" ry="2" style="stroke: #383838; stroke-width: 1.0;" width="124" x="751" y="399"/><rect fill="#F8F8F8" height="5" style="stroke: #383838; stroke-width: 1.0;" width="10" x="746" y="404"/><rect fill="#F8F8F8" height="5" style="stroke: #383838; stroke-width: 1.0;" width="10" x="746" y="423.4844"/><text fill="#000000" font-family="Tahoma, sans-serif" font-size="12" lengthAdjust="spacingAndGlyphs" textLength="104" x="761" y="421.0059">styled-components</text><!--entity styled-reset--><rect fill="#F8F8F8" height="34.4844" rx="2" ry="2" style="stroke: #383838; stroke-width: 1.0;" width="84" x="771" y="345"/><rect fill="#F8F8F8" height="5" style="stroke: #383838; stroke-width: 1.0;" width="10" x="766" y="350"/><rect fill="#F8F8F8" height="5" style="stroke: #383838; stroke-width: 1.0;" width="10" x="766" y="369.4844"/><text fill="#000000" font-family="Tahoma, sans-serif" font-size="12" lengthAdjust="spacingAndGlyphs" textLength="64" x="781" y="367.0059">styled-reset</text><!--entity _actions--><rect fill="#F8F8F8" height="34.4844" rx="2" ry="2" style="stroke: #000000; stroke-width: 0.5;" width="58" x="552" y="669"/><text fill="#000000" font-family="Tahoma, sans-serif" font-size="12" lengthAdjust="spacingAndGlyphs" textLength="38" x="562" y="691.0059">actions</text><ellipse cx="77.3757" cy="310.1751" fill="#F8F8F8" rx="71.3757" ry="16.6751" style="stroke: #383838; stroke-width: 0.5;"/><text fill="#000000" font-family="Tahoma, sans-serif" font-size="12" font-weight="bold" lengthAdjust="spacingAndGlyphs" textLength="116" x="19.3757" y="313.9173">components/index</text><!--entity _container--><rect fill="#F8F8F8" height="34.4844" rx="2" ry="2" style="stroke: #000000; stroke-width: 0.5;" width="71" x="392" y="185"/><text fill="#000000" font-family="Tahoma, sans-serif" font-size="12" lengthAdjust="spacingAndGlyphs" textLength="51" x="402" y="207.0059">container</text><!--entity _editor--><rect fill="#F8F8F8" height="34.4844" rx="2" ry="2" style="stroke: #000000; stroke-width: 0.5;" width="52" x="230" y="724"/><text fill="#000000" font-family="Tahoma, sans-serif" font-size="12" lengthAdjust="spacingAndGlyphs" textLength="32" x="240" y="746.0059">editor</text><!--entity _header--><rect fill="#F8F8F8" height="34.4844" rx="2" ry="2" style="stroke: #000000; stroke-width: 0.5;" width="58" x="398.5" y="239"/><text fill="#000000" font-family="Tahoma, sans-serif" font-size="12" lengthAdjust="spacingAndGlyphs" textLength="38" x="408.5" y="261.0059">header</text><!--entity _logo--><rect fill="#F8F8F8" height="34.4844" rx="2" ry="2" style="stroke: #000000; stroke-width: 0.5;" width="43" x="406" y="293"/><text fill="#000000" font-family="Tahoma, sans-serif" font-size="12" lengthAdjust="spacingAndGlyphs" textLength="23" x="416" y="315.0059">logo</text><ellipse cx="427.3309" cy="764.7662" fill="#F8F8F8" rx="64.3309" ry="15.2662" style="stroke: #383838; stroke-width: 0.5;"/><text fill="#000000" font-family="Tahoma, sans-serif" font-size="12" lengthAdjust="spacingAndGlyphs" textLength="99" x="377.8309" y="768.5084">plantuml-language</text><!--entity _preview--><rect fill="#F8F8F8" height="34.4844" rx="2" ry="2" style="stroke: #000000; stroke-width: 0.5;" width="63" x="224.5" y="485"/><text fill="#000000" font-family="Tahoma, sans-serif" font-size="12" lengthAdjust="spacingAndGlyphs" textLength="43" x="234.5" y="507.0059">preview</text><!--entity _reducer--><rect fill="#F8F8F8" height="34.4844" rx="2" ry="2" style="stroke: #000000; stroke-width: 0.5;" width="62" x="396.5" y="801"/><text fill="#000000" font-family="Tahoma, sans-serif" font-size="12" lengthAdjust="spacingAndGlyphs" textLength="42" x="406.5" y="823.0059">reducer</text><!--entity _responsive_image--><rect fill="#F8F8F8" height="34.4844" rx="2" ry="2" style="stroke: #000000; stroke-width: 0.5;" width="113" x="371" y="389"/><text fill="#000000" font-family="Tahoma, sans-serif" font-size="12" lengthAdjust="spacingAndGlyphs" textLength="93" x="381" y="411.0059">responsive-image</text><!--entity _section--><rect fill="#F8F8F8" height="34.4844" rx="2" ry="2" style="stroke: #000000; stroke-width: 0.5;" width="59" x="398" y="89"/><text fill="#000000" font-family="Tahoma, sans-serif" font-size="12" lengthAdjust="spacingAndGlyphs" textLength="39" x="408" y="111.0059">section</text><!--entity _spinner--><rect fill="#F8F8F8" height="34.4844" rx="2" ry="2" style="stroke: #000000; stroke-width: 0.5;" width="59" x="398" y="485"/><text fill="#000000" font-family="Tahoma, sans-serif" font-size="12" lengthAdjust="spacingAndGlyphs" textLength="39" x="408" y="507.0059">spinner</text><ellipse cx="255.8406" cy="863.242" fill="#F8F8F8" rx="46.8406" ry="13.242" style="stroke: #383838; stroke-width: 0.5;"/><text fill="#000000" font-family="Tahoma, sans-serif" font-size="12" lengthAdjust="spacingAndGlyphs" textLength="62" x="224.8406" y="866.9842">store/index</text><!--link _actions to plantuml-encoder-decoder--><path d="M610.383,686 C639.2638,686 684.7875,686 725.3739,686 " fill="none" id="_actions-plantuml-encoder-decoder" style="stroke: #000000; stroke-width: 0.55;"/><polygon fill="#000000" points="730.8088,686,721.8088,682,725.8088,686,721.8088,690,730.8088,686" style="stroke: #000000; stroke-width: 0.55;"/><!--link <b>components/index</b> to _container--><path d="M118.2805,296.352 C144.2032,287.7541 178.5055,276.5197 209,267 C270.8408,247.6947 342.9325,226.502 386.8818,213.7288 " fill="none" id="&lt;b&gt;components/index&lt;/b&gt;-_container" style="stroke: #000000; stroke-width: 1.0;"/><polygon fill="#000000" points="391.8355,212.29,382.077,210.959,387.0339,213.6846,384.3083,218.6415,391.8355,212.29" style="stroke: #000000; stroke-width: 1.0;"/><!--link <b>components/index</b> to _editor--><path d="M83.1809,326.5354 C100.3998,376.214 154.195,528.2248 209,650 C219.8984,674.216 234.0764,701.1476 243.9985,719.3851 " fill="none" id="&lt;b&gt;components/index&lt;/b&gt;-_editor" style="stroke: #000000; stroke-width: 1.0;"/><polygon fill="#000000" points="246.4248,723.8275,245.6211,714.0115,244.028,719.4394,238.6001,717.8463,246.4248,723.8275" style="stroke: #000000; stroke-width: 1.0;"/><!--link <b>components/index</b> to _header--><path d="M137.2695,300.7784 C210.9937,289.4038 333.8348,270.4512 393.2449,261.2851 " fill="none" id="&lt;b&gt;components/index&lt;/b&gt;-_header" style="stroke: #000000; stroke-width: 1.0;"/><polygon fill="#000000" points="398.4477,260.4824,388.943,257.9015,393.5062,261.2448,390.1629,265.808,398.4477,260.4824" style="stroke: #000000; stroke-width: 1.0;"/><!--link <b>components/index</b> to _logo--><path d="M149.1723,310 C227.0939,310 347.5975,310 400.7524,310 " fill="none" id="&lt;b&gt;components/index&lt;/b&gt;-_logo" style="stroke: #000000; stroke-width: 1.0;"/><polygon fill="#000000" points="405.9862,310,396.9862,306,400.9862,310,396.9862,314,405.9862,310" style="stroke: #000000; stroke-width: 1.0;"/><!--link <b>components/index</b> to _preview--><path d="M92.7188,326.3698 C125.0128,361.1063 200.375,442.1681 236.2891,480.7984 " fill="none" id="&lt;b&gt;components/index&lt;/b&gt;-_preview" style="stroke: #000000; stroke-width: 1.0;"/><polygon fill="#000000" points="240.0538,484.8478,236.8553,475.5328,236.6493,481.1859,230.9962,480.9799,240.0538,484.8478" style="stroke: #000000; stroke-width: 1.0;"/><!--link <b>components/index</b> to react--><path d="M139.7146,318.1537 C221.1632,329.3302 368.1395,351.2247 492,379 C549.0145,391.7853 715.5219,440.9343 783.5391,461.193 " fill="none" id="&lt;b&gt;components/index&lt;/b&gt;-react" style="stroke: #000000; stroke-width: 1.0;"/><polygon fill="#000000" points="788.6508,462.7164,781.1681,456.3126,783.8591,461.2884,778.8833,463.9794,788.6508,462.7164" style="stroke: #000000; stroke-width: 1.0;"/><!--link <b>components/index</b> to react-dom--><path d="M80.1104,293.2461 C88.6001,244.9564 120.2018,104.9309 209,42 C288.7905,-14.5471 329.7038,16 427.5,16 C427.5,16 427.5,16 581,16 C622.6357,16 638.6472,15.7926 671,42 C752.7996,108.262 793.7088,234.5575 807.4942,285.6846 " fill="none" id="&lt;b&gt;components/index&lt;/b&gt;-react-dom" style="stroke: #000000; stroke-width: 1.0;"/><polygon fill="#000000" points="808.8191,290.6807,810.3784,280.9561,807.5374,285.8478,802.6457,283.0068,808.8191,290.6807" style="stroke: #000000; stroke-width: 1.0;"/><!--link <b>components/index</b> to react-redux--><path d="M82.0969,326.5687 C94.6227,368.3429 133.5732,478.2436 209,529 C384.7059,647.2364 657.5582,609.8219 766.1293,588.4373 " fill="none" id="&lt;b&gt;components/index&lt;/b&gt;-react-redux" style="stroke: #000000; stroke-width: 1.0;"/><polygon fill="#000000" points="771.1741,587.4317,761.5658,585.2682,766.2706,588.4091,763.1297,593.1139,771.1741,587.4317" style="stroke: #000000; stroke-width: 1.0;"/><!--link <b>components/index</b> to redux-persist--><path d="M79.5787,326.5466 C90.3924,410.6458 142.2832,790.4364 209,886 C275.2981,980.9639 311.683,1028 427.5,1028 C427.5,1028 427.5,1028 581,1028 C683.2289,1028 767.6557,917.5523 799.4425,869.6898 " fill="none" id="&lt;b&gt;components/index&lt;/b&gt;-redux-persist" style="stroke: #000000; stroke-width: 1.0;"/><polygon fill="#000000" points="802.3532,865.2592,794.0685,870.5849,799.6078,869.4381,800.7547,874.9775,802.3532,865.2592" style="stroke: #000000; stroke-width: 1.0;"/><!--link <b>components/index</b> to _section--><path d="M84.8129,293.325 C101.2685,257.9904 144.851,175.7359 209,138 C266.7512,104.0276 347.4826,101.5259 392.9035,103.3591 " fill="none" id="&lt;b&gt;components/index&lt;/b&gt;-_section" style="stroke: #000000; stroke-width: 1.0;"/><polygon fill="#000000" points="397.9944,103.5889,389.184,99.1869,392.9995,103.3633,388.8231,107.1788,397.9944,103.5889" style="stroke: #000000; stroke-width: 1.0;"/><!--link <b>components/index</b> to store/index--><path d="M81.1187,326.5759 C94.5327,386.9324 144.0163,600.2147 209,768 C219.844,795.9989 235.9588,826.9006 246.2197,845.6297 " fill="none" id="&lt;b&gt;components/index&lt;/b&gt;-store/index" style="stroke: #000000; stroke-width: 1.0;"/><polygon fill="#000000" points="248.6956,850.1199,247.8526,840.3072,246.2813,845.7414,240.8471,844.1701,248.6956,850.1199" style="stroke: #000000; stroke-width: 1.0;"/><!--link <b>components/index</b> to styled-components--><path d="M97.4,293.8928 C148.7238,254.0351 291.121,154 427.5,154 C427.5,154 427.5,154 581,154 C649.8186,154 636.0503,220.7166 671,280 C698.2589,326.2379 682.2447,354.0715 723,389 C729.7932,394.822 737.8063,399.3886 746.205,402.9706 " fill="none" id="&lt;b&gt;components/index&lt;/b&gt;-styled-components" style="stroke: #000000; stroke-width: 1.0;"/><polygon fill="#000000" points="750.9053,404.861,744.0479,397.7916,746.2664,402.9953,741.0628,405.2138,750.9053,404.861" style="stroke: #000000; stroke-width: 1.0;"/><!--link <b>components/index</b> to styled-reset--><path d="M83.3322,293.2857 C97.8831,254.1787 139.6846,156.378 209,108 C290.6919,50.9839 327.8787,58 427.5,58 C427.5,58 427.5,58 581,58 C630.0824,58 643.4462,81.3814 671,122 C725.7045,202.6431 655.9096,264.3263 723,335 C734.0996,346.6924 750.0422,353.381 765.4343,357.1867 " fill="none" id="&lt;b&gt;components/index&lt;/b&gt;-styled-reset" style="stroke: #000000; stroke-width: 1.0;"/><polygon fill="#000000" points="770.6253,358.3699,762.7394,352.4697,765.7504,357.2586,760.9614,360.2696,770.6253,358.3699" style="stroke: #000000; stroke-width: 1.0;"/><!--link _container to styled-components--><path d="M463.3138,208.9611 C500.9863,217.0628 561.4293,232.2994 610,255 C639.5933,268.8311 648.8672,271.975 671,296 C703.0859,330.829 686.0649,359.3628 723,389 C729.8706,394.513 737.8472,398.9016 746.1574,402.3948 " fill="none" id="_container-styled-components" style="stroke: #000000; stroke-width: 0.55;"/><polygon fill="#000000" points="750.8037,404.2448,743.922,397.1991,746.1584,402.3951,740.9624,404.6315,750.8037,404.2448" style="stroke: #000000; stroke-width: 0.55;"/><!--link _editor to _actions--><path d="M282.0467,736.5921 C340.3275,726.7292 481.2507,702.8807 546.6267,691.817 " fill="none" id="_editor-_actions" style="stroke: #000000; stroke-width: 0.55;"/><polygon fill="#000000" points="551.5796,690.9788,542.0383,688.5366,546.6497,691.8131,543.3732,696.4244,551.5796,690.9788" style="stroke: #000000; stroke-width: 0.55;"/><!--link _editor to plantuml-language--><path d="M282.0472,744.6451 C304.4579,747.7813 337.6693,752.4289 366.7011,756.4917 " fill="none" id="_editor-plantuml-language" style="stroke: #000000; stroke-width: 0.55;"/><polygon fill="#000000" points="371.6948,757.1905,363.3361,751.9817,366.7431,756.4975,362.2273,759.9045,371.6948,757.1905" style="stroke: #000000; stroke-width: 0.55;"/><!--link _editor to react-monaco-editor--><path d="M266.9835,758.008 C284.0549,782.678 319.5541,827.3649 363,845 C430.0525,872.2173 633.3443,833.924 742.2793,810.2592 " fill="none" id="_editor-react-monaco-editor" style="stroke: #000000; stroke-width: 0.55;"/><polygon fill="#000000" points="747.3945,809.1437,737.7489,807.1533,742.5093,810.2091,739.4535,814.9696,747.3945,809.1437" style="stroke: #000000; stroke-width: 0.55;"/><!--link _editor to react-redux--><path d="M282.3828,728.3249 C303.7748,718.3742 334.8819,704.6372 363,695 C438.7511,669.037 667.3706,613.0432 766.4134,589.1606 " fill="none" id="_editor-react-redux" style="stroke: #000000; stroke-width: 0.55;"/><polygon fill="#000000" points="771.3174,587.9788,761.6307,586.1987,766.4566,589.1502,763.505,593.976,771.3174,587.9788" style="stroke: #000000; stroke-width: 0.55;"/><!--link _editor to _reducer--><path d="M282.2469,753.6288 C303.8245,763.923 335.2512,778.7148 363,791 C372.169,795.0594 382.1361,799.3101 391.4318,803.2061 " fill="none" id="_editor-_reducer" style="stroke: #000000; stroke-width: 0.55;"/><polygon fill="#000000" points="396.2238,805.2082,389.4615,798.0478,391.6103,803.2807,386.3774,805.4294,396.2238,805.2082" style="stroke: #000000; stroke-width: 0.55;"/><!--link _header to styled-components--><path d="M456.7649,255.0521 C506.2245,254.9747 607.1832,261.5763 671,312 C703.4014,337.6014 689.7334,364.5333 723,389 C729.8561,394.0425 737.6557,398.1511 745.7295,401.4971 " fill="none" id="_header-styled-components" style="stroke: #000000; stroke-width: 0.55;"/><polygon fill="#000000" points="750.786,403.4833,743.8716,396.4696,746.1322,401.6552,740.9466,403.9157,750.786,403.4833" style="stroke: #000000; stroke-width: 0.55;"/><!--link _logo to styled-components--><path d="M449.1463,306.3102 C493.5304,299.834 596.9001,290.422 671,328 C702.7728,344.1128 693.1653,369.5314 723,389 C730.0144,393.5772 737.8353,397.4045 745.8572,400.5985 " fill="none" id="_logo-styled-components" style="stroke: #000000; stroke-width: 0.55;"/><polygon fill="#000000" points="750.8726,402.5065,743.883,395.5678,746.1993,400.7287,741.0385,403.045,750.8726,402.5065" style="stroke: #000000; stroke-width: 0.55;"/><!--link plantuml-language to monaco-editor--><path d="M473.9467,754.0667 C511.2524,744.7388 564.704,730.1367 610,713 C662.0609,693.304 671.077,679.0569 723,659 C734.3177,654.6282 746.6558,650.5176 758.4661,646.8856 " fill="none" id="plantuml-language-monaco-editor" style="stroke: #000000; stroke-width: 0.55;"/><polygon fill="#000000" points="763.4908,645.3589,753.7166,644.1483,758.7068,646.8126,756.0425,651.8027,763.4908,645.3589" style="stroke: #000000; stroke-width: 0.55;"/><!--link _preview to _actions--><path d="M283.9984,519.1205 C305.4911,532.1718 335.9675,550.482 363,566 C427.7094,603.1464 504.3275,644.7883 547.3347,667.9535 " fill="none" id="_preview-_actions" style="stroke: #000000; stroke-width: 0.55;"/><polygon fill="#000000" points="551.8998,670.411,545.8713,662.6227,547.4972,668.0409,542.0791,669.6668,551.8998,670.411" style="stroke: #000000; stroke-width: 0.55;"/><!--link _preview to react--><path d="M287.9256,491.8387 C308.9981,485.6572 337.3512,478.3309 363,475 C520.4424,454.5535 711.472,463.4164 783.5668,467.9415 " fill="none" id="_preview-react" style="stroke: #000000; stroke-width: 0.55;"/><polygon fill="#000000" points="788.9566,468.2857,780.2299,463.7202,783.9668,467.967,779.7199,471.7039,788.9566,468.2857" style="stroke: #000000; stroke-width: 0.55;"/><!--link _preview to react-redux--><path d="M287.5863,511.198 C308.7596,517.0591 337.3551,524.3912 363,529 C508.8845,555.218 684.0697,569.401 766.1939,575.0515 " fill="none" id="_preview-react-redux" style="stroke: #000000; stroke-width: 0.55;"/><polygon fill="#000000" points="771.4674,575.4114,762.7608,570.8077,766.479,575.0708,762.2158,578.7891,771.4674,575.4114" style="stroke: #000000; stroke-width: 0.55;"/><!--link _preview to _reducer--><path d="M257.6293,519.134 C263.1568,568.0644 285.4182,710.1017 363,791 C370.7236,799.0538 381.2167,804.805 391.4945,808.8688 " fill="none" id="_preview-_reducer" style="stroke: #000000; stroke-width: 0.55;"/><polygon fill="#000000" points="396.1909,810.6194,389.1551,803.7275,391.5059,808.8728,386.3606,811.2236,396.1909,810.6194" style="stroke: #000000; stroke-width: 0.55;"/><!--link _preview to _responsive_image--><path d="M283.3675,484.8212 C304.7841,471.5762 335.4528,453.0417 363,438 C370.6319,433.8327 378.8786,429.5674 386.8426,425.5651 " fill="none" id="_preview-_responsive_image" style="stroke: #000000; stroke-width: 0.55;"/><polygon fill="#000000" points="391.7567,423.1102,381.9178,423.554,387.2838,425.3447,385.4931,430.7107,391.7567,423.1102" style="stroke: #000000; stroke-width: 0.55;"/><!--link _preview to _spinner--><path d="M287.8559,502 C317.6164,502 361.9418,502 392.637,502 " fill="none" id="_preview-_spinner" style="stroke: #000000; stroke-width: 0.55;"/><polygon fill="#000000" points="397.822,502,388.822,498,392.822,502,388.822,506,397.822,502" style="stroke: #000000; stroke-width: 0.55;"/><!--link _reducer to _actions--><path d="M458.5954,808.3853 C469.7411,804.0878 482.0099,798.3156 492,791 C523.9446,767.6076 551.8202,730.5117 567.5126,707.2494 " fill="none" id="_reducer-_actions" style="stroke: #000000; stroke-width: 0.55;"/><polygon fill="#000000" points="570.2992,703.0732,561.9765,708.3394,567.524,707.2323,568.631,712.7798,570.2992,703.0732" style="stroke: #000000; stroke-width: 0.55;"/><!--link _reducer to plantuml-encoder-decoder--><path d="M458.7049,812.8656 C506.25,804.2646 598.9096,784.4134 671,750 C696.5975,737.7807 697.5206,725.4636 723,713 C729.0721,710.0297 735.5366,707.3136 742.1072,704.8472 " fill="none" id="_reducer-plantuml-encoder-decoder" style="stroke: #000000; stroke-width: 0.55;"/><polygon fill="#000000" points="747.1478,703.0097,737.3221,702.3343,742.4502,704.7223,740.0622,709.8504,747.1478,703.0097" style="stroke: #000000; stroke-width: 0.55;"/><!--link _reducer to redux--><path d="M458.5071,818.0421 C505.4059,817.3624 596.7829,813.1214 671,792 C695.664,784.9809 699.0902,776.2683 723,767 C742.4643,759.455 764.9581,752.7064 782.5889,747.8434 " fill="none" id="_reducer-redux" style="stroke: #000000; stroke-width: 0.55;"/><polygon fill="#000000" points="787.4262,746.5227,777.6904,745.0346,782.6028,747.8397,779.7976,752.752,787.4262,746.5227" style="stroke: #000000; stroke-width: 0.55;"/><!--link _reducer to redux-persist--><path d="M458.6404,822.6537 C483.7815,826.2535 520.0969,831.0984 552,834 C624.9634,840.6361 709.709,844.4703 762.3531,846.3972 " fill="none" id="_reducer-redux-persist" style="stroke: #000000; stroke-width: 0.55;"/><polygon fill="#000000" points="767.6617,846.5891,758.812,842.2667,762.665,846.4085,758.5231,850.2615,767.6617,846.5891" style="stroke: #000000; stroke-width: 0.55;"/><!--link _responsive_image to styled-components--><path d="M484.0836,407.3378 C533.4357,408.5181 606.9573,410.309 671,412 C695.2957,412.6415 721.9286,413.3819 745.4989,414.0499 " fill="none" id="_responsive_image-styled-components" style="stroke: #000000; stroke-width: 0.55;"/><polygon fill="#000000" points="750.7919,414.2002,741.9091,409.9462,745.7939,414.0582,741.6819,417.943,750.7919,414.2002" style="stroke: #000000; stroke-width: 0.55;"/><!--link _section to styled-components--><path d="M457.0777,100.0919 C507.927,91.8035 612.1154,83.2981 671,138 C754.4665,215.5378 646.03,305.0096 723,389 C729.3235,395.9003 737.3333,401.0638 745.9559,404.9225 " fill="none" id="_section-styled-components" style="stroke: #000000; stroke-width: 0.55;"/><polygon fill="#000000" points="750.8024,406.9346,744.024,399.7895,746.1845,405.0175,740.9566,407.178,750.8024,406.9346" style="stroke: #000000; stroke-width: 0.55;"/><!--link _spinner to react-loader-spinner--><path d="M457.1094,503.6898 C518.0441,507.1672 658.8803,515.2046 743.9804,520.0611 " fill="none" id="_spinner-react-loader-spinner" style="stroke: #000000; stroke-width: 0.55;"/><polygon fill="#000000" points="748.9986,520.3475,740.2412,515.841,744.0067,520.0625,739.7852,523.828,748.9986,520.3475" style="stroke: #000000; stroke-width: 0.55;"/><!--link _spinner to styled-components--><path d="M457.1094,495.3945 C518.4763,481.7044 660.882,449.9355 745.7825,430.9953 " fill="none" id="_spinner-styled-components" style="stroke: #000000; stroke-width: 0.55;"/><polygon fill="#000000" points="750.7867,429.879,741.1316,427.9349,745.9067,430.9679,742.8738,435.7429,750.7867,429.879" style="stroke: #000000; stroke-width: 0.55;"/><!--link store/index to _reducer--><path d="M290.2934,854.0017 C319.5856,846.3157 361.5901,835.2941 391.3923,827.4743 " fill="none" id="store/index-_reducer" style="stroke: #000000; stroke-width: 0.55;"/><polygon fill="#000000" points="396.4372,826.1506,386.7166,824.566,391.601,827.4197,388.7473,832.304,396.4372,826.1506" style="stroke: #000000; stroke-width: 0.55;"/><!--link store/index to redux--><path d="M303.0459,863.3256 C382.4144,862.2072 546.4355,852.6348 671,797 C695.362,786.1191 698.5019,777.571 723,767 C742.1672,758.7293 764.6609,751.9805 782.3659,747.2989 " fill="none" id="store/index-redux" style="stroke: #000000; stroke-width: 0.55;"/><polygon fill="#000000" points="787.2259,746.0336,777.5084,744.4301,782.3872,747.2933,779.524,752.1721,787.2259,746.0336" style="stroke: #000000; stroke-width: 0.55;"/><!--link store/index to redux-persist--><path d="M273.2896,875.2638 C293.7459,889.187 329.2937,911.5746 363,924 C492.3141,971.6699 540.7916,1005.1701 671,960 C723.0231,941.9528 770.4098,896.0702 795.0978,868.9596 " fill="none" id="store/index-redux-persist" style="stroke: #000000; stroke-width: 0.55;"/><polygon fill="#000000" points="798.5735,865.1014,789.5777,869.1109,795.2269,868.8163,795.5215,874.4654,798.5735,865.1014" style="stroke: #000000; stroke-width: 0.55;"/><script type="text/plantuml"><![CDATA[
@startuml

scale max 1920 width
left to right direction

skinparam monochrome true
skinparam shadowing false
skinparam nodesep 20
skinparam ranksep 60
skinparam defaultFontName Tahoma
skinparam defaultFontSize 12
skinparam roundCorner 4
skinparam dpi 150
skinparam arrowColor black
skinparam arrowThickness 0.55
skinparam packageTitleAlignment left

skinparam usecase {
  borderThickness 0.5
}

skinparam rectangle {
  borderThickness 0.5
}

skinparam component {
  borderThickness 1
}


rectangle "actions" as _actions
(<b>components/index</b>)
rectangle "container" as _container
rectangle "editor" as _editor
rectangle "header" as _header
rectangle "logo" as _logo
(plantuml-language)
rectangle "preview" as _preview
rectangle "reducer" as _reducer
rectangle "responsive-image" as _responsive_image
rectangle "section" as _section
rectangle "spinner" as _spinner
(store/index)

package "Dependencies" {
  [monaco-editor]
  [plantuml-encoder-decoder]
  [react]
  [react-dom]
  [react-loader-spinner]
  [react-monaco-editor]
  [react-redux]
  [redux]
  [redux-persist]
  [styled-components]
  [styled-reset]
}

_actions ----> [plantuml-encoder-decoder]
(<b>components/index</b>) -[thickness=1]> _container
(<b>components/index</b>) -[thickness=1]> _editor
(<b>components/index</b>) -[thickness=1]> _header
(<b>components/index</b>) -[thickness=1]> _logo
(<b>components/index</b>) -[thickness=1]> _preview
(<b>components/index</b>) ----[thickness=1]> [react]
(<b>components/index</b>) ----[thickness=1]> [react-dom]
(<b>components/index</b>) ----[thickness=1]> [react-redux]
(<b>components/index</b>) ----[thickness=1]> [redux-persist]
(<b>components/index</b>) -[thickness=1]> _section
(<b>components/index</b>) --[thickness=1]> (store/index)
(<b>components/index</b>) ----[thickness=1]> [styled-components]
(<b>components/index</b>) ----[thickness=1]> [styled-reset]
_container ----> [styled-components]
_editor --> _actions
_editor --> (plantuml-language)
_editor ----> [react-monaco-editor]
_editor ----> [react-redux]
_editor --> _reducer
_header ----> [styled-components]
_logo ----> [styled-components]
(plantuml-language) ---> [monaco-editor]
_preview --> _actions
_preview ----> [react]
_preview ----> [react-redux]
_preview --> _reducer
_preview --> _responsive_image
_preview --> _spinner
_reducer --> _actions
_reducer ----> [plantuml-encoder-decoder]
_reducer ----> [redux]
_reducer ----> [redux-persist]
_responsive_image ----> [styled-components]
_section ----> [styled-components]
_spinner ----> [react-loader-spinner]
_spinner ----> [styled-components]
(store/index) --> _reducer
(store/index) ----> [redux]
(store/index) ----> [redux-persist]

@enduml


' View and edit on https://arkit.herokuapp.com
]]></script></g></svg>