<?xml version="1.0" encoding="UTF-8" standalone="no"?><svg xmlns="http://www.w3.org/2000/svg" xmlns:xlink="http://www.w3.org/1999/xlink" contentScriptType="application/ecmascript" contentStyleType="text/css" height="1205px" preserveAspectRatio="none" style="width:944px;height:1205px;" version="1.1" viewBox="0 0 944 1205" width="944px" zoomAndPan="magnify"><defs/><g><!--cluster Dependencies--><path d="M729,245 L825,245 A3,3 0 0 1 827,247 L834,265.4844 L930,265.4844 A2,2 0 0 1 932,267.4844 L932,909 A2,2 0 0 1 930,911 L729,911 A2,2 0 0 1 727,909 L727,247 A2,2 0 0 1 729,245 " fill="#FFFFFF" style="stroke: #000000; stroke-width: 1.5;"/><line style="stroke: #000000; stroke-width: 1.5;" x1="727" x2="834" y1="265.4844" y2="265.4844"/><text fill="#000000" font-family="Tahoma, sans-serif" font-size="12" font-weight="bold" lengthAdjust="spacingAndGlyphs" textLength="94" x="731" y="259.0059">Dependencies</text><!--entity arkit--><rect fill="#F8F8F8" height="34.4844" rx="2" ry="2" style="stroke: #383838; stroke-width: 1.0;" width="44" x="807.5" y="702"/><rect fill="#F8F8F8" height="5" style="stroke: #383838; stroke-width: 1.0;" width="10" x="802.5" y="707"/><rect fill="#F8F8F8" height="5" style="stroke: #383838; stroke-width: 1.0;" width="10" x="802.5" y="726.4844"/><text fill="#000000" font-family="Tahoma, sans-serif" font-size="12" lengthAdjust="spacingAndGlyphs" textLength="24" x="817.5" y="724.0059">arkit</text><!--entity plantuml-encoder-decoder--><rect fill="#F8F8F8" height="34.4844" rx="2" ry="2" style="stroke: #383838; stroke-width: 1.0;" width="173" x="743" y="596"/><rect fill="#F8F8F8" height="5" style="stroke: #383838; stroke-width: 1.0;" width="10" x="738" y="601"/><rect fill="#F8F8F8" height="5" style="stroke: #383838; stroke-width: 1.0;" width="10" x="738" y="620.4844"/><text fill="#000000" font-family="Tahoma, sans-serif" font-size="12" lengthAdjust="spacingAndGlyphs" textLength="153" x="753" y="618.0059">plantuml-encoder-decoder</text><!--entity react--><rect fill="#F8F8F8" height="34.4844" rx="2" ry="2" style="stroke: #383838; stroke-width: 1.0;" width="49" x="805" y="437"/><rect fill="#F8F8F8" height="5" style="stroke: #383838; stroke-width: 1.0;" width="10" x="800" y="442"/><rect fill="#F8F8F8" height="5" style="stroke: #383838; stroke-width: 1.0;" width="10" x="800" y="461.4844"/><text fill="#000000" font-family="Tahoma, sans-serif" font-size="12" lengthAdjust="spacingAndGlyphs" textLength="29" x="815" y="459.0059">react</text><!--entity react-dom--><rect fill="#F8F8F8" height="34.4844" rx="2" ry="2" style="stroke: #383838; stroke-width: 1.0;" width="80" x="789.5" y="278"/><rect fill="#F8F8F8" height="5" style="stroke: #383838; stroke-width: 1.0;" width="10" x="784.5" y="283"/><rect fill="#F8F8F8" height="5" style="stroke: #383838; stroke-width: 1.0;" width="10" x="784.5" y="302.4844"/><text fill="#000000" font-family="Tahoma, sans-serif" font-size="12" lengthAdjust="spacingAndGlyphs" textLength="60" x="799.5" y="300.0059">react-dom</text><!--entity react-loader-spinner--><rect fill="#F8F8F8" height="34.4844" rx="2" ry="2" style="stroke: #383838; stroke-width: 1.0;" width="137" x="761" y="808"/><rect fill="#F8F8F8" height="5" style="stroke: #383838; stroke-width: 1.0;" width="10" x="756" y="813"/><rect fill="#F8F8F8" height="5" style="stroke: #383838; stroke-width: 1.0;" width="10" x="756" y="832.4844"/><text fill="#000000" font-family="Tahoma, sans-serif" font-size="12" lengthAdjust="spacingAndGlyphs" textLength="117" x="771" y="830.0059">react-loader-spinner</text><!--entity react-markdown--><rect fill="#F8F8F8" height="34.4844" rx="2" ry="2" style="stroke: #383838; stroke-width: 1.0;" width="113" x="773" y="755"/><rect fill="#F8F8F8" height="5" style="stroke: #383838; stroke-width: 1.0;" width="10" x="768" y="760"/><rect fill="#F8F8F8" height="5" style="stroke: #383838; stroke-width: 1.0;" width="10" x="768" y="779.4844"/><text fill="#000000" font-family="Tahoma, sans-serif" font-size="12" lengthAdjust="spacingAndGlyphs" textLength="93" x="783" y="777.0059">react-markdown</text><!--entity react-monaco-editor--><rect fill="#F8F8F8" height="34.4844" rx="2" ry="2" style="stroke: #383838; stroke-width: 1.0;" width="140" x="759.5" y="331"/><rect fill="#F8F8F8" height="5" style="stroke: #383838; stroke-width: 1.0;" width="10" x="754.5" y="336"/><rect fill="#F8F8F8" height="5" style="stroke: #383838; stroke-width: 1.0;" width="10" x="754.5" y="355.4844"/><text fill="#000000" font-family="Tahoma, sans-serif" font-size="12" lengthAdjust="spacingAndGlyphs" textLength="120" x="769.5" y="353.0059">react-monaco-editor</text><!--entity react-redux--><rect fill="#F8F8F8" height="34.4844" rx="2" ry="2" style="stroke: #383838; stroke-width: 1.0;" width="85" x="787" y="649"/><rect fill="#F8F8F8" height="5" style="stroke: #383838; stroke-width: 1.0;" width="10" x="782" y="654"/><rect fill="#F8F8F8" height="5" style="stroke: #383838; stroke-width: 1.0;" width="10" x="782" y="673.4844"/><text fill="#000000" font-family="Tahoma, sans-serif" font-size="12" lengthAdjust="spacingAndGlyphs" textLength="65" x="797" y="671.0059">react-redux</text><!--entity redux--><rect fill="#F8F8F8" height="34.4844" rx="2" ry="2" style="stroke: #383838; stroke-width: 1.0;" width="51" x="804" y="543"/><rect fill="#F8F8F8" height="5" style="stroke: #383838; stroke-width: 1.0;" width="10" x="799" y="548"/><rect fill="#F8F8F8" height="5" style="stroke: #383838; stroke-width: 1.0;" width="10" x="799" y="567.4844"/><text fill="#000000" font-family="Tahoma, sans-serif" font-size="12" lengthAdjust="spacingAndGlyphs" textLength="31" x="814" y="565.0059">redux</text><!--entity redux-persist--><rect fill="#F8F8F8" height="34.4844" rx="2" ry="2" style="stroke: #383838; stroke-width: 1.0;" width="95" x="782" y="490"/><rect fill="#F8F8F8" height="5" style="stroke: #383838; stroke-width: 1.0;" width="10" x="777" y="495"/><rect fill="#F8F8F8" height="5" style="stroke: #383838; stroke-width: 1.0;" width="10" x="777" y="514.4844"/><text fill="#000000" font-family="Tahoma, sans-serif" font-size="12" lengthAdjust="spacingAndGlyphs" textLength="75" x="792" y="512.0059">redux-persist</text><!--entity styled-components--><rect fill="#F8F8F8" height="34.4844" rx="2" ry="2" style="stroke: #383838; stroke-width: 1.0;" width="132" x="763.5" y="861"/><rect fill="#F8F8F8" height="5" style="stroke: #383838; stroke-width: 1.0;" width="10" x="758.5" y="866"/><rect fill="#F8F8F8" height="5" style="stroke: #383838; stroke-width: 1.0;" width="10" x="758.5" y="885.4844"/><text fill="#000000" font-family="Tahoma, sans-serif" font-size="12" lengthAdjust="spacingAndGlyphs" textLength="112" x="773.5" y="883.0059">styled-components</text><!--entity styled-reset--><rect fill="#F8F8F8" height="34.4844" rx="2" ry="2" style="stroke: #383838; stroke-width: 1.0;" width="88" x="785.5" y="384"/><rect fill="#F8F8F8" height="5" style="stroke: #383838; stroke-width: 1.0;" width="10" x="780.5" y="389"/><rect fill="#F8F8F8" height="5" style="stroke: #383838; stroke-width: 1.0;" width="10" x="780.5" y="408.4844"/><text fill="#000000" font-family="Tahoma, sans-serif" font-size="12" lengthAdjust="spacingAndGlyphs" textLength="68" x="795.5" y="406.0059">styled-reset</text><!--entity _actions--><rect fill="#F8F8F8" height="34.4844" rx="2" ry="2" style="stroke: #000000; stroke-width: 0.5;" width="63" x="601" y="595"/><text fill="#000000" font-family="Tahoma, sans-serif" font-size="12" lengthAdjust="spacingAndGlyphs" textLength="43" x="611" y="617.0059">actions</text><!--entity _app--><rect fill="#F8F8F8" height="34.4844" rx="2" ry="2" style="stroke: #000000; stroke-width: 0.5;" width="41" x="32.5" y="739"/><text fill="#000000" font-family="Tahoma, sans-serif" font-size="12" lengthAdjust="spacingAndGlyphs" textLength="21" x="42.5" y="761.0059">app</text><!--entity _container--><rect fill="#F8F8F8" height="34.4844" rx="2" ry="2" style="stroke: #000000; stroke-width: 0.5;" width="74" x="463.5" y="875"/><text fill="#000000" font-family="Tahoma, sans-serif" font-size="12" lengthAdjust="spacingAndGlyphs" textLength="54" x="473.5" y="897.0059">container</text><!--entity _editor_index--><rect fill="#F8F8F8" height="34.4844" rx="2" ry="2" style="stroke: #000000; stroke-width: 0.5;" width="88" x="139" y="352"/><text fill="#000000" font-family="Tahoma, sans-serif" font-size="12" lengthAdjust="spacingAndGlyphs" textLength="68" x="149" y="374.0059">editor/index</text><!--entity _header--><rect fill="#F8F8F8" height="34.4844" rx="2" ry="2" style="stroke: #000000; stroke-width: 0.5;" width="59" x="471" y="1096"/><text fill="#000000" font-family="Tahoma, sans-serif" font-size="12" lengthAdjust="spacingAndGlyphs" textLength="39" x="481" y="1118.0059">header</text><!--entity _logo--><rect fill="#F8F8F8" height="34.4844" rx="2" ry="2" style="stroke: #000000; stroke-width: 0.5;" width="46" x="477.5" y="1038"/><text fill="#000000" font-family="Tahoma, sans-serif" font-size="12" lengthAdjust="spacingAndGlyphs" textLength="26" x="487.5" y="1060.0059">logo</text><ellipse cx="333.189" cy="391.8378" fill="#F8F8F8" rx="67.189" ry="15.8378" style="stroke: #383838; stroke-width: 0.5;"/><text fill="#000000" font-family="Tahoma, sans-serif" font-size="12" lengthAdjust="spacingAndGlyphs" textLength="106" x="280.189" y="395.58">plantuml-language</text><!--entity _preview--><rect fill="#F8F8F8" height="34.4844" rx="2" ry="2" style="stroke: #000000; stroke-width: 0.5;" width="63" x="151.5" y="739"/><text fill="#000000" font-family="Tahoma, sans-serif" font-size="12" lengthAdjust="spacingAndGlyphs" textLength="43" x="161.5" y="761.0059">preview</text><!--entity _readme--><rect fill="#F8F8F8" height="34.4844" rx="2" ry="2" style="stroke: #000000; stroke-width: 0.5;" width="63" x="469" y="822"/><text fill="#000000" font-family="Tahoma, sans-serif" font-size="12" lengthAdjust="spacingAndGlyphs" textLength="43" x="479" y="844.0059">readme</text><!--entity _reducer--><rect fill="#F8F8F8" height="34.4844" rx="2" ry="2" style="stroke: #000000; stroke-width: 0.5;" width="63" x="469" y="505"/><text fill="#000000" font-family="Tahoma, sans-serif" font-size="12" lengthAdjust="spacingAndGlyphs" textLength="43" x="479" y="527.0059">reducer</text><!--entity _responsive_image--><rect fill="#F8F8F8" height="34.4844" rx="2" ry="2" style="stroke: #000000; stroke-width: 0.5;" width="123" x="439" y="982"/><text fill="#000000" font-family="Tahoma, sans-serif" font-size="12" lengthAdjust="spacingAndGlyphs" textLength="103" x="449" y="1004.0059">responsive-image</text><!--entity _section--><rect fill="#F8F8F8" height="34.4844" rx="2" ry="2" style="stroke: #000000; stroke-width: 0.5;" width="63" x="469" y="1160"/><text fill="#000000" font-family="Tahoma, sans-serif" font-size="12" lengthAdjust="spacingAndGlyphs" textLength="43" x="479" y="1182.0059">section</text><!--entity _spinner--><rect fill="#F8F8F8" height="34.4844" rx="2" ry="2" style="stroke: #000000; stroke-width: 0.5;" width="62" x="469.5" y="928"/><text fill="#000000" font-family="Tahoma, sans-serif" font-size="12" lengthAdjust="spacingAndGlyphs" textLength="42" x="479.5" y="950.0059">spinner</text><ellipse cx="52.8406" cy="164.242" fill="#F8F8F8" rx="46.8406" ry="13.242" style="stroke: #383838; stroke-width: 0.5;"/><text fill="#000000" font-family="Tahoma, sans-serif" font-size="12" font-weight="bold" lengthAdjust="spacingAndGlyphs" textLength="62" x="21.8406" y="167.9842">src/index</text><!--entity _store_index--><rect fill="#F8F8F8" height="34.4844" rx="2" ry="2" style="stroke: #000000; stroke-width: 0.5;" width="85" x="290.5" y="245"/><text fill="#000000" font-family="Tahoma, sans-serif" font-size="12" lengthAdjust="spacingAndGlyphs" textLength="65" x="300.5" y="267.0059">store/index</text><!--entity _theme--><rect fill="#F8F8F8" height="34.4844" rx="2" ry="2" style="stroke: #000000; stroke-width: 0.5;" width="56" x="472.5" y="101"/><text fill="#000000" font-family="Tahoma, sans-serif" font-size="12" lengthAdjust="spacingAndGlyphs" textLength="36" x="482.5" y="123.0059">theme</text><!--link _actions to plantuml-encoder-decoder--><path d="M664.398,612.158 C684.232,612.26 711.11,612.398 737.369,612.533 " fill="none" id="_actions-plantuml-encoder-decoder" style="stroke: #000000; stroke-width: 0.55;"/><polygon fill="#000000" points="742.61,612.56,733.6307,608.5138,737.6101,612.5343,733.5895,616.5137,742.61,612.56" style="stroke: #000000; stroke-width: 0.55;"/><!--link _app to _container--><path d="M73.5373,748.205 C90.5223,741.872 115.954,733.446 139,730 C255.57,712.57 310.733,700.034 400,777 C432.708,805.201 408.354,835.571 439,866 C444.643,871.603 451.687,876.081 458.953,879.632 " fill="none" id="_app-_container" style="stroke: #000000; stroke-width: 0.55;"/><polygon fill="#000000" points="463.495,881.724,456.9943,874.3253,458.9537,879.632,453.647,881.5914,463.495,881.724" style="stroke: #000000; stroke-width: 0.55;"/><!--link _app to _editor_index--><path d="M55.8039,738.84 C61.6613,688.13 83.1065,535.475 139,423 C144.88,411.168 153.671,399.512 161.774,390.074 " fill="none" id="_app-_editor_index" style="stroke: #000000; stroke-width: 0.55;"/><polygon fill="#000000" points="165.195,386.172,156.2546,390.3035,161.8992,389.9321,162.2707,395.5767,165.195,386.172" style="stroke: #000000; stroke-width: 0.55;"/><!--link _app to _header--><path d="M56.8457,773.197 C64.0283,811.711 86.2187,905.981 139,963 C229.658,1060.937 394.08,1096.952 465.197,1108.3642 " fill="none" id="_app-_header" style="stroke: #000000; stroke-width: 0.55;"/><polygon fill="#000000" points="470.563,1109.2067,462.2925,1103.8588,465.6235,1108.431,461.0514,1111.762,470.563,1109.2067" style="stroke: #000000; stroke-width: 0.55;"/><!--link _app to _logo--><path d="M58.9687,773.014 C69.0206,804.62 94.6661,872.741 139,912 C191.549,958.534 397.625,1024.123 472.296,1046.862 " fill="none" id="_app-_logo" style="stroke: #000000; stroke-width: 0.55;"/><polygon fill="#000000" points="477.441,1048.425,469.9916,1041.9825,472.6567,1046.9721,467.667,1049.6373,477.441,1048.425" style="stroke: #000000; stroke-width: 0.55;"/><!--link _app to _preview--><path d="M73.7195,756 C92.8872,756 122.449,756 145.844,756 " fill="none" id="_app-_preview" style="stroke: #000000; stroke-width: 0.55;"/><polygon fill="#000000" points="151.039,756,142.039,752,146.039,756,142.039,760,151.039,756" style="stroke: #000000; stroke-width: 0.55;"/><!--link _app to react--><path d="M64.1081,738.631 C78.7472,714.314 107.56,669.463 139,637 C188.412,585.98 204.481,575.495 266,540 C438.663,440.377 503.718,443.881 703,439 C736.178,438.187 773.957,443.57 799.32,448.112 " fill="none" id="_app-react" style="stroke: #000000; stroke-width: 0.55;"/><polygon fill="#000000" points="804.538,449.066,796.4034,443.5137,799.6194,448.1674,794.9657,451.3834,804.538,449.066" style="stroke: #000000; stroke-width: 0.55;"/><!--link _app to react-redux--><path d="M73.5079,764.093 C90.4745,770.668 115.896,779.419 139,783 C177.65,788.991 187.899,783.894 227,783 C421.375,778.554 483.609,835.528 664,763 C685.917,754.188 690.113,747.11 704,728 C713.949,714.309 706.098,703.952 719,693 C736.343,678.278 760.499,671.358 781.711,668.19 " fill="none" id="_app-react-redux" style="stroke: #000000; stroke-width: 0.55;"/><polygon fill="#000000" points="786.75,667.499,777.2896,664.7603,781.7965,668.1791,778.3777,672.686,786.75,667.499" style="stroke: #000000; stroke-width: 0.55;"/><!--link _app to _readme--><path d="M59.7856,773.21 C70.3687,801.571 95.8202,857.248 139,880 C241.626,934.074 286.208,902.526 400,880 C406.707,878.672 438.279,865.456 464.086,854.383 " fill="none" id="_app-_readme" style="stroke: #000000; stroke-width: 0.55;"/><polygon fill="#000000" points="468.83,852.343,458.9819,852.2213,464.2362,854.3171,462.1404,859.5714,468.83,852.343" style="stroke: #000000; stroke-width: 0.55;"/><!--link _app to _reducer--><path d="M72.7612,738.806 C108.128,707.183 188.124,639.344 266,599 C332.19,564.71 416.736,541.371 463.791,529.999 " fill="none" id="_app-_reducer" style="stroke: #000000; stroke-width: 0.55;"/><polygon fill="#000000" points="468.783,528.803,459.099,527.0085,463.9204,529.9672,460.9617,534.7886,468.783,528.803" style="stroke: #000000; stroke-width: 0.55;"/><!--link _app to _section--><path d="M54.8675,773.278 C58.0696,820.091 72.7921,951.198 139,1031 C223.736,1133.1343 390.837,1164.4988 463.897,1173.5591 " fill="none" id="_app-_section" style="stroke: #000000; stroke-width: 0.55;"/><polygon fill="#000000" points="468.992,1174.1736,460.5356,1169.1249,464.028,1173.575,459.5779,1177.0674,468.992,1174.1736" style="stroke: #000000; stroke-width: 0.55;"/><!--link _container to styled-components--><path d="M537.882,904.362 C556.516,910.053 579.709,916.163 601,919 C646.377,925.047 658.8,926.251 704,919 C730.851,914.693 759.762,905.473 782.96,896.865 " fill="none" id="_container-styled-components" style="stroke: #000000; stroke-width: 0.55;"/><polygon fill="#000000" points="787.82,895.04,777.9882,894.4604,783.1394,896.7983,780.8015,901.9494,787.82,895.04" style="stroke: #000000; stroke-width: 0.55;"/><!--link _editor_index to _actions--><path d="M203.816,386.172 C245.034,421.141 344.089,501.328 439,549 C490.876,575.057 555.899,593.706 595.539,603.666 " fill="none" id="_editor_index-_actions" style="stroke: #000000; stroke-width: 0.55;"/><polygon fill="#000000" points="600.721,604.955,592.9531,598.9002,595.8689,603.7477,591.0215,606.6635,600.721,604.955" style="stroke: #000000; stroke-width: 0.55;"/><!--link _editor_index to plantuml-language--><path d="M227.206,375.714 C241.004,377.859 256.54,380.273 271.34,382.573 " fill="none" id="_editor_index-plantuml-language" style="stroke: #000000; stroke-width: 0.55;"/><polygon fill="#000000" points="276.328,383.348,268.0497,378.0123,271.3874,382.5796,266.8202,385.9173,276.328,383.348" style="stroke: #000000; stroke-width: 0.55;"/><!--link _editor_index to react-monaco-editor--><path d="M190.748,351.688 C218.069,284.805 327.318,47 499.5,47 C499.5,47 499.5,47 633.5,47 C671.914,47 685.239,63.48 704,97 C728.473,140.73 686.636,283.742 719,322 C728.103,332.762 740.772,339.523 754.273,343.683 " fill="none" id="_editor_index-react-monaco-editor" style="stroke: #000000; stroke-width: 0.55;"/><polygon fill="#000000" points="759.279,345.101,751.7086,338.8011,754.468,343.7393,749.5298,346.4987,759.279,345.101" style="stroke: #000000; stroke-width: 0.55;"/><!--link _editor_index to react-redux--><path d="M227.369,353.921 C275.139,340.323 351.588,327.863 400,367 C464.333,419.007 389.77,482.518 439,549 C519.358,657.518 697.028,669.195 781.769,668.159 " fill="none" id="_editor_index-react-redux" style="stroke: #000000; stroke-width: 0.55;"/><polygon fill="#000000" points="786.968,668.078,777.9063,664.2199,781.9686,668.1566,778.032,672.2189,786.968,668.078" style="stroke: #000000; stroke-width: 0.55;"/><!--link _editor_index to _reducer--><path d="M212.571,351.833 C257.418,327.359 344.896,289.91 400,333 C456.638,377.29 394.698,433.372 439,490 C445.544,498.364 454.892,504.788 464.29,509.608 " fill="none" id="_editor_index-_reducer" style="stroke: #000000; stroke-width: 0.55;"/><polygon fill="#000000" points="468.895,511.846,462.5499,504.3135,464.3983,509.6598,459.0519,511.5082,468.895,511.846" style="stroke: #000000; stroke-width: 0.55;"/><!--link _header to styled-components--><path d="M530.291,1099.3375 C540.486,1094.2159 551.922,1088.142 562,1082 C657.869,1023.572 760.399,937.529 805.251,898.541 " fill="none" id="_header-styled-components" style="stroke: #000000; stroke-width: 0.55;"/><polygon fill="#000000" points="809.153,895.142,799.7401,898.0398,805.3837,898.4271,804.9963,904.0707,809.153,895.142" style="stroke: #000000; stroke-width: 0.55;"/><!--link _logo to styled-components--><path d="M523.783,1044.71 C535.278,1039.303 549.479,1032.47 562,1026 C646.889,982.133 744.599,926.525 794.82,897.558 " fill="none" id="_logo-styled-components" style="stroke: #000000; stroke-width: 0.55;"/><polygon fill="#000000" points="799.235,895.009,789.4408,896.045,794.9049,897.5091,793.4409,902.9732,799.235,895.009" style="stroke: #000000; stroke-width: 0.55;"/><!--link _preview to _actions--><path d="M214.758,746.102 C295.01,720.278 510.43,650.959 595.873,623.464 " fill="none" id="_preview-_actions" style="stroke: #000000; stroke-width: 0.55;"/><polygon fill="#000000" points="600.823,621.872,591.0304,620.8206,596.0633,623.4033,593.4806,628.4362,600.823,621.872" style="stroke: #000000; stroke-width: 0.55;"/><!--link _preview to react--><path d="M189.535,738.539 C200.13,707.369 225.853,641.448 266,599 C327.489,533.988 354.121,524.337 439,496 C568.264,452.846 733.788,451.515 799.625,452.974 " fill="none" id="_preview-react" style="stroke: #000000; stroke-width: 0.55;"/><polygon fill="#000000" points="804.938,453.103,796.0378,448.8856,799.9395,452.9816,795.8435,456.8833,804.938,453.103" style="stroke: #000000; stroke-width: 0.55;"/><!--link _preview to react-redux--><path d="M214.895,754.86 C271.385,752.876 395.129,749 499.5,749 C499.5,749 499.5,749 633.5,749 C666.745,749 679.237,746.181 704,724 C715.401,713.788 707.108,702.635 719,693 C736.605,678.736 760.669,671.851 781.755,668.588 " fill="none" id="_preview-react-redux" style="stroke: #000000; stroke-width: 0.55;"/><polygon fill="#000000" points="786.764,667.871,777.288,665.1867,781.8145,668.5795,778.4216,673.1059,786.764,667.871" style="stroke: #000000; stroke-width: 0.55;"/><!--link _preview to _reducer--><path d="M195.477,738.652 C210.056,717.53 236.851,681.633 266,657 C329.104,603.672 416.141,559.725 464.145,537.56 " fill="none" id="_preview-_reducer" style="stroke: #000000; stroke-width: 0.55;"/><polygon fill="#000000" points="468.95,535.354,459.1019,535.4754,464.4063,537.4409,462.4409,542.7453,468.95,535.354" style="stroke: #000000; stroke-width: 0.55;"/><!--link _preview to _responsive_image--><path d="M200.582,773.031 C239.379,812.171 340.274,909.929 439,972 C443.236,974.663 447.779,977.201 452.403,979.579 " fill="none" id="_preview-_responsive_image" style="stroke: #000000; stroke-width: 0.55;"/><polygon fill="#000000" points="457.045,981.902,450.7879,974.2962,452.574,979.6636,447.2065,981.4498,457.045,981.902" style="stroke: #000000; stroke-width: 0.55;"/><!--link _preview to _spinner--><path d="M214.651,760.535 C267.521,768.92 372.817,788.272 400,813 C437.133,846.779 404.463,882.57 439,919 C445.966,926.348 455.353,931.723 464.652,935.612 " fill="none" id="_preview-_spinner" style="stroke: #000000; stroke-width: 0.55;"/><polygon fill="#000000" points="469.493,937.512,462.5752,930.5017,464.8383,935.6861,459.6539,937.9492,469.493,937.512" style="stroke: #000000; stroke-width: 0.55;"/><!--link _readme to arkit--><path d="M532.307,842.713 C576.257,846.181 656.84,845.487 704,802 C722.942,784.533 700.6,764.037 719,746 C741.061,724.375 777.522,719.15 802.254,718.324 " fill="none" id="_readme-arkit" style="stroke: #000000; stroke-width: 0.55;"/><polygon fill="#000000" points="807.344,718.21,798.2571,714.4116,802.3452,718.3214,798.4354,722.4096,807.344,718.21" style="stroke: #000000; stroke-width: 0.55;"/><!--link _readme to react--><path d="M519.047,821.817 C551.678,789.012 622.168,714.024 664,639 C700.211,574.058 664.03,531.07 719,481 C741.028,460.936 775.56,455.185 799.946,453.82 " fill="none" id="_readme-react" style="stroke: #000000; stroke-width: 0.55;"/><polygon fill="#000000" points="804.988,453.592,795.8166,450.0024,799.9931,453.8177,796.1778,457.9943,804.988,453.592" style="stroke: #000000; stroke-width: 0.55;"/><!--link _readme to react-markdown--><path d="M532.195,849.484 C574.927,862.001 652.845,877.05 704,841 C720.202,829.582 704.293,812.289 719,799 C732.412,786.882 750.392,779.992 767.9,776.136 " fill="none" id="_readme-react-markdown" style="stroke: #000000; stroke-width: 0.55;"/><polygon fill="#000000" points="772.821,775.128,763.201,773.0171,767.9229,776.1322,764.8077,780.854,772.821,775.128" style="stroke: #000000; stroke-width: 0.55;"/><!--link _readme to styled-components--><path d="M532.17,852.343 C558.694,863.765 593.875,878.59 601,880 C652.859,890.266 712.677,889.251 757.957,885.944 " fill="none" id="_readme-styled-components" style="stroke: #000000; stroke-width: 0.55;"/><polygon fill="#000000" points="763.126,885.552,753.8499,882.2423,758.1402,885.9291,754.4534,890.2195,763.126,885.552" style="stroke: #000000; stroke-width: 0.55;"/><!--link _reducer to _actions--><path d="M526.258,539.14 C548.035,554.216 579.746,576.17 602.662,592.035 " fill="none" id="_reducer-_actions" style="stroke: #000000; stroke-width: 0.55;"/><polygon fill="#000000" points="606.834,594.924,601.7116,586.5121,602.7232,592.0777,597.1575,593.0894,606.834,594.924" style="stroke: #000000; stroke-width: 0.55;"/><!--link _reducer to plantuml-encoder-decoder--><path d="M532.317,531.817 C574.322,545.059 652,569.05 719,587 C728.732,589.607 738.985,592.219 749.156,594.728 " fill="none" id="_reducer-plantuml-encoder-decoder" style="stroke: #000000; stroke-width: 0.55;"/><polygon fill="#000000" points="754.139,595.95,746.3515,589.9206,749.283,594.7585,744.4451,597.6901,754.139,595.95" style="stroke: #000000; stroke-width: 0.55;"/><!--link _reducer to redux--><path d="M532.263,525.575 C595.048,532.871 737.209,549.391 798.953,556.566 " fill="none" id="_reducer-redux" style="stroke: #000000; stroke-width: 0.55;"/><polygon fill="#000000" points="803.966,557.149,795.4878,552.137,798.9994,556.5719,794.5645,560.0835,803.966,557.149" style="stroke: #000000; stroke-width: 0.55;"/><!--link _reducer to redux-persist--><path d="M532.163,513.803 C551.702,509.011 577.646,503.438 601,501 C660.974,494.74 730.296,498.076 776.504,501.792 " fill="none" id="_reducer-redux-persist" style="stroke: #000000; stroke-width: 0.55;"/><polygon fill="#000000" points="781.741,502.223,773.0993,497.4984,776.7578,501.813,772.4433,505.4715,781.741,502.223" style="stroke: #000000; stroke-width: 0.55;"/><!--link _responsive_image to styled-components--><path d="M551.69,981.945 C592.825,967.777 652.452,946.808 704,927 C729.405,917.238 757.634,906.148 780.781,896.99 " fill="none" id="_responsive_image-styled-components" style="stroke: #000000; stroke-width: 0.55;"/><polygon fill="#000000" points="785.64,895.066,775.7995,894.6607,780.9912,896.9069,778.745,902.0987,785.64,895.066" style="stroke: #000000; stroke-width: 0.55;"/><!--link _section to styled-components--><path d="M531.196,1159.8284 C541.155,1153.8108 552.211,1146.8417 562,1140 C609.448,1106.8367 621.728,1098.5494 664,1059 C721.656,1005.058 782.341,933.987 811.237,899.128 " fill="none" id="_section-styled-components" style="stroke: #000000; stroke-width: 0.55;"/><polygon fill="#000000" points="814.601,895.06,805.784,899.4488,811.4156,898.914,811.9504,904.5455,814.601,895.06" style="stroke: #000000; stroke-width: 0.55;"/><!--link _spinner to react-loader-spinner--><path d="M531.854,931.946 C590.541,906.717 714.254,853.588 719,852 C730.802,848.051 743.494,844.398 755.906,841.138 " fill="none" id="_spinner-react-loader-spinner" style="stroke: #000000; stroke-width: 0.55;"/><polygon fill="#000000" points="760.832,839.861,751.1163,838.2467,755.9919,841.1153,753.1232,845.9909,760.832,839.861" style="stroke: #000000; stroke-width: 0.55;"/><!--link _spinner to styled-components--><path d="M531.724,943.963 C571.633,942.085 643.882,936.92 704,923 C731.175,916.708 760.566,906.268 783.964,897.027 " fill="none" id="_spinner-styled-components" style="stroke: #000000; stroke-width: 0.55;"/><polygon fill="#000000" points="788.863,895.075,779.0216,894.6921,784.2185,896.9265,781.984,902.1234,788.863,895.075" style="stroke: #000000; stroke-width: 0.55;"/><!--link <b>src/index</b> to _app--><path d="M53,177.19 C53,362.708 53,548.221 53,733.734 " fill="none" id="&lt;b&gt;src/index&lt;/b&gt;-_app" style="stroke: #000000; stroke-width: 1.0;"/><polygon fill="#000000" points="53,738.945,57,729.945,53,733.945,49,729.945,53,738.945" style="stroke: #000000; stroke-width: 1.0;"/><!--link <b>src/index</b> to react--><path d="M100.2378,164 C155.406,164 250.434,164 332,164 C332,164 332,164 633.5,164 C683.962,164 685.39,206.095 704,253 C718.395,289.28 693.511,398.44 719,428 C738.655,450.794 774.304,455.571 799.582,455.76 " fill="none" id="&lt;b&gt;src/index&lt;/b&gt;-react" style="stroke: #000000; stroke-width: 1.0;"/><polygon fill="#000000" points="804.809,455.735,795.7908,451.7762,799.8091,455.7579,795.8274,459.7761,804.809,455.735" style="stroke: #000000; stroke-width: 1.0;"/><!--link <b>src/index</b> to react-dom--><path d="M65.9252,151.23 C102.0908,113.98 215.225,8 332,8 C332,8 332,8 633.5,8 C761.487,8 811.347,205.686 824.604,272.923 " fill="none" id="&lt;b&gt;src/index&lt;/b&gt;-react-dom" style="stroke: #000000; stroke-width: 1.0;"/><polygon fill="#000000" points="825.566,277.906,827.7862,268.3107,824.6176,272.9968,819.9315,269.8281,825.566,277.906" style="stroke: #000000; stroke-width: 1.0;"/><!--link <b>src/index</b> to _store_index--><path d="M82.7038,174.12 C130.74,191.05 227.826,225.277 285.646,245.659 " fill="none" id="&lt;b&gt;src/index&lt;/b&gt;-_store_index" style="stroke: #000000; stroke-width: 1.0;"/><polygon fill="#000000" points="290.428,247.345,283.2704,240.5797,285.7126,245.6822,280.61,248.1244,290.428,247.345" style="stroke: #000000; stroke-width: 1.0;"/><!--link <b>src/index</b> to _theme--><path d="M92.841,156.98 C107.298,154.53 123.866,151.92 139,150 C259.656,134.73 403.946,124.26 467.155,120.06 " fill="none" id="&lt;b&gt;src/index&lt;/b&gt;-_theme" style="stroke: #000000; stroke-width: 1.0;"/><polygon fill="#000000" points="472.292,119.72,463.0475,116.3231,467.3029,120.0502,463.5758,124.3057,472.292,119.72" style="stroke: #000000; stroke-width: 1.0;"/><!--link _store_index to react--><path d="M375.715,246.799 C451.841,222.04 613.744,183.64 704,267 C730.397,291.38 695.434,400.874 719,428 C738.74,450.721 774.371,455.513 799.622,455.725 " fill="none" id="_store_index-react" style="stroke: #000000; stroke-width: 0.55;"/><polygon fill="#000000" points="804.843,455.705,795.8282,451.7385,799.843,455.7236,795.8579,459.7384,804.843,455.705" style="stroke: #000000; stroke-width: 0.55;"/><!--link _store_index to react-redux--><path d="M362.807,279.087 C375.103,287.208 389.099,297.626 400,309 C422.007,331.962 418.757,344.469 439,369 C527.427,476.155 564.431,489.11 664,586 C688.551,609.891 689.014,623.436 719,640 C738.157,650.582 761.512,656.881 781.725,660.62 " fill="none" id="_store_index-react-redux" style="stroke: #000000; stroke-width: 0.55;"/><polygon fill="#000000" points="786.791,661.516,778.626,656.0085,781.8675,660.6445,777.2315,663.886,786.791,661.516" style="stroke: #000000; stroke-width: 0.55;"/><!--link _store_index to _reducer--><path d="M375.517,274.974 C384.77,279.638 393.693,285.838 400,294 C454.307,364.282 385.933,418.777 439,490 C445.406,498.598 454.813,505.11 464.309,509.939 " fill="none" id="_store_index-_reducer" style="stroke: #000000; stroke-width: 0.55;"/><polygon fill="#000000" points="468.965,512.176,462.5853,504.6727,464.4583,510.0105,459.1205,511.8835,468.965,512.176" style="stroke: #000000; stroke-width: 0.55;"/><!--link _store_index to redux--><path d="M375.39,279.08 C462.594,315.869 660.756,403.957 704,462 C723.529,488.212 696.209,510.569 719,534 C739.604,555.184 774.082,560.412 798.849,561.144 " fill="none" id="_store_index-redux" style="stroke: #000000; stroke-width: 0.55;"/><polygon fill="#000000" points="803.978,561.236,795.0503,557.0772,798.9788,561.1474,794.9086,565.076,803.978,561.236" style="stroke: #000000; stroke-width: 0.55;"/><!--link _store_index to redux-persist--><path d="M375.769,262.471 C453.47,265.782 619.946,284.784 704,384 C732.198,417.285 689.407,448.949 719,481 C733.602,496.815 755.914,503.833 776.597,506.697 " fill="none" id="_store_index-redux-persist" style="stroke: #000000; stroke-width: 0.55;"/><polygon fill="#000000" points="781.814,507.339,773.3694,502.2706,776.8514,506.7289,772.3931,510.2108,781.814,507.339" style="stroke: #000000; stroke-width: 0.55;"/><!--link _theme to react--><path d="M528.695,112.84 C572.851,106.23 659.656,100.84 704,150 C745.441,195.937 679.343,380.514 719,428 C738.293,451.102 774.015,455.816 799.409,455.906 " fill="none" id="_theme-react" style="stroke: #000000; stroke-width: 0.55;"/><polygon fill="#000000" points="804.662,455.86,795.6269,451.9399,799.6622,455.9043,795.6978,459.9396,804.662,455.86" style="stroke: #000000; stroke-width: 0.55;"/><!--link _theme to styled-components--><path d="M508.377,135.17 C532.503,195.884 614.504,406.49 664,586 C696.09,702.38 634.893,765.397 719,852 C729.518,862.83 743.662,869.491 758.285,873.513 " fill="none" id="_theme-styled-components" style="stroke: #000000; stroke-width: 0.55;"/><polygon fill="#000000" points="763.257,874.778,755.5211,868.6824,758.4114,873.5452,753.5486,876.4354,763.257,874.778" style="stroke: #000000; stroke-width: 0.55;"/><!--link _theme to styled-reset--><path d="M528.673,106.37 C572.009,89.87 656.696,66.31 704,111 C725.356,131.18 700.135,352.476 719,375 C733.75,392.612 758.049,399.53 780.014,401.863 " fill="none" id="_theme-styled-reset" style="stroke: #000000; stroke-width: 0.55;"/><polygon fill="#000000" points="785.246,402.339,776.6452,397.5404,780.2665,401.8862,775.9207,405.5075,785.246,402.339" style="stroke: #000000; stroke-width: 0.55;"/><script type="text/plantuml"><![CDATA[
@startuml

scale max 1920 width
left to right direction

skinparam nodesep 19
skinparam ranksep 39
skinparam monochrome true
skinparam shadowing false
skinparam defaultFontName Tahoma
skinparam defaultFontSize 12
skinparam roundCorner 4
skinparam dpi 150
skinparam arrowColor black
skinparam arrowThickness 0.55
skinparam packageTitleAlignment left

skinparam usecase {
  borderThickness 0.5
}

skinparam rectangle {
  borderThickness 0.5
}

skinparam component {
  borderThickness 1
}


rectangle "actions" as _actions
rectangle "app" as _app
rectangle "container" as _container
rectangle "editor/index" as _editor_index
rectangle "header" as _header
rectangle "logo" as _logo
(plantuml-language)
rectangle "preview" as _preview
rectangle "readme" as _readme
rectangle "reducer" as _reducer
rectangle "responsive-image" as _responsive_image
rectangle "section" as _section
rectangle "spinner" as _spinner
(<b>src/index</b>)
rectangle "store/index" as _store_index
rectangle "theme" as _theme

package "Dependencies" {
  [arkit]
  [plantuml-encoder-decoder]
  [react]
  [react-dom]
  [react-loader-spinner]
  [react-markdown]
  [react-monaco-editor]
  [react-redux]
  [redux]
  [redux-persist]
  [styled-components]
  [styled-reset]
}

_actions ----> [plantuml-encoder-decoder]
_app --> _container
_app --> _editor_index
_app --> _header
_app --> _logo
_app --> _preview
_app ----> [react]
_app ----> [react-redux]
_app --> _readme
_app --> _reducer
_app --> _section
_container ----> [styled-components]
_editor_index ---> _actions
_editor_index --> (plantuml-language)
_editor_index ----> [react-monaco-editor]
_editor_index ----> [react-redux]
_editor_index ---> _reducer
_header ----> [styled-components]
_logo ----> [styled-components]
_preview ---> _actions
_preview ----> [react]
_preview ----> [react-redux]
_preview ---> _reducer
_preview --> _responsive_image
_preview --> _spinner
_readme ----> [arkit]
_readme ----> [react]
_readme ----> [react-markdown]
_readme ----> [styled-components]
_reducer --> _actions
_reducer ----> [plantuml-encoder-decoder]
_reducer ----> [redux]
_reducer ----> [redux-persist]
_responsive_image ----> [styled-components]
_section ----> [styled-components]
_spinner ----> [react-loader-spinner]
_spinner ----> [styled-components]
(<b>src/index</b>) -[thickness=1]> _app
(<b>src/index</b>) ---[thickness=1]> [react]
(<b>src/index</b>) ---[thickness=1]> [react-dom]
(<b>src/index</b>) -[thickness=1]> _store_index
(<b>src/index</b>) -[thickness=1]> _theme
_store_index ----> [react]
_store_index ----> [react-redux]
_store_index --> _reducer
_store_index ----> [redux]
_store_index ----> [redux-persist]
_theme ----> [react]
_theme ----> [styled-components]
_theme ----> [styled-reset]

@enduml


' View and edit on https://arkit.herokuapp.com
]]></script></g></svg>