<?xml version="1.0" encoding="UTF-8" standalone="no"?><svg xmlns="http://www.w3.org/2000/svg" xmlns:xlink="http://www.w3.org/1999/xlink" contentScriptType="application/ecmascript" contentStyleType="text/css" height="1028px" preserveAspectRatio="none" style="width:763px;height:1028px;" version="1.1" viewBox="0 0 763 1028" width="763px" zoomAndPan="magnify"><defs/><g><!--cluster Dependencies--><path d="M573,110 L659,110 A3,3 0 0 1 661,112 L668,130.4844 L749,130.4844 A2,2 0 0 1 751,132.4844 L751,715 A2,2 0 0 1 749,717 L573,717 A2,2 0 0 1 571,715 L571,112 A2,2 0 0 1 573,110 " fill="#FFFFFF" style="stroke: #000000; stroke-width: 1.5;"/><line style="stroke: #000000; stroke-width: 1.5;" x1="571" x2="668" y1="130.4844" y2="130.4844"/><text fill="#000000" font-family="Tahoma, sans-serif" font-size="12" font-weight="bold" lengthAdjust="spacingAndGlyphs" textLength="84" x="575" y="124.0059">Dependencies</text><!--entity brace--><rect fill="#F8F8F8" height="34.4844" rx="2" ry="2" style="stroke: #383838; stroke-width: 1.2;" width="50" x="636" y="243"/><rect fill="#F8F8F8" height="5" style="stroke: #383838; stroke-width: 1.2;" width="10" x="631" y="248"/><rect fill="#F8F8F8" height="5" style="stroke: #383838; stroke-width: 1.2;" width="10" x="631" y="267.4844"/><text fill="#000000" font-family="Tahoma, sans-serif" font-size="12" lengthAdjust="spacingAndGlyphs" textLength="30" x="646" y="265.0059">brace</text><!--entity plantuml-encoder-decoder--><rect fill="#F8F8F8" height="34.4844" rx="2" ry="2" style="stroke: #383838; stroke-width: 1.2;" width="164" x="579" y="405"/><rect fill="#F8F8F8" height="5" style="stroke: #383838; stroke-width: 1.2;" width="10" x="574" y="410"/><rect fill="#F8F8F8" height="5" style="stroke: #383838; stroke-width: 1.2;" width="10" x="574" y="429.4844"/><text fill="#000000" font-family="Tahoma, sans-serif" font-size="12" lengthAdjust="spacingAndGlyphs" textLength="144" x="589" y="427.0059">plantuml-encoder-decoder</text><!--entity react--><rect fill="#F8F8F8" height="34.4844" rx="2" ry="2" style="stroke: #383838; stroke-width: 1.2;" width="48" x="637" y="567"/><rect fill="#F8F8F8" height="5" style="stroke: #383838; stroke-width: 1.2;" width="10" x="632" y="572"/><rect fill="#F8F8F8" height="5" style="stroke: #383838; stroke-width: 1.2;" width="10" x="632" y="591.4844"/><text fill="#000000" font-family="Tahoma, sans-serif" font-size="12" lengthAdjust="spacingAndGlyphs" textLength="28" x="647" y="589.0059">react</text><!--entity react-ace--><rect fill="#F8F8F8" height="34.4844" rx="2" ry="2" style="stroke: #383838; stroke-width: 1.2;" width="71" x="625.5" y="297"/><rect fill="#F8F8F8" height="5" style="stroke: #383838; stroke-width: 1.2;" width="10" x="620.5" y="302"/><rect fill="#F8F8F8" height="5" style="stroke: #383838; stroke-width: 1.2;" width="10" x="620.5" y="321.4844"/><text fill="#000000" font-family="Tahoma, sans-serif" font-size="12" lengthAdjust="spacingAndGlyphs" textLength="51" x="635.5" y="319.0059">react-ace</text><!--entity react-dom--><rect fill="#F8F8F8" height="34.4844" rx="2" ry="2" style="stroke: #383838; stroke-width: 1.2;" width="76" x="623" y="135"/><rect fill="#F8F8F8" height="5" style="stroke: #383838; stroke-width: 1.2;" width="10" x="618" y="140"/><rect fill="#F8F8F8" height="5" style="stroke: #383838; stroke-width: 1.2;" width="10" x="618" y="159.4844"/><text fill="#000000" font-family="Tahoma, sans-serif" font-size="12" lengthAdjust="spacingAndGlyphs" textLength="56" x="633" y="157.0059">react-dom</text><!--entity react-loader-spinner--><rect fill="#F8F8F8" height="34.4844" rx="2" ry="2" style="stroke: #383838; stroke-width: 1.2;" width="128" x="597" y="621"/><rect fill="#F8F8F8" height="5" style="stroke: #383838; stroke-width: 1.2;" width="10" x="592" y="626"/><rect fill="#F8F8F8" height="5" style="stroke: #383838; stroke-width: 1.2;" width="10" x="592" y="645.4844"/><text fill="#000000" font-family="Tahoma, sans-serif" font-size="12" lengthAdjust="spacingAndGlyphs" textLength="108" x="607" y="643.0059">react-loader-spinner</text><!--entity react-redux--><rect fill="#F8F8F8" height="34.4844" rx="2" ry="2" style="stroke: #383838; stroke-width: 1.2;" width="83" x="619.5" y="351"/><rect fill="#F8F8F8" height="5" style="stroke: #383838; stroke-width: 1.2;" width="10" x="614.5" y="356"/><rect fill="#F8F8F8" height="5" style="stroke: #383838; stroke-width: 1.2;" width="10" x="614.5" y="375.4844"/><text fill="#000000" font-family="Tahoma, sans-serif" font-size="12" lengthAdjust="spacingAndGlyphs" textLength="63" x="629.5" y="373.0059">react-redux</text><!--entity redux--><rect fill="#F8F8F8" height="34.4844" rx="2" ry="2" style="stroke: #383838; stroke-width: 1.2;" width="51" x="635.5" y="459"/><rect fill="#F8F8F8" height="5" style="stroke: #383838; stroke-width: 1.2;" width="10" x="630.5" y="464"/><rect fill="#F8F8F8" height="5" style="stroke: #383838; stroke-width: 1.2;" width="10" x="630.5" y="483.4844"/><text fill="#000000" font-family="Tahoma, sans-serif" font-size="12" lengthAdjust="spacingAndGlyphs" textLength="31" x="645.5" y="481.0059">redux</text><!--entity redux-persist--><rect fill="#F8F8F8" height="34.4844" rx="2" ry="2" style="stroke: #383838; stroke-width: 1.2;" width="90" x="616" y="513"/><rect fill="#F8F8F8" height="5" style="stroke: #383838; stroke-width: 1.2;" width="10" x="611" y="518"/><rect fill="#F8F8F8" height="5" style="stroke: #383838; stroke-width: 1.2;" width="10" x="611" y="537.4844"/><text fill="#000000" font-family="Tahoma, sans-serif" font-size="12" lengthAdjust="spacingAndGlyphs" textLength="70" x="626" y="535.0059">redux-persist</text><!--entity styled-components--><rect fill="#F8F8F8" height="34.4844" rx="2" ry="2" style="stroke: #383838; stroke-width: 1.2;" width="124" x="599" y="675"/><rect fill="#F8F8F8" height="5" style="stroke: #383838; stroke-width: 1.2;" width="10" x="594" y="680"/><rect fill="#F8F8F8" height="5" style="stroke: #383838; stroke-width: 1.2;" width="10" x="594" y="699.4844"/><text fill="#000000" font-family="Tahoma, sans-serif" font-size="12" lengthAdjust="spacingAndGlyphs" textLength="104" x="609" y="697.0059">styled-components</text><!--entity styled-reset--><rect fill="#F8F8F8" height="34.4844" rx="2" ry="2" style="stroke: #383838; stroke-width: 1.2;" width="84" x="619" y="189"/><rect fill="#F8F8F8" height="5" style="stroke: #383838; stroke-width: 1.2;" width="10" x="614" y="194"/><rect fill="#F8F8F8" height="5" style="stroke: #383838; stroke-width: 1.2;" width="10" x="614" y="213.4844"/><text fill="#000000" font-family="Tahoma, sans-serif" font-size="12" lengthAdjust="spacingAndGlyphs" textLength="64" x="629" y="211.0059">styled-reset</text><!--entity _actions--><rect fill="#F8F8F8" height="34.4844" rx="2" ry="2" style="stroke: #000000; stroke-width: 0.8;" width="58" x="480" y="291"/><text fill="#000000" font-family="Tahoma, sans-serif" font-size="12" lengthAdjust="spacingAndGlyphs" textLength="38" x="490" y="313.0059">actions</text><!--entity _components_index--><rect fill="#F8F8F8" height="34.4844" rx="2" ry="2" style="stroke: #000000; stroke-width: 0.8;" width="136" x="6" y="597"/><text fill="#000000" font-family="Tahoma, sans-serif" font-size="12" font-weight="bold" lengthAdjust="spacingAndGlyphs" textLength="116" x="16" y="619.0059">components/index</text><!--entity _container--><rect fill="#F8F8F8" height="34.4844" rx="2" ry="2" style="stroke: #000000; stroke-width: 0.8;" width="71" x="368" y="843"/><text fill="#000000" font-family="Tahoma, sans-serif" font-size="12" lengthAdjust="spacingAndGlyphs" textLength="51" x="378" y="865.0059">container</text><!--entity _editor--><rect fill="#F8F8F8" height="34.4844" rx="2" ry="2" style="stroke: #000000; stroke-width: 0.8;" width="52" x="167.5" y="177"/><text fill="#000000" font-family="Tahoma, sans-serif" font-size="12" lengthAdjust="spacingAndGlyphs" textLength="32" x="177.5" y="199.0059">editor</text><!--entity _header--><rect fill="#F8F8F8" height="34.4844" rx="2" ry="2" style="stroke: #000000; stroke-width: 0.8;" width="58" x="374.5" y="951"/><text fill="#000000" font-family="Tahoma, sans-serif" font-size="12" lengthAdjust="spacingAndGlyphs" textLength="38" x="384.5" y="973.0059">header</text><!--entity _logo--><rect fill="#F8F8F8" height="34.4844" rx="2" ry="2" style="stroke: #000000; stroke-width: 0.8;" width="43" x="382" y="789"/><text fill="#000000" font-family="Tahoma, sans-serif" font-size="12" lengthAdjust="spacingAndGlyphs" textLength="23" x="392" y="811.0059">logo</text><!--entity _preview--><rect fill="#F8F8F8" height="34.4844" rx="2" ry="2" style="stroke: #000000; stroke-width: 0.8;" width="63" x="162" y="597"/><text fill="#000000" font-family="Tahoma, sans-serif" font-size="12" lengthAdjust="spacingAndGlyphs" textLength="43" x="172" y="619.0059">preview</text><!--entity _reducer--><rect fill="#F8F8F8" height="34.4844" rx="2" ry="2" style="stroke: #000000; stroke-width: 0.8;" width="62" x="372.5" y="417"/><text fill="#000000" font-family="Tahoma, sans-serif" font-size="12" lengthAdjust="spacingAndGlyphs" textLength="42" x="382.5" y="439.0059">reducer</text><!--entity _responsive_image--><rect fill="#F8F8F8" height="34.4844" rx="2" ry="2" style="stroke: #000000; stroke-width: 0.8;" width="113" x="347" y="735"/><text fill="#000000" font-family="Tahoma, sans-serif" font-size="12" lengthAdjust="spacingAndGlyphs" textLength="93" x="357" y="757.0059">responsive-image</text><!--entity _section--><rect fill="#F8F8F8" height="34.4844" rx="2" ry="2" style="stroke: #000000; stroke-width: 0.8;" width="59" x="374" y="897"/><text fill="#000000" font-family="Tahoma, sans-serif" font-size="12" lengthAdjust="spacingAndGlyphs" textLength="39" x="384" y="919.0059">section</text><!--entity _spinner--><rect fill="#F8F8F8" height="34.4844" rx="2" ry="2" style="stroke: #000000; stroke-width: 0.8;" width="59" x="374" y="681"/><text fill="#000000" font-family="Tahoma, sans-serif" font-size="12" lengthAdjust="spacingAndGlyphs" textLength="39" x="384" y="703.0059">spinner</text><!--entity _store_index--><rect fill="#F8F8F8" height="34.4844" rx="2" ry="2" style="stroke: #000000; stroke-width: 0.8;" width="82" x="245" y="475"/><text fill="#000000" font-family="Tahoma, sans-serif" font-size="12" lengthAdjust="spacingAndGlyphs" textLength="62" x="255" y="497.0059">store/index</text><!--link _actions to plantuml-encoder-decoder--><path d="M538.1208,321.3132 C545.9473,326.1725 553.7004,332.3875 559,340 C573.2949,360.5337 553.9993,376.6437 571,395 C573.3278,397.5134 575.8793,399.7961 578.6021,401.8691 " fill="none" id="_actions-plantuml-encoder-decoder" style="stroke: #383838; stroke-width: 0.7;"/><polygon fill="#383838" points="583.0144,404.957,577.9343,396.5194,578.9179,402.0901,573.3473,403.0738,583.0144,404.957" style="stroke: #383838; stroke-width: 0.7;"/><!--link _components_index to _container--><path d="M81.653,631.3318 C94.6522,659.0972 123.4353,713.884 162,748 C222.0255,801.1011 311.5392,833.6529 363.0509,849.1301 " fill="none" id="_components_index-_container" style="stroke: #383838; stroke-width: 2.0;"/><polygon fill="#383838" points="367.915,850.5747,360.4263,844.1779,363.1219,849.1512,358.1486,851.8468,367.915,850.5747" style="stroke: #383838; stroke-width: 2.0;"/><!--link _components_index to _editor--><path d="M76.0504,596.7855 C82.8914,542.9001 107.6398,373.351 162,244 C166.0916,234.2639 171.9858,224.2733 177.5714,215.8071 " fill="none" id="_components_index-_editor" style="stroke: #383838; stroke-width: 2.0;"/><polygon fill="#383838" points="180.6294,211.2718,172.2814,216.4978,177.8341,215.4175,178.9145,220.9702,180.6294,211.2718" style="stroke: #383838; stroke-width: 2.0;"/><!--link _components_index to _header--><path d="M76.4885,631.1875 C83.2705,672.6749 105.4985,779.8246 162,847 C217.2686,912.7095 317.0132,946.3214 369.3432,960.1366 " fill="none" id="_components_index-_header" style="stroke: #383838; stroke-width: 2.0;"/><polygon fill="#383838" points="374.2563,961.4122,366.5504,955.2788,369.4168,960.1556,364.5399,963.022,374.2563,961.4122" style="stroke: #383838; stroke-width: 2.0;"/><!--link _components_index to _logo--><path d="M86.2413,631.0486 C101.8125,651.6852 130.4918,686.355 162,708 C232.5289,756.4509 330.6414,786.7972 377.0981,799.3478 " fill="none" id="_components_index-_logo" style="stroke: #383838; stroke-width: 2.0;"/><polygon fill="#383838" points="381.9668,800.6489,374.3047,794.4608,377.1363,799.3579,372.2392,802.1895,381.9668,800.6489" style="stroke: #383838; stroke-width: 2.0;"/><!--link _components_index to _preview--><path d="M142.1277,614 C147.1317,614 152.0557,614 156.7555,614 " fill="none" id="_components_index-_preview" style="stroke: #383838; stroke-width: 2.0;"/><polygon fill="#383838" points="161.7606,614,152.7606,610,156.7606,614,152.7606,618,161.7606,614" style="stroke: #383838; stroke-width: 2.0;"/><!--link _components_index to react--><path d="M120.4413,631.0688 C133.6829,635.1594 148.2505,638.9381 162,641 C254.5075,654.8724 332.4439,668.8378 538,624 C553.4015,620.6405 556.1042,616.1582 571,611 C591.149,604.0227 614.1854,597.1315 631.9078,592.0575 " fill="none" id="_components_index-react" style="stroke: #383838; stroke-width: 0.7;"/><polygon fill="#383838" points="636.7587,590.676,627.0073,589.2942,631.9499,592.0455,629.1985,596.9882,636.7587,590.676" style="stroke: #383838; stroke-width: 0.7;"/><!--link _components_index to react-dom--><path d="M75.2908,596.8645 C81.4867,517.8743 110.0367,189.0193 162,102 C197.456,42.6242 216.8435,8 286,8 C286,8 286,8 509,8 C579.2108,8 630.0013,89.9719 650.7088,130.2224 " fill="none" id="_components_index-react-dom" style="stroke: #383838; stroke-width: 0.7;"/><polygon fill="#383838" points="653.0843,134.9158,652.5891,125.0794,650.8264,130.4546,645.4512,128.692,653.0843,134.9158" style="stroke: #383838; stroke-width: 0.7;"/><!--link _components_index to react-redux--><path d="M81.228,596.7888 C101.2635,550.7561 161.5841,422.9515 245,344 C282.7166,308.302 298.112,304.5172 347,287 C427.5422,258.1407 465.0039,218.3741 538,263 C555.4678,273.6788 551.1502,285.0912 559,304 C565.6283,319.9665 558.641,328.912 571,341 C582.5255,352.2728 598.5651,358.8658 613.9159,362.7123 " fill="none" id="_components_index-react-redux" style="stroke: #383838; stroke-width: 0.7;"/><polygon fill="#383838" points="619.0879,363.9142,611.227,357.9807,614.2177,362.7823,609.416,365.773,619.0879,363.9142" style="stroke: #383838; stroke-width: 0.7;"/><!--link _components_index to redux-persist--><path d="M121.3003,596.9418 C163.8142,583.1453 228.2621,566 286,566 C286,566 286,566 509,566 C528.6599,566 574.8078,554.4522 611.1334,544.4372 " fill="none" id="_components_index-redux-persist" style="stroke: #383838; stroke-width: 0.7;"/><polygon fill="#383838" points="615.9636,543.0987,606.2222,541.6475,611.1452,544.434,608.3587,549.3569,615.9636,543.0987" style="stroke: #383838; stroke-width: 0.7;"/><!--link _components_index to _section--><path d="M78.6121,631.1108 C88.6488,665.6194 115.3909,744.4809 162,794 C220.2855,855.9245 317.4402,890.3865 368.963,905.182 " fill="none" id="_components_index-_section" style="stroke: #383838; stroke-width: 2.0;"/><polygon fill="#383838" points="373.8038,906.5527,366.2341,900.2519,368.993,905.1904,364.0545,907.9493,373.8038,906.5527" style="stroke: #383838; stroke-width: 2.0;"/><!--link _components_index to _store_index--><path d="M95.2682,596.7488 C112.6185,583.1215 138.0845,564.114 162,550 C186.9451,535.2784 216.243,521.4284 240.0954,510.9568 " fill="none" id="_components_index-_store_index" style="stroke: #383838; stroke-width: 2.0;"/><polygon fill="#383838" points="244.7903,508.9082,234.9417,508.8413,240.2075,510.9078,238.141,516.1737,244.7903,508.9082" style="stroke: #383838; stroke-width: 2.0;"/><!--link _components_index to styled-components--><path d="M74.8091,631.0167 C79.4361,707.5314 109.0623,1016 286,1016 C286,1016 286,1016 509,1016 C575.7438,1016 637.5159,787.8027 655.6526,714.4297 " fill="none" id="_components_index-styled-components" style="stroke: #383838; stroke-width: 0.7;"/><polygon fill="#383838" points="656.8825,709.4196,650.852,717.2063,655.6904,714.2754,658.6213,719.1137,656.8825,709.4196" style="stroke: #383838; stroke-width: 0.7;"/><!--link _components_index to styled-reset--><path d="M75.9417,596.9972 C84.3946,524.8273 119.4745,244.0333 162,167 C198.6193,100.6656 210.2291,50 286,50 C286,50 286,50 509,50 C541.0617,50 546.0142,72.6858 559,102 C573.0282,133.6672 548.241,152.8919 571,179 C581.69,191.2631 597.7092,198.0692 613.2833,201.809 " fill="none" id="_components_index-styled-reset" style="stroke: #383838; stroke-width: 0.7;"/><polygon fill="#383838" points="618.5395,202.9632,610.6069,197.1259,613.6559,201.8908,608.891,204.9397,618.5395,202.9632" style="stroke: #383838; stroke-width: 0.7;"/><!--link _container to styled-components--><path d="M439.231,844.0319 C446.2274,840.5973 453.4292,836.839 460,833 C525.6054,794.6699 597.3009,741.3563 634.7973,712.5092 " fill="none" id="_container-styled-components" style="stroke: #383838; stroke-width: 0.7;"/><polygon fill="#383838" points="639.1978,709.1152,629.6284,711.4446,635.2387,712.1689,634.5143,717.7792,639.1978,709.1152" style="stroke: #383838; stroke-width: 0.7;"/><!--link _editor to _actions--><path d="M219.5871,203.4261 C276.4228,223.9626 411.4083,272.7371 474.8906,295.6752 " fill="none" id="_editor-_actions" style="stroke: #383838; stroke-width: 0.7;"/><polygon fill="#383838" points="479.7039,297.4144,472.5988,290.594,475.0015,295.7153,469.8802,298.1179,479.7039,297.4144" style="stroke: #383838; stroke-width: 0.7;"/><!--link _editor to brace--><path d="M200.286,176.7387 C208.2187,158.98 223.1125,131.9957 245,118 C305.1416,79.5431 332.1141,92 403.5,92 C403.5,92 403.5,92 509,92 C534.0471,92 544.9065,97.2942 559,118 C587.9154,160.4817 538.2237,193.4209 571,233 C585.4836,250.4896 610.8269,256.9422 630.9372,259.1894 " fill="none" id="_editor-brace" style="stroke: #383838; stroke-width: 0.7;"/><polygon fill="#383838" points="635.9275,259.6743,627.3567,254.8224,630.951,259.1906,626.5827,262.7849,635.9275,259.6743" style="stroke: #383838; stroke-width: 0.7;"/><!--link _editor to react-ace--><path d="M214.9309,176.9233 C223.7773,170.6796 234.4246,164.139 245,160 C311.476,133.9829 332.1141,134 403.5,134 C403.5,134 403.5,134 509,134 C534.0471,134 545.0077,139.2256 559,160 C574.8362,183.5121 553.0261,265.0787 571,287 C583.007,301.644 602.631,308.5589 620.495,311.7433 " fill="none" id="_editor-react-ace" style="stroke: #383838; stroke-width: 0.7;"/><polygon fill="#383838" points="625.4791,312.5458,617.2296,307.1657,620.5427,311.7508,615.9576,315.0639,625.4791,312.5458" style="stroke: #383838; stroke-width: 0.7;"/><!--link _editor to react-redux--><path d="M219.6294,190.314 C259.2863,185.0479 337.0855,176 403.5,176 C403.5,176 403.5,176 509,176 C534.0471,176 545.0919,181.1692 559,202 C576.2157,227.7848 551.4393,316.9456 571,341 C581.633,354.0757 598.3416,360.995 614.4902,364.5973 " fill="none" id="_editor-react-redux" style="stroke: #383838; stroke-width: 0.7;"/><polygon fill="#383838" points="619.4765,365.6119,611.4548,359.8976,614.5769,364.6149,609.8596,367.737,619.4765,365.6119" style="stroke: #383838; stroke-width: 0.7;"/><!--link _editor to _reducer--><path d="M208.6027,211.2602 C246.2898,254.3312 344.3758,366.4294 385.2272,413.1168 " fill="none" id="_editor-_reducer" style="stroke: #383838; stroke-width: 0.7;"/><polygon fill="#383838" points="388.5342,416.8962,385.6179,407.489,385.2416,413.1334,379.5973,412.7571,388.5342,416.8962" style="stroke: #383838; stroke-width: 0.7;"/><!--link _header to styled-components--><path d="M432.6467,955.6598 C441.6529,951.4307 451.4478,946.3928 460,941 C497.6937,917.231 508.0239,910.9729 538,878 C586.5999,824.5414 629.7074,750.1793 649.5032,713.7997 " fill="none" id="_header-styled-components" style="stroke: #383838; stroke-width: 0.7;"/><polygon fill="#383838" points="652.027,709.1346,644.2264,715.1471,649.6479,713.5323,651.2627,718.9538,652.027,709.1346" style="stroke: #383838; stroke-width: 0.7;"/><!--link _logo to styled-components--><path d="M425.0114,796.4765 C467.3362,777.7385 562.1453,735.7648 617.8547,711.1012 " fill="none" id="_logo-styled-components" style="stroke: #383838; stroke-width: 0.7;"/><polygon fill="#383838" points="622.4583,709.0631,612.6095,709.049,617.8863,711.0872,615.8481,716.3641,622.4583,709.0631" style="stroke: #383838; stroke-width: 0.7;"/><!--link _preview to _actions--><path d="M196.5229,596.9938 C203.8928,557.1293 223.7463,459.1269 245,434 C306.2864,361.5448 418.7601,327.7318 475.0428,314.7526 " fill="none" id="_preview-_actions" style="stroke: #383838; stroke-width: 0.7;"/><polygon fill="#383838" points="479.9823,313.6338,470.321,311.7209,475.1058,314.7384,472.0883,319.5232,479.9823,313.6338" style="stroke: #383838; stroke-width: 0.7;"/><!--link _preview to react--><path d="M225.1556,612.5322 C266.2554,610.7559 340.219,608 403.5,608 C403.5,608 403.5,608 509,608 C552.1857,608 601.4379,598.4308 631.8765,591.3772 " fill="none" id="_preview-react" style="stroke: #383838; stroke-width: 0.7;"/><polygon fill="#383838" points="636.9655,590.1806,627.2889,588.3467,632.0982,591.325,629.12,596.1344,636.9655,590.1806" style="stroke: #383838; stroke-width: 0.7;"/><!--link _preview to react-redux--><path d="M195.6889,596.6672 C201.8861,549.712 220.6912,421.2842 245,387 C275.9549,343.3424 298.4236,345.4618 347,323 C386.4456,304.7603 500.5914,258.8813 538,281 C551.0986,288.7448 559.1649,331.4352 571,341 C583.3109,350.9493 599.2191,357.2354 614.2289,361.2058 " fill="none" id="_preview-react-redux" style="stroke: #383838; stroke-width: 0.7;"/><polygon fill="#383838" points="619.2783,362.4655,611.5142,356.4059,614.427,361.2552,609.5777,364.168,619.2783,362.4655" style="stroke: #383838; stroke-width: 0.7;"/><!--link _preview to _reducer--><path d="M197.1433,596.9917 C205.0253,561.7869 224.602,482.7315 245,465 C278.7835,435.6328 332.0727,430.8377 367.4003,431.3883 " fill="none" id="_preview-_reducer" style="stroke: #383838; stroke-width: 0.7;"/><polygon fill="#383838" points="372.4778,431.506,363.573,427.2983,367.4791,431.39,363.3874,435.2961,372.4778,431.506" style="stroke: #383838; stroke-width: 0.7;"/><!--link _preview to _responsive_image--><path d="M206.6474,631.0825 C216.368,642.9656 230.4016,658.6495 245,670 C279.0357,696.4633 322.9026,718.3861 355.8557,732.8852 " fill="none" id="_preview-_responsive_image" style="stroke: #383838; stroke-width: 0.7;"/><polygon fill="#383838" points="360.636,734.9702,353.9858,727.7056,356.053,732.9712,350.7874,735.0384,360.636,734.9702" style="stroke: #383838; stroke-width: 0.7;"/><!--link _preview to _spinner--><path d="M225.3945,626.7578 C264.095,642.238 329.0995,668.2398 368.9566,684.1826 " fill="none" id="_preview-_spinner" style="stroke: #383838; stroke-width: 0.7;"/><polygon fill="#383838" points="373.6891,686.0756,366.8185,679.0191,369.0467,684.2186,363.8472,686.4468,373.6891,686.0756" style="stroke: #383838; stroke-width: 0.7;"/><!--link _reducer to _actions--><path d="M434.6993,421.6436 C443.9102,416.711 453.306,410.2146 460,402 C478.2904,379.5549 465.5093,365.0667 480,340 C482.1576,336.2677 484.809,332.5976 487.6235,329.1501 " fill="none" id="_reducer-_actions" style="stroke: #383838; stroke-width: 0.7;"/><polygon fill="#383838" points="490.9826,325.2149,482.097,329.463,487.7363,329.0178,488.1816,334.6571,490.9826,325.2149" style="stroke: #383838; stroke-width: 0.7;"/><!--link _reducer to plantuml-encoder-decoder--><path d="M434.654,418.3391 C443.1689,413.5361 452.1945,407.9382 460,402 C470.0046,394.3887 468.3861,386.8106 480,382 C512.4384,368.5636 526.8366,367.9179 559,382 C566.2029,385.1537 564.3314,390.8338 571,395 C575.6607,397.9117 580.6532,400.5247 585.8095,402.8671 " fill="none" id="_reducer-plantuml-encoder-decoder" style="stroke: #383838; stroke-width: 0.7;"/><polygon fill="#383838" points="590.5862,404.943,583.9262,397.6873,586.0005,402.9502,580.7377,405.0244,590.5862,404.943" style="stroke: #383838; stroke-width: 0.7;"/><!--link _reducer to redux--><path d="M434.7651,421.8991 C468.1933,411.1214 521.4495,400.372 559,424 C569.4315,430.5639 561.6322,440.9909 571,449 C587.547,463.147 611.3,469.8817 630.2493,473.0876 " fill="none" id="_reducer-redux" style="stroke: #383838; stroke-width: 0.7;"/><polygon fill="#383838" points="635.4566,473.9015,627.1823,468.5597,630.5166,473.1294,625.9469,476.4637,635.4566,473.9015" style="stroke: #383838; stroke-width: 0.7;"/><!--link _reducer to redux-persist--><path d="M434.6283,447.9124 C467.9929,462.5665 522.6892,485.8505 571,503 C583.7573,507.5286 597.7009,511.9584 610.7211,515.8775 " fill="none" id="_reducer-redux-persist" style="stroke: #383838; stroke-width: 0.7;"/><polygon fill="#383838" points="615.8524,517.4103,608.3738,511.0016,611.0616,515.9792,606.084,518.6669,615.8524,517.4103" style="stroke: #383838; stroke-width: 0.7;"/><!--link _responsive_image to styled-components--><path d="M460.0095,738.8327 C499.4162,729.6506 552.1724,717.3579 593.7471,707.6706 " fill="none" id="_responsive_image-styled-components" style="stroke: #383838; stroke-width: 0.7;"/><polygon fill="#383838" points="598.7601,706.5025,589.0872,704.6493,593.8906,707.6372,590.9027,712.4406,598.7601,706.5025" style="stroke: #383838; stroke-width: 0.7;"/><!--link _section to styled-components--><path d="M433.2032,901.3451 C442.0471,897.1717 451.6112,892.2442 460,887 C539.1563,837.5163 612.6428,752.5677 644.4372,713.1883 " fill="none" id="_section-styled-components" style="stroke: #383838; stroke-width: 0.7;"/><polygon fill="#383838" points="647.7449,709.0691,638.991,713.5823,644.6144,712.9678,645.2289,718.5912,647.7449,709.0691" style="stroke: #383838; stroke-width: 0.7;"/><!--link _spinner to react-loader-spinner--><path d="M433.1477,692.4931 C464.5306,686.5253 515.4469,676.4476 559,666 C571.2173,663.0693 584.1898,659.7052 596.6411,656.3486 " fill="none" id="_spinner-react-loader-spinner" style="stroke: #383838; stroke-width: 0.7;"/><polygon fill="#383838" points="601.5691,655.0133,591.8362,653.5064,596.7431,656.321,593.9285,661.2279,601.5691,655.0133" style="stroke: #383838; stroke-width: 0.7;"/><!--link _spinner to styled-components--><path d="M433.2022,702.7957 C447.3348,704.8431 464.4955,706.9909 480,708 C515.037,710.2803 523.9951,710.7288 559,708 C570.3367,707.1163 582.3183,705.688 593.929,704.0394 " fill="none" id="_spinner-styled-components" style="stroke: #383838; stroke-width: 0.7;"/><polygon fill="#383838" points="598.8794,703.3203,589.3978,700.6558,593.9313,704.0392,590.548,708.5727,598.8794,703.3203" style="stroke: #383838; stroke-width: 0.7;"/><!--link _store_index to _reducer--><path d="M320.6184,474.9118 C335.4646,467.5834 352.7993,459.0267 367.7666,451.6386 " fill="none" id="_store_index-_reducer" style="stroke: #383838; stroke-width: 0.7;"/><polygon fill="#383838" points="372.3303,449.3859,362.4895,449.7831,367.8469,451.5992,366.0307,456.9566,372.3303,449.3859" style="stroke: #383838; stroke-width: 0.7;"/><!--link _store_index to redux--><path d="M327.2043,490.242 C403.0461,487.006 563.1199,480.1762 630.2986,477.3099 " fill="none" id="_store_index-redux" style="stroke: #383838; stroke-width: 0.7;"/><polygon fill="#383838" points="635.3568,477.0941,626.1945,473.4814,630.3613,477.3072,626.5355,481.4741,635.3568,477.0941" style="stroke: #383838; stroke-width: 0.7;"/><!--link _store_index to redux-persist--><path d="M327.2043,496.1754 C396.4163,503.1888 535.7773,517.3108 610.6696,524.8999 " fill="none" id="_store_index-redux-persist" style="stroke: #383838; stroke-width: 0.7;"/><polygon fill="#383838" points="615.9486,525.4348,607.3979,520.5475,610.9741,524.9305,606.5911,528.5067,615.9486,525.4348" style="stroke: #383838; stroke-width: 0.7;"/><script type="text/plantuml"><![CDATA[
@startuml

scale max 1920 width
left to right direction

skinparam monochrome true
skinparam shadowing false
skinparam nodesep 20
skinparam ranksep 20
skinparam defaultFontName Tahoma
skinparam defaultFontSize 12
skinparam roundCorner 4
skinparam dpi 150
skinparam arrowThickness 0.7
skinparam packageTitleAlignment left

skinparam usecase {
  borderThickness 0.4
  fontSize 12
}

skinparam rectangle {
  borderThickness 0.8
}

skinparam component {
  borderThickness 1.2
}


rectangle "actions" as _actions
rectangle "<b>components/index</b>" as _components_index
rectangle "container" as _container
rectangle "editor" as _editor
rectangle "header" as _header
rectangle "logo" as _logo
rectangle "preview" as _preview
rectangle "reducer" as _reducer
rectangle "responsive-image" as _responsive_image
rectangle "section" as _section
rectangle "spinner" as _spinner
rectangle "store/index" as _store_index

package "Dependencies" {
  [brace]
  [plantuml-encoder-decoder]
  [react]
  [react-ace]
  [react-dom]
  [react-loader-spinner]
  [react-redux]
  [redux]
  [redux-persist]
  [styled-components]
  [styled-reset]
}

_actions ----> [plantuml-encoder-decoder]
_components_index => _container
_components_index => _editor
_components_index => _header
_components_index => _logo
_components_index => _preview
_components_index ----> [react]
_components_index ----> [react-dom]
_components_index ----> [react-redux]
_components_index ----> [redux-persist]
_components_index => _section
_components_index ===> _store_index
_components_index ----> [styled-components]
_components_index ----> [styled-reset]
_container ----> [styled-components]
_editor ---> _actions
_editor ----> [brace]
_editor ----> [react-ace]
_editor ----> [react-redux]
_editor ---> _reducer
_header ----> [styled-components]
_logo ----> [styled-components]
_preview ---> _actions
_preview ----> [react]
_preview ----> [react-redux]
_preview ---> _reducer
_preview --> _responsive_image
_preview --> _spinner
_reducer --> _actions
_reducer ----> [plantuml-encoder-decoder]
_reducer ----> [redux]
_reducer ----> [redux-persist]
_responsive_image ----> [styled-components]
_section ----> [styled-components]
_spinner ----> [react-loader-spinner]
_spinner ----> [styled-components]
_store_index --> _reducer
_store_index ----> [redux]
_store_index ----> [redux-persist]

@enduml


' View and edit on https://arkit.herokuapp.com
]]></script></g></svg>