<?xml version="1.0" encoding="UTF-8" standalone="no"?><svg xmlns="http://www.w3.org/2000/svg" xmlns:xlink="http://www.w3.org/1999/xlink" contentScriptType="application/ecmascript" contentStyleType="text/css" height="1770px" preserveAspectRatio="none" style="width:1045px;height:1770px;" version="1.1" viewBox="0 0 1045 1770" width="1045px" zoomAndPan="magnify"><defs/><g><!--cluster Dependencies--><path d="M855,473.69 L951,473.69 A3,3 0 0 1 953,475.69 L960,494.1744 L1031,494.1744 A2,2 0 0 1 1033,496.1744 L1033,1226.692 A2,2 0 0 1 1031,1228.692 L855,1228.692 A2,2 0 0 1 853,1226.692 L853,475.69 A2,2 0 0 1 855,473.69 " fill="#FFFFFF" style="stroke: #000000; stroke-width: 1.5;"/><line style="stroke: #000000; stroke-width: 1.5;" x1="853" x2="960" y1="494.1744" y2="494.1744"/><text fill="#000000" font-family="Tahoma, sans-serif" font-size="12" font-weight="bold" lengthAdjust="spacingAndGlyphs" textLength="94" x="857" y="487.6959">Dependencies</text><!--entity arkit--><rect fill="#F8F8F8" height="34.4844" rx="2" ry="2" style="stroke: #383838; stroke-width: 1.0;" width="44" x="921" y="1122.692"/><rect fill="#F8F8F8" height="5" style="stroke: #383838; stroke-width: 1.0;" width="10" x="916" y="1127.692"/><rect fill="#F8F8F8" height="5" style="stroke: #383838; stroke-width: 1.0;" width="10" x="916" y="1147.1764"/><text fill="#000000" font-family="Tahoma, sans-serif" font-size="12" lengthAdjust="spacingAndGlyphs" textLength="24" x="931" y="1144.6979">arkit</text><!--entity arkit-encoder-decoder--><rect fill="#F8F8F8" height="34.4844" rx="2" ry="2" style="stroke: #383838; stroke-width: 1.0;" width="148" x="869" y="786.692"/><rect fill="#F8F8F8" height="5" style="stroke: #383838; stroke-width: 1.0;" width="10" x="864" y="791.692"/><rect fill="#F8F8F8" height="5" style="stroke: #383838; stroke-width: 1.0;" width="10" x="864" y="811.1764"/><text fill="#000000" font-family="Tahoma, sans-serif" font-size="12" lengthAdjust="spacingAndGlyphs" textLength="128" x="879" y="808.6979">arkit-encoder-decoder</text><!--entity react--><rect fill="#F8F8F8" height="34.4844" rx="2" ry="2" style="stroke: #383838; stroke-width: 1.0;" width="49" x="918.5" y="898.692"/><rect fill="#F8F8F8" height="5" style="stroke: #383838; stroke-width: 1.0;" width="10" x="913.5" y="903.692"/><rect fill="#F8F8F8" height="5" style="stroke: #383838; stroke-width: 1.0;" width="10" x="913.5" y="923.1764"/><text fill="#000000" font-family="Tahoma, sans-serif" font-size="12" lengthAdjust="spacingAndGlyphs" textLength="29" x="928.5" y="920.6979">react</text><!--entity react-dom--><rect fill="#F8F8F8" height="34.4844" rx="2" ry="2" style="stroke: #383838; stroke-width: 1.0;" width="80" x="903" y="506.69"/><rect fill="#F8F8F8" height="5" style="stroke: #383838; stroke-width: 1.0;" width="10" x="898" y="511.69"/><rect fill="#F8F8F8" height="5" style="stroke: #383838; stroke-width: 1.0;" width="10" x="898" y="531.1744"/><text fill="#000000" font-family="Tahoma, sans-serif" font-size="12" lengthAdjust="spacingAndGlyphs" textLength="60" x="913" y="528.6959">react-dom</text><!--entity react-github-btn--><rect fill="#F8F8F8" height="34.4844" rx="2" ry="2" style="stroke: #383838; stroke-width: 1.0;" width="112" x="887" y="1066.692"/><rect fill="#F8F8F8" height="5" style="stroke: #383838; stroke-width: 1.0;" width="10" x="882" y="1071.692"/><rect fill="#F8F8F8" height="5" style="stroke: #383838; stroke-width: 1.0;" width="10" x="882" y="1091.1764"/><text fill="#000000" font-family="Tahoma, sans-serif" font-size="12" lengthAdjust="spacingAndGlyphs" textLength="92" x="897" y="1088.6979">react-github-btn</text><!--entity react-loader-spinner--><rect fill="#F8F8F8" height="34.4844" rx="2" ry="2" style="stroke: #383838; stroke-width: 1.0;" width="137" x="874.5" y="954.692"/><rect fill="#F8F8F8" height="5" style="stroke: #383838; stroke-width: 1.0;" width="10" x="869.5" y="959.692"/><rect fill="#F8F8F8" height="5" style="stroke: #383838; stroke-width: 1.0;" width="10" x="869.5" y="979.1764"/><text fill="#000000" font-family="Tahoma, sans-serif" font-size="12" lengthAdjust="spacingAndGlyphs" textLength="117" x="884.5" y="976.6979">react-loader-spinner</text><!--entity react-markdown--><rect fill="#F8F8F8" height="34.4844" rx="2" ry="2" style="stroke: #383838; stroke-width: 1.0;" width="113" x="886.5" y="1178.692"/><rect fill="#F8F8F8" height="5" style="stroke: #383838; stroke-width: 1.0;" width="10" x="881.5" y="1183.692"/><rect fill="#F8F8F8" height="5" style="stroke: #383838; stroke-width: 1.0;" width="10" x="881.5" y="1203.1764"/><text fill="#000000" font-family="Tahoma, sans-serif" font-size="12" lengthAdjust="spacingAndGlyphs" textLength="93" x="896.5" y="1200.6979">react-markdown</text><!--entity react-monaco-editor--><rect fill="#F8F8F8" height="34.4844" rx="2" ry="2" style="stroke: #383838; stroke-width: 1.0;" width="140" x="873" y="562.69"/><rect fill="#F8F8F8" height="5" style="stroke: #383838; stroke-width: 1.0;" width="10" x="868" y="567.69"/><rect fill="#F8F8F8" height="5" style="stroke: #383838; stroke-width: 1.0;" width="10" x="868" y="587.1744"/><text fill="#000000" font-family="Tahoma, sans-serif" font-size="12" lengthAdjust="spacingAndGlyphs" textLength="120" x="883" y="584.6959">react-monaco-editor</text><!--entity react-redux--><rect fill="#F8F8F8" height="34.4844" rx="2" ry="2" style="stroke: #383838; stroke-width: 1.0;" width="85" x="900.5" y="842.692"/><rect fill="#F8F8F8" height="5" style="stroke: #383838; stroke-width: 1.0;" width="10" x="895.5" y="847.692"/><rect fill="#F8F8F8" height="5" style="stroke: #383838; stroke-width: 1.0;" width="10" x="895.5" y="867.1764"/><text fill="#000000" font-family="Tahoma, sans-serif" font-size="12" lengthAdjust="spacingAndGlyphs" textLength="65" x="910.5" y="864.6979">react-redux</text><!--entity redux--><rect fill="#F8F8F8" height="34.4844" rx="2" ry="2" style="stroke: #383838; stroke-width: 1.0;" width="51" x="917.5" y="674.69"/><rect fill="#F8F8F8" height="5" style="stroke: #383838; stroke-width: 1.0;" width="10" x="912.5" y="679.69"/><rect fill="#F8F8F8" height="5" style="stroke: #383838; stroke-width: 1.0;" width="10" x="912.5" y="699.1744"/><text fill="#000000" font-family="Tahoma, sans-serif" font-size="12" lengthAdjust="spacingAndGlyphs" textLength="31" x="927.5" y="696.6959">redux</text><!--entity redux-persist--><rect fill="#F8F8F8" height="34.4844" rx="2" ry="2" style="stroke: #383838; stroke-width: 1.0;" width="95" x="895.5" y="618.69"/><rect fill="#F8F8F8" height="5" style="stroke: #383838; stroke-width: 1.0;" width="10" x="890.5" y="623.69"/><rect fill="#F8F8F8" height="5" style="stroke: #383838; stroke-width: 1.0;" width="10" x="890.5" y="643.1744"/><text fill="#000000" font-family="Tahoma, sans-serif" font-size="12" lengthAdjust="spacingAndGlyphs" textLength="75" x="905.5" y="640.6959">redux-persist</text><!--entity styled-components--><rect fill="#F8F8F8" height="34.4844" rx="2" ry="2" style="stroke: #383838; stroke-width: 1.0;" width="132" x="877" y="1010.692"/><rect fill="#F8F8F8" height="5" style="stroke: #383838; stroke-width: 1.0;" width="10" x="872" y="1015.692"/><rect fill="#F8F8F8" height="5" style="stroke: #383838; stroke-width: 1.0;" width="10" x="872" y="1035.1764"/><text fill="#000000" font-family="Tahoma, sans-serif" font-size="12" lengthAdjust="spacingAndGlyphs" textLength="112" x="887" y="1032.6979">styled-components</text><!--entity styled-reset--><rect fill="#F8F8F8" height="34.4844" rx="2" ry="2" style="stroke: #383838; stroke-width: 1.0;" width="88" x="899" y="730.69"/><rect fill="#F8F8F8" height="5" style="stroke: #383838; stroke-width: 1.0;" width="10" x="894" y="735.69"/><rect fill="#F8F8F8" height="5" style="stroke: #383838; stroke-width: 1.0;" width="10" x="894" y="755.1744"/><text fill="#000000" font-family="Tahoma, sans-serif" font-size="12" lengthAdjust="spacingAndGlyphs" textLength="68" x="909" y="752.6959">styled-reset</text><!--entity _actions--><rect fill="#F8F8F8" height="34.4844" rx="2" ry="2" style="stroke: #000000; stroke-width: 0.5;" width="63" x="494" y="671.69"/><text fill="#000000" font-family="Tahoma, sans-serif" font-size="12" lengthAdjust="spacingAndGlyphs" textLength="43" x="504" y="693.6959">actions</text><!--entity _app--><rect fill="#F8F8F8" height="34.4844" rx="2" ry="2" style="stroke: #000000; stroke-width: 0.5;" width="41" x="47" y="1184.692"/><text fill="#000000" font-family="Tahoma, sans-serif" font-size="12" lengthAdjust="spacingAndGlyphs" textLength="21" x="57" y="1206.6979">app</text><ellipse cx="67.4619" cy="323.932" fill="#F8F8F8" rx="48.9619" ry="13.242" style="stroke: #383838; stroke-width: 0.5;"/><text fill="#000000" font-family="Tahoma, sans-serif" font-size="12" lengthAdjust="spacingAndGlyphs" textLength="65" x="34.9619" y="327.6742">commands</text><!--entity _container--><rect fill="#F8F8F8" height="34.4844" rx="2" ry="2" style="stroke: #000000; stroke-width: 0.5;" width="74" x="636.5" y="1392.692"/><text fill="#000000" font-family="Tahoma, sans-serif" font-size="12" lengthAdjust="spacingAndGlyphs" textLength="54" x="646.5" y="1414.6979">container</text><ellipse cx="67.5269" cy="72.932" fill="#F8F8F8" rx="35.5269" ry="13.242" style="stroke: #383838; stroke-width: 0.5;"/><text fill="#000000" font-family="Tahoma, sans-serif" font-size="12" font-weight="bold" lengthAdjust="spacingAndGlyphs" textLength="46" x="44.5269" y="76.6742">default</text><!--entity _editor_index--><rect fill="#F8F8F8" height="34.4844" rx="2" ry="2" style="stroke: #000000; stroke-width: 0.5;" width="88" x="173" y="625.69"/><text fill="#000000" font-family="Tahoma, sans-serif" font-size="12" lengthAdjust="spacingAndGlyphs" textLength="68" x="183" y="647.6959">editor/index</text><ellipse cx="216.9767" cy="96.932" fill="#F8F8F8" rx="40.4767" ry="13.242" style="stroke: #383838; stroke-width: 0.5;"/><text fill="#000000" font-family="Tahoma, sans-serif" font-size="12" lengthAdjust="spacingAndGlyphs" textLength="53" x="190.4767" y="100.6742">elements</text><!--entity _logo--><rect fill="#F8F8F8" height="34.4844" rx="2" ry="2" style="stroke: #000000; stroke-width: 0.5;" width="46" x="650.5" y="1550.692"/><text fill="#000000" font-family="Tahoma, sans-serif" font-size="12" lengthAdjust="spacingAndGlyphs" textLength="26" x="660.5" y="1572.6979">logo</text><ellipse cx="372.189" cy="687.5278" fill="#F8F8F8" rx="67.189" ry="15.8378" style="stroke: #383838; stroke-width: 0.5;"/><text fill="#000000" font-family="Tahoma, sans-serif" font-size="12" lengthAdjust="spacingAndGlyphs" textLength="106" x="319.189" y="691.27">plantuml-language</text><ellipse cx="67.3714" cy="22.6643" fill="#F8F8F8" rx="60.3714" ry="14.4743" style="stroke: #383838; stroke-width: 0.5;"/><text fill="#000000" font-family="Tahoma, sans-serif" font-size="12" font-weight="bold" lengthAdjust="spacingAndGlyphs" textLength="89" x="22.8714" y="26.4065">plugins/index</text><!--entity _preview--><rect fill="#F8F8F8" height="34.4844" rx="2" ry="2" style="stroke: #000000; stroke-width: 0.5;" width="63" x="185.5" y="1092.692"/><text fill="#000000" font-family="Tahoma, sans-serif" font-size="12" lengthAdjust="spacingAndGlyphs" textLength="43" x="195.5" y="1114.6979">preview</text><!--entity _readme--><rect fill="#F8F8F8" height="34.4844" rx="2" ry="2" style="stroke: #000000; stroke-width: 0.5;" width="63" x="642" y="1644.6924"/><text fill="#000000" font-family="Tahoma, sans-serif" font-size="12" lengthAdjust="spacingAndGlyphs" textLength="43" x="652" y="1666.6983">readme</text><!--entity _reducer--><rect fill="#F8F8F8" height="34.4844" rx="2" ry="2" style="stroke: #000000; stroke-width: 0.5;" width="63" x="642" y="562.69"/><text fill="#000000" font-family="Tahoma, sans-serif" font-size="12" lengthAdjust="spacingAndGlyphs" textLength="43" x="652" y="584.6959">reducer</text><!--entity _responsive_image--><rect fill="#F8F8F8" height="34.4844" rx="2" ry="2" style="stroke: #000000; stroke-width: 0.5;" width="123" x="612" y="1255.692"/><text fill="#000000" font-family="Tahoma, sans-serif" font-size="12" lengthAdjust="spacingAndGlyphs" textLength="103" x="622" y="1277.6979">responsive-image</text><!--entity _section--><rect fill="#F8F8F8" height="34.4844" rx="2" ry="2" style="stroke: #000000; stroke-width: 0.5;" width="63" x="642" y="1463.692"/><text fill="#000000" font-family="Tahoma, sans-serif" font-size="12" lengthAdjust="spacingAndGlyphs" textLength="43" x="652" y="1485.6979">section</text><!--entity _spinner--><rect fill="#F8F8F8" height="34.4844" rx="2" ry="2" style="stroke: #000000; stroke-width: 0.5;" width="62" x="642.5" y="1189.692"/><text fill="#000000" font-family="Tahoma, sans-serif" font-size="12" lengthAdjust="spacingAndGlyphs" textLength="42" x="652.5" y="1211.6979">spinner</text><ellipse cx="67.3406" cy="499.932" fill="#F8F8F8" rx="46.8406" ry="13.242" style="stroke: #383838; stroke-width: 0.5;"/><text fill="#000000" font-family="Tahoma, sans-serif" font-size="12" font-weight="bold" lengthAdjust="spacingAndGlyphs" textLength="62" x="36.3406" y="503.6742">src/index</text><!--entity _stars--><rect fill="#F8F8F8" height="34.4844" rx="2" ry="2" style="stroke: #000000; stroke-width: 0.5;" width="49" x="649" y="1328.692"/><text fill="#000000" font-family="Tahoma, sans-serif" font-size="12" lengthAdjust="spacingAndGlyphs" textLength="29" x="659" y="1350.6979">stars</text><!--entity _store_index--><rect fill="#F8F8F8" height="34.4844" rx="2" ry="2" style="stroke: #000000; stroke-width: 0.5;" width="85" x="483" y="310.69"/><text fill="#000000" font-family="Tahoma, sans-serif" font-size="12" lengthAdjust="spacingAndGlyphs" textLength="65" x="493" y="332.6959">store/index</text><ellipse cx="67.5426" cy="273.8985" fill="#F8F8F8" rx="61.5426" ry="14.7085" style="stroke: #383838; stroke-width: 0.5;"/><text fill="#000000" font-family="Tahoma, sans-serif" font-size="12" font-weight="bold" lengthAdjust="spacingAndGlyphs" textLength="92" x="21.5426" y="277.6407">support/index</text><ellipse cx="67.4056" cy="120.932" fill="#F8F8F8" rx="33.4056" ry="13.242" style="stroke: #383838; stroke-width: 0.5;"/><text fill="#000000" font-family="Tahoma, sans-serif" font-size="12" font-weight="bold" lengthAdjust="spacingAndGlyphs" textLength="43" x="45.9056" y="124.6742">switch</text><!--entity _switcher--><rect fill="#F8F8F8" height="34.4844" rx="2" ry="2" style="stroke: #000000; stroke-width: 0.5;" width="68" x="338" y="955.692"/><text fill="#000000" font-family="Tahoma, sans-serif" font-size="12" lengthAdjust="spacingAndGlyphs" textLength="48" x="348" y="977.6979">switcher</text><!--entity _theme--><rect fill="#F8F8F8" height="34.4844" rx="2" ry="2" style="stroke: #000000; stroke-width: 0.5;" width="56" x="645.5" y="623.69"/><text fill="#000000" font-family="Tahoma, sans-serif" font-size="12" lengthAdjust="spacingAndGlyphs" textLength="36" x="655.5" y="645.6959">theme</text><!--link _actions to arkit-encoder-decoder--><path d="M557.029,697.01 C611.08,711.74 727.147,743.452 825,770.692 C841.767,775.36 859.874,780.445 876.716,785.194 " fill="none" id="_actions-arkit-encoder-decoder" style="stroke: #000000; stroke-width: 0.55;"/><polygon fill="#000000" points="881.9,786.656,874.3251,780.3615,877.088,785.2977,872.1518,788.0606,881.9,786.656" style="stroke: #000000; stroke-width: 0.55;"/><!--link _actions to _reducer--><path d="M553.277,671.61 C569.498,657.61 591.045,638.43 612,623.69 C624.376,614.99 639.29,606.83 651.213,599.48 " fill="none" id="_actions-_reducer" style="stroke: #000000; stroke-width: 0.55;"/><polygon fill="#000000" points="655.46,596.8,645.7128,598.2111,651.229,599.4644,649.9757,604.9806,655.46,596.8" style="stroke: #000000; stroke-width: 0.55;"/><!--link _reducer to _actions--><path d="M641.842,584.23 C632.025,588.92 621.297,595.15 612,601.69 C584.514,621.03 556.011,648 539.842,667.25 " fill="none" id="_reducer-_actions" style="stroke: #000000; stroke-width: 0.55;"/><polygon fill="#000000" points="536.391,671.48,545.1772,667.03,539.5496,667.604,538.9756,661.9763,536.391,671.48" style="stroke: #000000; stroke-width: 0.55;"/><!--link _app to _container--><path d="M75.6086,1218.789 C89.4102,1249.676 122.944,1314.465 173,1345.692 C320.785,1437.888 541.079,1425.344 631.51,1415.247 " fill="none" id="_app-_container" style="stroke: #000000; stroke-width: 0.55;"/><polygon fill="#000000" points="636.499,1414.678,627.1034,1411.7245,631.5313,1415.245,628.0107,1419.6729,636.499,1414.678" style="stroke: #000000; stroke-width: 0.55;"/><!--link _app to _editor_index--><path d="M71.988,1184.537 C84.0703,1125.769 125.976,927.329 173,766.692 C183.622,730.41 198.541,689.06 207.723,664.46 " fill="none" id="_app-_editor_index" style="stroke: #000000; stroke-width: 0.55;"/><polygon fill="#000000" points="209.48,659.77,202.5725,666.7904,207.723,664.4511,210.0622,669.6016,209.48,659.77" style="stroke: #000000; stroke-width: 0.55;"/><!--link _app to _logo--><path d="M71.0284,1218.736 C78.4002,1262.418 103.9008,1379.382 173,1442.692 C312.471,1570.478 562.649,1572.418 645.227,1569.248 " fill="none" id="_app-_logo" style="stroke: #000000; stroke-width: 0.55;"/><polygon fill="#000000" points="650.421,1569.033,641.263,1565.4093,645.4253,1569.2401,641.5944,1573.4024,650.421,1569.033" style="stroke: #000000; stroke-width: 0.55;"/><!--link _app to _preview--><path d="M88.0869,1189.475 C112.56,1174.211 154.767,1147.885 183.969,1129.671 " fill="none" id="_app-_preview" style="stroke: #000000; stroke-width: 0.55;"/><polygon fill="#000000" points="188.539,1126.82,178.7858,1128.1894,184.2967,1129.4663,183.0198,1134.9771,188.539,1126.82" style="stroke: #000000; stroke-width: 0.55;"/><!--link _app to react--><path d="M88.0129,1199.121 C163.267,1189.433 441.926,1155.692 672.5,1155.692 C672.5,1155.692 672.5,1155.692 780,1155.692 C829.276,1155.692 809.871,978.247 845,943.692 C863.047,925.941 891.603,919.307 913.067,916.896 " fill="none" id="_app-react" style="stroke: #000000; stroke-width: 0.55;"/><polygon fill="#000000" points="918.084,916.394,908.73,913.3112,913.1089,916.8925,909.5277,921.2714,918.084,916.394" style="stroke: #000000; stroke-width: 0.55;"/><!--link _app to react-redux--><path d="M76.342,1184.603 C91.5892,1152.662 127.741,1082.881 173,1035.692 C222.324,984.266 241.453,976.93 305,944.692 C518.695,836.285 585.371,820.459 824,798.692 C841.313,797.113 831.197,821.123 845,831.692 C859.378,842.701 877.949,849.385 894.987,853.441 " fill="none" id="_app-react-redux" style="stroke: #000000; stroke-width: 0.55;"/><polygon fill="#000000" points="900.219,854.618,892.3143,848.743,895.3405,853.5223,890.5612,856.5485,900.219,854.618" style="stroke: #000000; stroke-width: 0.55;"/><!--link _app to _readme--><path d="M69.7007,1218.809 C74.1041,1269.076 93.552,1418.093 173,1503.692 C300.221,1640.7632 545.303,1659.5745 636.851,1661.6695 " fill="none" id="_app-_readme" style="stroke: #000000; stroke-width: 0.55;"/><polygon fill="#000000" points="641.877,1661.7711,632.96,1657.5894,636.878,1661.6697,632.7977,1665.5877,641.877,1661.7711" style="stroke: #000000; stroke-width: 0.55;"/><!--link _app to _reducer--><path d="M70.5401,1184.343 C77.0823,1135.355 101.4659,993.766 173,904.692 C216.246,850.843 246.211,858.94 305,822.692 C364.433,786.048 395.025,794.926 439,740.692 C475.83,695.27 438.703,654.87 483,616.69 C525.978,579.65 594.965,575.42 636.779,576.8 " fill="none" id="_app-_reducer" style="stroke: #000000; stroke-width: 0.55;"/><polygon fill="#000000" points="641.991,577.01,633.1556,572.6585,636.9949,576.813,632.8404,580.6523,641.991,577.01" style="stroke: #000000; stroke-width: 0.55;"/><!--link _app to _section--><path d="M73.1466,1218.873 C84.049,1255.832 114.849,1343.213 173,1388.692 C314.82,1499.609 548.168,1492.12 636.822,1484.543 " fill="none" id="_app-_section" style="stroke: #000000; stroke-width: 0.55;"/><polygon fill="#000000" points="641.946,1484.091,632.6289,1480.8986,636.9654,1484.5311,633.333,1488.8676,641.946,1484.091" style="stroke: #000000; stroke-width: 0.55;"/><!--link _app to _stars--><path d="M79.089,1219.093 C95.5855,1244.407 130.034,1290.558 173,1310.692 C336.873,1387.483 564.539,1362.527 643.877,1350.523 " fill="none" id="_app-_stars" style="stroke: #000000; stroke-width: 0.55;"/><polygon fill="#000000" points="648.886,1349.753,639.3818,1347.1703,643.9443,1350.5145,640.6002,1355.077,648.886,1349.753" style="stroke: #000000; stroke-width: 0.55;"/><!--link _app to _switcher--><path d="M80.4283,1184.498 C98.3565,1159.556 134.296,1112.913 173,1081.692 C223.435,1041.009 291.191,1007.457 332.936,988.764 " fill="none" id="_app-_switcher" style="stroke: #000000; stroke-width: 0.55;"/><polygon fill="#000000" points="337.644,986.67,327.7951,986.6717,333.0753,988.7015,331.0455,993.9816,337.644,986.67" style="stroke: #000000; stroke-width: 0.55;"/><!--link _container to styled-components--><path d="M710.77,1409.405 C746.298,1406.952 798.804,1397.066 825,1361.692 C865.555,1306.929 802.282,1108.786 845,1055.692 C852.051,1046.929 861.662,1040.799 872.107,1036.534 " fill="none" id="_container-styled-components" style="stroke: #000000; stroke-width: 0.55;"/><polygon fill="#000000" points="876.958,1034.703,867.1253,1034.1385,872.2801,1036.4685,869.9501,1041.6232,876.958,1034.703" style="stroke: #000000; stroke-width: 0.55;"/><!--link <b>default</b> to elements--><path d="M100.1425,77.84 C122.191,81.43 151.791,86.24 175.553,90.11 " fill="none" id="&lt;b&gt;default&lt;/b&gt;-elements" style="stroke: #000000; stroke-width: 1.0;"/><polygon fill="#000000" points="180.53,90.92,172.2877,85.5288,175.5947,90.1184,171.0051,93.4253,180.53,90.92" style="stroke: #000000; stroke-width: 1.0;"/><!--link _editor_index to _actions--><path d="M261.234,627.77 C306.743,614.47 379.846,600.04 439,620.69 C442.618,621.96 475.757,648.74 499.693,668.31 " fill="none" id="_editor_index-_actions" style="stroke: #000000; stroke-width: 0.55;"/><polygon fill="#000000" points="503.747,671.62,499.3119,662.8263,499.8763,668.4549,494.2477,669.0194,503.747,671.62" style="stroke: #000000; stroke-width: 0.55;"/><!--link _editor_index to plantuml-language--><path d="M261.026,655.35 C280.663,661.12 303.965,667.98 324.055,673.88 " fill="none" id="_editor_index-plantuml-language" style="stroke: #000000; stroke-width: 0.55;"/><polygon fill="#000000" points="329.089,675.37,321.5881,668.9875,324.2932,673.9556,319.3251,676.6607,329.089,675.37" style="stroke: #000000; stroke-width: 0.55;"/><!--link _editor_index to react--><path d="M261.333,634.21 C309.278,627.34 386.665,624.02 439,660.69 C477.439,687.62 449.152,724.18 483,756.692 C601.15,870.188 666.307,852.266 824,896.692 C853.834,905.097 889.027,910.163 913.168,912.924 " fill="none" id="_editor_index-react" style="stroke: #000000; stroke-width: 0.55;"/><polygon fill="#000000" points="918.145,913.479,909.644,908.5058,913.1758,912.9246,908.757,916.4565,918.145,913.479" style="stroke: #000000; stroke-width: 0.55;"/><!--link _editor_index to react-monaco-editor--><path d="M222.07,625.42 C231.544,587.95 257.921,497.7 305,436.69 C405.687,306.21 453.949,275.42 612,228.69 C683.361,207.6 704.634,219.36 779,216.69 C803.638,215.81 812.822,226.26 825,247.69 C858.441,306.56 802.549,498.95 845,551.69 C851.028,559.18 858.924,564.75 867.613,568.87 " fill="none" id="_editor_index-react-monaco-editor" style="stroke: #000000; stroke-width: 0.55;"/><polygon fill="#000000" points="872.515,571.01,865.8702,563.7404,867.9335,569.0076,862.6663,571.0708,872.515,571.01" style="stroke: #000000; stroke-width: 0.55;"/><!--link _editor_index to react-redux--><path d="M241.268,625.57 C285.569,594.16 386.263,528.37 483,504.69 C593.664,477.6 635.212,496.71 735,551.69 C782.134,577.66 800.673,584.69 825,632.69 C845.092,672.34 816.539,797.555 845,831.692 C857.312,846.459 876.881,853.712 895.228,857.179 " fill="none" id="_editor_index-react-redux" style="stroke: #000000; stroke-width: 0.55;"/><polygon fill="#000000" points="900.363,858.06,892.1691,852.5955,895.435,857.2144,890.8162,860.4803,900.363,858.06" style="stroke: #000000; stroke-width: 0.55;"/><!--link _editor_index to _reducer--><path d="M232.199,660.01 C247.884,677.64 274.933,703.86 305,714.69 C361.033,734.87 392.291,751.641 439,714.69 C505.624,661.99 416.376,581.39 483,528.69 C512.629,505.26 531.192,520.19 568,528.69 C594.15,534.73 621.322,548.25 641.403,559.86 " fill="none" id="_editor_index-_reducer" style="stroke: #000000; stroke-width: 0.55;"/><polygon fill="#000000" points="645.834,562.45,640.0899,554.4496,641.5197,559.9228,636.0465,561.3526,645.834,562.45" style="stroke: #000000; stroke-width: 0.55;"/><!--link _logo to styled-components--><path d="M694.471,1550.606 C729.138,1519.456 799.215,1449.52 825,1372.692 C847.458,1305.776 800.815,1110.737 845,1055.692 C852.041,1046.921 861.647,1040.787 872.09,1036.521 " fill="none" id="_logo-styled-components" style="stroke: #000000; stroke-width: 0.55;"/><polygon fill="#000000" points="876.941,1034.689,867.1083,1034.1245,872.2631,1036.4545,869.9331,1041.6092,876.941,1034.689" style="stroke: #000000; stroke-width: 0.55;"/><!--link _preview to _actions--><path d="M224.067,1092.486 C235.893,1060.674 264.469,991.63 305,944.692 C353.222,888.848 391.254,902.944 439,846.692 C467.04,813.657 462.28,797.748 483,759.692 C492.14,742.906 503.069,724.26 511.416,710.29 " fill="none" id="_preview-_actions" style="stroke: #000000; stroke-width: 0.55;"/><polygon fill="#000000" points="514.142,705.74,506.0832,711.4018,511.5708,710.0282,512.9444,715.5158,514.142,705.74" style="stroke: #000000; stroke-width: 0.55;"/><!--link _preview to react--><path d="M248.888,1109.692 C304.167,1109.692 423.664,1109.692 524.5,1109.692 C524.5,1109.692 524.5,1109.692 780,1109.692 C859.232,1109.692 786.452,997.077 845,943.692 C863.627,926.708 891.937,919.97 913.173,917.326 " fill="none" id="_preview-react" style="stroke: #000000; stroke-width: 0.55;"/><polygon fill="#000000" points="918.409,916.738,909.0185,913.7685,913.4403,917.2966,909.9122,921.7184,918.409,916.738" style="stroke: #000000; stroke-width: 0.55;"/><!--link _preview to react-redux--><path d="M248.769,1098.067 C339.455,1063.961 613.833,961.909 845,887.692 C861.334,882.448 879.357,877.121 895.39,872.541 " fill="none" id="_preview-react-redux" style="stroke: #000000; stroke-width: 0.55;"/><polygon fill="#000000" points="900.298,871.145,890.5468,869.7614,895.489,872.5137,892.7367,877.4559,900.298,871.145" style="stroke: #000000; stroke-width: 0.55;"/><!--link _preview to _reducer--><path d="M220.42,1092.631 C227.036,1051.451 248.829,945.121 305,878.692 C349.494,826.072 395.988,854.531 439,800.692 C479.711,749.735 439.229,709.05 483,660.69 C523.955,615.45 594.458,594.54 636.955,585.62 " fill="none" id="_preview-_reducer" style="stroke: #000000; stroke-width: 0.55;"/><polygon fill="#000000" points="641.995,584.59,632.3769,582.4704,637.096,585.5898,633.9766,590.3089,641.995,584.59" style="stroke: #000000; stroke-width: 0.55;"/><!--link _preview to _responsive_image--><path d="M243.426,1126.744 C260.342,1137.542 283.352,1151.206 305,1160.692 C406.719,1205.268 531.583,1239.238 606.455,1257.542 " fill="none" id="_preview-_responsive_image" style="stroke: #000000; stroke-width: 0.55;"/><polygon fill="#000000" points="611.759,1258.833,603.9589,1252.8198,606.9006,1257.6516,602.0687,1260.5932,611.759,1258.833" style="stroke: #000000; stroke-width: 0.55;"/><!--link _preview to _spinner--><path d="M248.527,1116.207 C329.805,1133.554 551.139,1180.791 637.411,1199.204 " fill="none" id="_preview-_spinner" style="stroke: #000000; stroke-width: 0.55;"/><polygon fill="#000000" points="642.403,1200.269,634.4368,1194.4776,637.5133,1199.2248,632.7661,1202.3012,642.403,1200.269" style="stroke: #000000; stroke-width: 0.55;"/><!--link _readme to arkit--><path d="M705.07,1678.128 C728.113,1688.0282 759.197,1695.7471 780,1678.6924 C858.866,1614.038 811.415,1554.764 825,1453.692 C829.243,1422.121 824.975,1192.466 845,1167.692 C861.831,1146.87 893.113,1140.927 915.607,1139.521 " fill="none" id="_readme-arkit" style="stroke: #000000; stroke-width: 0.55;"/><polygon fill="#000000" points="920.835,1139.265,911.6503,1135.7095,915.841,1139.5093,912.0412,1143.6999,920.835,1139.265" style="stroke: #000000; stroke-width: 0.55;"/><!--link _readme to react--><path d="M695.227,1644.4306 C708.584,1632.182 725.223,1614.611 735,1595.692 C822.25,1426.87 796.852,1365.631 825,1177.692 C832.73,1126.078 811.879,984.026 845,943.692 C861.374,923.753 890.988,917.486 913.203,915.761 " fill="none" id="_readme-react" style="stroke: #000000; stroke-width: 0.55;"/><polygon fill="#000000" points="918.392,915.429,909.1554,912.0105,913.4022,915.7476,909.6651,919.9943,918.392,915.429" style="stroke: #000000; stroke-width: 0.55;"/><!--link _readme to react-markdown--><path d="M690.984,1678.8147 C720.461,1707.3641 783.036,1758.3889 825,1724.6924 C906.347,1659.3715 934.567,1310.045 940.651,1217.958 " fill="none" id="_readme-react-markdown" style="stroke: #000000; stroke-width: 0.55;"/><polygon fill="#000000" points="940.988,1212.765,936.4126,1221.4866,940.6637,1217.7545,944.3958,1222.0055,940.988,1212.765" style="stroke: #000000; stroke-width: 0.55;"/><!--link _readme to styled-components--><path d="M693.312,1644.6281 C706.318,1632.069 723.317,1614.052 735,1595.692 C791.277,1507.259 801.432,1479.83 825,1377.692 C833.06,1342.763 822.574,1083.658 845,1055.692 C852.037,1046.917 861.641,1040.782 872.083,1036.515 " fill="none" id="_readme-styled-components" style="stroke: #000000; stroke-width: 0.55;"/><polygon fill="#000000" points="876.933,1034.683,867.1001,1034.1221,872.2557,1036.4502,869.9276,1041.6058,876.933,1034.683" style="stroke: #000000; stroke-width: 0.55;"/><!--link _reducer to arkit-encoder-decoder--><path d="M705.18,581.4 C739.928,585.1 795.536,596.67 825,632.69 C865.63,682.37 802.957,727.21 845,775.692 C850.325,781.834 856.904,786.669 864.108,790.469 " fill="none" id="_reducer-arkit-encoder-decoder" style="stroke: #000000; stroke-width: 0.55;"/><polygon fill="#000000" points="868.669,792.704,862.347,785.152,864.179,790.504,858.827,792.336,868.669,792.704" style="stroke: #000000; stroke-width: 0.55;"/><!--link _reducer to redux--><path d="M705.023,571.47 C738.331,564.48 791.382,559.42 825,586.69 C852.458,608.97 820.337,638.36 845,663.69 C862.544,681.71 890.897,688.33 912.429,690.66 " fill="none" id="_reducer-redux" style="stroke: #000000; stroke-width: 0.55;"/><polygon fill="#000000" points="917.467,691.15,908.8903,686.3085,912.4899,690.6723,908.126,694.2719,917.467,691.15" style="stroke: #000000; stroke-width: 0.55;"/><!--link _reducer to redux-persist--><path d="M678.416,562.28 C693.397,498.86 750.025,287.45 825,356.69 C866.107,394.65 809.614,564.35 845,607.69 C856.1,621.29 873.359,628.53 890.259,632.31 " fill="none" id="_reducer-redux-persist" style="stroke: #000000; stroke-width: 0.55;"/><polygon fill="#000000" points="895.486,633.38,887.466,627.6634,890.5867,632.3816,885.8685,635.5023,895.486,633.38" style="stroke: #000000; stroke-width: 0.55;"/><!--link _responsive_image to styled-components--><path d="M735.179,1268.483 C766.892,1262.943 803.482,1250.64 825,1223.692 C871.92,1164.933 796.321,1113.003 845,1055.692 C852.183,1047.235 861.745,1041.249 872.071,1037.028 " fill="none" id="_responsive_image-styled-components" style="stroke: #000000; stroke-width: 0.55;"/><polygon fill="#000000" points="876.862,1035.21,867.0285,1034.6606,872.1868,1036.9827,869.8647,1042.141,876.862,1035.21" style="stroke: #000000; stroke-width: 0.55;"/><!--link _section to styled-components--><path d="M705.271,1467.443 C741.227,1450.111 799.093,1416.027 825,1366.692 C857.197,1305.378 801.616,1109.673 845,1055.692 C852.046,1046.925 861.655,1040.794 872.099,1036.528 " fill="none" id="_section-styled-components" style="stroke: #000000; stroke-width: 0.55;"/><polygon fill="#000000" points="876.95,1034.696,867.1172,1034.1341,872.2725,1036.4627,869.9439,1041.6181,876.95,1034.696" style="stroke: #000000; stroke-width: 0.55;"/><!--link _spinner to react-loader-spinner--><path d="M704.656,1209.26 C739.18,1210.376 794.838,1206.271 825,1172.692 C876.723,1115.111 794.993,1058.77 845,999.692 C851.618,991.874 860.269,986.167 869.68,982.013 " fill="none" id="_spinner-react-loader-spinner" style="stroke: #000000; stroke-width: 0.55;"/><polygon fill="#000000" points="874.355,980.096,864.5104,979.8077,869.7284,981.9921,867.5441,987.2101,874.355,980.096" style="stroke: #000000; stroke-width: 0.55;"/><!--link _spinner to styled-components--><path d="M704.536,1220.553 C738.16,1233.754 792.217,1247.699 825,1218.692 C879.663,1170.327 797.65,1111.237 845,1055.692 C852.198,1047.248 861.768,1041.268 872.096,1037.05 " fill="none" id="_spinner-styled-components" style="stroke: #000000; stroke-width: 0.55;"/><polygon fill="#000000" points="876.889,1035.233,867.0556,1034.681,872.2133,1037.0044,869.8899,1042.1621,876.889,1035.233" style="stroke: #000000; stroke-width: 0.55;"/><!--link <b>src/index</b> to _app--><path d="M67.5,512.73 C67.5,734.92 67.5,957.115 67.5,1179.305 " fill="none" id="&lt;b&gt;src/index&lt;/b&gt;-_app" style="stroke: #000000; stroke-width: 1.0;"/><polygon fill="#000000" points="67.5,1184.554,71.5,1175.554,67.5,1179.554,63.5,1175.554,67.5,1184.554" style="stroke: #000000; stroke-width: 1.0;"/><!--link <b>src/index</b> to react--><path d="M91.3896,511 C112.329,521.1 144.319,535.93 173,546.69 C230.849,568.41 391.884,587.71 439,627.69 C472.646,656.24 451.522,685.77 483,716.69 C514.734,747.866 803.386,871.973 845,887.692 C867.332,896.128 893.357,903.513 912.824,908.577 " fill="none" id="&lt;b&gt;src/index&lt;/b&gt;-react" style="stroke: #000000; stroke-width: 1.0;"/><polygon fill="#000000" points="918.133,909.943,910.4136,903.8265,913.2907,908.6971,908.4202,911.5741,918.133,909.943" style="stroke: #000000; stroke-width: 1.0;"/><!--link <b>src/index</b> to react-dom--><path d="M75.9658,486.6 C113.031,422.37 279.149,143.69 371,143.69 C371,143.69 371,143.69 780,143.69 C936.493,143.69 943.904,419.78 942.682,501.29 " fill="none" id="&lt;b&gt;src/index&lt;/b&gt;-react-dom" style="stroke: #000000; stroke-width: 1.0;"/><polygon fill="#000000" points="942.591,506.38,946.7447,497.4499,942.6767,501.3807,938.7459,497.3128,942.591,506.38" style="stroke: #000000; stroke-width: 1.0;"/><!--link <b>src/index</b> to _store_index--><path d="M95.9979,489.32 C171.646,460.79 383.495,380.88 477.985,345.24 " fill="none" id="&lt;b&gt;src/index&lt;/b&gt;-_store_index" style="stroke: #000000; stroke-width: 1.0;"/><polygon fill="#000000" points="482.669,343.47,472.836,342.9105,477.992,345.2378,475.6646,350.3937,482.669,343.47" style="stroke: #000000; stroke-width: 1.0;"/><!--link <b>src/index</b> to _theme--><path d="M104.028,507.99 C212.202,533.24 536.448,608.93 640.195,633.15 " fill="none" id="&lt;b&gt;src/index&lt;/b&gt;-_theme" style="stroke: #000000; stroke-width: 1.0;"/><polygon fill="#000000" points="645.259,634.33,637.4039,628.3888,640.3899,633.1934,635.5853,636.1794,645.259,634.33" style="stroke: #000000; stroke-width: 1.0;"/><!--link _stars to react--><path d="M698.011,1330.816 C709.83,1322.715 723.95,1312.041 735,1300.692 C783.514,1250.865 801.156,1238.021 825,1172.692 C842.515,1124.706 812.545,983.14 845,943.692 C861.392,923.768 891.004,917.499 913.213,915.769 " fill="none" id="_stars-react" style="stroke: #000000; stroke-width: 0.55;"/><polygon fill="#000000" points="918.401,915.436,909.1635,912.0202,913.4112,915.756,909.6754,920.0038,918.401,915.436" style="stroke: #000000; stroke-width: 0.55;"/><!--link _stars to react-github-btn--><path d="M698.019,1356.485 C709.98,1362.726 724.225,1371.385 735,1381.692 C760.743,1406.319 747.649,1431.774 779,1448.692 C796.992,1458.402 810.122,1462.714 825,1448.692 C879.596,1397.24 798.148,1170.284 845,1111.692 C854.245,1100.131 867.947,1093.151 882.158,1088.987 " fill="none" id="_stars-react-github-btn" style="stroke: #000000; stroke-width: 0.55;"/><polygon fill="#000000" points="886.992,1087.68,877.2602,1086.1661,882.1651,1088.9842,879.3469,1093.8891,886.992,1087.68" style="stroke: #000000; stroke-width: 0.55;"/><!--link _stars to styled-components--><path d="M698.14,1356.891 C731.156,1370.69 790.854,1388.644 825,1356.692 C873.948,1310.889 802.949,1107.9 845,1055.692 C852.056,1046.933 861.669,1040.805 872.115,1036.541 " fill="none" id="_stars-styled-components" style="stroke: #000000; stroke-width: 0.55;"/><polygon fill="#000000" points="876.966,1034.709,867.1333,1034.1455,872.2882,1036.4749,869.9588,1041.6299,876.966,1034.709" style="stroke: #000000; stroke-width: 0.55;"/><!--link _store_index to react--><path d="M547.727,344.85 C589.418,379.63 682.495,462.69 735,551.69 C744.98,568.61 830.868,874.051 845,887.692 C863.213,905.273 891.748,911.929 913.162,914.391 " fill="none" id="_store_index-react" style="stroke: #000000; stroke-width: 0.55;"/><polygon fill="#000000" points="918.166,914.906,909.6223,910.0065,913.1922,914.3946,908.8041,917.9645,918.166,914.906" style="stroke: #000000; stroke-width: 0.55;"/><!--link _store_index to react-redux--><path d="M568.08,334.99 C638.888,350.06 779.62,392.21 825,494.69 C855.374,563.29 798.148,773.101 845,831.692 C857.007,846.708 876.533,853.996 894.929,857.423 " fill="none" id="_store_index-react-redux" style="stroke: #000000; stroke-width: 0.55;"/><polygon fill="#000000" points="900.081,858.29,891.8697,852.8517,895.1503,857.4601,890.5419,860.7408,900.081,858.29" style="stroke: #000000; stroke-width: 0.55;"/><!--link _store_index to _reducer--><path d="M535.691,345.06 C551.038,373.91 583.06,433.4 612,482.69 C627.508,509.11 646.305,538.93 658.79,558.44 " fill="none" id="_store_index-_reducer" style="stroke: #000000; stroke-width: 0.55;"/><polygon fill="#000000" points="661.51,562.69,660.0419,552.9512,658.8209,558.4747,653.2974,557.2537,661.51,562.69" style="stroke: #000000; stroke-width: 0.55;"/><!--link _store_index to redux--><path d="M568.398,319.05 C624.133,310.2 722.323,304.24 780,356.69 C780.806,357.43 844.258,662.89 845,663.69 C862.13,682.11 890.533,688.68 912.189,690.89 " fill="none" id="_store_index-redux" style="stroke: #000000; stroke-width: 0.55;"/><polygon fill="#000000" points="917.258,691.35,908.6498,686.5648,912.2778,690.9049,907.9377,694.533,917.258,691.35" style="stroke: #000000; stroke-width: 0.55;"/><!--link _store_index to redux-persist--><path d="M542.938,310.47 C558.902,295.1 584.674,273.67 612,264.69 C701.935,235.14 756.14,199.73 825,264.69 C880.538,317.09 797.347,548.04 845,607.69 C855.955,621.41 873.182,628.68 890.098,632.44 " fill="none" id="_store_index-redux-persist" style="stroke: #000000; stroke-width: 0.55;"/><polygon fill="#000000" points="895.33,633.5,887.3036,627.7924,890.4296,632.5071,885.7149,635.633,895.33,633.5" style="stroke: #000000; stroke-width: 0.55;"/><!--link <b>support/index</b> to commands--><path d="M67.5,288.32 C67.5,293.96 67.5,299.6 67.5,305.23 " fill="none" id="&lt;b&gt;support/index&lt;/b&gt;-commands" style="stroke: #000000; stroke-width: 1.0;"/><polygon fill="#000000" points="67.5,310.41,71.5,301.41,67.5,305.41,63.5,301.41,67.5,310.41" style="stroke: #000000; stroke-width: 1.0;"/><!--link <b>switch</b> to elements--><path d="M98.7048,115.78 C120.894,112.17 151.278,107.22 175.561,103.27 " fill="none" id="&lt;b&gt;switch&lt;/b&gt;-elements" style="stroke: #000000; stroke-width: 1.0;"/><polygon fill="#000000" points="180.645,102.45,171.1201,99.9447,175.7097,103.2516,172.4027,107.8412,180.645,102.45" style="stroke: #000000; stroke-width: 1.0;"/><!--link _switcher to _actions--><path d="M389.822,955.41 C404.236,939.93 424.851,916.119 439,892.692 C476.431,830.719 505.102,749.382 517.614,710.82 " fill="none" id="_switcher-_actions" style="stroke: #000000; stroke-width: 0.55;"/><polygon fill="#000000" points="519.201,705.89,512.6402,713.2354,517.6718,710.6504,520.2568,715.6821,519.201,705.89" style="stroke: #000000; stroke-width: 0.55;"/><!--link _switcher to react--><path d="M406.086,972.311 C481.044,971.051 669.396,965.659 825,942.692 C855.613,938.174 890.062,929.818 913.606,923.593 " fill="none" id="_switcher-react" style="stroke: #000000; stroke-width: 0.55;"/><polygon fill="#000000" points="918.46,922.299,908.7336,920.7507,913.6285,923.5862,910.7931,928.4811,918.46,922.299" style="stroke: #000000; stroke-width: 0.55;"/><!--link _switcher to react-redux--><path d="M406.214,956.871 C479.531,922.927 661.612,843.984 824,816.692 C835.311,814.791 834.734,826.577 845,831.692 C860.639,839.485 878.807,845.454 895.163,849.839 " fill="none" id="_switcher-react-redux" style="stroke: #000000; stroke-width: 0.55;"/><polygon fill="#000000" points="900.176,851.149,892.48,845.0031,895.3385,849.8846,890.457,852.7431,900.176,851.149" style="stroke: #000000; stroke-width: 0.55;"/><!--link _switcher to _reducer--><path d="M387.711,955.447 C401.283,939.401 421.864,914.72 439,892.692 C498.55,816.145 520.116,801.031 568,716.69 C592.78,673.05 578.313,649.9 612,612.69 C618.97,604.99 628.169,598.72 637.283,593.8 " fill="none" id="_switcher-_reducer" style="stroke: #000000; stroke-width: 0.55;"/><polygon fill="#000000" points="641.741,591.48,631.9097,592.0679,637.3013,593.7798,635.5894,599.1714,641.741,591.48" style="stroke: #000000; stroke-width: 0.55;"/><!--link _switcher to styled-components--><path d="M406.147,978.037 C427.944,981.423 457.119,985.709 483,988.692 C620.43,1004.533 781.704,1016.773 871.852,1023.046 " fill="none" id="_switcher-styled-components" style="stroke: #000000; stroke-width: 0.55;"/><polygon fill="#000000" points="876.888,1023.395,868.1861,1018.7824,871.9,1023.0493,867.633,1026.7632,876.888,1023.395" style="stroke: #000000; stroke-width: 0.55;"/><!--link _theme to react--><path d="M690.208,658.01 C711.784,682.24 751.188,728.07 780,770.692 C796.657,795.334 821.73,869.167 845,887.692 C864.468,903.191 892.175,910.111 912.996,913.2 " fill="none" id="_theme-react" style="stroke: #000000; stroke-width: 0.55;"/><polygon fill="#000000" points="918.132,913.906,909.7612,908.7166,913.1787,913.2245,908.6708,916.642,918.132,913.906" style="stroke: #000000; stroke-width: 0.55;"/><!--link _theme to styled-components--><path d="M677.519,657.98 C688.526,715.71 731.942,903.648 845,999.692 C852.864,1006.373 862.24,1011.461 872.017,1015.337 " fill="none" id="_theme-styled-components" style="stroke: #000000; stroke-width: 0.55;"/><polygon fill="#000000" points="876.844,1017.144,869.8174,1010.2428,872.1613,1015.3912,867.0129,1017.7351,876.844,1017.144" style="stroke: #000000; stroke-width: 0.55;"/><!--link _theme to styled-reset--><path d="M701.681,629.41 C734.605,617.75 789.997,604.82 825,632.69 C856.039,657.41 817.728,690.88 845,719.69 C857.665,733.07 876.283,740.188 893.831,743.924 " fill="none" id="_theme-styled-reset" style="stroke: #000000; stroke-width: 0.55;"/><polygon fill="#000000" points="898.746,744.891,890.6862,739.2307,893.8398,743.9269,889.1436,747.0806,898.746,744.891" style="stroke: #000000; stroke-width: 0.55;"/><script type="text/plantuml"><![CDATA[
@startuml

scale max 1920 width
left to right direction

skinparam nodesep 22
skinparam ranksep 44
skinparam monochrome true
skinparam shadowing false
skinparam defaultFontName Tahoma
skinparam defaultFontSize 12
skinparam roundCorner 4
skinparam dpi 150
skinparam arrowColor black
skinparam arrowThickness 0.55
skinparam packageTitleAlignment left

skinparam usecase {
  borderThickness 0.5
}

skinparam rectangle {
  borderThickness 0.5
}

skinparam component {
  borderThickness 1
}


rectangle "actions" as _actions
rectangle "app" as _app
(commands)
rectangle "container" as _container
(<b>default</b>)
rectangle "editor/index" as _editor_index
(elements)
rectangle "logo" as _logo
(plantuml-language)
(<b>plugins/index</b>)
rectangle "preview" as _preview
rectangle "readme" as _readme
rectangle "reducer" as _reducer
rectangle "responsive-image" as _responsive_image
rectangle "section" as _section
rectangle "spinner" as _spinner
(<b>src/index</b>)
rectangle "stars" as _stars
rectangle "store/index" as _store_index
(<b>support/index</b>)
(<b>switch</b>)
rectangle "switcher" as _switcher
rectangle "theme" as _theme

package "Dependencies" {
  [arkit]
  [arkit-encoder-decoder]
  [react]
  [react-dom]
  [react-github-btn]
  [react-loader-spinner]
  [react-markdown]
  [react-monaco-editor]
  [react-redux]
  [redux]
  [redux-persist]
  [styled-components]
  [styled-reset]
}

_actions ----> [arkit-encoder-decoder]
_actions --> _reducer
_app --> _container
_app --> _editor_index
_app --> _logo
_app --> _preview
_app ----> [react]
_app ----> [react-redux]
_app --> _readme
_app --> _reducer
_app --> _section
_app --> _stars
_app --> _switcher
_container ----> [styled-components]
(<b>default</b>) --[thickness=1]> (elements)
_editor_index ---> _actions
_editor_index --> (plantuml-language)
_editor_index ----> [react]
_editor_index ----> [react-monaco-editor]
_editor_index ----> [react-redux]
_editor_index ---> _reducer
_logo ----> [styled-components]
_preview ---> _actions
_preview ----> [react]
_preview ----> [react-redux]
_preview ---> _reducer
_preview --> _responsive_image
_preview --> _spinner
_readme ----> [arkit]
_readme ----> [react]
_readme ----> [react-markdown]
_readme ----> [styled-components]
_reducer --> _actions
_reducer ----> [arkit-encoder-decoder]
_reducer ----> [redux]
_reducer ----> [redux-persist]
_responsive_image ----> [styled-components]
_section ----> [styled-components]
_spinner ----> [react-loader-spinner]
_spinner ----> [styled-components]
(<b>src/index</b>) -[thickness=1]> _app
(<b>src/index</b>) ---[thickness=1]> [react]
(<b>src/index</b>) ---[thickness=1]> [react-dom]
(<b>src/index</b>) -[thickness=1]> _store_index
(<b>src/index</b>) -[thickness=1]> _theme
_stars ----> [react]
_stars ----> [react-github-btn]
_stars ----> [styled-components]
_store_index ----> [react]
_store_index ----> [react-redux]
_store_index --> _reducer
_store_index ----> [redux]
_store_index ----> [redux-persist]
(<b>support/index</b>) -[thickness=1]> (commands)
(<b>switch</b>) --[thickness=1]> (elements)
_switcher --> _actions
_switcher ----> [react]
_switcher ----> [react-redux]
_switcher --> _reducer
_switcher ----> [styled-components]
_theme ----> [react]
_theme ----> [styled-components]
_theme ----> [styled-reset]

@enduml


' View and edit on https://arkit.pro
]]></script></g></svg>