<?xml version="1.0" encoding="UTF-8" standalone="no"?><svg xmlns="http://www.w3.org/2000/svg" xmlns:xlink="http://www.w3.org/1999/xlink" contentScriptType="application/ecmascript" contentStyleType="text/css" height="366px" preserveAspectRatio="none" style="width:966px;height:366px;" version="1.1" viewBox="0 0 966 366" width="966px" zoomAndPan="magnify"><defs/><g><!--cluster Dependencies--><path d="M16,287 L102,287 A3,3 0 0 1 104,289 L111,307.4844 L952,307.4844 A2,2 0 0 1 954,309.4844 L954,352 A2,2 0 0 1 952,354 L16,354 A2,2 0 0 1 14,352 L14,289 A2,2 0 0 1 16,287 " fill="#FFFFFF" style="stroke: #000000; stroke-width: 1.5;"/><line style="stroke: #000000; stroke-width: 1.5;" x1="14" x2="111" y1="307.4844" y2="307.4844"/><text fill="#000000" font-family="Tahoma, sans-serif" font-size="12" font-weight="bold" lengthAdjust="spacingAndGlyphs" textLength="84" x="18" y="301.0059">Dependencies</text><!--entity brace--><rect fill="#F8F8F8" height="34.4844" rx="2" ry="2" style="stroke: #383838; stroke-width: 1.2;" width="50" x="114" y="312"/><rect fill="#F8F8F8" height="5" style="stroke: #383838; stroke-width: 1.2;" width="10" x="109" y="317"/><rect fill="#F8F8F8" height="5" style="stroke: #383838; stroke-width: 1.2;" width="10" x="109" y="336.4844"/><text fill="#000000" font-family="Tahoma, sans-serif" font-size="12" lengthAdjust="spacingAndGlyphs" textLength="30" x="124" y="334.0059">brace</text><!--entity plantuml-encoder-decoder--><rect fill="#F8F8F8" height="34.4844" rx="2" ry="2" style="stroke: #383838; stroke-width: 1.2;" width="164" x="504" y="312"/><rect fill="#F8F8F8" height="5" style="stroke: #383838; stroke-width: 1.2;" width="10" x="499" y="317"/><rect fill="#F8F8F8" height="5" style="stroke: #383838; stroke-width: 1.2;" width="10" x="499" y="336.4844"/><text fill="#000000" font-family="Tahoma, sans-serif" font-size="12" lengthAdjust="spacingAndGlyphs" textLength="144" x="514" y="334.0059">plantuml-encoder-decoder</text><!--entity react--><rect fill="#F8F8F8" height="34.4844" rx="2" ry="2" style="stroke: #383838; stroke-width: 1.2;" width="48" x="184" y="312"/><rect fill="#F8F8F8" height="5" style="stroke: #383838; stroke-width: 1.2;" width="10" x="179" y="317"/><rect fill="#F8F8F8" height="5" style="stroke: #383838; stroke-width: 1.2;" width="10" x="179" y="336.4844"/><text fill="#000000" font-family="Tahoma, sans-serif" font-size="12" lengthAdjust="spacingAndGlyphs" textLength="28" x="194" y="334.0059">react</text><!--entity react-ace--><rect fill="#F8F8F8" height="34.4844" rx="2" ry="2" style="stroke: #383838; stroke-width: 1.2;" width="71" x="22.5" y="312"/><rect fill="#F8F8F8" height="5" style="stroke: #383838; stroke-width: 1.2;" width="10" x="17.5" y="317"/><rect fill="#F8F8F8" height="5" style="stroke: #383838; stroke-width: 1.2;" width="10" x="17.5" y="336.4844"/><text fill="#000000" font-family="Tahoma, sans-serif" font-size="12" lengthAdjust="spacingAndGlyphs" textLength="51" x="32.5" y="334.0059">react-ace</text><!--entity react-dom--><rect fill="#F8F8F8" height="34.4844" rx="2" ry="2" style="stroke: #383838; stroke-width: 1.2;" width="76" x="870" y="312"/><rect fill="#F8F8F8" height="5" style="stroke: #383838; stroke-width: 1.2;" width="10" x="865" y="317"/><rect fill="#F8F8F8" height="5" style="stroke: #383838; stroke-width: 1.2;" width="10" x="865" y="336.4844"/><text fill="#000000" font-family="Tahoma, sans-serif" font-size="12" lengthAdjust="spacingAndGlyphs" textLength="56" x="880" y="334.0059">react-dom</text><!--entity react-loader-spinner--><rect fill="#F8F8F8" height="34.4844" rx="2" ry="2" style="stroke: #383838; stroke-width: 1.2;" width="128" x="356" y="312"/><rect fill="#F8F8F8" height="5" style="stroke: #383838; stroke-width: 1.2;" width="10" x="351" y="317"/><rect fill="#F8F8F8" height="5" style="stroke: #383838; stroke-width: 1.2;" width="10" x="351" y="336.4844"/><text fill="#000000" font-family="Tahoma, sans-serif" font-size="12" lengthAdjust="spacingAndGlyphs" textLength="108" x="366" y="334.0059">react-loader-spinner</text><!--entity react-redux--><rect fill="#F8F8F8" height="34.4844" rx="2" ry="2" style="stroke: #383838; stroke-width: 1.2;" width="83" x="252.5" y="312"/><rect fill="#F8F8F8" height="5" style="stroke: #383838; stroke-width: 1.2;" width="10" x="247.5" y="317"/><rect fill="#F8F8F8" height="5" style="stroke: #383838; stroke-width: 1.2;" width="10" x="247.5" y="336.4844"/><text fill="#000000" font-family="Tahoma, sans-serif" font-size="12" lengthAdjust="spacingAndGlyphs" textLength="63" x="262.5" y="334.0059">react-redux</text><!--entity redux--><rect fill="#F8F8F8" height="34.4844" rx="2" ry="2" style="stroke: #383838; stroke-width: 1.2;" width="51" x="688.5" y="312"/><rect fill="#F8F8F8" height="5" style="stroke: #383838; stroke-width: 1.2;" width="10" x="683.5" y="317"/><rect fill="#F8F8F8" height="5" style="stroke: #383838; stroke-width: 1.2;" width="10" x="683.5" y="336.4844"/><text fill="#000000" font-family="Tahoma, sans-serif" font-size="12" lengthAdjust="spacingAndGlyphs" textLength="31" x="698.5" y="334.0059">redux</text><!--entity redux-persist--><rect fill="#F8F8F8" height="34.4844" rx="2" ry="2" style="stroke: #383838; stroke-width: 1.2;" width="90" x="760" y="312"/><rect fill="#F8F8F8" height="5" style="stroke: #383838; stroke-width: 1.2;" width="10" x="755" y="317"/><rect fill="#F8F8F8" height="5" style="stroke: #383838; stroke-width: 1.2;" width="10" x="755" y="336.4844"/><text fill="#000000" font-family="Tahoma, sans-serif" font-size="12" lengthAdjust="spacingAndGlyphs" textLength="70" x="770" y="334.0059">redux-persist</text><!--entity _actions--><rect fill="#F8F8F8" height="34.4844" rx="2" ry="2" style="stroke: #000000; stroke-width: 0.8;" width="58" x="421" y="224"/><text fill="#000000" font-family="Tahoma, sans-serif" font-size="12" lengthAdjust="spacingAndGlyphs" textLength="38" x="431" y="246.0059">actions</text><!--entity _components_index--><rect fill="#F8F8F8" height="34.4844" rx="2" ry="2" style="stroke: #000000; stroke-width: 0.8;" width="136" x="586" y="8"/><text fill="#000000" font-family="Tahoma, sans-serif" font-size="12" font-weight="bold" lengthAdjust="spacingAndGlyphs" textLength="116" x="596" y="30.0059">components/index</text><!--entity _editor--><rect fill="#F8F8F8" height="34.4844" rx="2" ry="2" style="stroke: #000000; stroke-width: 0.8;" width="52" x="158" y="62"/><text fill="#000000" font-family="Tahoma, sans-serif" font-size="12" lengthAdjust="spacingAndGlyphs" textLength="32" x="168" y="84.0059">editor</text><!--entity _header--><rect fill="#F8F8F8" height="34.4844" rx="2" ry="2" style="stroke: #000000; stroke-width: 0.8;" width="58" x="216" y="170"/><text fill="#000000" font-family="Tahoma, sans-serif" font-size="12" lengthAdjust="spacingAndGlyphs" textLength="38" x="226" y="192.0059">header</text><!--entity _preview--><rect fill="#F8F8F8" height="34.4844" rx="2" ry="2" style="stroke: #000000; stroke-width: 0.8;" width="63" x="402.5" y="62"/><text fill="#000000" font-family="Tahoma, sans-serif" font-size="12" lengthAdjust="spacingAndGlyphs" textLength="43" x="412.5" y="84.0059">preview</text><!--entity _reducer--><rect fill="#F8F8F8" height="34.4844" rx="2" ry="2" style="stroke: #000000; stroke-width: 0.8;" width="62" x="521" y="170"/><text fill="#000000" font-family="Tahoma, sans-serif" font-size="12" lengthAdjust="spacingAndGlyphs" textLength="42" x="531" y="192.0059">reducer</text><!--entity _store_index--><rect fill="#F8F8F8" height="34.4844" rx="2" ry="2" style="stroke: #000000; stroke-width: 0.8;" width="82" x="649" y="116"/><text fill="#000000" font-family="Tahoma, sans-serif" font-size="12" lengthAdjust="spacingAndGlyphs" textLength="62" x="659" y="138.0059">store/index</text><!--link _components_index to _editor--><path d="M585.6597,28.0959 C505.3396,32.4703 368.2531,42.2382 252,62 C239.932,64.0514 226.8485,67.1156 215.411,70.0798 " fill="none" id="_components_index-_editor" style="stroke: #383838; stroke-width: 2.0;"/><polygon fill="#383838" points="210.2813,71.4307,220.0033,73.0066,215.1164,70.1573,217.9658,65.2704,210.2813,71.4307" style="stroke: #383838; stroke-width: 2.0;"/><!--link _components_index to _header--><path d="M585.8088,31.8012 C520.49,38.8254 426.8616,50.3713 392,62 C344.8251,77.7359 330.8856,82.6453 294,116 C278.3959,130.1104 265.1631,150.1125 256.3973,165.2922 " fill="none" id="_components_index-_header" style="stroke: #383838; stroke-width: 2.0;"/><polygon fill="#383838" points="253.8227,169.8365,261.7396,163.9779,256.2875,165.4863,254.7792,160.0342,253.8227,169.8365" style="stroke: #383838; stroke-width: 2.0;"/><!--link _components_index to _preview--><path d="M585.8973,41.7161 C547.8052,51.066 501.8323,62.3503 470.5107,70.0383 " fill="none" id="_components_index-_preview" style="stroke: #383838; stroke-width: 2.0;"/><polygon fill="#383838" points="465.613,71.2404,475.3071,72.9797,470.4689,70.0485,473.4001,65.2104,465.613,71.2404" style="stroke: #383838; stroke-width: 2.0;"/><!--link _components_index to react--><path d="M652.401,42.1121 C648.3536,76.6045 634.8459,155.3311 593,204 C559.0451,243.4912 538.7878,242.7137 489,258 C462.5841,266.1105 266.2027,273.6655 242,287 C233.2645,291.8129 225.9207,299.8717 220.3193,307.6504 " fill="none" id="_components_index-react" style="stroke: #383838; stroke-width: 0.7;"/><polygon fill="#383838" points="217.3889,311.9207,225.7794,306.7632,220.218,307.7981,219.1832,302.2367,217.3889,311.9207" style="stroke: #383838; stroke-width: 0.7;"/><!--link _components_index to react-dom--><path d="M722.3172,34.8653 C764.1993,41.7406 813.2647,51.5286 832,62 C869.8733,83.1679 899,89.6126 899,133 C899,133 899,133 899,241 C899,263.4075 901.9235,288.8587 904.4381,306.6052 " fill="none" id="_components_index-react-dom" style="stroke: #383838; stroke-width: 0.7;"/><polygon fill="#383838" points="905.2017,311.8535,907.864,302.3713,904.4817,306.9056,899.9474,303.5233,905.2017,311.8535" style="stroke: #383838; stroke-width: 0.7;"/><!--link _components_index to react-redux--><path d="M689.6626,42.114 C721.1206,59.9822 762,91.2365 762,133 C762,133 762,133 762,241 C762,301.6223 690.8937,269.6294 631,279 C599.7016,283.8967 375.7177,276.0261 346,287 C333.8075,291.5023 322.3303,300.1042 313.2762,308.3567 " fill="none" id="_components_index-react-redux" style="stroke: #383838; stroke-width: 0.7;"/><polygon fill="#383838" points="309.5493,311.8592,318.847,308.6106,313.1928,308.4351,313.3684,302.781,309.5493,311.8592" style="stroke: #383838; stroke-width: 0.7;"/><!--link _components_index to redux-persist--><path d="M722.2326,34.9637 C777.4189,47.3371 846,74.4853 846,133 C846,133 846,133 846,241 C846,265.5498 832.7272,290.6513 821.2853,307.7294 " fill="none" id="_components_index-redux-persist" style="stroke: #383838; stroke-width: 0.7;"/><polygon fill="#383838" points="818.4249,311.8931,826.8179,306.7397,821.256,307.7718,820.2239,302.2099,818.4249,311.8931" style="stroke: #383838; stroke-width: 0.7;"/><!--link _components_index to _store_index--><path d="M659.784,42.3521 C665.9772,60.9315 675.8234,90.4702 682.5825,110.7476 " fill="none" id="_components_index-_store_index" style="stroke: #383838; stroke-width: 2.0;"/><polygon fill="#383838" points="684.2303,115.691,685.179,105.8879,682.6492,110.9476,677.5895,108.4178,684.2303,115.691" style="stroke: #383838; stroke-width: 2.0;"/><!--link _editor to _actions--><path d="M210.4776,95.1254 C259.559,125.0171 364.4954,188.9257 417.6761,221.314 " fill="none" id="_editor-_actions" style="stroke: #383838; stroke-width: 0.7;"/><polygon fill="#383838" points="422.0361,223.9694,416.4301,215.8717,417.7658,221.3686,412.2688,222.7042,422.0361,223.9694" style="stroke: #383838; stroke-width: 0.7;"/><!--link _editor to brace--><path d="M158.7972,96.0742 C134.0545,115.0843 100,148.2815 100,187 C100,187 100,187 100,241 C100,265.1342 112.4123,290.045 123.2321,307.1752 " fill="none" id="_editor-brace" style="stroke: #383838; stroke-width: 0.7;"/><polygon fill="#383838" points="126.2299,311.7933,124.6846,302.0664,123.5075,307.5994,117.9745,306.4223,126.2299,311.7933" style="stroke: #383838; stroke-width: 0.7;"/><!--link _editor to react--><path d="M172.7448,96.1619 C160.3039,116.824 142,153.0007 142,187 C142,187 142,187 142,241 C142,245.0845 171.483,283.0198 191.0382,307.7319 " fill="none" id="_editor-react" style="stroke: #383838; stroke-width: 0.7;"/><polygon fill="#383838" points="194.3248,311.8789,191.8698,302.3409,191.2193,307.9603,185.6,307.3098,194.3248,311.8789" style="stroke: #383838; stroke-width: 0.7;"/><!--link _editor to react-ace--><path d="M157.8927,87.95 C120.9865,102.456 58,134.852 58,187 C58,187 58,187 58,241 C58,263.2912 58,288.7587 58,306.5407 " fill="none" id="_editor-react-ace" style="stroke: #383838; stroke-width: 0.7;"/><polygon fill="#383838" points="58,311.8005,62,302.8005,58,306.8005,54,302.8005,58,311.8005" style="stroke: #383838; stroke-width: 0.7;"/><!--link _editor to react-redux--><path d="M184.666,96.2375 C186.1397,120.9757 190.8655,167.5766 206,204 C222.7504,244.3123 254.3049,284.4254 274.7246,307.9533 " fill="none" id="_editor-react-redux" style="stroke: #383838; stroke-width: 0.7;"/><polygon fill="#383838" points="278.1517,311.8669,275.2319,302.4608,274.8578,308.1053,269.2133,307.7311,278.1517,311.8669" style="stroke: #383838; stroke-width: 0.7;"/><!--link _editor to _reducer--><path d="M210.1706,86.6805 C274.7141,105.6226 441.6223,154.6065 515.6825,176.3416 " fill="none" id="_editor-_reducer" style="stroke: #383838; stroke-width: 0.7;"/><polygon fill="#383838" points="520.8517,177.8586,513.3425,171.4859,516.0541,176.4505,511.0895,179.1621,520.8517,177.8586" style="stroke: #383838; stroke-width: 0.7;"/><!--link _header to react--><path d="M240.5369,204.1285 C233.8421,229.8224 221.1975,278.3502 213.7971,306.7518 " fill="none" id="_header-react" style="stroke: #383838; stroke-width: 0.7;"/><polygon fill="#383838" points="212.4789,311.8107,218.6192,304.1102,213.7398,306.9723,210.8777,302.0929,212.4789,311.8107" style="stroke: #383838; stroke-width: 0.7;"/><!--link _preview to _actions--><path d="M437.2691,96.0296 C440.6152,114.2546 445.6477,144.0517 448,170 C449.4644,186.1542 449.952,204.4527 450.0799,218.4269 " fill="none" id="_preview-_actions" style="stroke: #383838; stroke-width: 0.7;"/><polygon fill="#383838" points="450.1133,223.7481,454.0567,214.7231,450.0819,218.7482,446.0568,214.7734,450.1133,223.7481" style="stroke: #383838; stroke-width: 0.7;"/><!--link _preview to react--><path d="M412.367,96.0376 C405.0458,102.1015 396.9653,109.1331 390,116 C323.6618,181.4009 254.7176,268.161 224.1961,307.7164 " fill="none" id="_preview-react" style="stroke: #383838; stroke-width: 0.7;"/><polygon fill="#383838" points="221.0147,311.849,229.6743,307.1574,224.0647,307.887,223.3351,302.2774,221.0147,311.849" style="stroke: #383838; stroke-width: 0.7;"/><!--link _preview to react-loader-spinner--><path d="M429.5755,96.2083 C421.8885,128.0295 407.2297,198.275 411,258 C412.0297,274.3113 414.3774,292.6054 416.4167,306.5383 " fill="none" id="_preview-react-loader-spinner" style="stroke: #383838; stroke-width: 0.7;"/><polygon fill="#383838" points="417.2088,311.8414,419.8355,302.3493,416.4702,306.8962,411.9232,303.531,417.2088,311.8414" style="stroke: #383838; stroke-width: 0.7;"/><!--link _preview to react-redux--><path d="M424.3772,96.1835 C399.6007,140.4274 333.6411,258.2124 306.2207,307.1773 " fill="none" id="_preview-react-redux" style="stroke: #383838; stroke-width: 0.7;"/><polygon fill="#383838" points="303.6901,311.6962,311.5777,305.7982,306.1332,307.3337,304.5977,301.8892,303.6901,311.6962" style="stroke: #383838; stroke-width: 0.7;"/><!--link _preview to _reducer--><path d="M465.5295,83.3479 C487.0955,87.9292 514.7912,97.2357 532,116 C544.1314,129.228 548.9741,149.2533 550.8727,164.6681 " fill="none" id="_preview-_reducer" style="stroke: #383838; stroke-width: 0.7;"/><polygon fill="#383838" points="551.41,169.7024,554.4321,160.3287,550.8793,164.7306,546.4773,161.1778,551.41,169.7024" style="stroke: #383838; stroke-width: 0.7;"/><!--link _reducer to _actions--><path d="M520.8424,203.4952 C509.1535,209.6835 495.817,216.7439 483.892,223.0572 " fill="none" id="_reducer-_actions" style="stroke: #383838; stroke-width: 0.7;"/><polygon fill="#383838" points="479.2248,225.528,489.0504,224.8522,483.6438,223.1886,485.3074,217.7819,479.2248,225.528" style="stroke: #383838; stroke-width: 0.7;"/><!--link _reducer to plantuml-encoder-decoder--><path d="M542.8274,204.2098 C540.0605,210.2875 537.39,217.2838 536,224 C531.0461,247.9372 526.6455,256.4163 536,279 C540.6861,290.3133 549.3117,300.4015 558.0952,308.5017 " fill="none" id="_reducer-plantuml-encoder-decoder" style="stroke: #383838; stroke-width: 0.7;"/><polygon fill="#383838" points="561.8582,311.8492,557.7925,302.8787,558.1225,308.5259,552.4752,308.8558,561.8582,311.8492" style="stroke: #383838; stroke-width: 0.7;"/><!--link _reducer to redux--><path d="M554.0244,204.2002 C556.786,220.1909 563.2153,243.642 578,258 C599.1733,278.5622 612.5339,271.2031 641,279 C657.2268,283.4445 663.5484,278.3853 678,287 C686.6307,292.1449 694.2199,300.0996 700.1773,307.7082 " fill="none" id="_reducer-redux" style="stroke: #383838; stroke-width: 0.7;"/><polygon fill="#383838" points="703.3153,311.8795,701.1014,302.2827,700.3095,307.8839,694.7083,307.092,703.3153,311.8795" style="stroke: #383838; stroke-width: 0.7;"/><!--link _reducer to redux-persist--><path d="M574.5954,204.0393 C596.1578,219.6916 630.0063,242.7124 662,258 C699.1562,275.7544 713.5739,267.7922 750,287 C761.1587,292.8841 772.4164,301.007 781.8146,308.5423 " fill="none" id="_reducer-redux-persist" style="stroke: #383838; stroke-width: 0.7;"/><polygon fill="#383838" points="785.7228,311.7275,781.2732,302.9411,781.8469,308.5688,776.2192,309.1425,785.7228,311.7275" style="stroke: #383838; stroke-width: 0.7;"/><!--link _store_index to _reducer--><path d="M648.9691,149.0556 C629.4863,156.6793 606.4225,165.7043 587.6768,173.0395 " fill="none" id="_store_index-_reducer" style="stroke: #383838; stroke-width: 0.7;"/><polygon fill="#383838" points="583.0089,174.8661,592.8477,175.3114,587.6651,173.0441,589.9324,167.8615,583.0089,174.8661" style="stroke: #383838; stroke-width: 0.7;"/><!--link _store_index to redux--><path d="M692.0879,150.0508 C696.4318,185.5262 706.4397,267.2577 711.2801,306.7878 " fill="none" id="_store_index-redux" style="stroke: #383838; stroke-width: 0.7;"/><polygon fill="#383838" points="711.8999,311.849,714.7761,302.4295,711.292,306.8861,706.8354,303.402,711.8999,311.849" style="stroke: #383838; stroke-width: 0.7;"/><!--link _store_index to redux-persist--><path d="M700.0043,150.0508 C720.9039,185.671 769.1656,267.9257 792.2501,307.2697 " fill="none" id="_store_index-redux-persist" style="stroke: #383838; stroke-width: 0.7;"/><polygon fill="#383838" points="794.9369,311.849,793.8325,302.0623,792.4066,307.5365,786.9324,306.1107,794.9369,311.849" style="stroke: #383838; stroke-width: 0.7;"/><script type="text/plantuml"><![CDATA[
@startuml

scale max 1920 width
top to bottom direction

skinparam monochrome true
skinparam shadowing false
skinparam nodesep 20
skinparam ranksep 20
skinparam defaultFontName Tahoma
skinparam defaultFontSize 12
skinparam roundCorner 4
skinparam dpi 150
skinparam arrowThickness 0.7
skinparam packageTitleAlignment left

skinparam usecase {
  borderThickness 0.4
  fontSize 12
}

skinparam rectangle {
  borderThickness 0.8
}

skinparam component {
  borderThickness 1.2
}


rectangle "actions" as _actions
rectangle "<b>components/index</b>" as _components_index
rectangle "editor" as _editor
rectangle "header" as _header
rectangle "preview" as _preview
rectangle "reducer" as _reducer
rectangle "store/index" as _store_index

package "Dependencies" {
  [brace]
  [plantuml-encoder-decoder]
  [react]
  [react-ace]
  [react-dom]
  [react-loader-spinner]
  [react-redux]
  [redux]
  [redux-persist]
}

_components_index => _editor
_components_index => _header
_components_index => _preview
_components_index ----> [react]
_components_index ----> [react-dom]
_components_index ----> [react-redux]
_components_index ----> [redux-persist]
_components_index ===> _store_index
_editor ---> _actions
_editor ----> [brace]
_editor ----> [react]
_editor ----> [react-ace]
_editor ----> [react-redux]
_editor ---> _reducer
_header ----> [react]
_preview ---> _actions
_preview ----> [react]
_preview ----> [react-loader-spinner]
_preview ----> [react-redux]
_preview ---> _reducer
_reducer --> _actions
_reducer ----> [plantuml-encoder-decoder]
_reducer ----> [redux]
_reducer ----> [redux-persist]
_store_index --> _reducer
_store_index ----> [redux]
_store_index ----> [redux-persist]

@enduml


' View and edit on https://arkit.herokuapp.com
]]></script></g></svg>