<?xml version="1.0" encoding="UTF-8" standalone="no"?><svg xmlns="http://www.w3.org/2000/svg" xmlns:xlink="http://www.w3.org/1999/xlink" contentScriptType="application/ecmascript" contentStyleType="text/css" height="1129px" preserveAspectRatio="none" style="width:848px;height:1129px;" version="1.1" viewBox="0 0 848 1129" width="848px" zoomAndPan="magnify"><defs/><g><!--cluster Dependencies--><path d="M633,242 L729,242 A3,3 0 0 1 731,244 L738,262.4844 L834,262.4844 A2,2 0 0 1 836,264.4844 L836,959 A2,2 0 0 1 834,961 L633,961 A2,2 0 0 1 631,959 L631,244 A2,2 0 0 1 633,242 " fill="#FFFFFF" style="stroke: #000000; stroke-width: 1.5;"/><line style="stroke: #000000; stroke-width: 1.5;" x1="631" x2="738" y1="262.4844" y2="262.4844"/><text fill="#000000" font-family="Tahoma, sans-serif" font-size="12" font-weight="bold" lengthAdjust="spacingAndGlyphs" textLength="94" x="635" y="256.0059">Dependencies</text><!--entity arkit--><rect fill="#F8F8F8" height="34.4844" rx="2" ry="2" style="stroke: #383838; stroke-width: 1.0;" width="44" x="711.5" y="328"/><rect fill="#F8F8F8" height="5" style="stroke: #383838; stroke-width: 1.0;" width="10" x="706.5" y="333"/><rect fill="#F8F8F8" height="5" style="stroke: #383838; stroke-width: 1.0;" width="10" x="706.5" y="352.4844"/><text fill="#000000" font-family="Tahoma, sans-serif" font-size="12" lengthAdjust="spacingAndGlyphs" textLength="24" x="721.5" y="350.0059">arkit</text><!--entity monaco-editor--><rect fill="#F8F8F8" height="34.4844" rx="2" ry="2" style="stroke: #383838; stroke-width: 1.0;" width="106" x="680.5" y="699"/><rect fill="#F8F8F8" height="5" style="stroke: #383838; stroke-width: 1.0;" width="10" x="675.5" y="704"/><rect fill="#F8F8F8" height="5" style="stroke: #383838; stroke-width: 1.0;" width="10" x="675.5" y="723.4844"/><text fill="#000000" font-family="Tahoma, sans-serif" font-size="12" lengthAdjust="spacingAndGlyphs" textLength="86" x="690.5" y="721.0059">monaco-editor</text><!--entity plantuml-encoder-decoder--><rect fill="#F8F8F8" height="34.4844" rx="2" ry="2" style="stroke: #383838; stroke-width: 1.0;" width="173" x="647" y="805"/><rect fill="#F8F8F8" height="5" style="stroke: #383838; stroke-width: 1.0;" width="10" x="642" y="810"/><rect fill="#F8F8F8" height="5" style="stroke: #383838; stroke-width: 1.0;" width="10" x="642" y="829.4844"/><text fill="#000000" font-family="Tahoma, sans-serif" font-size="12" lengthAdjust="spacingAndGlyphs" textLength="153" x="657" y="827.0059">plantuml-encoder-decoder</text><!--entity react--><rect fill="#F8F8F8" height="34.4844" rx="2" ry="2" style="stroke: #383838; stroke-width: 1.0;" width="49" x="709" y="434"/><rect fill="#F8F8F8" height="5" style="stroke: #383838; stroke-width: 1.0;" width="10" x="704" y="439"/><rect fill="#F8F8F8" height="5" style="stroke: #383838; stroke-width: 1.0;" width="10" x="704" y="458.4844"/><text fill="#000000" font-family="Tahoma, sans-serif" font-size="12" lengthAdjust="spacingAndGlyphs" textLength="29" x="719" y="456.0059">react</text><!--entity react-dom--><rect fill="#F8F8F8" height="34.4844" rx="2" ry="2" style="stroke: #383838; stroke-width: 1.0;" width="80" x="693.5" y="275"/><rect fill="#F8F8F8" height="5" style="stroke: #383838; stroke-width: 1.0;" width="10" x="688.5" y="280"/><rect fill="#F8F8F8" height="5" style="stroke: #383838; stroke-width: 1.0;" width="10" x="688.5" y="299.4844"/><text fill="#000000" font-family="Tahoma, sans-serif" font-size="12" lengthAdjust="spacingAndGlyphs" textLength="60" x="703.5" y="297.0059">react-dom</text><!--entity react-loader-spinner--><rect fill="#F8F8F8" height="34.4844" rx="2" ry="2" style="stroke: #383838; stroke-width: 1.0;" width="137" x="665" y="593"/><rect fill="#F8F8F8" height="5" style="stroke: #383838; stroke-width: 1.0;" width="10" x="660" y="598"/><rect fill="#F8F8F8" height="5" style="stroke: #383838; stroke-width: 1.0;" width="10" x="660" y="617.4844"/><text fill="#000000" font-family="Tahoma, sans-serif" font-size="12" lengthAdjust="spacingAndGlyphs" textLength="117" x="675" y="615.0059">react-loader-spinner</text><!--entity react-markdown--><rect fill="#F8F8F8" height="34.4844" rx="2" ry="2" style="stroke: #383838; stroke-width: 1.0;" width="113" x="677" y="381"/><rect fill="#F8F8F8" height="5" style="stroke: #383838; stroke-width: 1.0;" width="10" x="672" y="386"/><rect fill="#F8F8F8" height="5" style="stroke: #383838; stroke-width: 1.0;" width="10" x="672" y="405.4844"/><text fill="#000000" font-family="Tahoma, sans-serif" font-size="12" lengthAdjust="spacingAndGlyphs" textLength="93" x="687" y="403.0059">react-markdown</text><!--entity react-monaco-editor--><rect fill="#F8F8F8" height="34.4844" rx="2" ry="2" style="stroke: #383838; stroke-width: 1.0;" width="140" x="663.5" y="752"/><rect fill="#F8F8F8" height="5" style="stroke: #383838; stroke-width: 1.0;" width="10" x="658.5" y="757"/><rect fill="#F8F8F8" height="5" style="stroke: #383838; stroke-width: 1.0;" width="10" x="658.5" y="776.4844"/><text fill="#000000" font-family="Tahoma, sans-serif" font-size="12" lengthAdjust="spacingAndGlyphs" textLength="120" x="673.5" y="774.0059">react-monaco-editor</text><!--entity react-redux--><rect fill="#F8F8F8" height="34.4844" rx="2" ry="2" style="stroke: #383838; stroke-width: 1.0;" width="85" x="691" y="646"/><rect fill="#F8F8F8" height="5" style="stroke: #383838; stroke-width: 1.0;" width="10" x="686" y="651"/><rect fill="#F8F8F8" height="5" style="stroke: #383838; stroke-width: 1.0;" width="10" x="686" y="670.4844"/><text fill="#000000" font-family="Tahoma, sans-serif" font-size="12" lengthAdjust="spacingAndGlyphs" textLength="65" x="701" y="668.0059">react-redux</text><!--entity redux--><rect fill="#F8F8F8" height="34.4844" rx="2" ry="2" style="stroke: #383838; stroke-width: 1.0;" width="51" x="708" y="858"/><rect fill="#F8F8F8" height="5" style="stroke: #383838; stroke-width: 1.0;" width="10" x="703" y="863"/><rect fill="#F8F8F8" height="5" style="stroke: #383838; stroke-width: 1.0;" width="10" x="703" y="882.4844"/><text fill="#000000" font-family="Tahoma, sans-serif" font-size="12" lengthAdjust="spacingAndGlyphs" textLength="31" x="718" y="880.0059">redux</text><!--entity redux-persist--><rect fill="#F8F8F8" height="34.4844" rx="2" ry="2" style="stroke: #383838; stroke-width: 1.0;" width="95" x="686" y="911"/><rect fill="#F8F8F8" height="5" style="stroke: #383838; stroke-width: 1.0;" width="10" x="681" y="916"/><rect fill="#F8F8F8" height="5" style="stroke: #383838; stroke-width: 1.0;" width="10" x="681" y="935.4844"/><text fill="#000000" font-family="Tahoma, sans-serif" font-size="12" lengthAdjust="spacingAndGlyphs" textLength="75" x="696" y="933.0059">redux-persist</text><!--entity styled-components--><rect fill="#F8F8F8" height="34.4844" rx="2" ry="2" style="stroke: #383838; stroke-width: 1.0;" width="132" x="667.5" y="540"/><rect fill="#F8F8F8" height="5" style="stroke: #383838; stroke-width: 1.0;" width="10" x="662.5" y="545"/><rect fill="#F8F8F8" height="5" style="stroke: #383838; stroke-width: 1.0;" width="10" x="662.5" y="564.4844"/><text fill="#000000" font-family="Tahoma, sans-serif" font-size="12" lengthAdjust="spacingAndGlyphs" textLength="112" x="677.5" y="562.0059">styled-components</text><!--entity styled-reset--><rect fill="#F8F8F8" height="34.4844" rx="2" ry="2" style="stroke: #383838; stroke-width: 1.0;" width="88" x="689.5" y="487"/><rect fill="#F8F8F8" height="5" style="stroke: #383838; stroke-width: 1.0;" width="10" x="684.5" y="492"/><rect fill="#F8F8F8" height="5" style="stroke: #383838; stroke-width: 1.0;" width="10" x="684.5" y="511.4844"/><text fill="#000000" font-family="Tahoma, sans-serif" font-size="12" lengthAdjust="spacingAndGlyphs" textLength="68" x="699.5" y="509.0059">styled-reset</text><!--entity _actions--><rect fill="#F8F8F8" height="34.4844" rx="2" ry="2" style="stroke: #000000; stroke-width: 0.5;" width="63" x="505" y="859"/><text fill="#000000" font-family="Tahoma, sans-serif" font-size="12" lengthAdjust="spacingAndGlyphs" textLength="43" x="515" y="881.0059">actions</text><ellipse cx="80.7999" cy="475.86" fill="#F8F8F8" rx="74.7999" ry="17.36" style="stroke: #383838; stroke-width: 0.5;"/><text fill="#000000" font-family="Tahoma, sans-serif" font-size="12" font-weight="bold" lengthAdjust="spacingAndGlyphs" textLength="124" x="18.7999" y="479.6022">components/index</text><!--entity _container--><rect fill="#F8F8F8" height="34.4844" rx="2" ry="2" style="stroke: #000000; stroke-width: 0.5;" width="74" x="362" y="505"/><text fill="#000000" font-family="Tahoma, sans-serif" font-size="12" lengthAdjust="spacingAndGlyphs" textLength="54" x="372" y="527.0059">container</text><!--entity _editor--><rect fill="#F8F8F8" height="34.4844" rx="2" ry="2" style="stroke: #000000; stroke-width: 0.5;" width="53" x="217.5" y="829"/><text fill="#000000" font-family="Tahoma, sans-serif" font-size="12" lengthAdjust="spacingAndGlyphs" textLength="33" x="227.5" y="851.0059">editor</text><!--entity _header--><rect fill="#F8F8F8" height="34.4844" rx="2" ry="2" style="stroke: #000000; stroke-width: 0.5;" width="59" x="369.5" y="307"/><text fill="#000000" font-family="Tahoma, sans-serif" font-size="12" lengthAdjust="spacingAndGlyphs" textLength="39" x="379.5" y="329.0059">header</text><!--entity _logo--><rect fill="#F8F8F8" height="34.4844" rx="2" ry="2" style="stroke: #000000; stroke-width: 0.5;" width="46" x="376" y="360"/><text fill="#000000" font-family="Tahoma, sans-serif" font-size="12" lengthAdjust="spacingAndGlyphs" textLength="26" x="386" y="382.0059">logo</text><ellipse cx="399.189" cy="835.8378" fill="#F8F8F8" rx="67.189" ry="15.8378" style="stroke: #383838; stroke-width: 0.5;"/><text fill="#000000" font-family="Tahoma, sans-serif" font-size="12" lengthAdjust="spacingAndGlyphs" textLength="106" x="346.189" y="839.58">plantuml-language</text><!--entity _preview--><rect fill="#F8F8F8" height="34.4844" rx="2" ry="2" style="stroke: #000000; stroke-width: 0.5;" width="63" x="212.5" y="611"/><text fill="#000000" font-family="Tahoma, sans-serif" font-size="12" lengthAdjust="spacingAndGlyphs" textLength="43" x="222.5" y="633.0059">preview</text><!--entity _readme--><rect fill="#F8F8F8" height="34.4844" rx="2" ry="2" style="stroke: #000000; stroke-width: 0.5;" width="63" x="367.5" y="108"/><text fill="#000000" font-family="Tahoma, sans-serif" font-size="12" lengthAdjust="spacingAndGlyphs" textLength="43" x="377.5" y="130.0059">readme</text><!--entity _reducer--><rect fill="#F8F8F8" height="34.4844" rx="2" ry="2" style="stroke: #000000; stroke-width: 0.5;" width="63" x="367.5" y="949"/><text fill="#000000" font-family="Tahoma, sans-serif" font-size="12" lengthAdjust="spacingAndGlyphs" textLength="43" x="377.5" y="971.0059">reducer</text><!--entity _responsive_image--><rect fill="#F8F8F8" height="34.4844" rx="2" ry="2" style="stroke: #000000; stroke-width: 0.5;" width="123" x="337.5" y="558"/><text fill="#000000" font-family="Tahoma, sans-serif" font-size="12" lengthAdjust="spacingAndGlyphs" textLength="103" x="347.5" y="580.0059">responsive-image</text><!--entity _section--><rect fill="#F8F8F8" height="34.4844" rx="2" ry="2" style="stroke: #000000; stroke-width: 0.5;" width="63" x="367.5" y="413"/><text fill="#000000" font-family="Tahoma, sans-serif" font-size="12" lengthAdjust="spacingAndGlyphs" textLength="43" x="377.5" y="435.0059">section</text><!--entity _spinner--><rect fill="#F8F8F8" height="34.4844" rx="2" ry="2" style="stroke: #000000; stroke-width: 0.5;" width="62" x="368" y="611"/><text fill="#000000" font-family="Tahoma, sans-serif" font-size="12" lengthAdjust="spacingAndGlyphs" textLength="42" x="378" y="633.0059">spinner</text><ellipse cx="243.9619" cy="1002.242" fill="#F8F8F8" rx="48.9619" ry="13.242" style="stroke: #383838; stroke-width: 0.5;"/><text fill="#000000" font-family="Tahoma, sans-serif" font-size="12" lengthAdjust="spacingAndGlyphs" textLength="65" x="211.4619" y="1005.9842">store/index</text><!--entity _theme--><rect fill="#F8F8F8" height="34.4844" rx="2" ry="2" style="stroke: #000000; stroke-width: 0.5;" width="56" x="371" y="254"/><text fill="#000000" font-family="Tahoma, sans-serif" font-size="12" lengthAdjust="spacingAndGlyphs" textLength="36" x="381" y="276.0059">theme</text><!--link _actions to plantuml-encoder-decoder--><path d="M568.225,865.772 C584.442,860.508 604.717,854.135 623,849 C633.462,846.062 644.534,843.128 655.461,840.336 " fill="none" id="_actions-plantuml-encoder-decoder" style="stroke: #000000; stroke-width: 0.55;"/><polygon fill="#000000" points="660.468,839.063,650.7601,837.4029,655.622,840.2945,652.7304,845.1565,660.468,839.063" style="stroke: #000000; stroke-width: 0.55;"/><!--link <b>components/index</b> to _container--><path d="M145.188,485.198 C208.176,494.367 303.066,508.181 356.89,516.016 " fill="none" id="&lt;b&gt;components/index&lt;/b&gt;-_container" style="stroke: #000000; stroke-width: 1.0;"/><polygon fill="#000000" points="361.968,516.755,353.6394,511.4982,357.0203,516.0335,352.485,519.4144,361.968,516.755" style="stroke: #000000; stroke-width: 1.0;"/><!--link <b>components/index</b> to _editor--><path d="M89.7654,493.846 C116.449,555.168 204.34,757.154 233.503,824.174 " fill="none" id="&lt;b&gt;components/index&lt;/b&gt;-_editor" style="stroke: #000000; stroke-width: 1.0;"/><polygon fill="#000000" points="235.499,828.762,235.5778,818.9135,233.505,824.1768,228.2416,822.1039,235.499,828.762" style="stroke: #000000; stroke-width: 1.0;"/><!--link <b>components/index</b> to _header--><path d="M107.476,459.552 C130.023,445.322 164.058,424.633 195,409 C254.016,379.182 270.956,376.407 332,351 C342.605,346.586 354.194,341.825 364.659,337.548 " fill="none" id="&lt;b&gt;components/index&lt;/b&gt;-_header" style="stroke: #000000; stroke-width: 1.0;"/><polygon fill="#000000" points="369.381,335.62,359.5367,335.3191,364.752,337.5102,362.561,342.7255,369.381,335.62" style="stroke: #000000; stroke-width: 1.0;"/><!--link <b>components/index</b> to _logo--><path d="M123.751,461.599 C145.025,454.354 171.333,445.533 195,438 C257.756,418.025 331.978,396.167 370.965,384.82 " fill="none" id="&lt;b&gt;components/index&lt;/b&gt;-_logo" style="stroke: #000000; stroke-width: 1.0;"/><polygon fill="#000000" points="375.999,383.357,366.2402,382.0282,371.1977,384.7527,368.4733,389.7102,375.999,383.357" style="stroke: #000000; stroke-width: 1.0;"/><!--link <b>components/index</b> to _preview--><path d="M100.1558,493.141 C129.869,521.193 188.782,576.813 220.885,607.121 " fill="none" id="&lt;b&gt;components/index&lt;/b&gt;-_preview" style="stroke: #000000; stroke-width: 1.0;"/><polygon fill="#000000" points="224.664,610.689,220.8662,601.6018,221.0285,607.2563,215.374,607.4186,224.664,610.689" style="stroke: #000000; stroke-width: 1.0;"/><!--link <b>components/index</b> to react--><path d="M91.0892,458.353 C118.725,407.029 207.532,258.509 332,212 C430.479,175.202 476.813,175.682 568,228 C592.384,241.99 597.239,251.029 608,277 C620.654,307.54 601.219,400.133 623,425 C642.831,447.641 678.444,452.449 703.666,452.687 " fill="none" id="&lt;b&gt;components/index&lt;/b&gt;-react" style="stroke: #000000; stroke-width: 1.0;"/><polygon fill="#000000" points="708.88,452.673,699.8697,448.6962,703.88,452.6859,699.8903,456.6961,708.88,452.673" style="stroke: #000000; stroke-width: 1.0;"/><!--link <b>components/index</b> to react-dom--><path d="M83.7336,458.204 C89.7867,404.334 114.219,240.395 195,137 C260.813,52.76 291.102,8 398,8 C398,8 398,8 537.5,8 C664.282,8 714.805,202.723 728.431,269.694 " fill="none" id="&lt;b&gt;components/index&lt;/b&gt;-react-dom" style="stroke: #000000; stroke-width: 1.0;"/><polygon fill="#000000" points="729.422,274.662,731.583,265.0532,728.4433,269.7587,723.7378,266.619,729.422,274.662" style="stroke: #000000; stroke-width: 1.0;"/><!--link <b>components/index</b> to react-redux--><path d="M88.1092,493.497 C101.5579,529.41 137.206,611.7 195,655 C270.095,711.262 304.167,713 398,713 C398,713 398,713 537.5,713 C576.851,713 584.895,699.822 623,690 C643.625,684.684 666.493,679.01 685.975,674.243 " fill="none" id="&lt;b&gt;components/index&lt;/b&gt;-react-redux" style="stroke: #000000; stroke-width: 1.0;"/><polygon fill="#000000" points="690.851,673.051,681.1585,671.3028,685.994,674.2384,683.0584,679.074,690.851,673.051" style="stroke: #000000; stroke-width: 1.0;"/><!--link <b>components/index</b> to _readme--><path d="M82.9765,458.394 C86.8674,406.097 105.7766,250.447 195,172 C241.826,130.83 317.617,123.792 362.145,123.588 " fill="none" id="&lt;b&gt;components/index&lt;/b&gt;-_readme" style="stroke: #000000; stroke-width: 1.0;"/><polygon fill="#000000" points="367.151,123.594,358.1556,119.5837,362.151,123.5883,358.1464,127.5837,367.151,123.594" style="stroke: #000000; stroke-width: 1.0;"/><!--link <b>components/index</b> to _reducer--><path d="M82.0381,493.866 C83.1031,554.598 94.4249,755.811 195,873 C238.879,924.127 316.745,948.699 362.225,959.206 " fill="none" id="&lt;b&gt;components/index&lt;/b&gt;-_reducer" style="stroke: #000000; stroke-width: 1.0;"/><polygon fill="#000000" points="367.335,960.359,359.4356,954.4769,362.4575,959.2589,357.6755,962.2808,367.335,960.359" style="stroke: #000000; stroke-width: 1.0;"/><!--link <b>components/index</b> to redux-persist--><path d="M83.4885,493.591 C90.9236,577.799 126.436,939.189 195,1025 C256.833,1102.3865 298.945,1117 398,1117 C398,1117 398,1117 537.5,1117 C632.728,1117 699.078,999.343 722.838,949.692 " fill="none" id="&lt;b&gt;components/index&lt;/b&gt;-redux-persist" style="stroke: #000000; stroke-width: 1.0;"/><polygon fill="#000000" points="725.004,945.106,717.5449,951.5373,722.8696,949.6276,724.7794,954.9523,725.004,945.106" style="stroke: #000000; stroke-width: 1.0;"/><!--link <b>components/index</b> to _section--><path d="M145.188,466.802 C210.313,457.322 309.541,442.877 362.223,435.208 " fill="none" id="&lt;b&gt;components/index&lt;/b&gt;-_section" style="stroke: #000000; stroke-width: 1.0;"/><polygon fill="#000000" points="367.483,434.442,358.0007,431.7799,362.5351,435.1621,359.1529,439.6965,367.483,434.442" style="stroke: #000000; stroke-width: 1.0;"/><!--link <b>components/index</b> to store/index--><path d="M84.3544,493.867 C92.965,555.901 125.916,766.918 195,927 C204.159,948.224 218.995,970.243 229.751,984.886 " fill="none" id="&lt;b&gt;components/index&lt;/b&gt;-store/index" style="stroke: #000000; stroke-width: 1.0;"/><polygon fill="#000000" points="232.948,989.185,230.787,979.5762,229.9643,985.1729,224.3675,984.3502,232.948,989.185" style="stroke: #000000; stroke-width: 1.0;"/><!--link <b>components/index</b> to styled-components--><path d="M156.064,476 C220.104,476 315.16,476 398,476 C398,476 398,476 537.5,476 C582.683,476 581.425,513.306 623,531 C635.409,536.281 649.087,540.605 662.448,544.103 " fill="none" id="&lt;b&gt;components/index&lt;/b&gt;-styled-components" style="stroke: #000000; stroke-width: 1.0;"/><polygon fill="#000000" points="667.352,545.355,659.6199,539.2546,662.5071,544.1191,657.6426,547.0063,667.352,545.355" style="stroke: #000000; stroke-width: 1.0;"/><!--link <b>components/index</b> to _theme--><path d="M98.5682,458.797 C119.718,437.386 158.014,400.426 195,374 C251.655,333.521 269.223,328.124 332,298 C342.841,292.798 354.956,287.657 365.818,283.279 " fill="none" id="&lt;b&gt;components/index&lt;/b&gt;-_theme" style="stroke: #000000; stroke-width: 1.0;"/><polygon fill="#000000" points="370.711,281.324,360.8692,280.95,366.0681,283.1797,363.8384,288.3786,370.711,281.324" style="stroke: #000000; stroke-width: 1.0;"/><!--link _container to styled-components--><path d="M436.216,525.812 C490.186,531.493 592.761,542.291 661.895,549.568 " fill="none" id="_container-styled-components" style="stroke: #000000; stroke-width: 0.55;"/><polygon fill="#000000" points="667.229,550.129,658.6966,545.2098,662.2564,549.6062,657.8601,553.166,667.229,550.129" style="stroke: #000000; stroke-width: 0.55;"/><!--link _editor to _actions--><path d="M267.583,863.027 C284.366,874.565 308.357,888.8 332,895 C389.608,910.107 406.974,902.923 466,895 C477.181,893.499 489.11,890.698 499.872,887.698 " fill="none" id="_editor-_actions" style="stroke: #000000; stroke-width: 0.55;"/><polygon fill="#000000" points="504.727,886.31,494.9742,884.9379,499.9196,887.6844,497.1732,892.6298,504.727,886.31" style="stroke: #000000; stroke-width: 0.55;"/><!--link _editor to plantuml-language--><path d="M270.609,844.326 C286.607,843.281 308.04,841.88 328.756,840.526 " fill="none" id="_editor-plantuml-language" style="stroke: #000000; stroke-width: 0.55;"/><polygon fill="#000000" points="334.004,840.183,324.7625,836.7779,329.0146,840.5088,325.2837,844.7609,334.004,840.183" style="stroke: #000000; stroke-width: 0.55;"/><!--link _editor to react-monaco-editor--><path d="M270.716,852.001 C287.946,855.706 311.2,860.103 332,862 C391.309,867.408 407.62,873.772 466,862 C503.1,854.519 587.073,807.9 623,796 C634.303,792.256 646.415,788.767 658.314,785.624 " fill="none" id="_editor-react-monaco-editor" style="stroke: #000000; stroke-width: 0.55;"/><polygon fill="#000000" points="663.397,784.298,653.6789,782.6985,658.5588,785.5597,655.6976,790.4396,663.397,784.298" style="stroke: #000000; stroke-width: 0.55;"/><!--link _editor to react-redux--><path d="M270.662,834.992 C287.87,827.78 311.118,818.362 332,811 C452.926,768.365 513.359,813.51 608,727 C621.097,715.028 609.586,701.616 623,690 C640.265,675.049 664.532,668.117 685.834,665 " fill="none" id="_editor-react-redux" style="stroke: #000000; stroke-width: 0.55;"/><polygon fill="#000000" points="690.895,664.322,681.4441,661.5505,685.9391,664.9849,682.5047,669.4799,690.895,664.322" style="stroke: #000000; stroke-width: 0.55;"/><!--link _editor to _reducer--><path d="M260.674,863.186 C281.271,885.528 316.627,922.995 332,934 C341.338,940.685 352.289,946.631 362.556,951.53 " fill="none" id="_editor-_reducer" style="stroke: #000000; stroke-width: 0.55;"/><polygon fill="#000000" points="367.217,953.706,360.7533,946.275,362.6862,951.5913,357.3698,953.5243,367.217,953.706" style="stroke: #000000; stroke-width: 0.55;"/><!--link _header to styled-components--><path d="M428.616,331.02 C463.631,340.52 523.711,359.835 568,390 C589.573,404.693 596.633,409.504 608,433 C627.189,472.665 593.134,498.603 623,531 C633.352,542.229 647.59,549.025 662.377,553.048 " fill="none" id="_header-styled-components" style="stroke: #000000; stroke-width: 0.55;"/><polygon fill="#000000" points="667.408,554.308,659.649,548.2419,662.5577,553.0936,657.706,556.0024,667.408,554.308" style="stroke: #000000; stroke-width: 0.55;"/><!--link _logo to styled-components--><path d="M422.023,378.708 C455.193,381.985 519.274,391.094 568,415 C588.691,425.152 596.351,428.114 608,448 C626.947,480.346 597.223,503.783 623,531 C633.442,542.025 647.635,548.752 662.34,552.775 " fill="none" id="_logo-styled-components" style="stroke: #000000; stroke-width: 0.55;"/><polygon fill="#000000" points="667.341,554.038,659.5942,547.9563,662.4932,552.8139,657.6356,555.7129,667.341,554.038" style="stroke: #000000; stroke-width: 0.55;"/><!--link plantuml-language to monaco-editor--><path d="M456.015,827.567 C500.857,818.521 563.41,800.518 608,766 C617.65,758.529 613.048,750.064 623,743 C638.251,732.174 657.365,725.668 675.337,721.765 " fill="none" id="plantuml-language-monaco-editor" style="stroke: #000000; stroke-width: 0.55;"/><polygon fill="#000000" points="680.372,720.732,670.7513,718.6243,675.4742,721.7378,672.3607,726.4607,680.372,720.732" style="stroke: #000000; stroke-width: 0.55;"/><!--link _preview to _actions--><path d="M266.695,645.244 C306.712,677.208 394.581,748.135 466,811 C482.436,825.467 500.482,842.377 514.066,855.323 " fill="none" id="_preview-_actions" style="stroke: #000000; stroke-width: 0.55;"/><polygon fill="#000000" points="517.774,858.864,514.0277,849.7555,514.158,855.4108,508.5026,855.5411,517.774,858.864" style="stroke: #000000; stroke-width: 0.55;"/><!--link _preview to react--><path d="M246.166,610.653 C251.162,542.15 273.249,291.902 332,245 C414.061,179.489 472.128,213.172 568,256 C589.838,265.755 597.059,270.732 608,292 C621.606,318.448 603.277,402.737 623,425 C642.959,447.529 678.546,452.359 703.726,452.633 " fill="none" id="_preview-react" style="stroke: #000000; stroke-width: 0.55;"/><polygon fill="#000000" points="708.932,452.627,699.9274,448.6373,703.932,452.6327,699.9366,456.6373,708.932,452.627" style="stroke: #000000; stroke-width: 0.55;"/><!--link _preview to react-redux--><path d="M275.901,639.915 C292.302,645.641 312.954,651.918 332,655 C458.543,675.479 610.491,670.615 685.656,666.286 " fill="none" id="_preview-react-redux" style="stroke: #000000; stroke-width: 0.55;"/><polygon fill="#000000" points="690.933,665.975,681.7132,662.5116,685.9417,666.2693,682.184,670.4978,690.933,665.975" style="stroke: #000000; stroke-width: 0.55;"/><!--link _preview to _reducer--><path d="M250.047,645.25 C261.881,684.712 293.365,784.16 332,862 C346.912,892.043 368.326,924.311 382.677,944.801 " fill="none" id="_preview-_reducer" style="stroke: #000000; stroke-width: 0.55;"/><polygon fill="#000000" points="385.627,948.989,383.7165,939.3272,382.7486,944.9006,377.1752,943.9327,385.627,948.989" style="stroke: #000000; stroke-width: 0.55;"/><!--link _preview to _responsive_image--><path d="M275.594,617.402 C295.134,610.633 321.014,601.668 343.943,593.726 " fill="none" id="_preview-_responsive_image" style="stroke: #000000; stroke-width: 0.55;"/><polygon fill="#000000" points="348.787,592.048,338.9736,591.2128,344.0622,593.6839,341.5911,598.7725,348.787,592.048" style="stroke: #000000; stroke-width: 0.55;"/><!--link _preview to _spinner--><path d="M275.594,628 C300.775,628 336.485,628 362.84,628 " fill="none" id="_preview-_spinner" style="stroke: #000000; stroke-width: 0.55;"/><polygon fill="#000000" points="367.98,628,358.98,624,362.98,628,358.98,632,367.98,628" style="stroke: #000000; stroke-width: 0.55;"/><!--link _readme to arkit--><path d="M422.075,108 C464,77.86 555.625,22.71 608,72 C648.045,109.69 587.61,276.912 623,319 C643.075,342.874 680.696,347.083 706.172,346.869 " fill="none" id="_readme-arkit" style="stroke: #000000; stroke-width: 0.55;"/><polygon fill="#000000" points="711.413,346.762,702.3326,342.948,706.4141,346.8649,702.4972,350.9463,711.413,346.762" style="stroke: #000000; stroke-width: 0.55;"/><!--link _readme to react--><path d="M430.747,117.95 C476.705,109.44 562.742,101.69 608,150 C649.844,194.662 583.756,378.036 623,425 C642.3,448.096 678.021,452.811 703.412,452.903 " fill="none" id="_readme-react" style="stroke: #000000; stroke-width: 0.55;"/><polygon fill="#000000" points="708.664,452.858,699.6289,448.9379,703.6642,452.9023,699.6998,456.9376,708.664,452.858" style="stroke: #000000; stroke-width: 0.55;"/><!--link _readme to react-markdown--><path d="M430.833,110.52 C476.113,91.65 560.368,66.03 608,111 C650.242,150.884 585.683,327.474 623,372 C635.046,386.373 653.45,393.623 671.752,397.071 " fill="none" id="_readme-react-markdown" style="stroke: #000000; stroke-width: 0.55;"/><polygon fill="#000000" points="676.907,397.946,668.7039,392.4954,671.9776,397.1087,667.3643,400.3824,676.907,397.946" style="stroke: #000000; stroke-width: 0.55;"/><!--link _readme to styled-components--><path d="M417.021,142.159 C449.192,175.179 519.996,250.704 568,323 C589.77,355.786 596.662,364.313 608,402 C616.314,429.636 603.825,509.431 623,531 C633.206,542.48 647.469,549.361 662.336,553.385 " fill="none" id="_readme-styled-components" style="stroke: #000000; stroke-width: 0.55;"/><polygon fill="#000000" points="667.396,554.643,659.6277,548.5888,662.5439,553.436,657.6966,556.3522,667.396,554.643" style="stroke: #000000; stroke-width: 0.55;"/><!--link _reducer to _actions--><path d="M430.738,952.997 C442.146,947.686 454.982,941.116 466,934 C482.989,923.028 500.46,908.431 513.635,896.625 " fill="none" id="_reducer-_actions" style="stroke: #000000; stroke-width: 0.55;"/><polygon fill="#000000" points="517.581,893.058,508.2218,896.1248,513.8714,896.4105,513.5857,902.0601,517.581,893.058" style="stroke: #000000; stroke-width: 0.55;"/><!--link _reducer to plantuml-encoder-decoder--><path d="M430.577,958.674 C465.658,949.362 524.002,931.046 568,903 C596.887,884.586 593.086,865.693 623,849 C628.927,845.693 635.256,842.786 641.771,840.232 " fill="none" id="_reducer-plantuml-encoder-decoder" style="stroke: #000000; stroke-width: 0.55;"/><polygon fill="#000000" points="646.785,838.347,636.9532,837.7684,642.1045,840.1057,639.7672,845.2571,646.785,838.347" style="stroke: #000000; stroke-width: 0.55;"/><!--link _reducer to redux--><path d="M430.647,970.172 C474.562,974.414 555.836,975.596 608,936 C621.156,926.014 610.352,912.622 623,902 C645.304,883.27 678.658,877.19 702.69,875.384 " fill="none" id="_reducer-redux" style="stroke: #000000; stroke-width: 0.55;"/><polygon fill="#000000" points="707.974,875.044,698.7354,871.631,702.9843,875.3655,699.2498,879.6144,707.974,875.044" style="stroke: #000000; stroke-width: 0.55;"/><!--link _reducer to redux-persist--><path d="M430.604,971.543 C471.424,977.98 545.774,986.354 608,975 C637.405,969.635 668.886,957.688 692.835,947.183 " fill="none" id="_reducer-redux-persist" style="stroke: #000000; stroke-width: 0.55;"/><polygon fill="#000000" points="697.522,945.104,687.6731,945.0969,692.9515,947.1314,690.9169,952.4097,697.522,945.104" style="stroke: #000000; stroke-width: 0.55;"/><!--link _responsive_image to styled-components--><path d="M460.599,571.719 C517.419,568.643 602.354,564.045 662.144,560.809 " fill="none" id="_responsive_image-styled-components" style="stroke: #000000; stroke-width: 0.55;"/><polygon fill="#000000" points="667.487,560.519,658.2841,557.0108,662.4943,560.789,658.7161,564.9991,667.487,560.519" style="stroke: #000000; stroke-width: 0.55;"/><!--link _section to styled-components--><path d="M430.693,424.965 C475.795,419.458 559.825,416.697 608,462 C630.862,483.499 601.021,508.598 623,531 C633.573,541.776 647.738,548.416 662.365,552.435 " fill="none" id="_section-styled-components" style="stroke: #000000; stroke-width: 0.55;"/><polygon fill="#000000" points="667.338,553.699,659.6021,547.6034,662.4924,552.4662,657.6296,555.3564,667.338,553.699" style="stroke: #000000; stroke-width: 0.55;"/><!--link _spinner to react-loader-spinner--><path d="M430.094,626.371 C481.533,623.586 587.759,617.836 659.591,613.947 " fill="none" id="_spinner-react-loader-spinner" style="stroke: #000000; stroke-width: 0.55;"/><polygon fill="#000000" points="664.702,613.67,655.4991,610.1618,659.7093,613.94,655.9311,618.1501,664.702,613.67" style="stroke: #000000; stroke-width: 0.55;"/><!--link _spinner to styled-components--><path d="M430.094,621.574 C482.157,610.457 590.346,587.355 662.192,572.013 " fill="none" id="_spinner-styled-components" style="stroke: #000000; stroke-width: 0.55;"/><polygon fill="#000000" points="667.301,570.922,657.6641,568.8898,662.4113,571.9662,659.3348,576.7134,667.301,570.922" style="stroke: #000000; stroke-width: 0.55;"/><!--link store/index to _reducer--><path d="M281.259,993.469 C305.679,987.723 337.746,980.177 362.092,974.449 " fill="none" id="store/index-_reducer" style="stroke: #000000; stroke-width: 0.55;"/><polygon fill="#000000" points="367.165,973.255,357.4884,971.4209,362.2977,974.3993,359.3193,979.2086,367.165,973.255" style="stroke: #000000; stroke-width: 0.55;"/><!--link store/index to redux--><path d="M288.507,1007.5 C352.977,1013.668 476.141,1017.7324 568,974 C589.067,963.971 594.422,958.974 608,940 C618.567,925.234 609.329,913.949 623,902 C645.021,882.752 678.625,876.774 702.797,875.133 " fill="none" id="store/index-redux" style="stroke: #000000; stroke-width: 0.55;"/><polygon fill="#000000" points="707.805,874.845,698.5901,871.3685,702.8133,875.1322,699.0496,879.3553,707.805,874.845" style="stroke: #000000; stroke-width: 0.55;"/><!--link store/index to redux-persist--><path d="M260.199,1014.341 C276.719,1026.8913 304.459,1045.5226 332,1053 C433.225,1080.4823 468.599,1086.4817 568,1053 C629.159,1032.3995 685.606,979.011 713.755,949.099 " fill="none" id="store/index-redux-persist" style="stroke: #000000; stroke-width: 0.55;"/><polygon fill="#000000" points="717.373,945.217,708.3106,949.0735,713.964,948.8747,714.1628,954.528,717.373,945.217" style="stroke: #000000; stroke-width: 0.55;"/><!--link _theme to styled-components--><path d="M427.234,279.97 C462.989,292.837 526.116,319.43 568,359 C591.029,380.756 596.725,388.394 608,418 C626.031,465.346 589.033,493.411 623,531 C633.239,542.331 647.434,549.167 662.215,553.196 " fill="none" id="_theme-styled-components" style="stroke: #000000; stroke-width: 0.55;"/><polygon fill="#000000" points="667.245,554.457,659.4876,548.3888,662.395,553.2413,657.5425,556.1487,667.245,554.457" style="stroke: #000000; stroke-width: 0.55;"/><!--link _theme to styled-reset--><path d="M427.062,266.292 C471.974,260.203 561.547,255.688 608,306 C634.027,334.189 597.923,448.962 623,478 C638.015,495.387 662.335,502.287 684.246,504.666 " fill="none" id="_theme-styled-reset" style="stroke: #000000; stroke-width: 0.55;"/><polygon fill="#000000" points="689.463,505.154,680.8747,500.3332,684.4847,504.6883,680.1296,508.2984,689.463,505.154" style="stroke: #000000; stroke-width: 0.55;"/><script type="text/plantuml"><![CDATA[
@startuml

scale max 1920 width
left to right direction

skinparam nodesep 19
skinparam ranksep 39
skinparam monochrome true
skinparam shadowing false
skinparam defaultFontName Tahoma
skinparam defaultFontSize 12
skinparam roundCorner 4
skinparam dpi 150
skinparam arrowColor black
skinparam arrowThickness 0.55
skinparam packageTitleAlignment left

skinparam usecase {
  borderThickness 0.5
}

skinparam rectangle {
  borderThickness 0.5
}

skinparam component {
  borderThickness 1
}


rectangle "actions" as _actions
(<b>components/index</b>)
rectangle "container" as _container
rectangle "editor" as _editor
rectangle "header" as _header
rectangle "logo" as _logo
(plantuml-language)
rectangle "preview" as _preview
rectangle "readme" as _readme
rectangle "reducer" as _reducer
rectangle "responsive-image" as _responsive_image
rectangle "section" as _section
rectangle "spinner" as _spinner
(store/index)
rectangle "theme" as _theme

package "Dependencies" {
  [arkit]
  [monaco-editor]
  [plantuml-encoder-decoder]
  [react]
  [react-dom]
  [react-loader-spinner]
  [react-markdown]
  [react-monaco-editor]
  [react-redux]
  [redux]
  [redux-persist]
  [styled-components]
  [styled-reset]
}

_actions ----> [plantuml-encoder-decoder]
(<b>components/index</b>) -[thickness=1]> _container
(<b>components/index</b>) -[thickness=1]> _editor
(<b>components/index</b>) -[thickness=1]> _header
(<b>components/index</b>) -[thickness=1]> _logo
(<b>components/index</b>) -[thickness=1]> _preview
(<b>components/index</b>) ----[thickness=1]> [react]
(<b>components/index</b>) ----[thickness=1]> [react-dom]
(<b>components/index</b>) ----[thickness=1]> [react-redux]
(<b>components/index</b>) -[thickness=1]> _readme
(<b>components/index</b>) --[thickness=1]> _reducer
(<b>components/index</b>) ----[thickness=1]> [redux-persist]
(<b>components/index</b>) -[thickness=1]> _section
(<b>components/index</b>) --[thickness=1]> (store/index)
(<b>components/index</b>) ----[thickness=1]> [styled-components]
(<b>components/index</b>) -[thickness=1]> _theme
_container ----> [styled-components]
_editor --> _actions
_editor --> (plantuml-language)
_editor ----> [react-monaco-editor]
_editor ----> [react-redux]
_editor --> _reducer
_header ----> [styled-components]
_logo ----> [styled-components]
(plantuml-language) ---> [monaco-editor]
_preview --> _actions
_preview ----> [react]
_preview ----> [react-redux]
_preview --> _reducer
_preview --> _responsive_image
_preview --> _spinner
_readme ----> [arkit]
_readme ----> [react]
_readme ----> [react-markdown]
_readme ----> [styled-components]
_reducer --> _actions
_reducer ----> [plantuml-encoder-decoder]
_reducer ----> [redux]
_reducer ----> [redux-persist]
_responsive_image ----> [styled-components]
_section ----> [styled-components]
_spinner ----> [react-loader-spinner]
_spinner ----> [styled-components]
(store/index) --> _reducer
(store/index) ----> [redux]
(store/index) ----> [redux-persist]
_theme ----> [styled-components]
_theme ----> [styled-reset]

@enduml


' View and edit on https://arkit.herokuapp.com
]]></script></g></svg>