<?xml version="1.0" encoding="UTF-8" standalone="no"?><svg xmlns="http://www.w3.org/2000/svg" xmlns:xlink="http://www.w3.org/1999/xlink" contentScriptType="application/ecmascript" contentStyleType="text/css" height="1613px" preserveAspectRatio="none" style="width:988px;height:1613px;" version="1.1" viewBox="0 0 988 1613" width="988px" zoomAndPan="magnify"><defs/><g><!--cluster Dependencies--><path d="M798,401.59 L894,401.59 A3,3 0 0 1 896,403.59 L903,422.0744 L974,422.0744 A2,2 0 0 1 976,424.0744 L976,1130.585 A2,2 0 0 1 974,1132.585 L798,1132.585 A2,2 0 0 1 796,1130.585 L796,403.59 A2,2 0 0 1 798,401.59 " fill="#FFFFFF" style="stroke: #000000; stroke-width: 1.5;"/><line style="stroke: #000000; stroke-width: 1.5;" x1="796" x2="903" y1="422.0744" y2="422.0744"/><text fill="#000000" font-family="Tahoma, sans-serif" font-size="12" font-weight="bold" lengthAdjust="spacingAndGlyphs" textLength="94" x="800" y="415.5959">Dependencies</text><!--entity arkit--><rect fill="#F8F8F8" height="34.4844" rx="2" ry="2" style="stroke: #383838; stroke-width: 1.0;" width="44" x="864" y="920.585"/><rect fill="#F8F8F8" height="5" style="stroke: #383838; stroke-width: 1.0;" width="10" x="859" y="925.585"/><rect fill="#F8F8F8" height="5" style="stroke: #383838; stroke-width: 1.0;" width="10" x="859" y="945.0694"/><text fill="#000000" font-family="Tahoma, sans-serif" font-size="12" lengthAdjust="spacingAndGlyphs" textLength="24" x="874" y="942.5909">arkit</text><!--entity arkit-encoder-decoder--><rect fill="#F8F8F8" height="34.4844" rx="2" ry="2" style="stroke: #383838; stroke-width: 1.0;" width="148" x="812" y="650.585"/><rect fill="#F8F8F8" height="5" style="stroke: #383838; stroke-width: 1.0;" width="10" x="807" y="655.585"/><rect fill="#F8F8F8" height="5" style="stroke: #383838; stroke-width: 1.0;" width="10" x="807" y="675.0694"/><text fill="#000000" font-family="Tahoma, sans-serif" font-size="12" lengthAdjust="spacingAndGlyphs" textLength="128" x="822" y="672.5909">arkit-encoder-decoder</text><!--entity react--><rect fill="#F8F8F8" height="34.4844" rx="2" ry="2" style="stroke: #383838; stroke-width: 1.0;" width="49" x="861.5" y="758.585"/><rect fill="#F8F8F8" height="5" style="stroke: #383838; stroke-width: 1.0;" width="10" x="856.5" y="763.585"/><rect fill="#F8F8F8" height="5" style="stroke: #383838; stroke-width: 1.0;" width="10" x="856.5" y="783.0694"/><text fill="#000000" font-family="Tahoma, sans-serif" font-size="12" lengthAdjust="spacingAndGlyphs" textLength="29" x="871.5" y="780.5909">react</text><!--entity react-dom--><rect fill="#F8F8F8" height="34.4844" rx="2" ry="2" style="stroke: #383838; stroke-width: 1.0;" width="80" x="846" y="434.59"/><rect fill="#F8F8F8" height="5" style="stroke: #383838; stroke-width: 1.0;" width="10" x="841" y="439.59"/><rect fill="#F8F8F8" height="5" style="stroke: #383838; stroke-width: 1.0;" width="10" x="841" y="459.0744"/><text fill="#000000" font-family="Tahoma, sans-serif" font-size="12" lengthAdjust="spacingAndGlyphs" textLength="60" x="856" y="456.5959">react-dom</text><!--entity react-github-btn--><rect fill="#F8F8F8" height="34.4844" rx="2" ry="2" style="stroke: #383838; stroke-width: 1.0;" width="112" x="830" y="1028.585"/><rect fill="#F8F8F8" height="5" style="stroke: #383838; stroke-width: 1.0;" width="10" x="825" y="1033.585"/><rect fill="#F8F8F8" height="5" style="stroke: #383838; stroke-width: 1.0;" width="10" x="825" y="1053.0694"/><text fill="#000000" font-family="Tahoma, sans-serif" font-size="12" lengthAdjust="spacingAndGlyphs" textLength="92" x="840" y="1050.5909">react-github-btn</text><!--entity react-loader-spinner--><rect fill="#F8F8F8" height="34.4844" rx="2" ry="2" style="stroke: #383838; stroke-width: 1.0;" width="137" x="817.5" y="812.585"/><rect fill="#F8F8F8" height="5" style="stroke: #383838; stroke-width: 1.0;" width="10" x="812.5" y="817.585"/><rect fill="#F8F8F8" height="5" style="stroke: #383838; stroke-width: 1.0;" width="10" x="812.5" y="837.0694"/><text fill="#000000" font-family="Tahoma, sans-serif" font-size="12" lengthAdjust="spacingAndGlyphs" textLength="117" x="827.5" y="834.5909">react-loader-spinner</text><!--entity react-markdown--><rect fill="#F8F8F8" height="34.4844" rx="2" ry="2" style="stroke: #383838; stroke-width: 1.0;" width="113" x="829.5" y="974.585"/><rect fill="#F8F8F8" height="5" style="stroke: #383838; stroke-width: 1.0;" width="10" x="824.5" y="979.585"/><rect fill="#F8F8F8" height="5" style="stroke: #383838; stroke-width: 1.0;" width="10" x="824.5" y="999.0694"/><text fill="#000000" font-family="Tahoma, sans-serif" font-size="12" lengthAdjust="spacingAndGlyphs" textLength="93" x="839.5" y="996.5909">react-markdown</text><!--entity react-monaco-editor--><rect fill="#F8F8F8" height="34.4844" rx="2" ry="2" style="stroke: #383838; stroke-width: 1.0;" width="140" x="816" y="1082.585"/><rect fill="#F8F8F8" height="5" style="stroke: #383838; stroke-width: 1.0;" width="10" x="811" y="1087.585"/><rect fill="#F8F8F8" height="5" style="stroke: #383838; stroke-width: 1.0;" width="10" x="811" y="1107.0694"/><text fill="#000000" font-family="Tahoma, sans-serif" font-size="12" lengthAdjust="spacingAndGlyphs" textLength="120" x="826" y="1104.5909">react-monaco-editor</text><!--entity react-redux--><rect fill="#F8F8F8" height="34.4844" rx="2" ry="2" style="stroke: #383838; stroke-width: 1.0;" width="85" x="843.5" y="704.585"/><rect fill="#F8F8F8" height="5" style="stroke: #383838; stroke-width: 1.0;" width="10" x="838.5" y="709.585"/><rect fill="#F8F8F8" height="5" style="stroke: #383838; stroke-width: 1.0;" width="10" x="838.5" y="729.0694"/><text fill="#000000" font-family="Tahoma, sans-serif" font-size="12" lengthAdjust="spacingAndGlyphs" textLength="65" x="853.5" y="726.5909">react-redux</text><!--entity redux--><rect fill="#F8F8F8" height="34.4844" rx="2" ry="2" style="stroke: #383838; stroke-width: 1.0;" width="51" x="860.5" y="596.585"/><rect fill="#F8F8F8" height="5" style="stroke: #383838; stroke-width: 1.0;" width="10" x="855.5" y="601.585"/><rect fill="#F8F8F8" height="5" style="stroke: #383838; stroke-width: 1.0;" width="10" x="855.5" y="621.0694"/><text fill="#000000" font-family="Tahoma, sans-serif" font-size="12" lengthAdjust="spacingAndGlyphs" textLength="31" x="870.5" y="618.5909">redux</text><!--entity redux-persist--><rect fill="#F8F8F8" height="34.4844" rx="2" ry="2" style="stroke: #383838; stroke-width: 1.0;" width="95" x="838.5" y="542.59"/><rect fill="#F8F8F8" height="5" style="stroke: #383838; stroke-width: 1.0;" width="10" x="833.5" y="547.59"/><rect fill="#F8F8F8" height="5" style="stroke: #383838; stroke-width: 1.0;" width="10" x="833.5" y="567.0744"/><text fill="#000000" font-family="Tahoma, sans-serif" font-size="12" lengthAdjust="spacingAndGlyphs" textLength="75" x="848.5" y="564.5959">redux-persist</text><!--entity styled-components--><rect fill="#F8F8F8" height="34.4844" rx="2" ry="2" style="stroke: #383838; stroke-width: 1.0;" width="132" x="820" y="866.585"/><rect fill="#F8F8F8" height="5" style="stroke: #383838; stroke-width: 1.0;" width="10" x="815" y="871.585"/><rect fill="#F8F8F8" height="5" style="stroke: #383838; stroke-width: 1.0;" width="10" x="815" y="891.0694"/><text fill="#000000" font-family="Tahoma, sans-serif" font-size="12" lengthAdjust="spacingAndGlyphs" textLength="112" x="830" y="888.5909">styled-components</text><!--entity styled-reset--><rect fill="#F8F8F8" height="34.4844" rx="2" ry="2" style="stroke: #383838; stroke-width: 1.0;" width="88" x="842" y="488.59"/><rect fill="#F8F8F8" height="5" style="stroke: #383838; stroke-width: 1.0;" width="10" x="837" y="493.59"/><rect fill="#F8F8F8" height="5" style="stroke: #383838; stroke-width: 1.0;" width="10" x="837" y="513.0744"/><text fill="#000000" font-family="Tahoma, sans-serif" font-size="12" lengthAdjust="spacingAndGlyphs" textLength="68" x="852" y="510.5959">styled-reset</text><!--entity _actions--><rect fill="#F8F8F8" height="34.4844" rx="2" ry="2" style="stroke: #000000; stroke-width: 0.5;" width="63" x="453" y="452.59"/><text fill="#000000" font-family="Tahoma, sans-serif" font-size="12" lengthAdjust="spacingAndGlyphs" textLength="43" x="463" y="474.5959">actions</text><!--entity _app--><rect fill="#F8F8F8" height="34.4844" rx="2" ry="2" style="stroke: #000000; stroke-width: 0.5;" width="41" x="32.5" y="896.585"/><text fill="#000000" font-family="Tahoma, sans-serif" font-size="12" lengthAdjust="spacingAndGlyphs" textLength="21" x="42.5" y="918.5909">app</text><!--entity _container--><rect fill="#F8F8F8" height="34.4844" rx="2" ry="2" style="stroke: #000000; stroke-width: 0.5;" width="74" x="591.5" y="1328.585"/><text fill="#000000" font-family="Tahoma, sans-serif" font-size="12" lengthAdjust="spacingAndGlyphs" textLength="54" x="601.5" y="1350.5909">container</text><!--entity _editor_index--><rect fill="#F8F8F8" height="34.4844" rx="2" ry="2" style="stroke: #000000; stroke-width: 0.5;" width="88" x="140" y="1400.585"/><text fill="#000000" font-family="Tahoma, sans-serif" font-size="12" lengthAdjust="spacingAndGlyphs" textLength="68" x="150" y="1422.5909">editor/index</text><!--entity _logo--><rect fill="#F8F8F8" height="34.4844" rx="2" ry="2" style="stroke: #000000; stroke-width: 0.5;" width="46" x="605.5" y="668.585"/><text fill="#000000" font-family="Tahoma, sans-serif" font-size="12" lengthAdjust="spacingAndGlyphs" textLength="26" x="615.5" y="690.5909">logo</text><ellipse cx="335.189" cy="1538.423" fill="#F8F8F8" rx="67.189" ry="15.8378" style="stroke: #383838; stroke-width: 0.5;"/><text fill="#000000" font-family="Tahoma, sans-serif" font-size="12" lengthAdjust="spacingAndGlyphs" textLength="106" x="282.189" y="1542.1652">plantuml-language</text><!--entity _preview--><rect fill="#F8F8F8" height="34.4844" rx="2" ry="2" style="stroke: #000000; stroke-width: 0.5;" width="63" x="152.5" y="800.585"/><text fill="#000000" font-family="Tahoma, sans-serif" font-size="12" lengthAdjust="spacingAndGlyphs" textLength="43" x="162.5" y="822.5909">preview</text><!--entity _readme--><rect fill="#F8F8F8" height="34.4844" rx="2" ry="2" style="stroke: #000000; stroke-width: 0.5;" width="63" x="597" y="1124.585"/><text fill="#000000" font-family="Tahoma, sans-serif" font-size="12" lengthAdjust="spacingAndGlyphs" textLength="43" x="607" y="1146.5909">readme</text><!--entity _reducer--><rect fill="#F8F8F8" height="34.4844" rx="2" ry="2" style="stroke: #000000; stroke-width: 0.5;" width="63" x="597" y="374.59"/><text fill="#000000" font-family="Tahoma, sans-serif" font-size="12" lengthAdjust="spacingAndGlyphs" textLength="43" x="607" y="396.5959">reducer</text><!--entity _responsive_image--><rect fill="#F8F8F8" height="34.4844" rx="2" ry="2" style="stroke: #000000; stroke-width: 0.5;" width="123" x="567" y="944.585"/><text fill="#000000" font-family="Tahoma, sans-serif" font-size="12" lengthAdjust="spacingAndGlyphs" textLength="103" x="577" y="966.5909">responsive-image</text><!--entity _section--><rect fill="#F8F8F8" height="34.4844" rx="2" ry="2" style="stroke: #000000; stroke-width: 0.5;" width="63" x="597" y="1190.585"/><text fill="#000000" font-family="Tahoma, sans-serif" font-size="12" lengthAdjust="spacingAndGlyphs" textLength="43" x="607" y="1212.5909">section</text><!--entity _spinner--><rect fill="#F8F8F8" height="34.4844" rx="2" ry="2" style="stroke: #000000; stroke-width: 0.5;" width="62" x="597.5" y="848.585"/><text fill="#000000" font-family="Tahoma, sans-serif" font-size="12" lengthAdjust="spacingAndGlyphs" textLength="42" x="607.5" y="870.5909">spinner</text><ellipse cx="52.8406" cy="211.832" fill="#F8F8F8" rx="46.8406" ry="13.242" style="stroke: #383838; stroke-width: 0.5;"/><text fill="#000000" font-family="Tahoma, sans-serif" font-size="12" font-weight="bold" lengthAdjust="spacingAndGlyphs" textLength="62" x="21.8406" y="215.5742">src/index</text><!--entity _stars--><rect fill="#F8F8F8" height="34.4844" rx="2" ry="2" style="stroke: #000000; stroke-width: 0.5;" width="49" x="604" y="1268.585"/><text fill="#000000" font-family="Tahoma, sans-serif" font-size="12" lengthAdjust="spacingAndGlyphs" textLength="29" x="614" y="1290.5909">stars</text><!--entity _store_index--><rect fill="#F8F8F8" height="34.4844" rx="2" ry="2" style="stroke: #000000; stroke-width: 0.5;" width="85" x="442" y="146.59"/><text fill="#000000" font-family="Tahoma, sans-serif" font-size="12" lengthAdjust="spacingAndGlyphs" textLength="65" x="452" y="168.5959">store/index</text><!--entity _switcher--><rect fill="#F8F8F8" height="34.4844" rx="2" ry="2" style="stroke: #000000; stroke-width: 0.5;" width="68" x="301" y="626.585"/><text fill="#000000" font-family="Tahoma, sans-serif" font-size="12" lengthAdjust="spacingAndGlyphs" textLength="48" x="311" y="648.5909">switcher</text><!--entity _theme--><rect fill="#F8F8F8" height="34.4844" rx="2" ry="2" style="stroke: #000000; stroke-width: 0.5;" width="56" x="600.5" y="290.59"/><text fill="#000000" font-family="Tahoma, sans-serif" font-size="12" lengthAdjust="spacingAndGlyphs" textLength="36" x="610.5" y="312.5959">theme</text><!--link _actions to arkit-encoder-decoder--><path d="M516.044,462.03 C587.949,444.42 762.582,402.8 772,411.59 C809.308,446.38 755.744,601.065 788,640.585 C793.217,646.978 799.809,651.931 807.09,655.758 " fill="none" id="_actions-arkit-encoder-decoder" style="stroke: #000000; stroke-width: 0.55;"/><polygon fill="#000000" points="811.706,657.998,805.3561,650.4695,807.2079,655.8147,801.8627,657.6665,811.706,657.998" style="stroke: #000000; stroke-width: 0.55;"/><!--link _actions to _reducer--><path d="M516.312,458.97 C541.96,446.59 578.04,426.64 602.066,411.47 " fill="none" id="_actions-_reducer" style="stroke: #000000; stroke-width: 0.55;"/><polygon fill="#000000" points="606.406,408.69,596.6683,410.1654,602.1927,411.3822,600.9758,416.9067,606.406,408.69" style="stroke: #000000; stroke-width: 0.55;"/><!--link _reducer to _actions--><path d="M596.746,402.17 C571.045,414.57 534.839,434.6 510.795,449.79 " fill="none" id="_reducer-_actions" style="stroke: #000000; stroke-width: 0.55;"/><polygon fill="#000000" points="506.453,452.57,516.19,451.0899,510.665,449.8757,511.8792,444.3507,506.453,452.57" style="stroke: #000000; stroke-width: 0.55;"/><!--link _app to _container--><path d="M55.2338,930.916 C59.3258,976.653 76.0862,1102.386 140,1179.585 C254.855,1318.314 490.807,1341.501 586.162,1345.083 " fill="none" id="_app-_container" style="stroke: #000000; stroke-width: 0.55;"/><polygon fill="#000000" points="591.417,1345.266,582.5607,1340.9573,586.42,1345.0931,582.2841,1348.9525,591.417,1345.266" style="stroke: #000000; stroke-width: 0.55;"/><!--link _app to _editor_index--><path d="M56.2324,930.683 C63.934,987.482 91.6106,1174.658 140,1322.585 C148.51,1348.6 161.966,1377.021 171.558,1395.933 " fill="none" id="_app-_editor_index" style="stroke: #000000; stroke-width: 0.55;"/><polygon fill="#000000" points="173.908,1400.529,173.3728,1390.6947,171.632,1396.077,166.2497,1394.3363,173.908,1400.529" style="stroke: #000000; stroke-width: 0.55;"/><!--link _app to _logo--><path d="M53.8233,896.417 C54.3248,848.188 62.779,710.515 140,641.585 C274.107,521.88 519.447,630.045 600.626,671.231 " fill="none" id="_app-_logo" style="stroke: #000000; stroke-width: 0.55;"/><polygon fill="#000000" points="605.28,673.61,599.0873,665.9517,600.828,671.334,595.4457,673.0748,605.28,673.61" style="stroke: #000000; stroke-width: 0.55;"/><!--link _app to _preview--><path d="M73.5923,899.005 C95.4465,882.741 130.955,856.316 155.566,838.001 " fill="none" id="_app-_preview" style="stroke: #000000; stroke-width: 0.55;"/><polygon fill="#000000" points="159.723,834.908,150.115,837.0729,155.7121,837.8934,154.8916,843.4904,159.723,834.908" style="stroke: #000000; stroke-width: 0.55;"/><!--link _app to react--><path d="M73.6147,924.149 C156.198,967.053 480.978,1119.855 690,988.585 C707.549,977.564 759.247,837.653 771,820.585 C777.241,811.522 778.577,808.268 788,802.585 C808.975,789.935 836.05,783.044 856.263,779.397 " fill="none" id="_app-react" style="stroke: #000000; stroke-width: 0.55;"/><polygon fill="#000000" points="861.246,778.538,851.697,776.1262,856.3188,779.388,853.057,784.0098,861.246,778.538" style="stroke: #000000; stroke-width: 0.55;"/><!--link _app to react-redux--><path d="M61.39,896.574 C73.7847,870.02 101.2666,818.839 140,790.585 C300.48,673.524 370.589,688.251 567,658.585 C621.054,650.421 636.172,649.048 690,658.585 C728.212,665.356 735.609,675.105 772,688.585 C779.122,691.223 780.779,692.231 788,694.585 C804.267,699.888 822.274,705.083 838.313,709.477 " fill="none" id="_app-react-redux" style="stroke: #000000; stroke-width: 0.55;"/><polygon fill="#000000" points="843.223,710.814,835.5887,704.5917,838.3984,709.5014,833.4886,712.3111,843.223,710.814" style="stroke: #000000; stroke-width: 0.55;"/><!--link _app to _readme--><path d="M62.3595,930.704 C75.2988,955.17 102.6372,999.505 140,1020.585 C291.149,1105.862 365.049,1010.215 527,1072.585 C556.195,1083.829 585.183,1105.094 604.468,1121.058 " fill="none" id="_app-_readme" style="stroke: #000000; stroke-width: 0.55;"/><polygon fill="#000000" points="608.674,1124.582,604.3463,1115.7349,604.8422,1121.37,599.2071,1121.8659,608.674,1124.582" style="stroke: #000000; stroke-width: 0.55;"/><!--link _app to _reducer--><path d="M56.0452,896.424 C62.3929,847.776 84.7519,705.811 140,602.585 C181.038,525.91 197.601,505.64 268,454.59 C364.814,384.37 407.551,375.66 527,381.59 C548.45,382.65 572.381,384.98 591.508,387.13 " fill="none" id="_app-_reducer" style="stroke: #000000; stroke-width: 0.55;"/><polygon fill="#000000" points="596.769,387.73,588.2806,382.7353,591.8012,387.1631,587.3735,390.6837,596.769,387.73" style="stroke: #000000; stroke-width: 0.55;"/><!--link _app to _section--><path d="M59.3185,930.891 C69.6583,961.549 95.4535,1025.298 140,1058.585 C282.131,1164.793 360.87,1094.279 527,1156.585 C549.8,1165.136 574.183,1177.426 593.222,1187.799 " fill="none" id="_app-_section" style="stroke: #000000; stroke-width: 0.55;"/><polygon fill="#000000" points="597.944,1190.391,591.981,1182.5524,593.5615,1187.984,588.1299,1189.5645,597.944,1190.391" style="stroke: #000000; stroke-width: 0.55;"/><!--link _app to _stars--><path d="M56.7382,930.799 C63.6676,968.796 85.392,1060.515 140,1111.585 C277.44,1240.121 516.215,1274.799 598.585,1283.165 " fill="none" id="_app-_stars" style="stroke: #000000; stroke-width: 0.55;"/><polygon fill="#000000" points="603.782,1283.679,595.2201,1278.8113,598.8063,1283.1861,594.4315,1286.7724,603.782,1283.679" style="stroke: #000000; stroke-width: 0.55;"/><!--link _app to _switcher--><path d="M54.5972,896.518 C57.1319,852.302 70.416,733.457 140,675.585 C183.756,639.194 252.802,636.63 295.639,639.268 " fill="none" id="_app-_switcher" style="stroke: #000000; stroke-width: 0.55;"/><polygon fill="#000000" points="300.729,639.614,292.0205,635.0138,295.7405,639.2754,291.4788,642.9954,300.729,639.614" style="stroke: #000000; stroke-width: 0.55;"/><!--link _container to styled-components--><path d="M665.777,1330.702 C674.497,1325.88 683.235,1319.855 690,1312.585 C749.888,1248.23 750.276,1217.769 772,1132.585 C784.223,1084.658 756.683,948.869 788,910.585 C795.007,902.02 804.479,896.04 814.77,891.89 " fill="none" id="_container-styled-components" style="stroke: #000000; stroke-width: 0.55;"/><polygon fill="#000000" points="819.55,890.109,809.7198,889.5028,814.8646,891.8546,812.5128,896.9994,819.55,890.109" style="stroke: #000000; stroke-width: 0.55;"/><!--link _editor_index to _actions--><path d="M186.355,1400.562 C195.386,1287.768 247.123,651.596 268,616.585 C309.57,546.87 398.553,502.72 448.19,482.51 " fill="none" id="_editor_index-_actions" style="stroke: #000000; stroke-width: 0.55;"/><polygon fill="#000000" points="452.868,480.63,443.0256,480.2743,448.2286,482.4943,446.0085,487.6973,452.868,480.63" style="stroke: #000000; stroke-width: 0.55;"/><!--link _editor_index to plantuml-language--><path d="M197.47,1434.695 C212.454,1454.313 239.199,1486.476 268,1507.5852 C275.84,1513.3311 284.914,1518.419 293.777,1522.7266 " fill="none" id="_editor_index-plantuml-language" style="stroke: #000000; stroke-width: 0.55;"/><polygon fill="#000000" points="298.67,1525.0387,292.243,1517.5759,294.1497,1522.9017,288.8238,1524.8084,298.67,1525.0387" style="stroke: #000000; stroke-width: 0.55;"/><!--link _editor_index to react--><path d="M205.864,1400.503 C262.988,1353.849 427.009,1220.671 567,1114.585 C620.779,1073.831 647.611,1078.085 690,1025.585 C724.004,983.47 747.095,838.037 788,802.585 C806.875,786.226 834.9,779.717 855.979,777.159 " fill="none" id="_editor_index-react" style="stroke: #000000; stroke-width: 0.55;"/><polygon fill="#000000" points="861.179,776.591,851.797,773.5945,856.2087,777.1353,852.6679,781.547,861.179,776.591" style="stroke: #000000; stroke-width: 0.55;"/><!--link _editor_index to react-monaco-editor--><path d="M207.995,1434.729 C223.958,1445.629 246.195,1458.907 268,1465.585 C366.557,1495.7726 645.874,1551.7098 731,1493.5852 C860.16,1405.394 881,1191.291 884.357,1121.78 " fill="none" id="_editor_index-react-monaco-editor" style="stroke: #000000; stroke-width: 0.55;"/><polygon fill="#000000" points="884.586,1116.646,880.1914,1125.4601,884.3646,1121.6411,888.1836,1125.8143,884.586,1116.646" style="stroke: #000000; stroke-width: 0.55;"/><!--link _editor_index to react-redux--><path d="M188.731,1434.73 C196.782,1466.999 219.15,1536.0684 268,1564.5852 C319.433,1594.6101 355.455,1601.739 402,1564.5852 C660.609,1358.156 352.879,1090.862 567,838.585 C636.284,756.955 767.792,732.257 838.024,724.799 " fill="none" id="_editor_index-react-redux" style="stroke: #000000; stroke-width: 0.55;"/><polygon fill="#000000" points="843.386,724.251,834.0258,721.1871,838.4119,724.7595,834.8395,729.1456,843.386,724.251" style="stroke: #000000; stroke-width: 0.55;"/><!--link _editor_index to _reducer--><path d="M186.177,1400.565 C194.431,1281.932 244.03,582.17 268,544.59 C316.198,469 359.409,477.43 442,442.59 C492.213,421.4 553.779,406.5 591.825,398.48 " fill="none" id="_editor_index-_reducer" style="stroke: #000000; stroke-width: 0.55;"/><polygon fill="#000000" points="596.804,397.44,587.1771,395.3608,591.9092,398.4603,588.8097,403.1924,596.804,397.44" style="stroke: #000000; stroke-width: 0.55;"/><!--link _editor_index to styled-components--><path d="M228.17,1427.587 C322.604,1446.788 550.226,1478.154 690,1372.585 C730.638,1341.892 713.948,1313.573 731,1265.585 C750.577,1210.493 760.774,1197.965 772,1140.585 C776.918,1115.445 771.805,930.434 788,910.585 C794.996,902.011 804.463,896.027 814.752,891.875 " fill="none" id="_editor_index-styled-components" style="stroke: #000000; stroke-width: 0.55;"/><polygon fill="#000000" points="819.531,890.094,809.7008,889.4878,814.8456,891.8396,812.4938,896.9844,819.531,890.094" style="stroke: #000000; stroke-width: 0.55;"/><!--link _logo to styled-components--><path d="M640.551,702.822 C663.625,737.391 720.427,815.397 788,856.585 C796.262,861.621 805.486,865.742 814.87,869.107 " fill="none" id="_logo-styled-components" style="stroke: #000000; stroke-width: 0.55;"/><polygon fill="#000000" points="819.787,870.799,812.5765,864.0902,815.0586,869.1734,809.9755,871.6555,819.787,870.799" style="stroke: #000000; stroke-width: 0.55;"/><!--link _preview to _actions--><path d="M186.62,800.443 C191.458,758.05 209.325,646.864 268,579.59 C316.615,523.84 400.307,492.74 447.822,478.75 " fill="none" id="_preview-_actions" style="stroke: #000000; stroke-width: 0.55;"/><polygon fill="#000000" points="452.869,477.29,443.1116,475.9513,448.0663,478.6808,445.3368,483.6355,452.869,477.29" style="stroke: #000000; stroke-width: 0.55;"/><!--link _preview to react--><path d="M215.528,815.754 C331.445,808.799 743.464,784.077 856.267,777.309 " fill="none" id="_preview-react" style="stroke: #000000; stroke-width: 0.55;"/><polygon fill="#000000" points="861.41,777.001,852.1872,773.5455,856.4189,777.2996,852.6649,781.5313,861.41,777.001" style="stroke: #000000; stroke-width: 0.55;"/><!--link _preview to react-redux--><path d="M215.531,807.54 C231.122,802.627 250.456,796.866 268,792.585 C280.687,789.489 716.998,706.799 730,705.585 C766.284,702.199 807.3,706.806 838.022,711.933 " fill="none" id="_preview-react-redux" style="stroke: #000000; stroke-width: 0.55;"/><polygon fill="#000000" points="843.247,712.826,835.0501,707.3661,838.3185,711.9832,833.7015,715.2517,843.247,712.826" style="stroke: #000000; stroke-width: 0.55;"/><!--link _preview to _reducer--><path d="M185.738,800.444 C188.612,752.016 202.456,611.842 268,521.59 C322.613,446.38 354.122,435.85 442,405.59 C491.769,388.45 553.356,387.46 591.54,389 " fill="none" id="_preview-_reducer" style="stroke: #000000; stroke-width: 0.55;"/><polygon fill="#000000" points="596.999,389.24,588.186,384.8432,592.004,389.0174,587.8298,392.8353,596.999,389.24" style="stroke: #000000; stroke-width: 0.55;"/><!--link _preview to _responsive_image--><path d="M215.787,831.966 C231.277,838.936 250.446,847.167 268,853.585 C369.013,890.52 489.198,924.719 561.852,944.359 " fill="none" id="_preview-_responsive_image" style="stroke: #000000; stroke-width: 0.55;"/><polygon fill="#000000" points="567,945.748,559.3515,939.5431,562.1724,944.4464,557.269,947.2673,567,945.748" style="stroke: #000000; stroke-width: 0.55;"/><!--link _preview to _spinner--><path d="M215.621,824.259 C231.234,827.466 250.561,831.135 268,833.585 C385.991,850.165 527.047,859.77 591.802,863.614 " fill="none" id="_preview-_spinner" style="stroke: #000000; stroke-width: 0.55;"/><polygon fill="#000000" points="597.08,863.924,588.331,859.4012,592.0887,863.6297,587.8602,867.3874,597.08,863.924" style="stroke: #000000; stroke-width: 0.55;"/><!--link _readme to arkit--><path d="M660.139,1157.14 C692.233,1170.98 742.053,1185.152 772,1157.585 C803.663,1128.438 760.572,997.749 788,964.585 C805.018,944.009 836.263,938.375 858.698,937.177 " fill="none" id="_readme-arkit" style="stroke: #000000; stroke-width: 0.55;"/><polygon fill="#000000" points="863.912,936.969,854.7602,933.3296,858.9159,937.1676,855.078,941.3233,863.912,936.969" style="stroke: #000000; stroke-width: 0.55;"/><!--link _readme to react--><path d="M653.554,1124.486 C665.662,1114.966 679.877,1102.287 690,1088.585 C742.962,1016.903 746.712,991.048 772,905.585 C785.144,861.162 757.22,837.208 788,802.585 C804.989,783.476 834.232,777.389 856.179,775.682 " fill="none" id="_readme-react" style="stroke: #000000; stroke-width: 0.55;"/><polygon fill="#000000" points="861.306,775.351,852.0674,771.938,856.3163,775.6725,852.5818,779.9214,861.306,775.351" style="stroke: #000000; stroke-width: 0.55;"/><!--link _readme to react-markdown--><path d="M655.649,1158.766 C679.948,1174.339 714.627,1195.468 730,1199.585 C748.031,1204.415 758.232,1212.19 772,1199.585 C801.783,1172.319 762.181,1049.631 788,1018.585 C797.208,1007.513 810.535,1000.771 824.377,996.719 " fill="none" id="_readme-react-markdown" style="stroke: #000000; stroke-width: 0.55;"/><polygon fill="#000000" points="829.493,995.344,819.7635,993.8152,824.6641,996.6408,821.8385,1001.5414,829.493,995.344" style="stroke: #000000; stroke-width: 0.55;"/><!--link _readme to styled-components--><path d="M660.179,1145.743 C693.04,1148.288 744.202,1146.392 772,1115.585 C802.612,1081.661 758.963,945.867 788,910.585 C795.032,902.041 804.518,896.071 814.814,891.925 " fill="none" id="_readme-styled-components" style="stroke: #000000; stroke-width: 0.55;"/><polygon fill="#000000" points="819.595,890.146,809.7651,889.5345,814.9087,891.8891,812.5541,897.0326,819.595,890.146" style="stroke: #000000; stroke-width: 0.55;"/><!--link _reducer to arkit-encoder-decoder--><path d="M645.133,374.4 C673.608,345.09 734.449,291.9 772,327.59 C797.244,351.57 766.234,613.403 788,640.585 C793.158,647.026 799.711,652.01 806.97,655.854 " fill="none" id="_reducer-arkit-encoder-decoder" style="stroke: #000000; stroke-width: 0.55;"/><polygon fill="#000000" points="811.575,658.104,805.2453,650.5585,807.0828,655.9086,801.7326,657.746,811.575,658.104" style="stroke: #000000; stroke-width: 0.55;"/><!--link _reducer to redux--><path d="M648.337,374.39 C684.516,341.82 761.121,275.27 772,285.59 C796.303,308.63 767.039,560.46 788,586.59 C803.901,606.402 833.015,612.42 855.212,613.92 " fill="none" id="_reducer-redux" style="stroke: #000000; stroke-width: 0.55;"/><polygon fill="#000000" points="860.406,614.198,851.6326,609.7229,855.4131,613.9309,851.2051,617.7114,860.406,614.198" style="stroke: #000000; stroke-width: 0.55;"/><!--link _reducer to redux-persist--><path d="M648.441,374.53 C660.577,363.42 676.521,348.45 690,334.59 C727.948,295.55 732.454,206.17 772,243.59 C795.361,265.69 767.845,507.52 788,532.59 C798.97,546.23 816.201,553.33 833.115,556.92 " fill="none" id="_reducer-redux-persist" style="stroke: #000000; stroke-width: 0.55;"/><polygon fill="#000000" points="838.347,557.92,830.2619,552.2958,833.4366,556.9779,828.7545,560.1525,838.347,557.92" style="stroke: #000000; stroke-width: 0.55;"/><!--link _responsive_image to styled-components--><path d="M643.874,978.587 C671.316,1009.057 731.994,1066.649 772,1031.585 C812.794,995.83 752.419,951.532 788,910.585 C795.258,902.232 804.858,896.359 815.198,892.251 " fill="none" id="_responsive_image-styled-components" style="stroke: #000000; stroke-width: 0.55;"/><polygon fill="#000000" points="819.995,890.485,810.1672,889.8406,815.3029,892.2124,812.9311,897.348,819.995,890.485" style="stroke: #000000; stroke-width: 0.55;"/><!--link _section to styled-components--><path d="M660.03,1198.32 C693.785,1186.314 746.725,1161.869 772,1120.585 C796.437,1080.67 758.293,946.75 788,910.585 C795.024,902.034 804.506,896.061 814.8,891.914 " fill="none" id="_section-styled-components" style="stroke: #000000; stroke-width: 0.55;"/><polygon fill="#000000" points="819.581,890.135,809.751,889.5261,814.8951,891.8793,812.5419,897.0235,819.581,890.135" style="stroke: #000000; stroke-width: 0.55;"/><!--link _spinner to react-loader-spinner--><path d="M659.56,861.35 C696.864,856.094 761.732,846.954 812.337,839.823 " fill="none" id="_spinner-react-loader-spinner" style="stroke: #000000; stroke-width: 0.55;"/><polygon fill="#000000" points="817.499,839.096,808.0285,836.3925,812.548,839.7945,809.1461,844.3141,817.499,839.096" style="stroke: #000000; stroke-width: 0.55;"/><!--link _spinner to styled-components--><path d="M659.564,880.983 C669.345,886.126 680.203,891.979 690,897.585 C726.719,918.598 730.301,936.035 771,947.585 C788.41,952.526 774.359,922.478 788,910.585 C795.813,903.773 805.21,898.669 815.04,894.845 " fill="none" id="_spinner-styled-components" style="stroke: #000000; stroke-width: 0.55;"/><polygon fill="#000000" points="819.895,893.07,810.0687,892.4043,815.1991,894.7872,812.8162,899.9177,819.895,893.07" style="stroke: #000000; stroke-width: 0.55;"/><!--link <b>src/index</b> to _app--><path d="M53,224.63 C53,446.82 53,669.008 53,891.198 " fill="none" id="&lt;b&gt;src/index&lt;/b&gt;-_app" style="stroke: #000000; stroke-width: 1.0;"/><polygon fill="#000000" points="53,896.447,57,887.447,53,891.447,49,887.447,53,896.447" style="stroke: #000000; stroke-width: 1.0;"/><!--link <b>src/index</b> to react--><path d="M83.6298,221.46 C161.599,248.39 376.799,328.71 527,442.59 C635.619,524.93 642.434,567.97 731,671.585 C749.673,693.43 755.516,698.045 772,721.585 C780.001,733.011 776.927,740.103 788,748.585 C807.701,763.676 835.383,770.333 856.135,773.269 " fill="none" id="&lt;b&gt;src/index&lt;/b&gt;-react" style="stroke: #000000; stroke-width: 1.0;"/><polygon fill="#000000" points="861.252,773.938,852.847,768.8042,856.2943,773.2893,851.8091,776.7366,861.252,773.938" style="stroke: #000000; stroke-width: 1.0;"/><!--link <b>src/index</b> to react-dom--><path d="M62.4281,198.82 C93.0481,154.16 203.486,7.59 334,7.59 C334,7.59 334,7.59 731,7.59 C821.294,7.59 870.573,339.5 882.261,429.37 " fill="none" id="&lt;b&gt;src/index&lt;/b&gt;-react-dom" style="stroke: #000000; stroke-width: 1.0;"/><polygon fill="#000000" points="882.915,434.45,885.7247,425.0104,882.2722,429.4915,877.7911,426.039,882.915,434.45" style="stroke: #000000; stroke-width: 1.0;"/><!--link <b>src/index</b> to _store_index--><path d="M91.1306,203.91 C106.241,200.99 123.906,197.83 140,195.59 C245.656,180.87 370.567,171.14 436.796,166.58 " fill="none" id="&lt;b&gt;src/index&lt;/b&gt;-_store_index" style="stroke: #000000; stroke-width: 1.0;"/><polygon fill="#000000" points="441.852,166.24,432.5997,162.8642,436.8637,166.5816,433.1463,170.8455,441.852,166.24" style="stroke: #000000; stroke-width: 1.0;"/><!--link <b>src/index</b> to _theme--><path d="M100.0333,211.72 C167.056,212.67 295.162,217.28 402,237.59 C472.574,251 552.197,278.85 595.408,295.09 " fill="none" id="&lt;b&gt;src/index&lt;/b&gt;-_theme" style="stroke: #000000; stroke-width: 1.0;"/><polygon fill="#000000" points="600.239,296.91,593.2346,289.9863,595.562,295.1422,590.406,297.4695,600.239,296.91" style="stroke: #000000; stroke-width: 1.0;"/><!--link _stars to react--><path d="M653.05,1271.05 C665.778,1262.039 680.74,1249.372 690,1234.585 C768.612,1109.06 742.984,1056.825 772,911.585 C776.796,887.578 771.811,820.95 788,802.585 C804.909,783.405 834.163,777.328 856.134,775.643 " fill="none" id="_stars-react" style="stroke: #000000; stroke-width: 0.55;"/><polygon fill="#000000" points="861.268,775.318,852.0334,771.8943,856.278,775.6337,852.5385,779.8783,861.268,775.318" style="stroke: #000000; stroke-width: 0.55;"/><!--link _stars to react-github-btn--><path d="M653.034,1279.436 C685.678,1269.568 743.854,1246.87 772,1204.585 C804.745,1155.39 749.48,1117.403 788,1072.585 C797.437,1061.605 810.922,1054.903 824.847,1050.861 " fill="none" id="_stars-react-github-btn" style="stroke: #000000; stroke-width: 0.55;"/><polygon fill="#000000" points="829.991,1049.49,820.2642,1047.9444,825.1599,1050.7785,822.3258,1055.6742,829.991,1049.49" style="stroke: #000000; stroke-width: 0.55;"/><!--link _stars to styled-components--><path d="M653.195,1268.583 C687.194,1242.542 748.326,1189.165 772,1126.585 C789.031,1081.567 757.488,947.81 788,910.585 C795.015,902.027 804.492,896.05 814.785,891.902 " fill="none" id="_stars-styled-components" style="stroke: #000000; stroke-width: 0.55;"/><polygon fill="#000000" points="819.565,890.122,809.735,889.5131,814.8791,891.8663,812.5259,897.0105,819.565,890.122" style="stroke: #000000; stroke-width: 0.55;"/><!--link _store_index to react--><path d="M511.225,180.76 C527.101,191.17 547.997,204.53 567,215.59 C620.44,246.68 645.723,237.43 690,280.59 C716.647,306.56 717.254,319.01 731,353.59 C758.753,423.4 760.248,443.38 772,517.59 C776.024,543 771.738,728.648 788,748.585 C804.264,768.524 833.895,774.46 856.143,775.904 " fill="none" id="_store_index-react" style="stroke: #000000; stroke-width: 0.55;"/><polygon fill="#000000" points="861.341,776.17,852.556,771.7175,856.3475,775.9158,852.1492,779.7072,861.341,776.17" style="stroke: #000000; stroke-width: 0.55;"/><!--link _store_index to react-redux--><path d="M527.023,165.88 C581.182,171.09 675.541,188.1 731,243.59 C772.633,285.24 761.347,311.67 772,369.59 C778.54,405.14 765.428,666.342 788,694.585 C799.971,709.563 819.491,716.663 837.893,719.886 " fill="none" id="_store_index-react-redux" style="stroke: #000000; stroke-width: 0.55;"/><polygon fill="#000000" points="843.047,720.695,834.7765,715.3473,838.1075,719.9194,833.5354,723.2504,843.047,720.695" style="stroke: #000000; stroke-width: 0.55;"/><!--link _store_index to _reducer--><path d="M491.26,180.74 C502.557,212.89 529.801,283.56 567,334.59 C576.853,348.1 590.185,361.06 601.826,371.2 " fill="none" id="_store_index-_reducer" style="stroke: #000000; stroke-width: 0.55;"/><polygon fill="#000000" points="605.702,374.53,601.4719,365.6359,601.9057,371.276,596.2655,371.7099,605.702,374.53" style="stroke: #000000; stroke-width: 0.55;"/><!--link _store_index to redux--><path d="M527.256,154.51 C590.606,143.48 710.155,133.89 772,201.59 C800.877,233.2 761.398,553.04 788,586.59 C803.786,606.493 832.915,612.499 855.147,613.971 " fill="none" id="_store_index-redux" style="stroke: #000000; stroke-width: 0.55;"/><polygon fill="#000000" points="860.351,614.243,851.5724,609.778,855.3578,613.9816,851.1542,617.7671,860.351,614.243" style="stroke: #000000; stroke-width: 0.55;"/><!--link _store_index to redux-persist--><path d="M508.347,146.44 C523.963,135.83 545.629,123.2 567,117.59 C655.121,94.43 706.345,54.41 772,117.59 C805.252,149.58 759.383,496.38 788,532.59 C798.905,546.38 816.217,553.5 833.217,557.07 " fill="none" id="_store_index-redux-persist" style="stroke: #000000; stroke-width: 0.55;"/><polygon fill="#000000" points="838.476,558.06,830.3767,552.4563,833.5632,557.1303,828.8892,560.3167,838.476,558.06" style="stroke: #000000; stroke-width: 0.55;"/><!--link _switcher to _actions--><path d="M369.13,633.393 C380.813,628.406 393.214,621.323 402,611.585 C436.848,572.96 411.295,543.58 442,501.59 C444.98,497.51 448.619,493.7 452.49,490.22 " fill="none" id="_switcher-_actions" style="stroke: #000000; stroke-width: 0.55;"/><polygon fill="#000000" points="456.424,486.87,446.9775,489.6562,452.6161,490.1103,452.162,495.7489,456.424,486.87" style="stroke: #000000; stroke-width: 0.55;"/><!--link _switcher to react--><path d="M369.082,637.726 C433.677,627.817 579.886,612.986 690,658.585 C744.637,681.211 736.308,719.862 788,748.585 C809.411,760.482 836.445,767.445 856.531,771.31 " fill="none" id="_switcher-react" style="stroke: #000000; stroke-width: 0.55;"/><polygon fill="#000000" points="861.48,772.227,853.36,766.6533,856.5638,771.3155,851.9016,774.5192,861.48,772.227" style="stroke: #000000; stroke-width: 0.55;"/><!--link _switcher to react-redux--><path d="M369.253,632.553 C379.736,629.061 391.357,625.176 402,621.585 C566.602,566.05 644.335,377.77 772,495.59 C804.604,525.67 759.768,660.363 788,694.585 C800.202,709.376 819.755,716.449 838.12,719.702 " fill="none" id="_switcher-react-redux" style="stroke: #000000; stroke-width: 0.55;"/><polygon fill="#000000" points="843.261,720.521,835.003,715.1539,838.3234,719.7338,833.7435,723.0541,843.261,720.521" style="stroke: #000000; stroke-width: 0.55;"/><!--link _switcher to _reducer--><path d="M369.23,632.039 C380.524,626.993 392.642,620.221 402,611.585 C427.768,587.81 416.879,568.05 442,543.59 C472.928,513.47 492.797,522.92 527,496.59 C559.75,471.37 591.736,435.43 610.527,412.82 " fill="none" id="_switcher-_reducer" style="stroke: #000000; stroke-width: 0.55;"/><polygon fill="#000000" points="613.879,408.76,605.0628,413.1504,610.6943,412.6145,611.2301,418.246,613.879,408.76" style="stroke: #000000; stroke-width: 0.55;"/><!--link _switcher to styled-components--><path d="M346.958,660.723 C376.661,705.776 463.476,828.476 567,892.585 C577.089,898.833 762.229,959.319 772,952.585 C788.448,941.25 773.237,924.042 788,910.585 C795.716,903.552 805.111,898.331 814.983,894.459 " fill="none" id="_switcher-styled-components" style="stroke: #000000; stroke-width: 0.55;"/><polygon fill="#000000" points="819.862,892.665,810.0345,892.017,815.1692,894.3907,812.7956,899.5254,819.862,892.665" style="stroke: #000000; stroke-width: 0.55;"/><!--link _theme to react--><path d="M656.521,317.23 C679.749,326.91 712.364,344.07 731,369.59 C776.337,431.65 759.943,461.68 772,537.59 C775.688,560.81 773.079,730.415 788,748.585 C804.329,768.471 833.95,774.415 856.179,775.876 " fill="none" id="_theme-react" style="stroke: #000000; stroke-width: 0.55;"/><polygon fill="#000000" points="861.372,776.145,852.5909,771.685,856.3787,775.8865,852.1772,779.6743,861.372,776.145" style="stroke: #000000; stroke-width: 0.55;"/><!--link _theme to styled-components--><path d="M653.946,324.69 C666.629,334.85 681.259,348.81 690,364.59 C717.011,413.34 750.088,815.723 788,856.585 C795.423,864.586 804.996,870.291 815.227,874.343 " fill="none" id="_theme-styled-components" style="stroke: #000000; stroke-width: 0.55;"/><polygon fill="#000000" points="819.969,876.09,812.9069,869.2251,815.2773,874.3613,810.1411,876.7317,819.969,876.09" style="stroke: #000000; stroke-width: 0.55;"/><!--link _theme to styled-reset--><path d="M642.427,290.45 C669.144,256.99 731.344,189.44 772,227.59 C812.759,265.83 752.791,435.18 788,478.59 C799.777,493.1 818.642,500.2 836.618,503.55 " fill="none" id="_theme-styled-reset" style="stroke: #000000; stroke-width: 0.55;"/><polygon fill="#000000" points="841.658,504.4,833.4457,498.9633,836.7272,503.5711,832.1194,506.8525,841.658,504.4" style="stroke: #000000; stroke-width: 0.55;"/><script type="text/plantuml"><![CDATA[
@startuml

scale max 1920 width
left to right direction

skinparam nodesep 20
skinparam ranksep 40
skinparam monochrome true
skinparam shadowing false
skinparam defaultFontName Tahoma
skinparam defaultFontSize 12
skinparam roundCorner 4
skinparam dpi 150
skinparam arrowColor black
skinparam arrowThickness 0.55
skinparam packageTitleAlignment left

skinparam usecase {
  borderThickness 0.5
}

skinparam rectangle {
  borderThickness 0.5
}

skinparam component {
  borderThickness 1
}


rectangle "actions" as _actions
rectangle "app" as _app
rectangle "container" as _container
rectangle "editor/index" as _editor_index
rectangle "logo" as _logo
(plantuml-language)
rectangle "preview" as _preview
rectangle "readme" as _readme
rectangle "reducer" as _reducer
rectangle "responsive-image" as _responsive_image
rectangle "section" as _section
rectangle "spinner" as _spinner
(<b>src/index</b>)
rectangle "stars" as _stars
rectangle "store/index" as _store_index
rectangle "switcher" as _switcher
rectangle "theme" as _theme

package "Dependencies" {
  [arkit]
  [arkit-encoder-decoder]
  [react]
  [react-dom]
  [react-github-btn]
  [react-loader-spinner]
  [react-markdown]
  [react-monaco-editor]
  [react-redux]
  [redux]
  [redux-persist]
  [styled-components]
  [styled-reset]
}

_actions ----> [arkit-encoder-decoder]
_actions --> _reducer
_app --> _container
_app --> _editor_index
_app --> _logo
_app --> _preview
_app ----> [react]
_app ----> [react-redux]
_app --> _readme
_app --> _reducer
_app --> _section
_app --> _stars
_app --> _switcher
_container ----> [styled-components]
_editor_index ---> _actions
_editor_index --> (plantuml-language)
_editor_index ----> [react]
_editor_index ----> [react-monaco-editor]
_editor_index ----> [react-redux]
_editor_index ---> _reducer
_editor_index ----> [styled-components]
_logo ----> [styled-components]
_preview ---> _actions
_preview ----> [react]
_preview ----> [react-redux]
_preview ---> _reducer
_preview --> _responsive_image
_preview --> _spinner
_readme ----> [arkit]
_readme ----> [react]
_readme ----> [react-markdown]
_readme ----> [styled-components]
_reducer --> _actions
_reducer ----> [arkit-encoder-decoder]
_reducer ----> [redux]
_reducer ----> [redux-persist]
_responsive_image ----> [styled-components]
_section ----> [styled-components]
_spinner ----> [react-loader-spinner]
_spinner ----> [styled-components]
(<b>src/index</b>) -[thickness=1]> _app
(<b>src/index</b>) ---[thickness=1]> [react]
(<b>src/index</b>) ---[thickness=1]> [react-dom]
(<b>src/index</b>) -[thickness=1]> _store_index
(<b>src/index</b>) -[thickness=1]> _theme
_stars ----> [react]
_stars ----> [react-github-btn]
_stars ----> [styled-components]
_store_index ----> [react]
_store_index ----> [react-redux]
_store_index --> _reducer
_store_index ----> [redux]
_store_index ----> [redux-persist]
_switcher --> _actions
_switcher ----> [react]
_switcher ----> [react-redux]
_switcher --> _reducer
_switcher ----> [styled-components]
_theme ----> [react]
_theme ----> [styled-components]
_theme ----> [styled-reset]

@enduml


' View and edit on https://arkit.pro
]]></script></g></svg>