<?xml version="1.0" encoding="UTF-8" standalone="no"?><svg xmlns="http://www.w3.org/2000/svg" xmlns:xlink="http://www.w3.org/1999/xlink" contentScriptType="application/ecmascript" contentStyleType="text/css" height="1451px" preserveAspectRatio="none" style="width:988px;height:1451px;" version="1.1" viewBox="0 0 988 1451" width="988px" zoomAndPan="magnify"><defs/><g><!--cluster Dependencies--><path d="M798,221.91 L894,221.91 A3,3 0 0 1 896,223.91 L903,242.3944 L974,242.3944 A2,2 0 0 1 976,244.3944 L976,950.911 A2,2 0 0 1 974,952.911 L798,952.911 A2,2 0 0 1 796,950.911 L796,223.91 A2,2 0 0 1 798,221.91 " fill="#FFFFFF" style="stroke: #000000; stroke-width: 1.5;"/><line style="stroke: #000000; stroke-width: 1.5;" x1="796" x2="903" y1="242.3944" y2="242.3944"/><text fill="#000000" font-family="Tahoma, sans-serif" font-size="12" font-weight="bold" lengthAdjust="spacingAndGlyphs" textLength="94" x="800" y="235.9159">Dependencies</text><!--entity arkit--><rect fill="#F8F8F8" height="34.4844" rx="2" ry="2" style="stroke: #383838; stroke-width: 1.0;" width="44" x="864" y="902.911"/><rect fill="#F8F8F8" height="5" style="stroke: #383838; stroke-width: 1.0;" width="10" x="859" y="907.911"/><rect fill="#F8F8F8" height="5" style="stroke: #383838; stroke-width: 1.0;" width="10" x="859" y="927.3954"/><text fill="#000000" font-family="Tahoma, sans-serif" font-size="12" lengthAdjust="spacingAndGlyphs" textLength="24" x="874" y="924.9169">arkit</text><!--entity arkit-encoder-decoder--><rect fill="#F8F8F8" height="34.4844" rx="2" ry="2" style="stroke: #383838; stroke-width: 1.0;" width="148" x="812" y="632.911"/><rect fill="#F8F8F8" height="5" style="stroke: #383838; stroke-width: 1.0;" width="10" x="807" y="637.911"/><rect fill="#F8F8F8" height="5" style="stroke: #383838; stroke-width: 1.0;" width="10" x="807" y="657.3954"/><text fill="#000000" font-family="Tahoma, sans-serif" font-size="12" lengthAdjust="spacingAndGlyphs" textLength="128" x="822" y="654.9169">arkit-encoder-decoder</text><!--entity react--><rect fill="#F8F8F8" height="34.4844" rx="2" ry="2" style="stroke: #383838; stroke-width: 1.0;" width="49" x="861.5" y="578.911"/><rect fill="#F8F8F8" height="5" style="stroke: #383838; stroke-width: 1.0;" width="10" x="856.5" y="583.911"/><rect fill="#F8F8F8" height="5" style="stroke: #383838; stroke-width: 1.0;" width="10" x="856.5" y="603.3954"/><text fill="#000000" font-family="Tahoma, sans-serif" font-size="12" lengthAdjust="spacingAndGlyphs" textLength="29" x="871.5" y="600.9169">react</text><!--entity react-dom--><rect fill="#F8F8F8" height="34.4844" rx="2" ry="2" style="stroke: #383838; stroke-width: 1.0;" width="80" x="846" y="254.91"/><rect fill="#F8F8F8" height="5" style="stroke: #383838; stroke-width: 1.0;" width="10" x="841" y="259.91"/><rect fill="#F8F8F8" height="5" style="stroke: #383838; stroke-width: 1.0;" width="10" x="841" y="279.3944"/><text fill="#000000" font-family="Tahoma, sans-serif" font-size="12" lengthAdjust="spacingAndGlyphs" textLength="60" x="856" y="276.9159">react-dom</text><!--entity react-github-btn--><rect fill="#F8F8F8" height="34.4844" rx="2" ry="2" style="stroke: #383838; stroke-width: 1.0;" width="112" x="830" y="524.911"/><rect fill="#F8F8F8" height="5" style="stroke: #383838; stroke-width: 1.0;" width="10" x="825" y="529.911"/><rect fill="#F8F8F8" height="5" style="stroke: #383838; stroke-width: 1.0;" width="10" x="825" y="549.3954"/><text fill="#000000" font-family="Tahoma, sans-serif" font-size="12" lengthAdjust="spacingAndGlyphs" textLength="92" x="840" y="546.9169">react-github-btn</text><!--entity react-loader-spinner--><rect fill="#F8F8F8" height="34.4844" rx="2" ry="2" style="stroke: #383838; stroke-width: 1.0;" width="137" x="817.5" y="794.911"/><rect fill="#F8F8F8" height="5" style="stroke: #383838; stroke-width: 1.0;" width="10" x="812.5" y="799.911"/><rect fill="#F8F8F8" height="5" style="stroke: #383838; stroke-width: 1.0;" width="10" x="812.5" y="819.3954"/><text fill="#000000" font-family="Tahoma, sans-serif" font-size="12" lengthAdjust="spacingAndGlyphs" textLength="117" x="827.5" y="816.9169">react-loader-spinner</text><!--entity react-markdown--><rect fill="#F8F8F8" height="34.4844" rx="2" ry="2" style="stroke: #383838; stroke-width: 1.0;" width="113" x="829.5" y="848.911"/><rect fill="#F8F8F8" height="5" style="stroke: #383838; stroke-width: 1.0;" width="10" x="824.5" y="853.911"/><rect fill="#F8F8F8" height="5" style="stroke: #383838; stroke-width: 1.0;" width="10" x="824.5" y="873.3954"/><text fill="#000000" font-family="Tahoma, sans-serif" font-size="12" lengthAdjust="spacingAndGlyphs" textLength="93" x="839.5" y="870.9169">react-markdown</text><!--entity react-monaco-editor--><rect fill="#F8F8F8" height="34.4844" rx="2" ry="2" style="stroke: #383838; stroke-width: 1.0;" width="140" x="816" y="470.911"/><rect fill="#F8F8F8" height="5" style="stroke: #383838; stroke-width: 1.0;" width="10" x="811" y="475.911"/><rect fill="#F8F8F8" height="5" style="stroke: #383838; stroke-width: 1.0;" width="10" x="811" y="495.3954"/><text fill="#000000" font-family="Tahoma, sans-serif" font-size="12" lengthAdjust="spacingAndGlyphs" textLength="120" x="826" y="492.9169">react-monaco-editor</text><!--entity react-redux--><rect fill="#F8F8F8" height="34.4844" rx="2" ry="2" style="stroke: #383838; stroke-width: 1.0;" width="85" x="843.5" y="686.911"/><rect fill="#F8F8F8" height="5" style="stroke: #383838; stroke-width: 1.0;" width="10" x="838.5" y="691.911"/><rect fill="#F8F8F8" height="5" style="stroke: #383838; stroke-width: 1.0;" width="10" x="838.5" y="711.3954"/><text fill="#000000" font-family="Tahoma, sans-serif" font-size="12" lengthAdjust="spacingAndGlyphs" textLength="65" x="853.5" y="708.9169">react-redux</text><!--entity redux--><rect fill="#F8F8F8" height="34.4844" rx="2" ry="2" style="stroke: #383838; stroke-width: 1.0;" width="51" x="860.5" y="362.91"/><rect fill="#F8F8F8" height="5" style="stroke: #383838; stroke-width: 1.0;" width="10" x="855.5" y="367.91"/><rect fill="#F8F8F8" height="5" style="stroke: #383838; stroke-width: 1.0;" width="10" x="855.5" y="387.3944"/><text fill="#000000" font-family="Tahoma, sans-serif" font-size="12" lengthAdjust="spacingAndGlyphs" textLength="31" x="870.5" y="384.9159">redux</text><!--entity redux-persist--><rect fill="#F8F8F8" height="34.4844" rx="2" ry="2" style="stroke: #383838; stroke-width: 1.0;" width="95" x="838.5" y="416.91"/><rect fill="#F8F8F8" height="5" style="stroke: #383838; stroke-width: 1.0;" width="10" x="833.5" y="421.91"/><rect fill="#F8F8F8" height="5" style="stroke: #383838; stroke-width: 1.0;" width="10" x="833.5" y="441.3944"/><text fill="#000000" font-family="Tahoma, sans-serif" font-size="12" lengthAdjust="spacingAndGlyphs" textLength="75" x="848.5" y="438.9159">redux-persist</text><!--entity styled-components--><rect fill="#F8F8F8" height="34.4844" rx="2" ry="2" style="stroke: #383838; stroke-width: 1.0;" width="132" x="820" y="740.911"/><rect fill="#F8F8F8" height="5" style="stroke: #383838; stroke-width: 1.0;" width="10" x="815" y="745.911"/><rect fill="#F8F8F8" height="5" style="stroke: #383838; stroke-width: 1.0;" width="10" x="815" y="765.3954"/><text fill="#000000" font-family="Tahoma, sans-serif" font-size="12" lengthAdjust="spacingAndGlyphs" textLength="112" x="830" y="762.9169">styled-components</text><!--entity styled-reset--><rect fill="#F8F8F8" height="34.4844" rx="2" ry="2" style="stroke: #383838; stroke-width: 1.0;" width="88" x="842" y="308.91"/><rect fill="#F8F8F8" height="5" style="stroke: #383838; stroke-width: 1.0;" width="10" x="837" y="313.91"/><rect fill="#F8F8F8" height="5" style="stroke: #383838; stroke-width: 1.0;" width="10" x="837" y="333.3944"/><text fill="#000000" font-family="Tahoma, sans-serif" font-size="12" lengthAdjust="spacingAndGlyphs" textLength="68" x="852" y="330.9159">styled-reset</text><!--entity _actions--><rect fill="#F8F8F8" height="34.4844" rx="2" ry="2" style="stroke: #000000; stroke-width: 0.5;" width="63" x="453" y="614.911"/><text fill="#000000" font-family="Tahoma, sans-serif" font-size="12" lengthAdjust="spacingAndGlyphs" textLength="43" x="463" y="636.9169">actions</text><!--entity _app--><rect fill="#F8F8F8" height="34.4844" rx="2" ry="2" style="stroke: #000000; stroke-width: 0.5;" width="41" x="32.5" y="892.911"/><text fill="#000000" font-family="Tahoma, sans-serif" font-size="12" lengthAdjust="spacingAndGlyphs" textLength="21" x="42.5" y="914.9169">app</text><!--entity _container--><rect fill="#F8F8F8" height="34.4844" rx="2" ry="2" style="stroke: #000000; stroke-width: 0.5;" width="74" x="591.5" y="710.911"/><text fill="#000000" font-family="Tahoma, sans-serif" font-size="12" lengthAdjust="spacingAndGlyphs" textLength="54" x="601.5" y="732.9169">container</text><!--entity _editor_index--><rect fill="#F8F8F8" height="34.4844" rx="2" ry="2" style="stroke: #000000; stroke-width: 0.5;" width="88" x="140" y="577.911"/><text fill="#000000" font-family="Tahoma, sans-serif" font-size="12" lengthAdjust="spacingAndGlyphs" textLength="68" x="150" y="599.9169">editor/index</text><!--entity _logo--><rect fill="#F8F8F8" height="34.4844" rx="2" ry="2" style="stroke: #000000; stroke-width: 0.5;" width="46" x="605.5" y="1235.911"/><text fill="#000000" font-family="Tahoma, sans-serif" font-size="12" lengthAdjust="spacingAndGlyphs" textLength="26" x="615.5" y="1257.9169">logo</text><ellipse cx="335.189" cy="662.7488" fill="#F8F8F8" rx="67.189" ry="15.8378" style="stroke: #383838; stroke-width: 0.5;"/><text fill="#000000" font-family="Tahoma, sans-serif" font-size="12" lengthAdjust="spacingAndGlyphs" textLength="106" x="282.189" y="666.491">plantuml-language</text><!--entity _preview--><rect fill="#F8F8F8" height="34.4844" rx="2" ry="2" style="stroke: #000000; stroke-width: 0.5;" width="63" x="152.5" y="962.911"/><text fill="#000000" font-family="Tahoma, sans-serif" font-size="12" lengthAdjust="spacingAndGlyphs" textLength="43" x="162.5" y="984.9169">preview</text><!--entity _readme--><rect fill="#F8F8F8" height="34.4844" rx="2" ry="2" style="stroke: #000000; stroke-width: 0.5;" width="63" x="597" y="1343.9113"/><text fill="#000000" font-family="Tahoma, sans-serif" font-size="12" lengthAdjust="spacingAndGlyphs" textLength="43" x="607" y="1365.9172">readme</text><!--entity _reducer--><rect fill="#F8F8F8" height="34.4844" rx="2" ry="2" style="stroke: #000000; stroke-width: 0.5;" width="63" x="597" y="560.911"/><text fill="#000000" font-family="Tahoma, sans-serif" font-size="12" lengthAdjust="spacingAndGlyphs" textLength="43" x="607" y="582.9169">reducer</text><!--entity _responsive_image--><rect fill="#F8F8F8" height="34.4844" rx="2" ry="2" style="stroke: #000000; stroke-width: 0.5;" width="123" x="567" y="1124.911"/><text fill="#000000" font-family="Tahoma, sans-serif" font-size="12" lengthAdjust="spacingAndGlyphs" textLength="103" x="577" y="1146.9169">responsive-image</text><!--entity _section--><rect fill="#F8F8F8" height="34.4844" rx="2" ry="2" style="stroke: #000000; stroke-width: 0.5;" width="63" x="597" y="1289.911"/><text fill="#000000" font-family="Tahoma, sans-serif" font-size="12" lengthAdjust="spacingAndGlyphs" textLength="43" x="607" y="1311.9169">section</text><!--entity _spinner--><rect fill="#F8F8F8" height="34.4844" rx="2" ry="2" style="stroke: #000000; stroke-width: 0.5;" width="62" x="597.5" y="1178.911"/><text fill="#000000" font-family="Tahoma, sans-serif" font-size="12" lengthAdjust="spacingAndGlyphs" textLength="42" x="607.5" y="1200.9169">spinner</text><ellipse cx="52.8406" cy="254.152" fill="#F8F8F8" rx="46.8406" ry="13.242" style="stroke: #383838; stroke-width: 0.5;"/><text fill="#000000" font-family="Tahoma, sans-serif" font-size="12" font-weight="bold" lengthAdjust="spacingAndGlyphs" textLength="62" x="21.8406" y="257.8942">src/index</text><!--entity _stars--><rect fill="#F8F8F8" height="34.4844" rx="2" ry="2" style="stroke: #000000; stroke-width: 0.5;" width="49" x="604" y="494.911"/><text fill="#000000" font-family="Tahoma, sans-serif" font-size="12" lengthAdjust="spacingAndGlyphs" textLength="29" x="614" y="516.9169">stars</text><!--entity _store_index--><rect fill="#F8F8F8" height="34.4844" rx="2" ry="2" style="stroke: #000000; stroke-width: 0.5;" width="85" x="442" y="173.91"/><text fill="#000000" font-family="Tahoma, sans-serif" font-size="12" lengthAdjust="spacingAndGlyphs" textLength="65" x="452" y="195.9159">store/index</text><!--entity _switcher--><rect fill="#F8F8F8" height="34.4844" rx="2" ry="2" style="stroke: #000000; stroke-width: 0.5;" width="68" x="301" y="866.911"/><text fill="#000000" font-family="Tahoma, sans-serif" font-size="12" lengthAdjust="spacingAndGlyphs" textLength="48" x="311" y="888.9169">switcher</text><!--entity _theme--><rect fill="#F8F8F8" height="34.4844" rx="2" ry="2" style="stroke: #000000; stroke-width: 0.5;" width="56" x="600.5" y="236.91"/><text fill="#000000" font-family="Tahoma, sans-serif" font-size="12" lengthAdjust="spacingAndGlyphs" textLength="36" x="610.5" y="258.9159">theme</text><!--link _actions to arkit-encoder-decoder--><path d="M516.185,633.294 C577.72,636.066 717.884,642.382 806.608,646.379 " fill="none" id="_actions-arkit-encoder-decoder" style="stroke: #000000; stroke-width: 0.55;"/><polygon fill="#000000" points="811.848,646.615,803.0378,642.2127,806.8531,646.3893,802.6766,650.2046,811.848,646.615" style="stroke: #000000; stroke-width: 0.55;"/><!--link _actions to _reducer--><path d="M516.312,626.503 C539.253,619.31 570.541,607.467 594.084,597.094 " fill="none" id="_actions-_reducer" style="stroke: #000000; stroke-width: 0.55;"/><polygon fill="#000000" points="598.684,595.04,588.8352,595.0543,594.1179,597.0773,592.0949,602.3601,598.684,595.04" style="stroke: #000000; stroke-width: 0.55;"/><!--link _reducer to _actions--><path d="M596.841,583.271 C573.864,590.467 542.45,602.356 518.847,612.759 " fill="none" id="_reducer-_actions" style="stroke: #000000; stroke-width: 0.55;"/><polygon fill="#000000" points="514.236,614.818,524.0848,614.8011,518.8016,612.7795,520.8232,607.4962,514.236,614.818" style="stroke: #000000; stroke-width: 0.55;"/><!--link _app to _container--><path d="M73.7722,903.112 C91.1778,897.158 117.226,888.324 140,880.911 C304.992,827.209 502.46,766.248 586.451,740.474 " fill="none" id="_app-_container" style="stroke: #000000; stroke-width: 0.55;"/><polygon fill="#000000" points="591.334,738.976,581.5568,737.7902,586.5537,740.4418,583.9021,745.4387,591.334,738.976" style="stroke: #000000; stroke-width: 0.55;"/><!--link _app to _editor_index--><path d="M60.6222,892.758 C74.8165,856.109 109.373,767.51 140,693.911 C151.13,667.164 164.5,636.615 173.345,616.612 " fill="none" id="_app-_editor_index" style="stroke: #000000; stroke-width: 0.55;"/><polygon fill="#000000" points="175.382,612.012,168.0813,618.6226,173.3581,616.5841,175.3966,621.8608,175.382,612.012" style="stroke: #000000; stroke-width: 0.55;"/><!--link _app to _logo--><path d="M56.0289,927.034 C63.5439,987.293 91.8744,1188.027 140,1226.911 C211.092,1284.352 508.405,1263.462 600.311,1255.455 " fill="none" id="_app-_logo" style="stroke: #000000; stroke-width: 0.55;"/><polygon fill="#000000" points="605.301,1255.016,595.9849,1251.8207,600.3203,1255.4545,596.6865,1259.7899,605.301,1255.016" style="stroke: #000000; stroke-width: 0.55;"/><!--link _app to _preview--><path d="M73.5923,920.543 C93.1514,931.156 123.648,947.705 147.48,960.637 " fill="none" id="_app-_preview" style="stroke: #000000; stroke-width: 0.55;"/><polygon fill="#000000" points="152.153,963.172,146.152,955.3625,147.7588,960.7864,142.335,962.3932,152.153,963.172" style="stroke: #000000; stroke-width: 0.55;"/><!--link _app to react--><path d="M73.8427,912.46 C127.362,918.8 278.944,933.226 402,910.911 C536.51,886.52 586.82,892.588 690,802.911 C724.375,773.035 752.354,651.26 788,622.911 C807.423,607.464 835.135,600.846 855.969,598.016 " fill="none" id="_app-react" style="stroke: #000000; stroke-width: 0.55;"/><polygon fill="#000000" points="861.109,597.374,851.6825,594.5209,856.1476,597.994,852.6745,602.4591,861.109,597.374" style="stroke: #000000; stroke-width: 0.55;"/><!--link _app to react-redux--><path d="M63.5567,927.239 C77.1872,950.035 104.5369,989.266 140,1006.911 C375.375,1124.027 518.631,1186.884 731,1031.911 C779.254,996.699 760.068,962.443 772,903.911 C779.712,866.081 763.253,760.546 788,730.911 C800.29,716.194 819.856,709.132 838.207,705.867 " fill="none" id="_app-react-redux" style="stroke: #000000; stroke-width: 0.55;"/><polygon fill="#000000" points="843.343,705.043,833.8233,702.5179,838.406,705.8344,835.0896,710.4171,843.343,705.043" style="stroke: #000000; stroke-width: 0.55;"/><!--link _app to _readme--><path d="M55.2761,927.215 C60.6862,995.579 84.0709,1245.629 140,1296.911 C268.619,1414.8448 502.689,1385.2389 591.777,1368.5243 " fill="none" id="_app-_readme" style="stroke: #000000; stroke-width: 0.55;"/><polygon fill="#000000" points="596.927,1367.542,587.3368,1365.2997,592.0156,1368.4791,588.8362,1373.158,596.927,1367.542" style="stroke: #000000; stroke-width: 0.55;"/><!--link _app to _reducer--><path d="M73.6316,896.051 C90.9471,883.92 116.942,865.937 140,850.911 C254.701,776.165 316.497,795.835 402,688.911 C436.059,646.32 397.595,604.57 442,572.911 C485.808,541.678 551.402,553.323 591.714,565.194 " fill="none" id="_app-_reducer" style="stroke: #000000; stroke-width: 0.55;"/><polygon fill="#000000" points="596.986,566.791,589.5313,560.3546,592.2005,565.3421,587.213,568.0113,596.986,566.791" style="stroke: #000000; stroke-width: 0.55;"/><!--link _app to _section--><path d="M55.6223,926.923 C62.0819,990.817 88.1739,1215.096 140,1259.911 C207.372,1318.17 490.963,1312.552 591.761,1308.589 " fill="none" id="_app-_section" style="stroke: #000000; stroke-width: 0.55;"/><polygon fill="#000000" points="596.994,1308.378,587.8402,1304.7438,591.9981,1308.5794,588.1625,1312.7373,596.994,1308.378" style="stroke: #000000; stroke-width: 0.55;"/><!--link _app to _stars--><path d="M56.1492,892.801 C64.2844,830.552 95.0249,617.213 140,567.911 C261.172,435.083 513.877,483.202 598.891,504.198 " fill="none" id="_app-_stars" style="stroke: #000000; stroke-width: 0.55;"/><polygon fill="#000000" points="603.77,505.418,596.011,499.3519,598.9197,504.2036,594.068,507.1124,603.77,505.418" style="stroke: #000000; stroke-width: 0.55;"/><!--link _app to _switcher--><path d="M73.6891,908.083 C119.727,903.808 235.078,893.097 295.586,887.478 " fill="none" id="_app-_switcher" style="stroke: #000000; stroke-width: 0.55;"/><polygon fill="#000000" points="300.911,886.984,291.5794,883.8343,295.9325,887.4469,292.3199,891.8,300.911,886.984" style="stroke: #000000; stroke-width: 0.55;"/><!--link _container to styled-components--><path d="M654.188,744.963 C673.756,757.387 702.323,773.175 730,779.911 C762.079,787.719 798.614,783.164 828.153,776.22 " fill="none" id="_container-styled-components" style="stroke: #000000; stroke-width: 0.55;"/><polygon fill="#000000" points="833.207,774.993,823.5172,773.2301,828.3482,776.173,825.4053,781.0041,833.207,774.993" style="stroke: #000000; stroke-width: 0.55;"/><!--link _editor_index to _actions--><path d="M228.31,591.498 C272.465,589.043 342.707,587.979 402,599.911 C417.665,603.064 434.206,609.023 448.264,614.952 " fill="none" id="_editor_index-_actions" style="stroke: #000000; stroke-width: 0.55;"/><polygon fill="#000000" points="452.931,616.957,446.2414,609.7286,448.3372,614.9829,443.0829,617.0787,452.931,616.957" style="stroke: #000000; stroke-width: 0.55;"/><!--link _editor_index to plantuml-language--><path d="M222.599,612.071 C245.779,622.649 275.335,636.138 298.178,646.563 " fill="none" id="_editor_index-plantuml-language" style="stroke: #000000; stroke-width: 0.55;"/><polygon fill="#000000" points="302.946,648.739,296.4189,641.3636,298.3973,646.6632,293.0976,648.6416,302.946,648.739" style="stroke: #000000; stroke-width: 0.55;"/><!--link _editor_index to react-monaco-editor--><path d="M221.377,577.754 C223.69,576.224 225.921,574.608 228,572.911 C250.048,554.918 243.18,536.835 268,522.911 C448.21,421.817 523.56,479.761 730,470.911 C756.37,469.781 785.137,471.978 810.65,475.131 " fill="none" id="_editor_index-react-monaco-editor" style="stroke: #000000; stroke-width: 0.55;"/><polygon fill="#000000" points="815.707,475.774,807.2827,470.6718,810.7469,475.144,806.2747,478.6081,815.707,475.774" style="stroke: #000000; stroke-width: 0.55;"/><!--link _editor_index to react-redux--><path d="M228.054,599.24 C272.612,604.636 343.722,615.835 402,636.911 C421.08,643.812 422.629,652.876 442,658.911 C515.052,681.672 740.019,696.14 838.275,701.531 " fill="none" id="_editor_index-react-redux" style="stroke: #000000; stroke-width: 0.55;"/><polygon fill="#000000" points="843.426,701.811,834.6564,697.3283,838.4334,701.5396,834.2221,705.3166,843.426,701.811" style="stroke: #000000; stroke-width: 0.55;"/><!--link _editor_index to _reducer--><path d="M219.666,577.867 C281.66,549.618 415.473,498.768 527,525.911 C552.731,532.174 579.231,546.26 598.554,558.193 " fill="none" id="_editor_index-_reducer" style="stroke: #000000; stroke-width: 0.55;"/><polygon fill="#000000" points="602.812,560.86,597.3064,552.6937,598.5741,558.2067,593.0611,559.4743,602.812,560.86" style="stroke: #000000; stroke-width: 0.55;"/><!--link _logo to styled-components--><path d="M651.752,1244.485 C663.77,1239.315 678.465,1231.95 690,1222.911 C734.434,1188.092 751.358,1178.453 772,1125.911 C785.87,1090.607 764.354,814.569 788,784.911 C794.993,776.14 804.576,770.07 815.009,765.898 " fill="none" id="_logo-styled-components" style="stroke: #000000; stroke-width: 0.55;"/><polygon fill="#000000" points="819.857,764.111,810.0289,763.4719,815.1658,765.8409,812.7968,770.9778,819.857,764.111" style="stroke: #000000; stroke-width: 0.55;"/><!--link _preview to _actions--><path d="M192.294,962.637 C204.302,936.191 230.678,885.713 268,856.911 C317.964,818.353 355.367,852.439 402,809.911 C402.393,809.553 451.978,700.974 473.604,653.596 " fill="none" id="_preview-_actions" style="stroke: #000000; stroke-width: 0.55;"/><polygon fill="#000000" points="475.73,648.938,468.3546,655.4651,473.6542,653.4867,475.6326,658.7864,475.73,648.938" style="stroke: #000000; stroke-width: 0.55;"/><!--link _preview to react--><path d="M215.922,980.897 C276.806,981.998 415.949,980.345 527,947.911 C644.535,913.585 704.079,923.791 772,821.911 C796.609,784.998 759.768,657.134 788,622.911 C804.374,603.063 833.989,597.113 856.203,595.641 " fill="none" id="_preview-react" style="stroke: #000000; stroke-width: 0.55;"/><polygon fill="#000000" points="861.393,595.369,852.1962,591.8451,856.3998,595.6304,852.6145,599.8341,861.393,595.369" style="stroke: #000000; stroke-width: 0.55;"/><!--link _preview to react-redux--><path d="M215.792,986.1 C269.772,996.393 385.106,1015.911 483.5,1015.911 C483.5,1015.911 483.5,1015.911 731,1015.911 C816.954,1015.911 755.819,911.328 772,826.911 C780.143,784.43 759.083,763.08 788,730.911 C800.712,716.771 820.133,709.772 838.267,706.4 " fill="none" id="_preview-react-redux" style="stroke: #000000; stroke-width: 0.55;"/><polygon fill="#000000" points="843.341,705.541,833.8004,703.0961,838.4109,706.3739,835.133,710.9843,843.341,705.541" style="stroke: #000000; stroke-width: 0.55;"/><!--link _preview to _reducer--><path d="M190.492,962.77 C201.289,931.108 227.782,862.526 268,816.911 C315.61,762.912 358.619,783.363 402,725.911 C436.131,680.71 398.608,641.315 442,604.911 C483.962,569.708 550.925,569.123 591.88,572.852 " fill="none" id="_preview-_reducer" style="stroke: #000000; stroke-width: 0.55;"/><polygon fill="#000000" points="596.988,573.352,588.4206,568.4941,592.0118,572.8648,587.6411,576.456,596.988,573.352" style="stroke: #000000; stroke-width: 0.55;"/><!--link _preview to _responsive_image--><path d="M208.747,997.146 C224.853,1008.231 246.963,1022.307 268,1031.911 C366.425,1076.85 488.124,1109.713 561.684,1127.297 " fill="none" id="_preview-_responsive_image" style="stroke: #000000; stroke-width: 0.55;"/><polygon fill="#000000" points="566.897,1128.536,559.067,1122.5617,562.0327,1127.3789,557.2156,1130.3446,566.897,1128.536" style="stroke: #000000; stroke-width: 0.55;"/><!--link _preview to _spinner--><path d="M194.091,997.274 C207.274,1020.786 233.896,1062.493 268,1085.911 C372.093,1157.388 524.165,1183.654 592.254,1192.222 " fill="none" id="_preview-_spinner" style="stroke: #000000; stroke-width: 0.55;"/><polygon fill="#000000" points="597.402,1192.856,588.9586,1187.7855,592.4395,1192.2446,587.9804,1195.7255,597.402,1192.856" style="stroke: #000000; stroke-width: 0.55;"/><!--link _readme to arkit--><path d="M648.997,1378.2583 C678.435,1402.2835 734.741,1439.556 772,1409.9113 C847.28,1350.0158 876.692,1030.099 883.418,942.245 " fill="none" id="_readme-arkit" style="stroke: #000000; stroke-width: 0.55;"/><polygon fill="#000000" points="883.811,937.037,879.146,945.711,883.4353,942.0229,887.1234,946.3121,883.811,937.037" style="stroke: #000000; stroke-width: 0.55;"/><!--link _readme to react--><path d="M660.068,1353.7554 C671.066,1349.6922 682.577,1343.4382 690,1333.9113 C755.162,1250.277 759.359,969.177 772,863.911 C775.2,837.266 771.067,643.731 788,622.911 C804.236,602.949 833.871,597.016 856.128,595.579 " fill="none" id="_readme-react" style="stroke: #000000; stroke-width: 0.55;"/><polygon fill="#000000" points="861.328,595.316,852.1373,591.7762,856.3344,595.5688,852.5418,599.766,861.328,595.316" style="stroke: #000000; stroke-width: 0.55;"/><!--link _readme to react-markdown--><path d="M660.169,1373.9139 C692.528,1385.3334 742.797,1396.1477 772,1367.9113 C809.964,1331.2046 755.352,934.418 788,892.911 C796.951,881.531 810.264,874.689 824.18,870.639 " fill="none" id="_readme-react-markdown" style="stroke: #000000; stroke-width: 0.55;"/><polygon fill="#000000" points="829.327,869.27,819.601,867.719,824.4952,870.5558,821.6584,875.45,829.327,869.27" style="stroke: #000000; stroke-width: 0.55;"/><!--link _readme to styled-components--><path d="M660.166,1352.2577 C670.658,1348.0837 681.804,1342.1444 690,1333.9113 C755.752,1267.861 751.934,1231.924 772,1140.911 C780.525,1102.245 763.346,815.895 788,784.911 C794.985,776.134 804.563,770.06 814.995,765.886 " fill="none" id="_readme-styled-components" style="stroke: #000000; stroke-width: 0.55;"/><polygon fill="#000000" points="819.842,764.099,810.0139,763.4599,815.1508,765.8289,812.7818,770.9658,819.842,764.099" style="stroke: #000000; stroke-width: 0.55;"/><!--link _reducer to arkit-encoder-decoder--><path d="M660.168,586.669 C692.086,595.772 743.527,610.409 788,622.911 C797.906,625.696 808.386,628.628 818.651,631.492 " fill="none" id="_reducer-arkit-encoder-decoder" style="stroke: #000000; stroke-width: 0.55;"/><polygon fill="#000000" points="823.67,632.892,816.0751,626.6216,818.8537,631.549,813.9263,634.3276,823.67,632.892" style="stroke: #000000; stroke-width: 0.55;"/><!--link _reducer to redux--><path d="M660.283,561.052 C670.321,554.801 681.15,547.195 690,538.911 C743.344,488.979 727.77,448.278 788,406.91 C808.058,393.14 834.983,386.36 855.377,383.04 " fill="none" id="_reducer-redux" style="stroke: #000000; stroke-width: 0.55;"/><polygon fill="#000000" points="860.413,382.27,850.9111,379.6788,855.4706,383.0271,852.1224,387.5866,860.413,382.27" style="stroke: #000000; stroke-width: 0.55;"/><!--link _reducer to redux-persist--><path d="M657.293,560.812 C667.706,554.194 679.542,546.415 690,538.911 C735.228,506.457 738.416,486.215 788,460.911 C801.989,453.773 818.106,448.319 833.135,444.247 " fill="none" id="_reducer-redux-persist" style="stroke: #000000; stroke-width: 0.55;"/><polygon fill="#000000" points="838.185,442.919,828.4637,441.339,833.3493,444.1904,830.498,449.0761,838.185,442.919" style="stroke: #000000; stroke-width: 0.55;"/><!--link _responsive_image to styled-components--><path d="M690.224,1146.929 C719.292,1145.804 752.034,1138.707 772,1115.911 C796.26,1088.213 765.025,813.685 788,784.911 C794.999,776.145 804.585,770.078 815.02,765.906 " fill="none" id="_responsive_image-styled-components" style="stroke: #000000; stroke-width: 0.55;"/><polygon fill="#000000" points="819.868,764.12,810.0401,763.4773,815.1762,765.8482,812.8052,770.9842,819.868,764.12" style="stroke: #000000; stroke-width: 0.55;"/><!--link _section to styled-components--><path d="M660.063,1297.7 C670.425,1293.492 681.513,1287.674 690,1279.911 C745.202,1229.42 751.514,1204.862 772,1132.911 C782.6,1095.683 763.883,815.188 788,784.911 C794.989,776.137 804.569,770.065 815.003,765.892 " fill="none" id="_section-styled-components" style="stroke: #000000; stroke-width: 0.55;"/><polygon fill="#000000" points="819.85,764.106,810.0219,763.4669,815.1588,765.8359,812.7898,770.9728,819.85,764.106" style="stroke: #000000; stroke-width: 0.55;"/><!--link _spinner to react-loader-spinner--><path d="M659.531,1207.769 C691.824,1218.319 742.492,1228.141 772,1199.911 C801.012,1172.156 763.01,870.337 788,838.911 C794.451,830.798 803.118,824.995 812.628,820.867 " fill="none" id="_spinner-react-loader-spinner" style="stroke: #000000; stroke-width: 0.55;"/><polygon fill="#000000" points="817.359,818.972,807.5169,818.6069,812.7178,820.8319,810.4928,826.0328,817.359,818.972" style="stroke: #000000; stroke-width: 0.55;"/><!--link _spinner to styled-components--><path d="M659.512,1189.739 C693.587,1180.951 747.603,1161.209 772,1120.911 C791.357,1088.939 764.689,814.127 788,784.911 C794.996,776.143 804.58,770.074 815.015,765.902 " fill="none" id="_spinner-styled-components" style="stroke: #000000; stroke-width: 0.55;"/><polygon fill="#000000" points="819.862,764.116,810.0341,763.4743,815.1703,765.8447,812.7999,770.9809,819.862,764.116" style="stroke: #000000; stroke-width: 0.55;"/><!--link <b>src/index</b> to _app--><path d="M53,267.01 C53,473.814 53,680.618 53,887.421 " fill="none" id="&lt;b&gt;src/index&lt;/b&gt;-_app" style="stroke: #000000; stroke-width: 1.0;"/><polygon fill="#000000" points="53,892.614,57,883.614,53,887.614,49,883.614,53,892.614" style="stroke: #000000; stroke-width: 1.0;"/><!--link <b>src/index</b> to react--><path d="M86.4516,263.17 C138.305,277.11 243.251,301.91 334,301.91 C334,301.91 334,301.91 629.5,301.91 C767.501,301.91 678.414,485.036 788,568.911 C807.707,583.995 835.388,590.652 856.138,593.591 " fill="none" id="&lt;b&gt;src/index&lt;/b&gt;-react" style="stroke: #000000; stroke-width: 1.0;"/><polygon fill="#000000" points="861.255,594.26,852.8512,589.1242,856.2974,593.6101,851.8114,597.0563,861.255,594.26" style="stroke: #000000; stroke-width: 1.0;"/><!--link <b>src/index</b> to react-dom--><path d="M60.4286,241.03 C86.7006,190.42 191.32,7.91 334,7.91 C334,7.91 334,7.91 731,7.91 C842.479,7.91 874.702,185.72 882.674,249.49 " fill="none" id="&lt;b&gt;src/index&lt;/b&gt;-react-dom" style="stroke: #000000; stroke-width: 1.0;"/><polygon fill="#000000" points="883.29,254.59,886.1812,245.1751,882.69,249.6261,878.239,246.135,883.29,254.59" style="stroke: #000000; stroke-width: 1.0;"/><!--link <b>src/index</b> to _store_index--><path d="M92.0339,246.43 C106.961,243.6 124.257,240.45 140,237.91 C245.838,220.84 370.677,204.77 436.847,196.57 " fill="none" id="&lt;b&gt;src/index&lt;/b&gt;-_store_index" style="stroke: #000000; stroke-width: 1.0;"/><polygon fill="#000000" points="441.897,195.95,432.4734,193.0872,436.935,196.5649,433.4572,201.0264,441.897,195.95" style="stroke: #000000; stroke-width: 1.0;"/><!--link <b>src/index</b> to _theme--><path d="M100.4461,253.91 C213.114,253.91 498.747,253.91 595.152,253.91 " fill="none" id="&lt;b&gt;src/index&lt;/b&gt;-_theme" style="stroke: #000000; stroke-width: 1.0;"/><polygon fill="#000000" points="600.414,253.91,591.414,249.91,595.414,253.91,591.414,257.91,600.414,253.91" style="stroke: #000000; stroke-width: 1.0;"/><!--link _stars to react--><path d="M653.211,521.058 C684.039,532.806 739.657,553.514 788,568.911 C810.685,576.137 836.687,583.316 856.056,588.453 " fill="none" id="_stars-react" style="stroke: #000000; stroke-width: 0.55;"/><polygon fill="#000000" points="861.335,589.847,853.6535,583.683,856.5005,588.5712,851.6123,591.4182,861.335,589.847" style="stroke: #000000; stroke-width: 0.55;"/><!--link _stars to react-github-btn--><path d="M653.175,501.946 C682.492,491.203 733.289,477.902 772,495.911 C782.01,500.568 778.713,508.943 788,514.911 C799.1,522.045 812.087,527.319 824.883,531.21 " fill="none" id="_stars-react-github-btn" style="stroke: #000000; stroke-width: 0.55;"/><polygon fill="#000000" points="829.964,532.687,822.44,526.3317,825.1631,531.29,820.2048,534.0131,829.964,532.687" style="stroke: #000000; stroke-width: 0.55;"/><!--link _stars to styled-components--><path d="M653.052,523.433 C665.166,530.205 679.541,539.648 690,550.911 C751.982,617.66 716.708,674.215 788,730.911 C795.995,737.27 805.395,742.132 815.141,745.85 " fill="none" id="_stars-styled-components" style="stroke: #000000; stroke-width: 0.55;"/><polygon fill="#000000" points="819.948,747.585,812.8402,740.7675,815.2449,745.8878,810.1246,748.2925,819.948,747.585" style="stroke: #000000; stroke-width: 0.55;"/><!--link _store_index to react--><path d="M527.145,190.76 C570.302,192.25 638.519,199.34 690,226.91 C762.539,265.76 755.152,312.37 772,392.91 C780.041,431.352 762.851,538.748 788,568.911 C804.478,588.674 834.076,594.637 856.259,596.135 " fill="none" id="_store_index-react" style="stroke: #000000; stroke-width: 0.55;"/><polygon fill="#000000" points="861.441,596.414,852.6688,591.9364,856.4482,596.1454,852.2391,599.9248,861.441,596.414" style="stroke: #000000; stroke-width: 0.55;"/><!--link _store_index to react-redux--><path d="M498.567,207.92 C532.313,252.22 624.325,375.31 690,484.911 C739.245,567.093 713.816,616.285 788,676.911 C802.106,688.44 820.803,695.056 838.016,698.85 " fill="none" id="_store_index-react-redux" style="stroke: #000000; stroke-width: 0.55;"/><polygon fill="#000000" points="843.303,699.939,835.2949,694.2058,838.4058,698.9304,833.6811,702.0413,843.303,699.939" style="stroke: #000000; stroke-width: 0.55;"/><!--link _store_index to _reducer--><path d="M485.179,207.93 C484.994,261.71 490.838,430.892 567,538.911 C573.495,548.122 582.922,555.684 592.409,561.615 " fill="none" id="_store_index-_reducer" style="stroke: #000000; stroke-width: 0.55;"/><polygon fill="#000000" points="596.763,564.225,591.1024,556.1654,592.4752,561.6532,586.9874,563.0259,596.763,564.225" style="stroke: #000000; stroke-width: 0.55;"/><!--link _store_index to redux--><path d="M491.722,173.65 C502.398,146.95 527.003,96.59 567,75.91 C631.748,42.44 663.829,47.61 731,75.91 C755.04,86.04 761.347,94.1 772,117.91 C793.375,165.69 754.939,312.33 788,352.91 C804.048,372.61 833.142,378.64 855.294,380.18 " fill="none" id="_store_index-redux" style="stroke: #000000; stroke-width: 0.55;"/><polygon fill="#000000" points="860.478,380.47,851.7132,375.978,855.4857,380.1933,851.2704,383.9658,860.478,380.47" style="stroke: #000000; stroke-width: 0.55;"/><!--link _store_index to redux-persist--><path d="M522.008,173.78 C535.79,168.19 551.813,162.7 567,159.91 C638.689,146.74 663.829,131.61 731,159.91 C755.04,170.04 761.229,178.15 772,201.91 C790.866,243.53 758.963,371.63 788,406.91 C799.073,420.37 816.231,427.437 833.056,431.055 " fill="none" id="_store_index-redux-persist" style="stroke: #000000; stroke-width: 0.55;"/><polygon fill="#000000" points="838.26,432.07,830.1922,426.421,833.3525,431.1128,828.6607,434.273,838.26,432.07" style="stroke: #000000; stroke-width: 0.55;"/><!--link _switcher to _actions--><path d="M369.22,874.236 C381.056,869.288 393.536,862.097 402,851.911 C445.001,800.167 416.467,768.158 442,705.911 C449.599,687.386 460.829,667.669 469.692,653.25 " fill="none" id="_switcher-_actions" style="stroke: #000000; stroke-width: 0.55;"/><polygon fill="#000000" points="472.36,648.952,464.2142,654.4879,469.7225,653.1998,471.0107,658.708,472.36,648.952" style="stroke: #000000; stroke-width: 0.55;"/><!--link _switcher to react--><path d="M369.313,873.052 C379.798,869.568 391.406,865.644 402,861.911 C410.049,859.075 683.175,760.035 690,754.911 C748.435,711.045 727.77,664.278 788,622.911 C808.324,608.953 835.698,602.179 856.184,598.911 " fill="none" id="_switcher-react" style="stroke: #000000; stroke-width: 0.55;"/><polygon fill="#000000" points="861.235,598.153,851.7414,595.5315,856.2903,598.8943,852.9275,603.4431,861.235,598.153" style="stroke: #000000; stroke-width: 0.55;"/><!--link _switcher to react-redux--><path d="M369.337,881.411 C466.277,873.834 743.053,849.925 772,821.911 C801.509,793.354 760.411,761.328 788,730.911 C800.774,716.828 820.205,709.838 838.33,706.456 " fill="none" id="_switcher-react-redux" style="stroke: #000000; stroke-width: 0.55;"/><polygon fill="#000000" points="843.4,705.595,833.8573,703.1586,838.4706,706.4323,835.1969,711.0456,843.4,705.595" style="stroke: #000000; stroke-width: 0.55;"/><!--link _switcher to _reducer--><path d="M369.034,872.148 C380.309,867.082 392.465,860.352 402,851.911 C426.553,830.174 422.262,816.098 442,789.911 C497.527,716.244 571.936,636.04 607.256,598.926 " fill="none" id="_switcher-_reducer" style="stroke: #000000; stroke-width: 0.55;"/><polygon fill="#000000" points="610.958,595.043,601.8517,598.7948,607.507,598.6611,607.6407,604.3164,610.958,595.043" style="stroke: #000000; stroke-width: 0.55;"/><!--link _switcher to styled-components--><path d="M369.038,890.667 C433.555,902.274 579.635,920.696 690,875.911 C745.076,853.562 736.124,813.924 788,784.911 C796.38,780.225 805.629,776.306 814.989,773.042 " fill="none" id="_switcher-styled-components" style="stroke: #000000; stroke-width: 0.55;"/><polygon fill="#000000" points="819.889,771.394,810.0834,770.4719,815.1499,772.988,812.6338,778.0545,819.889,771.394" style="stroke: #000000; stroke-width: 0.55;"/><!--link _theme to react--><path d="M656.716,255.73 C679.429,258.67 711.182,266.27 731,285.91 C772.832,327.36 759.835,354.29 772,411.91 C779.245,446.224 765.396,542.099 788,568.911 C804.585,588.584 834.168,594.56 856.317,596.086 " fill="none" id="_theme-react" style="stroke: #000000; stroke-width: 0.55;"/><polygon fill="#000000" points="861.491,596.372,852.7252,591.8818,856.4986,596.0963,852.2841,599.8697,861.491,596.372" style="stroke: #000000; stroke-width: 0.55;"/><!--link _theme to styled-components--><path d="M634.7,271.05 C660.044,354.38 770.124,713.896 788,730.911 C795.617,738.161 805.01,743.495 814.924,747.412 " fill="none" id="_theme-styled-components" style="stroke: #000000; stroke-width: 0.55;"/><polygon fill="#000000" points="819.828,749.224,812.7721,742.3527,815.1379,747.4911,809.9995,749.8569,819.828,749.224" style="stroke: #000000; stroke-width: 0.55;"/><!--link _theme to styled-reset--><path d="M640.622,236.72 C665.668,200.03 727.755,120.47 772,159.91 C795.209,180.6 767.804,275.27 788,298.91 C800.039,313 818.745,320.05 836.531,323.48 " fill="none" id="_theme-styled-reset" style="stroke: #000000; stroke-width: 0.55;"/><polygon fill="#000000" points="841.517,324.35,833.3428,318.8561,836.5921,323.4867,831.9615,326.736,841.517,324.35" style="stroke: #000000; stroke-width: 0.55;"/><script type="text/plantuml"><![CDATA[
@startuml

scale max 1920 width
left to right direction

skinparam nodesep 20
skinparam ranksep 40
skinparam monochrome true
skinparam shadowing false
skinparam defaultFontName Tahoma
skinparam defaultFontSize 12
skinparam roundCorner 4
skinparam dpi 150
skinparam arrowColor black
skinparam arrowThickness 0.55
skinparam packageTitleAlignment left

skinparam usecase {
  borderThickness 0.5
}

skinparam rectangle {
  borderThickness 0.5
}

skinparam component {
  borderThickness 1
}


rectangle "actions" as _actions
rectangle "app" as _app
rectangle "container" as _container
rectangle "editor/index" as _editor_index
rectangle "logo" as _logo
(plantuml-language)
rectangle "preview" as _preview
rectangle "readme" as _readme
rectangle "reducer" as _reducer
rectangle "responsive-image" as _responsive_image
rectangle "section" as _section
rectangle "spinner" as _spinner
(<b>src/index</b>)
rectangle "stars" as _stars
rectangle "store/index" as _store_index
rectangle "switcher" as _switcher
rectangle "theme" as _theme

package "Dependencies" {
  [arkit]
  [arkit-encoder-decoder]
  [react]
  [react-dom]
  [react-github-btn]
  [react-loader-spinner]
  [react-markdown]
  [react-monaco-editor]
  [react-redux]
  [redux]
  [redux-persist]
  [styled-components]
  [styled-reset]
}

_actions ----> [arkit-encoder-decoder]
_actions --> _reducer
_app --> _container
_app --> _editor_index
_app --> _logo
_app --> _preview
_app ----> [react]
_app ----> [react-redux]
_app --> _readme
_app --> _reducer
_app --> _section
_app --> _stars
_app --> _switcher
_container ----> [styled-components]
_editor_index ---> _actions
_editor_index --> (plantuml-language)
_editor_index ----> [react-monaco-editor]
_editor_index ----> [react-redux]
_editor_index ---> _reducer
_logo ----> [styled-components]
_preview ---> _actions
_preview ----> [react]
_preview ----> [react-redux]
_preview ---> _reducer
_preview --> _responsive_image
_preview --> _spinner
_readme ----> [arkit]
_readme ----> [react]
_readme ----> [react-markdown]
_readme ----> [styled-components]
_reducer --> _actions
_reducer ----> [arkit-encoder-decoder]
_reducer ----> [redux]
_reducer ----> [redux-persist]
_responsive_image ----> [styled-components]
_section ----> [styled-components]
_spinner ----> [react-loader-spinner]
_spinner ----> [styled-components]
(<b>src/index</b>) -[thickness=1]> _app
(<b>src/index</b>) ---[thickness=1]> [react]
(<b>src/index</b>) ---[thickness=1]> [react-dom]
(<b>src/index</b>) -[thickness=1]> _store_index
(<b>src/index</b>) -[thickness=1]> _theme
_stars ----> [react]
_stars ----> [react-github-btn]
_stars ----> [styled-components]
_store_index ----> [react]
_store_index ----> [react-redux]
_store_index --> _reducer
_store_index ----> [redux]
_store_index ----> [redux-persist]
_switcher --> _actions
_switcher ----> [react]
_switcher ----> [react-redux]
_switcher --> _reducer
_switcher ----> [styled-components]
_theme ----> [react]
_theme ----> [styled-components]
_theme ----> [styled-reset]

@enduml


' View and edit on https://arkit.pro
]]></script></g></svg>